G75*
%MOIN*%
%OFA0B0*%
%FSLAX25Y25*%
%IPPOS*%
%LPD*%
%AMOC8*
5,1,8,0,0,1.08239X$1,22.5*
%
%ADD10C,0.00000*%
%ADD11R,0.05906X0.01575*%
%ADD12C,0.04000*%
%ADD13C,0.00750*%
%ADD14C,0.02750*%
%ADD15C,0.02953*%
%ADD16R,0.06693X0.03150*%
%ADD17C,0.00875*%
%ADD18R,0.09000X0.04500*%
%ADD19R,0.05000X0.07000*%
%ADD20R,0.06500X0.06500*%
%ADD21C,0.06500*%
%ADD22R,0.03150X0.05512*%
%ADD23R,0.03150X0.07480*%
%ADD24C,0.06000*%
%ADD25R,0.07000X0.08000*%
%ADD26R,0.04000X0.04500*%
%ADD27C,0.01600*%
%ADD28C,0.02400*%
%ADD29C,0.03169*%
%ADD30C,0.01000*%
%ADD31C,0.01200*%
D10*
X0008000Y0002250D02*
X0008000Y0062211D01*
X0158201Y0062211D01*
X0158201Y0002250D01*
X0008000Y0002250D01*
X0024191Y0034376D02*
X0024193Y0034446D01*
X0024199Y0034516D01*
X0024209Y0034585D01*
X0024222Y0034654D01*
X0024240Y0034722D01*
X0024261Y0034789D01*
X0024286Y0034854D01*
X0024315Y0034918D01*
X0024347Y0034981D01*
X0024383Y0035041D01*
X0024422Y0035099D01*
X0024464Y0035155D01*
X0024509Y0035209D01*
X0024557Y0035260D01*
X0024608Y0035308D01*
X0024662Y0035353D01*
X0024718Y0035395D01*
X0024776Y0035434D01*
X0024836Y0035470D01*
X0024899Y0035502D01*
X0024963Y0035531D01*
X0025028Y0035556D01*
X0025095Y0035577D01*
X0025163Y0035595D01*
X0025232Y0035608D01*
X0025301Y0035618D01*
X0025371Y0035624D01*
X0025441Y0035626D01*
X0025511Y0035624D01*
X0025581Y0035618D01*
X0025650Y0035608D01*
X0025719Y0035595D01*
X0025787Y0035577D01*
X0025854Y0035556D01*
X0025919Y0035531D01*
X0025983Y0035502D01*
X0026046Y0035470D01*
X0026106Y0035434D01*
X0026164Y0035395D01*
X0026220Y0035353D01*
X0026274Y0035308D01*
X0026325Y0035260D01*
X0026373Y0035209D01*
X0026418Y0035155D01*
X0026460Y0035099D01*
X0026499Y0035041D01*
X0026535Y0034981D01*
X0026567Y0034918D01*
X0026596Y0034854D01*
X0026621Y0034789D01*
X0026642Y0034722D01*
X0026660Y0034654D01*
X0026673Y0034585D01*
X0026683Y0034516D01*
X0026689Y0034446D01*
X0026691Y0034376D01*
X0026689Y0034306D01*
X0026683Y0034236D01*
X0026673Y0034167D01*
X0026660Y0034098D01*
X0026642Y0034030D01*
X0026621Y0033963D01*
X0026596Y0033898D01*
X0026567Y0033834D01*
X0026535Y0033771D01*
X0026499Y0033711D01*
X0026460Y0033653D01*
X0026418Y0033597D01*
X0026373Y0033543D01*
X0026325Y0033492D01*
X0026274Y0033444D01*
X0026220Y0033399D01*
X0026164Y0033357D01*
X0026106Y0033318D01*
X0026046Y0033282D01*
X0025983Y0033250D01*
X0025919Y0033221D01*
X0025854Y0033196D01*
X0025787Y0033175D01*
X0025719Y0033157D01*
X0025650Y0033144D01*
X0025581Y0033134D01*
X0025511Y0033128D01*
X0025441Y0033126D01*
X0025371Y0033128D01*
X0025301Y0033134D01*
X0025232Y0033144D01*
X0025163Y0033157D01*
X0025095Y0033175D01*
X0025028Y0033196D01*
X0024963Y0033221D01*
X0024899Y0033250D01*
X0024836Y0033282D01*
X0024776Y0033318D01*
X0024718Y0033357D01*
X0024662Y0033399D01*
X0024608Y0033444D01*
X0024557Y0033492D01*
X0024509Y0033543D01*
X0024464Y0033597D01*
X0024422Y0033653D01*
X0024383Y0033711D01*
X0024347Y0033771D01*
X0024315Y0033834D01*
X0024286Y0033898D01*
X0024261Y0033963D01*
X0024240Y0034030D01*
X0024222Y0034098D01*
X0024209Y0034167D01*
X0024199Y0034236D01*
X0024193Y0034306D01*
X0024191Y0034376D01*
X0024191Y0050124D02*
X0024193Y0050194D01*
X0024199Y0050264D01*
X0024209Y0050333D01*
X0024222Y0050402D01*
X0024240Y0050470D01*
X0024261Y0050537D01*
X0024286Y0050602D01*
X0024315Y0050666D01*
X0024347Y0050729D01*
X0024383Y0050789D01*
X0024422Y0050847D01*
X0024464Y0050903D01*
X0024509Y0050957D01*
X0024557Y0051008D01*
X0024608Y0051056D01*
X0024662Y0051101D01*
X0024718Y0051143D01*
X0024776Y0051182D01*
X0024836Y0051218D01*
X0024899Y0051250D01*
X0024963Y0051279D01*
X0025028Y0051304D01*
X0025095Y0051325D01*
X0025163Y0051343D01*
X0025232Y0051356D01*
X0025301Y0051366D01*
X0025371Y0051372D01*
X0025441Y0051374D01*
X0025511Y0051372D01*
X0025581Y0051366D01*
X0025650Y0051356D01*
X0025719Y0051343D01*
X0025787Y0051325D01*
X0025854Y0051304D01*
X0025919Y0051279D01*
X0025983Y0051250D01*
X0026046Y0051218D01*
X0026106Y0051182D01*
X0026164Y0051143D01*
X0026220Y0051101D01*
X0026274Y0051056D01*
X0026325Y0051008D01*
X0026373Y0050957D01*
X0026418Y0050903D01*
X0026460Y0050847D01*
X0026499Y0050789D01*
X0026535Y0050729D01*
X0026567Y0050666D01*
X0026596Y0050602D01*
X0026621Y0050537D01*
X0026642Y0050470D01*
X0026660Y0050402D01*
X0026673Y0050333D01*
X0026683Y0050264D01*
X0026689Y0050194D01*
X0026691Y0050124D01*
X0026689Y0050054D01*
X0026683Y0049984D01*
X0026673Y0049915D01*
X0026660Y0049846D01*
X0026642Y0049778D01*
X0026621Y0049711D01*
X0026596Y0049646D01*
X0026567Y0049582D01*
X0026535Y0049519D01*
X0026499Y0049459D01*
X0026460Y0049401D01*
X0026418Y0049345D01*
X0026373Y0049291D01*
X0026325Y0049240D01*
X0026274Y0049192D01*
X0026220Y0049147D01*
X0026164Y0049105D01*
X0026106Y0049066D01*
X0026046Y0049030D01*
X0025983Y0048998D01*
X0025919Y0048969D01*
X0025854Y0048944D01*
X0025787Y0048923D01*
X0025719Y0048905D01*
X0025650Y0048892D01*
X0025581Y0048882D01*
X0025511Y0048876D01*
X0025441Y0048874D01*
X0025371Y0048876D01*
X0025301Y0048882D01*
X0025232Y0048892D01*
X0025163Y0048905D01*
X0025095Y0048923D01*
X0025028Y0048944D01*
X0024963Y0048969D01*
X0024899Y0048998D01*
X0024836Y0049030D01*
X0024776Y0049066D01*
X0024718Y0049105D01*
X0024662Y0049147D01*
X0024608Y0049192D01*
X0024557Y0049240D01*
X0024509Y0049291D01*
X0024464Y0049345D01*
X0024422Y0049401D01*
X0024383Y0049459D01*
X0024347Y0049519D01*
X0024315Y0049582D01*
X0024286Y0049646D01*
X0024261Y0049711D01*
X0024240Y0049778D01*
X0024222Y0049846D01*
X0024209Y0049915D01*
X0024199Y0049984D01*
X0024193Y0050054D01*
X0024191Y0050124D01*
D11*
X0054728Y0036016D03*
X0054728Y0033457D03*
X0054728Y0030898D03*
X0054728Y0028339D03*
X0054728Y0025780D03*
X0054728Y0023220D03*
X0054728Y0020661D03*
X0054728Y0018102D03*
X0054728Y0015543D03*
X0054728Y0012984D03*
X0083272Y0012984D03*
X0083272Y0015543D03*
X0083272Y0018102D03*
X0083272Y0020661D03*
X0083272Y0023220D03*
X0083272Y0025780D03*
X0083272Y0028339D03*
X0083272Y0030898D03*
X0083272Y0033457D03*
X0083272Y0036016D03*
D12*
X0017500Y0029550D02*
X0013500Y0029550D01*
X0013500Y0054950D02*
X0017500Y0054950D01*
D13*
X0029641Y0047743D02*
X0029641Y0046993D01*
X0024391Y0046993D01*
X0024391Y0047743D01*
X0029641Y0047743D01*
X0029641Y0047742D02*
X0024391Y0047742D01*
X0029641Y0045184D02*
X0029641Y0044434D01*
X0024391Y0044434D01*
X0024391Y0045184D01*
X0029641Y0045184D01*
X0029641Y0045183D02*
X0024391Y0045183D01*
X0029641Y0042625D02*
X0029641Y0041875D01*
X0024391Y0041875D01*
X0024391Y0042625D01*
X0029641Y0042625D01*
X0029641Y0042624D02*
X0024391Y0042624D01*
X0029641Y0040066D02*
X0029641Y0039316D01*
X0024391Y0039316D01*
X0024391Y0040066D01*
X0029641Y0040066D01*
X0029641Y0040065D02*
X0024391Y0040065D01*
X0029641Y0037507D02*
X0029641Y0036757D01*
X0024391Y0036757D01*
X0024391Y0037507D01*
X0029641Y0037507D01*
X0029641Y0037506D02*
X0024391Y0037506D01*
D14*
X0024944Y0027090D02*
X0027694Y0027090D01*
X0024944Y0027090D02*
X0024944Y0030638D01*
X0027694Y0030638D01*
X0027694Y0027090D01*
X0027694Y0029839D02*
X0024944Y0029839D01*
X0024944Y0053862D02*
X0027694Y0053862D01*
X0024944Y0053862D02*
X0024944Y0057410D01*
X0027694Y0057410D01*
X0027694Y0053862D01*
X0027694Y0056611D02*
X0024944Y0056611D01*
D15*
X0012743Y0047664D02*
X0012743Y0044710D01*
X0012743Y0047664D02*
X0015697Y0047664D01*
X0015697Y0044710D01*
X0012743Y0044710D01*
X0012743Y0047662D02*
X0015697Y0047662D01*
X0012743Y0039790D02*
X0012743Y0036836D01*
X0012743Y0039790D02*
X0015697Y0039790D01*
X0015697Y0036836D01*
X0012743Y0036836D01*
X0012743Y0039788D02*
X0015697Y0039788D01*
D16*
X0138250Y0021943D03*
X0138250Y0008557D03*
D17*
X0130063Y0008687D02*
X0127437Y0008687D01*
X0127437Y0012813D01*
X0130063Y0012813D01*
X0130063Y0008687D01*
X0130063Y0009561D02*
X0127437Y0009561D01*
X0127437Y0010435D02*
X0130063Y0010435D01*
X0130063Y0011309D02*
X0127437Y0011309D01*
X0127437Y0012183D02*
X0130063Y0012183D01*
X0123063Y0008687D02*
X0120437Y0008687D01*
X0120437Y0012813D01*
X0123063Y0012813D01*
X0123063Y0008687D01*
X0123063Y0009561D02*
X0120437Y0009561D01*
X0120437Y0010435D02*
X0123063Y0010435D01*
X0123063Y0011309D02*
X0120437Y0011309D01*
X0120437Y0012183D02*
X0123063Y0012183D01*
X0116063Y0008687D02*
X0113437Y0008687D01*
X0113437Y0012813D01*
X0116063Y0012813D01*
X0116063Y0008687D01*
X0116063Y0009561D02*
X0113437Y0009561D01*
X0113437Y0010435D02*
X0116063Y0010435D01*
X0116063Y0011309D02*
X0113437Y0011309D01*
X0113437Y0012183D02*
X0116063Y0012183D01*
X0109063Y0008687D02*
X0106437Y0008687D01*
X0106437Y0012813D01*
X0109063Y0012813D01*
X0109063Y0008687D01*
X0109063Y0009561D02*
X0106437Y0009561D01*
X0106437Y0010435D02*
X0109063Y0010435D01*
X0109063Y0011309D02*
X0106437Y0011309D01*
X0106437Y0012183D02*
X0109063Y0012183D01*
X0102063Y0008687D02*
X0099437Y0008687D01*
X0099437Y0012813D01*
X0102063Y0012813D01*
X0102063Y0008687D01*
X0102063Y0009561D02*
X0099437Y0009561D01*
X0099437Y0010435D02*
X0102063Y0010435D01*
X0102063Y0011309D02*
X0099437Y0011309D01*
X0099437Y0012183D02*
X0102063Y0012183D01*
X0095063Y0008687D02*
X0092437Y0008687D01*
X0092437Y0012813D01*
X0095063Y0012813D01*
X0095063Y0008687D01*
X0095063Y0009561D02*
X0092437Y0009561D01*
X0092437Y0010435D02*
X0095063Y0010435D01*
X0095063Y0011309D02*
X0092437Y0011309D01*
X0092437Y0012183D02*
X0095063Y0012183D01*
X0095563Y0019313D02*
X0092937Y0019313D01*
X0095563Y0019313D02*
X0095563Y0016687D01*
X0092937Y0016687D01*
X0092937Y0019313D01*
X0092937Y0017561D02*
X0095563Y0017561D01*
X0095563Y0018435D02*
X0092937Y0018435D01*
X0092937Y0019309D02*
X0095563Y0019309D01*
X0098937Y0019313D02*
X0101563Y0019313D01*
X0101563Y0016687D01*
X0098937Y0016687D01*
X0098937Y0019313D01*
X0098937Y0017561D02*
X0101563Y0017561D01*
X0101563Y0018435D02*
X0098937Y0018435D01*
X0098937Y0019309D02*
X0101563Y0019309D01*
X0107187Y0019313D02*
X0109813Y0019313D01*
X0109813Y0016687D01*
X0107187Y0016687D01*
X0107187Y0019313D01*
X0107187Y0017561D02*
X0109813Y0017561D01*
X0109813Y0018435D02*
X0107187Y0018435D01*
X0107187Y0019309D02*
X0109813Y0019309D01*
X0113187Y0019313D02*
X0115813Y0019313D01*
X0115813Y0016687D01*
X0113187Y0016687D01*
X0113187Y0019313D01*
X0113187Y0017561D02*
X0115813Y0017561D01*
X0115813Y0018435D02*
X0113187Y0018435D01*
X0113187Y0019309D02*
X0115813Y0019309D01*
X0120937Y0016687D02*
X0123563Y0016687D01*
X0120937Y0016687D02*
X0120937Y0019313D01*
X0123563Y0019313D01*
X0123563Y0016687D01*
X0123563Y0017561D02*
X0120937Y0017561D01*
X0120937Y0018435D02*
X0123563Y0018435D01*
X0123563Y0019309D02*
X0120937Y0019309D01*
X0126937Y0016687D02*
X0129563Y0016687D01*
X0126937Y0016687D02*
X0126937Y0019313D01*
X0129563Y0019313D01*
X0129563Y0016687D01*
X0129563Y0017561D02*
X0126937Y0017561D01*
X0126937Y0018435D02*
X0129563Y0018435D01*
X0129563Y0019309D02*
X0126937Y0019309D01*
X0133187Y0030937D02*
X0135813Y0030937D01*
X0133187Y0030937D02*
X0133187Y0033563D01*
X0135813Y0033563D01*
X0135813Y0030937D01*
X0135813Y0031811D02*
X0133187Y0031811D01*
X0133187Y0032685D02*
X0135813Y0032685D01*
X0135813Y0033559D02*
X0133187Y0033559D01*
X0139187Y0030937D02*
X0141813Y0030937D01*
X0139187Y0030937D02*
X0139187Y0033563D01*
X0141813Y0033563D01*
X0141813Y0030937D01*
X0141813Y0031811D02*
X0139187Y0031811D01*
X0139187Y0032685D02*
X0141813Y0032685D01*
X0141813Y0033559D02*
X0139187Y0033559D01*
X0139187Y0037687D02*
X0141813Y0037687D01*
X0139187Y0037687D02*
X0139187Y0040313D01*
X0141813Y0040313D01*
X0141813Y0037687D01*
X0141813Y0038561D02*
X0139187Y0038561D01*
X0139187Y0039435D02*
X0141813Y0039435D01*
X0141813Y0040309D02*
X0139187Y0040309D01*
X0135813Y0037687D02*
X0133187Y0037687D01*
X0133187Y0040313D01*
X0135813Y0040313D01*
X0135813Y0037687D01*
X0135813Y0038561D02*
X0133187Y0038561D01*
X0133187Y0039435D02*
X0135813Y0039435D01*
X0135813Y0040309D02*
X0133187Y0040309D01*
X0133187Y0044437D02*
X0135813Y0044437D01*
X0133187Y0044437D02*
X0133187Y0047063D01*
X0135813Y0047063D01*
X0135813Y0044437D01*
X0135813Y0045311D02*
X0133187Y0045311D01*
X0133187Y0046185D02*
X0135813Y0046185D01*
X0135813Y0047059D02*
X0133187Y0047059D01*
X0139187Y0044437D02*
X0141813Y0044437D01*
X0139187Y0044437D02*
X0139187Y0047063D01*
X0141813Y0047063D01*
X0141813Y0044437D01*
X0141813Y0045311D02*
X0139187Y0045311D01*
X0139187Y0046185D02*
X0141813Y0046185D01*
X0141813Y0047059D02*
X0139187Y0047059D01*
X0117313Y0049063D02*
X0114687Y0049063D01*
X0117313Y0049063D02*
X0117313Y0046437D01*
X0114687Y0046437D01*
X0114687Y0049063D01*
X0114687Y0047311D02*
X0117313Y0047311D01*
X0117313Y0048185D02*
X0114687Y0048185D01*
X0114687Y0049059D02*
X0117313Y0049059D01*
X0111313Y0049063D02*
X0108687Y0049063D01*
X0111313Y0049063D02*
X0111313Y0046437D01*
X0108687Y0046437D01*
X0108687Y0049063D01*
X0108687Y0047311D02*
X0111313Y0047311D01*
X0111313Y0048185D02*
X0108687Y0048185D01*
X0108687Y0049059D02*
X0111313Y0049059D01*
X0111313Y0039687D02*
X0108687Y0039687D01*
X0108687Y0042313D01*
X0111313Y0042313D01*
X0111313Y0039687D01*
X0111313Y0040561D02*
X0108687Y0040561D01*
X0108687Y0041435D02*
X0111313Y0041435D01*
X0111313Y0042309D02*
X0108687Y0042309D01*
X0114687Y0039687D02*
X0117313Y0039687D01*
X0114687Y0039687D02*
X0114687Y0042313D01*
X0117313Y0042313D01*
X0117313Y0039687D01*
X0117313Y0040561D02*
X0114687Y0040561D01*
X0114687Y0041435D02*
X0117313Y0041435D01*
X0117313Y0042309D02*
X0114687Y0042309D01*
X0071437Y0050187D02*
X0071437Y0052813D01*
X0074063Y0052813D01*
X0074063Y0050187D01*
X0071437Y0050187D01*
X0071437Y0051061D02*
X0074063Y0051061D01*
X0074063Y0051935D02*
X0071437Y0051935D01*
X0071437Y0052809D02*
X0074063Y0052809D01*
X0065437Y0052813D02*
X0065437Y0050187D01*
X0065437Y0052813D02*
X0068063Y0052813D01*
X0068063Y0050187D01*
X0065437Y0050187D01*
X0065437Y0051061D02*
X0068063Y0051061D01*
X0068063Y0051935D02*
X0065437Y0051935D01*
X0065437Y0052809D02*
X0068063Y0052809D01*
X0065437Y0056187D02*
X0065437Y0058813D01*
X0068063Y0058813D01*
X0068063Y0056187D01*
X0065437Y0056187D01*
X0065437Y0057061D02*
X0068063Y0057061D01*
X0068063Y0057935D02*
X0065437Y0057935D01*
X0065437Y0058809D02*
X0068063Y0058809D01*
X0071437Y0058813D02*
X0071437Y0056187D01*
X0071437Y0058813D02*
X0074063Y0058813D01*
X0074063Y0056187D01*
X0071437Y0056187D01*
X0071437Y0057061D02*
X0074063Y0057061D01*
X0074063Y0057935D02*
X0071437Y0057935D01*
X0071437Y0058809D02*
X0074063Y0058809D01*
X0035187Y0058813D02*
X0035187Y0056187D01*
X0035187Y0058813D02*
X0037813Y0058813D01*
X0037813Y0056187D01*
X0035187Y0056187D01*
X0035187Y0057061D02*
X0037813Y0057061D01*
X0037813Y0057935D02*
X0035187Y0057935D01*
X0035187Y0058809D02*
X0037813Y0058809D01*
X0035187Y0052813D02*
X0035187Y0050187D01*
X0035187Y0052813D02*
X0037813Y0052813D01*
X0037813Y0050187D01*
X0035187Y0050187D01*
X0035187Y0051061D02*
X0037813Y0051061D01*
X0037813Y0051935D02*
X0035187Y0051935D01*
X0035187Y0052809D02*
X0037813Y0052809D01*
X0035187Y0036813D02*
X0035187Y0034187D01*
X0035187Y0036813D02*
X0037813Y0036813D01*
X0037813Y0034187D01*
X0035187Y0034187D01*
X0035187Y0035061D02*
X0037813Y0035061D01*
X0037813Y0035935D02*
X0035187Y0035935D01*
X0035187Y0036809D02*
X0037813Y0036809D01*
X0044813Y0036813D02*
X0044813Y0034187D01*
X0042187Y0034187D01*
X0042187Y0036813D01*
X0044813Y0036813D01*
X0044813Y0035061D02*
X0042187Y0035061D01*
X0042187Y0035935D02*
X0044813Y0035935D01*
X0044813Y0036809D02*
X0042187Y0036809D01*
X0044813Y0030813D02*
X0044813Y0028187D01*
X0042187Y0028187D01*
X0042187Y0030813D01*
X0044813Y0030813D01*
X0044813Y0029061D02*
X0042187Y0029061D01*
X0042187Y0029935D02*
X0044813Y0029935D01*
X0044813Y0030809D02*
X0042187Y0030809D01*
X0035187Y0030813D02*
X0035187Y0028187D01*
X0035187Y0030813D02*
X0037813Y0030813D01*
X0037813Y0028187D01*
X0035187Y0028187D01*
X0035187Y0029061D02*
X0037813Y0029061D01*
X0037813Y0029935D02*
X0035187Y0029935D01*
X0035187Y0030809D02*
X0037813Y0030809D01*
X0021813Y0019313D02*
X0019187Y0019313D01*
X0021813Y0019313D02*
X0021813Y0016687D01*
X0019187Y0016687D01*
X0019187Y0019313D01*
X0019187Y0017561D02*
X0021813Y0017561D01*
X0021813Y0018435D02*
X0019187Y0018435D01*
X0019187Y0019309D02*
X0021813Y0019309D01*
X0015813Y0019313D02*
X0013187Y0019313D01*
X0015813Y0019313D02*
X0015813Y0016687D01*
X0013187Y0016687D01*
X0013187Y0019313D01*
X0013187Y0017561D02*
X0015813Y0017561D01*
X0015813Y0018435D02*
X0013187Y0018435D01*
X0013187Y0019309D02*
X0015813Y0019309D01*
X0015313Y0012813D02*
X0012687Y0012813D01*
X0015313Y0012813D02*
X0015313Y0008687D01*
X0012687Y0008687D01*
X0012687Y0012813D01*
X0012687Y0009561D02*
X0015313Y0009561D01*
X0015313Y0010435D02*
X0012687Y0010435D01*
X0012687Y0011309D02*
X0015313Y0011309D01*
X0015313Y0012183D02*
X0012687Y0012183D01*
X0019687Y0012813D02*
X0022313Y0012813D01*
X0022313Y0008687D01*
X0019687Y0008687D01*
X0019687Y0012813D01*
X0019687Y0009561D02*
X0022313Y0009561D01*
X0022313Y0010435D02*
X0019687Y0010435D01*
X0019687Y0011309D02*
X0022313Y0011309D01*
X0022313Y0012183D02*
X0019687Y0012183D01*
D18*
X0082000Y0045500D03*
X0082000Y0057000D03*
D19*
X0132500Y0057250D03*
X0143500Y0057250D03*
D20*
X0153000Y0057250D03*
X0113500Y0057250D03*
X0103000Y0057250D03*
D21*
X0093000Y0057250D03*
X0123500Y0057250D03*
X0153000Y0047250D03*
X0153000Y0037250D03*
X0153000Y0027250D03*
X0153000Y0017250D03*
X0153000Y0007250D03*
D22*
X0043000Y0021750D03*
X0031000Y0021750D03*
D23*
X0037000Y0020750D03*
D24*
X0036000Y0014734D02*
X0038000Y0014734D01*
X0038000Y0006364D01*
X0036000Y0006364D01*
X0036000Y0014734D01*
X0036000Y0012363D02*
X0038000Y0012363D01*
D25*
X0043000Y0054000D03*
X0060000Y0054000D03*
D26*
X0098250Y0034250D03*
X0105250Y0034250D03*
X0114250Y0034250D03*
X0121250Y0034250D03*
X0117750Y0026250D03*
X0101750Y0026250D03*
D27*
X0108500Y0026250D01*
X0108500Y0018000D01*
X0114500Y0018000D02*
X0107750Y0010750D01*
X0100250Y0018000D02*
X0093750Y0010750D01*
X0077250Y0022750D02*
X0077250Y0023000D01*
X0077500Y0023250D01*
X0083272Y0023220D01*
X0087000Y0023250D01*
X0089250Y0025500D01*
X0089250Y0026000D01*
X0083272Y0030898D02*
X0075750Y0031000D01*
X0075500Y0031250D01*
X0050250Y0039500D02*
X0050250Y0015500D01*
X0054728Y0015543D01*
X0037000Y0010549D02*
X0033000Y0012250D01*
X0023000Y0022250D01*
X0018000Y0022250D01*
X0014500Y0018750D01*
X0014500Y0018000D01*
X0020500Y0018000D02*
X0020500Y0010750D01*
X0021000Y0010750D01*
X0014000Y0010750D02*
X0010000Y0014000D01*
X0010000Y0024250D01*
X0015500Y0029550D01*
X0015500Y0035500D01*
X0014220Y0038313D01*
X0015750Y0039750D01*
X0015750Y0043250D01*
X0014220Y0046187D01*
X0027016Y0047368D02*
X0030500Y0047500D01*
X0032000Y0048750D01*
X0036500Y0051500D02*
X0040500Y0051500D01*
X0043000Y0054000D01*
X0038750Y0059750D02*
X0036500Y0057500D01*
X0029500Y0057750D01*
X0026319Y0055636D01*
X0023750Y0055000D01*
X0015500Y0054950D01*
X0015750Y0039750D01*
X0027016Y0037132D02*
X0028785Y0037068D01*
X0028750Y0031500D01*
X0026319Y0028864D01*
X0023250Y0029500D01*
X0015500Y0029550D01*
X0028785Y0037068D02*
X0037000Y0037000D01*
X0036500Y0035500D01*
X0043500Y0029500D01*
X0036500Y0029500D02*
X0034250Y0028500D01*
X0034500Y0029250D01*
X0032000Y0028250D01*
X0043500Y0035500D02*
X0047500Y0035500D01*
X0037000Y0037000D02*
X0037000Y0039500D01*
X0060200Y0051650D02*
X0060000Y0054000D01*
X0060200Y0051650D02*
X0062000Y0051500D01*
X0066750Y0051500D01*
X0066750Y0057500D02*
X0064500Y0059750D01*
X0038750Y0059750D01*
X0066750Y0057500D02*
X0072750Y0057500D01*
X0081750Y0057000D02*
X0082000Y0057000D01*
X0084250Y0057250D01*
X0082000Y0045500D02*
X0081750Y0045500D01*
X0082000Y0045500D02*
X0084750Y0044750D01*
X0117750Y0026250D02*
X0123750Y0026250D01*
X0128250Y0021750D01*
X0128250Y0018000D01*
X0122250Y0018000D02*
X0121750Y0016000D01*
X0121750Y0010750D01*
X0128250Y0021750D02*
X0138250Y0021943D01*
X0148250Y0022000D01*
X0153000Y0017250D01*
X0153000Y0027250D02*
X0148000Y0032250D01*
X0140500Y0032250D01*
D28*
X0103000Y0057250D02*
X0095500Y0049750D01*
X0086500Y0049750D01*
X0082000Y0045500D01*
X0081750Y0045500D02*
X0072750Y0051500D01*
X0072750Y0057500D02*
X0081750Y0057000D01*
X0084250Y0057250D02*
X0093000Y0057250D01*
X0103000Y0057250D02*
X0113500Y0057250D01*
X0123500Y0057250D02*
X0132500Y0057250D01*
X0143500Y0057250D02*
X0153000Y0057250D01*
X0089250Y0038500D02*
X0084750Y0042000D01*
X0084750Y0044750D01*
X0089250Y0038500D02*
X0089250Y0026000D01*
X0077250Y0022750D02*
X0065500Y0009250D01*
X0050000Y0009250D01*
X0047500Y0011750D01*
X0047500Y0013750D01*
X0047500Y0035500D01*
X0043500Y0029500D02*
X0043500Y0023750D01*
X0043000Y0021750D01*
X0037000Y0020750D02*
X0037000Y0013750D01*
X0047500Y0013750D01*
X0037000Y0013750D02*
X0037000Y0010549D01*
X0031000Y0021750D02*
X0032250Y0023250D01*
X0032250Y0026750D01*
X0034250Y0028500D01*
X0100750Y0010750D02*
X0100750Y0005750D01*
X0114750Y0005750D01*
X0114750Y0010750D01*
X0114750Y0005750D02*
X0126500Y0005750D01*
X0128000Y0007250D01*
X0128750Y0010750D01*
X0128000Y0007250D02*
X0138000Y0007250D01*
X0138250Y0008557D01*
X0138000Y0007250D02*
X0153000Y0007250D01*
D29*
X0097250Y0021750D03*
X0093750Y0027000D03*
X0110000Y0034250D03*
X0126250Y0034500D03*
X0126000Y0039000D03*
X0093750Y0036000D03*
X0075500Y0031250D03*
X0064250Y0030000D03*
X0069000Y0025250D03*
X0050250Y0039500D03*
X0037000Y0039500D03*
X0032000Y0048750D03*
X0032000Y0028250D03*
D30*
X0054728Y0025780D02*
X0060000Y0025750D01*
X0064250Y0030000D01*
X0072750Y0025750D02*
X0083272Y0025780D01*
X0083272Y0028339D02*
X0074000Y0028250D01*
X0057500Y0044750D01*
X0027016Y0044809D01*
X0027016Y0042250D02*
X0056250Y0042250D01*
X0072750Y0025750D01*
X0069000Y0025250D02*
X0066750Y0023250D01*
X0054728Y0023220D01*
X0060250Y0047750D02*
X0078750Y0033500D01*
X0083272Y0033457D01*
X0083272Y0036016D02*
X0079750Y0036000D01*
X0062500Y0049250D01*
X0062500Y0051750D01*
X0060200Y0051650D01*
X0060250Y0047750D02*
X0049500Y0047750D01*
X0043000Y0054000D01*
X0093750Y0036000D02*
X0095000Y0034250D01*
X0098250Y0034250D01*
X0110000Y0034250D02*
X0114250Y0034250D01*
X0126250Y0034500D02*
X0130750Y0039000D01*
X0134500Y0039000D01*
X0140500Y0039000D02*
X0146250Y0039000D01*
X0148000Y0037250D01*
X0153000Y0037250D01*
X0137500Y0035000D02*
X0137500Y0049500D01*
X0136500Y0050500D01*
X0119750Y0050500D01*
X0113500Y0057250D01*
X0134250Y0045500D02*
X0134500Y0045750D01*
X0134250Y0045500D02*
X0132500Y0045500D01*
X0126000Y0039000D01*
X0134500Y0032250D02*
X0137500Y0035000D01*
X0140500Y0045750D02*
X0146500Y0045750D01*
X0148000Y0047250D01*
X0153000Y0047250D01*
X0097250Y0021750D02*
X0094250Y0019500D01*
X0094250Y0018000D01*
X0083272Y0018102D01*
X0083272Y0020661D02*
X0087250Y0020750D01*
X0087500Y0020750D01*
X0093750Y0027000D01*
D31*
X0098250Y0034250D02*
X0098250Y0038250D01*
X0101750Y0042000D01*
X0107500Y0047750D01*
X0110000Y0047750D01*
X0116000Y0047750D02*
X0118250Y0047750D01*
X0121250Y0044750D01*
X0121250Y0034250D01*
X0116000Y0038500D02*
X0114250Y0036750D01*
X0114250Y0034250D01*
X0112500Y0030250D02*
X0130500Y0030250D01*
X0132250Y0028500D01*
X0137750Y0028500D01*
X0140000Y0031000D01*
X0140500Y0032250D01*
X0116000Y0038500D02*
X0116000Y0041000D01*
X0110000Y0041000D02*
X0105250Y0036250D01*
X0105250Y0034250D01*
X0112500Y0030250D02*
X0108500Y0026250D01*
M02*
