%
M48
M72
T01C0.01969
T02C0.02000
T03C0.02500
T04C0.03500
%
T01
X32000Y48750
X37000Y39500
X32000Y28250
X50250Y39500
X64250Y30000
X69000Y25250
X75500Y31250
X93750Y27000
X97250Y21750
X110000Y34250
X126250Y34500
X126000Y39000
X93750Y36000
T02
X15500Y54950
X15500Y29550
T03
X25441Y34376
X25441Y50124
T04
X93000Y57250
X103000Y57250
X113500Y57250
X123500Y57250
X153000Y57250
X153000Y47250
X153000Y37250
X153000Y27250
X153000Y17250
X153000Y7250
M30
