%
M48
M72
T01C0.01969
T02C0.02000
T03C0.02500
T04C0.03500
%
T01
X32000Y49250
X37000Y40000
X32000Y28750
X50250Y40000
X64250Y30500
X69000Y25750
X75500Y31750
X93750Y27500
X97250Y22250
X110000Y34750
X126250Y35000
X126000Y39500
X93750Y36500
T02
X15500Y55450
X15500Y30050
T03
X25441Y34876
X25441Y50624
T04
X93000Y57750
X103000Y57750
X113500Y57750
X123500Y57750
X153000Y57750
X153000Y47750
X153000Y37750
X153000Y27750
X153000Y17750
X153000Y7750
M30
