G75*
%MOIN*%
%OFA0B0*%
%FSLAX25Y25*%
%IPPOS*%
%LPD*%
%AMOC8*
5,1,8,0,0,1.08239X$1,22.5*
%
%ADD10C,0.00000*%
%ADD11R,0.05906X0.01575*%
%ADD12C,0.00750*%
%ADD13C,0.02750*%
%ADD14C,0.02953*%
%ADD15C,0.00500*%
%ADD16R,0.06693X0.03150*%
%ADD17C,0.00875*%
%ADD18R,0.09000X0.04500*%
%ADD19R,0.05000X0.07000*%
%ADD20R,0.03150X0.05512*%
%ADD21C,0.06000*%
%ADD22R,0.07000X0.08000*%
%ADD23R,0.04000X0.04500*%
D10*
X0008000Y0002750D02*
X0008000Y0062711D01*
X0158201Y0062711D01*
X0158201Y0002750D01*
X0008000Y0002750D01*
X0024191Y0034876D02*
X0024193Y0034946D01*
X0024199Y0035016D01*
X0024209Y0035085D01*
X0024222Y0035154D01*
X0024240Y0035222D01*
X0024261Y0035289D01*
X0024286Y0035354D01*
X0024315Y0035418D01*
X0024347Y0035481D01*
X0024383Y0035541D01*
X0024422Y0035599D01*
X0024464Y0035655D01*
X0024509Y0035709D01*
X0024557Y0035760D01*
X0024608Y0035808D01*
X0024662Y0035853D01*
X0024718Y0035895D01*
X0024776Y0035934D01*
X0024836Y0035970D01*
X0024899Y0036002D01*
X0024963Y0036031D01*
X0025028Y0036056D01*
X0025095Y0036077D01*
X0025163Y0036095D01*
X0025232Y0036108D01*
X0025301Y0036118D01*
X0025371Y0036124D01*
X0025441Y0036126D01*
X0025511Y0036124D01*
X0025581Y0036118D01*
X0025650Y0036108D01*
X0025719Y0036095D01*
X0025787Y0036077D01*
X0025854Y0036056D01*
X0025919Y0036031D01*
X0025983Y0036002D01*
X0026046Y0035970D01*
X0026106Y0035934D01*
X0026164Y0035895D01*
X0026220Y0035853D01*
X0026274Y0035808D01*
X0026325Y0035760D01*
X0026373Y0035709D01*
X0026418Y0035655D01*
X0026460Y0035599D01*
X0026499Y0035541D01*
X0026535Y0035481D01*
X0026567Y0035418D01*
X0026596Y0035354D01*
X0026621Y0035289D01*
X0026642Y0035222D01*
X0026660Y0035154D01*
X0026673Y0035085D01*
X0026683Y0035016D01*
X0026689Y0034946D01*
X0026691Y0034876D01*
X0026689Y0034806D01*
X0026683Y0034736D01*
X0026673Y0034667D01*
X0026660Y0034598D01*
X0026642Y0034530D01*
X0026621Y0034463D01*
X0026596Y0034398D01*
X0026567Y0034334D01*
X0026535Y0034271D01*
X0026499Y0034211D01*
X0026460Y0034153D01*
X0026418Y0034097D01*
X0026373Y0034043D01*
X0026325Y0033992D01*
X0026274Y0033944D01*
X0026220Y0033899D01*
X0026164Y0033857D01*
X0026106Y0033818D01*
X0026046Y0033782D01*
X0025983Y0033750D01*
X0025919Y0033721D01*
X0025854Y0033696D01*
X0025787Y0033675D01*
X0025719Y0033657D01*
X0025650Y0033644D01*
X0025581Y0033634D01*
X0025511Y0033628D01*
X0025441Y0033626D01*
X0025371Y0033628D01*
X0025301Y0033634D01*
X0025232Y0033644D01*
X0025163Y0033657D01*
X0025095Y0033675D01*
X0025028Y0033696D01*
X0024963Y0033721D01*
X0024899Y0033750D01*
X0024836Y0033782D01*
X0024776Y0033818D01*
X0024718Y0033857D01*
X0024662Y0033899D01*
X0024608Y0033944D01*
X0024557Y0033992D01*
X0024509Y0034043D01*
X0024464Y0034097D01*
X0024422Y0034153D01*
X0024383Y0034211D01*
X0024347Y0034271D01*
X0024315Y0034334D01*
X0024286Y0034398D01*
X0024261Y0034463D01*
X0024240Y0034530D01*
X0024222Y0034598D01*
X0024209Y0034667D01*
X0024199Y0034736D01*
X0024193Y0034806D01*
X0024191Y0034876D01*
X0024191Y0050624D02*
X0024193Y0050694D01*
X0024199Y0050764D01*
X0024209Y0050833D01*
X0024222Y0050902D01*
X0024240Y0050970D01*
X0024261Y0051037D01*
X0024286Y0051102D01*
X0024315Y0051166D01*
X0024347Y0051229D01*
X0024383Y0051289D01*
X0024422Y0051347D01*
X0024464Y0051403D01*
X0024509Y0051457D01*
X0024557Y0051508D01*
X0024608Y0051556D01*
X0024662Y0051601D01*
X0024718Y0051643D01*
X0024776Y0051682D01*
X0024836Y0051718D01*
X0024899Y0051750D01*
X0024963Y0051779D01*
X0025028Y0051804D01*
X0025095Y0051825D01*
X0025163Y0051843D01*
X0025232Y0051856D01*
X0025301Y0051866D01*
X0025371Y0051872D01*
X0025441Y0051874D01*
X0025511Y0051872D01*
X0025581Y0051866D01*
X0025650Y0051856D01*
X0025719Y0051843D01*
X0025787Y0051825D01*
X0025854Y0051804D01*
X0025919Y0051779D01*
X0025983Y0051750D01*
X0026046Y0051718D01*
X0026106Y0051682D01*
X0026164Y0051643D01*
X0026220Y0051601D01*
X0026274Y0051556D01*
X0026325Y0051508D01*
X0026373Y0051457D01*
X0026418Y0051403D01*
X0026460Y0051347D01*
X0026499Y0051289D01*
X0026535Y0051229D01*
X0026567Y0051166D01*
X0026596Y0051102D01*
X0026621Y0051037D01*
X0026642Y0050970D01*
X0026660Y0050902D01*
X0026673Y0050833D01*
X0026683Y0050764D01*
X0026689Y0050694D01*
X0026691Y0050624D01*
X0026689Y0050554D01*
X0026683Y0050484D01*
X0026673Y0050415D01*
X0026660Y0050346D01*
X0026642Y0050278D01*
X0026621Y0050211D01*
X0026596Y0050146D01*
X0026567Y0050082D01*
X0026535Y0050019D01*
X0026499Y0049959D01*
X0026460Y0049901D01*
X0026418Y0049845D01*
X0026373Y0049791D01*
X0026325Y0049740D01*
X0026274Y0049692D01*
X0026220Y0049647D01*
X0026164Y0049605D01*
X0026106Y0049566D01*
X0026046Y0049530D01*
X0025983Y0049498D01*
X0025919Y0049469D01*
X0025854Y0049444D01*
X0025787Y0049423D01*
X0025719Y0049405D01*
X0025650Y0049392D01*
X0025581Y0049382D01*
X0025511Y0049376D01*
X0025441Y0049374D01*
X0025371Y0049376D01*
X0025301Y0049382D01*
X0025232Y0049392D01*
X0025163Y0049405D01*
X0025095Y0049423D01*
X0025028Y0049444D01*
X0024963Y0049469D01*
X0024899Y0049498D01*
X0024836Y0049530D01*
X0024776Y0049566D01*
X0024718Y0049605D01*
X0024662Y0049647D01*
X0024608Y0049692D01*
X0024557Y0049740D01*
X0024509Y0049791D01*
X0024464Y0049845D01*
X0024422Y0049901D01*
X0024383Y0049959D01*
X0024347Y0050019D01*
X0024315Y0050082D01*
X0024286Y0050146D01*
X0024261Y0050211D01*
X0024240Y0050278D01*
X0024222Y0050346D01*
X0024209Y0050415D01*
X0024199Y0050484D01*
X0024193Y0050554D01*
X0024191Y0050624D01*
D11*
X0054728Y0036516D03*
X0054728Y0033957D03*
X0054728Y0031398D03*
X0054728Y0028839D03*
X0054728Y0026280D03*
X0054728Y0023720D03*
X0054728Y0021161D03*
X0054728Y0018602D03*
X0054728Y0016043D03*
X0054728Y0013484D03*
X0083272Y0013484D03*
X0083272Y0016043D03*
X0083272Y0018602D03*
X0083272Y0021161D03*
X0083272Y0023720D03*
X0083272Y0026280D03*
X0083272Y0028839D03*
X0083272Y0031398D03*
X0083272Y0033957D03*
X0083272Y0036516D03*
D12*
X0029641Y0037257D02*
X0029641Y0038007D01*
X0029641Y0037257D02*
X0024391Y0037257D01*
X0024391Y0038007D01*
X0029641Y0038007D01*
X0029641Y0038006D02*
X0024391Y0038006D01*
X0029641Y0039816D02*
X0029641Y0040566D01*
X0029641Y0039816D02*
X0024391Y0039816D01*
X0024391Y0040566D01*
X0029641Y0040566D01*
X0029641Y0040565D02*
X0024391Y0040565D01*
X0029641Y0042375D02*
X0029641Y0043125D01*
X0029641Y0042375D02*
X0024391Y0042375D01*
X0024391Y0043125D01*
X0029641Y0043125D01*
X0029641Y0043124D02*
X0024391Y0043124D01*
X0029641Y0044934D02*
X0029641Y0045684D01*
X0029641Y0044934D02*
X0024391Y0044934D01*
X0024391Y0045684D01*
X0029641Y0045684D01*
X0029641Y0045683D02*
X0024391Y0045683D01*
X0029641Y0047493D02*
X0029641Y0048243D01*
X0029641Y0047493D02*
X0024391Y0047493D01*
X0024391Y0048243D01*
X0029641Y0048243D01*
X0029641Y0048242D02*
X0024391Y0048242D01*
D13*
X0024944Y0054362D02*
X0027694Y0054362D01*
X0024944Y0054362D02*
X0024944Y0057910D01*
X0027694Y0057910D01*
X0027694Y0054362D01*
X0027694Y0057111D02*
X0024944Y0057111D01*
X0024944Y0027590D02*
X0027694Y0027590D01*
X0024944Y0027590D02*
X0024944Y0031138D01*
X0027694Y0031138D01*
X0027694Y0027590D01*
X0027694Y0030339D02*
X0024944Y0030339D01*
D14*
X0012743Y0037336D02*
X0012743Y0040290D01*
X0015697Y0040290D01*
X0015697Y0037336D01*
X0012743Y0037336D01*
X0012743Y0040288D02*
X0015697Y0040288D01*
X0012743Y0045210D02*
X0012743Y0048164D01*
X0015697Y0048164D01*
X0015697Y0045210D01*
X0012743Y0045210D01*
X0012743Y0048162D02*
X0015697Y0048162D01*
D15*
X0017500Y0053500D02*
X0013500Y0053500D01*
X0013055Y0053550D01*
X0012632Y0053698D01*
X0012253Y0053936D01*
X0011936Y0054253D01*
X0011698Y0054632D01*
X0011550Y0055055D01*
X0011500Y0055500D01*
X0011550Y0055945D01*
X0011698Y0056368D01*
X0011936Y0056747D01*
X0012253Y0057064D01*
X0012632Y0057302D01*
X0013055Y0057450D01*
X0013500Y0057500D01*
X0017500Y0057500D01*
X0017945Y0057450D01*
X0018368Y0057302D01*
X0018747Y0057064D01*
X0019064Y0056747D01*
X0019302Y0056368D01*
X0019450Y0055945D01*
X0019500Y0055500D01*
X0019450Y0055055D01*
X0019302Y0054632D01*
X0019064Y0054253D01*
X0018747Y0053936D01*
X0018368Y0053698D01*
X0017945Y0053550D01*
X0017500Y0053500D01*
X0018082Y0053598D02*
X0012918Y0053598D01*
X0012093Y0054097D02*
X0018907Y0054097D01*
X0019279Y0054595D02*
X0011721Y0054595D01*
X0011546Y0055094D02*
X0019454Y0055094D01*
X0019490Y0055592D02*
X0011510Y0055592D01*
X0011601Y0056091D02*
X0019399Y0056091D01*
X0019163Y0056589D02*
X0011837Y0056589D01*
X0012291Y0057088D02*
X0018709Y0057088D01*
X0017500Y0032000D02*
X0013500Y0032000D01*
X0013055Y0031950D01*
X0012632Y0031802D01*
X0012253Y0031564D01*
X0011936Y0031247D01*
X0011698Y0030868D01*
X0011550Y0030445D01*
X0011500Y0030000D01*
X0011550Y0029555D01*
X0011698Y0029132D01*
X0011936Y0028753D01*
X0012253Y0028436D01*
X0012632Y0028198D01*
X0013055Y0028050D01*
X0013500Y0028000D01*
X0017500Y0028000D01*
X0017945Y0028050D01*
X0018368Y0028198D01*
X0018747Y0028436D01*
X0019064Y0028753D01*
X0019302Y0029132D01*
X0019450Y0029555D01*
X0019500Y0030000D01*
X0019450Y0030445D01*
X0019302Y0030868D01*
X0019064Y0031247D01*
X0018747Y0031564D01*
X0018368Y0031802D01*
X0017945Y0031950D01*
X0017500Y0032000D01*
X0018588Y0031664D02*
X0012412Y0031664D01*
X0011885Y0031165D02*
X0019115Y0031165D01*
X0019372Y0030667D02*
X0011628Y0030667D01*
X0011519Y0030168D02*
X0019481Y0030168D01*
X0019463Y0029670D02*
X0011537Y0029670D01*
X0011684Y0029171D02*
X0019316Y0029171D01*
X0018983Y0028673D02*
X0012017Y0028673D01*
X0012701Y0028174D02*
X0018299Y0028174D01*
D16*
X0138250Y0022443D03*
X0138250Y0009057D03*
D17*
X0130063Y0009187D02*
X0127437Y0009187D01*
X0127437Y0013313D01*
X0130063Y0013313D01*
X0130063Y0009187D01*
X0130063Y0010061D02*
X0127437Y0010061D01*
X0127437Y0010935D02*
X0130063Y0010935D01*
X0130063Y0011809D02*
X0127437Y0011809D01*
X0127437Y0012683D02*
X0130063Y0012683D01*
X0123063Y0009187D02*
X0120437Y0009187D01*
X0120437Y0013313D01*
X0123063Y0013313D01*
X0123063Y0009187D01*
X0123063Y0010061D02*
X0120437Y0010061D01*
X0120437Y0010935D02*
X0123063Y0010935D01*
X0123063Y0011809D02*
X0120437Y0011809D01*
X0120437Y0012683D02*
X0123063Y0012683D01*
X0116063Y0009187D02*
X0113437Y0009187D01*
X0113437Y0013313D01*
X0116063Y0013313D01*
X0116063Y0009187D01*
X0116063Y0010061D02*
X0113437Y0010061D01*
X0113437Y0010935D02*
X0116063Y0010935D01*
X0116063Y0011809D02*
X0113437Y0011809D01*
X0113437Y0012683D02*
X0116063Y0012683D01*
X0109063Y0009187D02*
X0106437Y0009187D01*
X0106437Y0013313D01*
X0109063Y0013313D01*
X0109063Y0009187D01*
X0109063Y0010061D02*
X0106437Y0010061D01*
X0106437Y0010935D02*
X0109063Y0010935D01*
X0109063Y0011809D02*
X0106437Y0011809D01*
X0106437Y0012683D02*
X0109063Y0012683D01*
X0102063Y0009187D02*
X0099437Y0009187D01*
X0099437Y0013313D01*
X0102063Y0013313D01*
X0102063Y0009187D01*
X0102063Y0010061D02*
X0099437Y0010061D01*
X0099437Y0010935D02*
X0102063Y0010935D01*
X0102063Y0011809D02*
X0099437Y0011809D01*
X0099437Y0012683D02*
X0102063Y0012683D01*
X0095063Y0009187D02*
X0092437Y0009187D01*
X0092437Y0013313D01*
X0095063Y0013313D01*
X0095063Y0009187D01*
X0095063Y0010061D02*
X0092437Y0010061D01*
X0092437Y0010935D02*
X0095063Y0010935D01*
X0095063Y0011809D02*
X0092437Y0011809D01*
X0092437Y0012683D02*
X0095063Y0012683D01*
X0095563Y0019813D02*
X0092937Y0019813D01*
X0095563Y0019813D02*
X0095563Y0017187D01*
X0092937Y0017187D01*
X0092937Y0019813D01*
X0092937Y0018061D02*
X0095563Y0018061D01*
X0095563Y0018935D02*
X0092937Y0018935D01*
X0092937Y0019809D02*
X0095563Y0019809D01*
X0098937Y0019813D02*
X0101563Y0019813D01*
X0101563Y0017187D01*
X0098937Y0017187D01*
X0098937Y0019813D01*
X0098937Y0018061D02*
X0101563Y0018061D01*
X0101563Y0018935D02*
X0098937Y0018935D01*
X0098937Y0019809D02*
X0101563Y0019809D01*
X0107187Y0019813D02*
X0109813Y0019813D01*
X0109813Y0017187D01*
X0107187Y0017187D01*
X0107187Y0019813D01*
X0107187Y0018061D02*
X0109813Y0018061D01*
X0109813Y0018935D02*
X0107187Y0018935D01*
X0107187Y0019809D02*
X0109813Y0019809D01*
X0113187Y0019813D02*
X0115813Y0019813D01*
X0115813Y0017187D01*
X0113187Y0017187D01*
X0113187Y0019813D01*
X0113187Y0018061D02*
X0115813Y0018061D01*
X0115813Y0018935D02*
X0113187Y0018935D01*
X0113187Y0019809D02*
X0115813Y0019809D01*
X0120937Y0017187D02*
X0123563Y0017187D01*
X0120937Y0017187D02*
X0120937Y0019813D01*
X0123563Y0019813D01*
X0123563Y0017187D01*
X0123563Y0018061D02*
X0120937Y0018061D01*
X0120937Y0018935D02*
X0123563Y0018935D01*
X0123563Y0019809D02*
X0120937Y0019809D01*
X0126937Y0017187D02*
X0129563Y0017187D01*
X0126937Y0017187D02*
X0126937Y0019813D01*
X0129563Y0019813D01*
X0129563Y0017187D01*
X0129563Y0018061D02*
X0126937Y0018061D01*
X0126937Y0018935D02*
X0129563Y0018935D01*
X0129563Y0019809D02*
X0126937Y0019809D01*
X0133187Y0031437D02*
X0135813Y0031437D01*
X0133187Y0031437D02*
X0133187Y0034063D01*
X0135813Y0034063D01*
X0135813Y0031437D01*
X0135813Y0032311D02*
X0133187Y0032311D01*
X0133187Y0033185D02*
X0135813Y0033185D01*
X0135813Y0034059D02*
X0133187Y0034059D01*
X0139187Y0031437D02*
X0141813Y0031437D01*
X0139187Y0031437D02*
X0139187Y0034063D01*
X0141813Y0034063D01*
X0141813Y0031437D01*
X0141813Y0032311D02*
X0139187Y0032311D01*
X0139187Y0033185D02*
X0141813Y0033185D01*
X0141813Y0034059D02*
X0139187Y0034059D01*
X0139187Y0038187D02*
X0141813Y0038187D01*
X0139187Y0038187D02*
X0139187Y0040813D01*
X0141813Y0040813D01*
X0141813Y0038187D01*
X0141813Y0039061D02*
X0139187Y0039061D01*
X0139187Y0039935D02*
X0141813Y0039935D01*
X0141813Y0040809D02*
X0139187Y0040809D01*
X0135813Y0038187D02*
X0133187Y0038187D01*
X0133187Y0040813D01*
X0135813Y0040813D01*
X0135813Y0038187D01*
X0135813Y0039061D02*
X0133187Y0039061D01*
X0133187Y0039935D02*
X0135813Y0039935D01*
X0135813Y0040809D02*
X0133187Y0040809D01*
X0133187Y0044937D02*
X0135813Y0044937D01*
X0133187Y0044937D02*
X0133187Y0047563D01*
X0135813Y0047563D01*
X0135813Y0044937D01*
X0135813Y0045811D02*
X0133187Y0045811D01*
X0133187Y0046685D02*
X0135813Y0046685D01*
X0135813Y0047559D02*
X0133187Y0047559D01*
X0139187Y0044937D02*
X0141813Y0044937D01*
X0139187Y0044937D02*
X0139187Y0047563D01*
X0141813Y0047563D01*
X0141813Y0044937D01*
X0141813Y0045811D02*
X0139187Y0045811D01*
X0139187Y0046685D02*
X0141813Y0046685D01*
X0141813Y0047559D02*
X0139187Y0047559D01*
X0117313Y0049563D02*
X0114687Y0049563D01*
X0117313Y0049563D02*
X0117313Y0046937D01*
X0114687Y0046937D01*
X0114687Y0049563D01*
X0114687Y0047811D02*
X0117313Y0047811D01*
X0117313Y0048685D02*
X0114687Y0048685D01*
X0114687Y0049559D02*
X0117313Y0049559D01*
X0111313Y0049563D02*
X0108687Y0049563D01*
X0111313Y0049563D02*
X0111313Y0046937D01*
X0108687Y0046937D01*
X0108687Y0049563D01*
X0108687Y0047811D02*
X0111313Y0047811D01*
X0111313Y0048685D02*
X0108687Y0048685D01*
X0108687Y0049559D02*
X0111313Y0049559D01*
X0111313Y0040187D02*
X0108687Y0040187D01*
X0108687Y0042813D01*
X0111313Y0042813D01*
X0111313Y0040187D01*
X0111313Y0041061D02*
X0108687Y0041061D01*
X0108687Y0041935D02*
X0111313Y0041935D01*
X0111313Y0042809D02*
X0108687Y0042809D01*
X0114687Y0040187D02*
X0117313Y0040187D01*
X0114687Y0040187D02*
X0114687Y0042813D01*
X0117313Y0042813D01*
X0117313Y0040187D01*
X0117313Y0041061D02*
X0114687Y0041061D01*
X0114687Y0041935D02*
X0117313Y0041935D01*
X0117313Y0042809D02*
X0114687Y0042809D01*
X0071437Y0050687D02*
X0071437Y0053313D01*
X0074063Y0053313D01*
X0074063Y0050687D01*
X0071437Y0050687D01*
X0071437Y0051561D02*
X0074063Y0051561D01*
X0074063Y0052435D02*
X0071437Y0052435D01*
X0071437Y0053309D02*
X0074063Y0053309D01*
X0065437Y0053313D02*
X0065437Y0050687D01*
X0065437Y0053313D02*
X0068063Y0053313D01*
X0068063Y0050687D01*
X0065437Y0050687D01*
X0065437Y0051561D02*
X0068063Y0051561D01*
X0068063Y0052435D02*
X0065437Y0052435D01*
X0065437Y0053309D02*
X0068063Y0053309D01*
X0065437Y0056687D02*
X0065437Y0059313D01*
X0068063Y0059313D01*
X0068063Y0056687D01*
X0065437Y0056687D01*
X0065437Y0057561D02*
X0068063Y0057561D01*
X0068063Y0058435D02*
X0065437Y0058435D01*
X0065437Y0059309D02*
X0068063Y0059309D01*
X0071437Y0059313D02*
X0071437Y0056687D01*
X0071437Y0059313D02*
X0074063Y0059313D01*
X0074063Y0056687D01*
X0071437Y0056687D01*
X0071437Y0057561D02*
X0074063Y0057561D01*
X0074063Y0058435D02*
X0071437Y0058435D01*
X0071437Y0059309D02*
X0074063Y0059309D01*
X0035187Y0059313D02*
X0035187Y0056687D01*
X0035187Y0059313D02*
X0037813Y0059313D01*
X0037813Y0056687D01*
X0035187Y0056687D01*
X0035187Y0057561D02*
X0037813Y0057561D01*
X0037813Y0058435D02*
X0035187Y0058435D01*
X0035187Y0059309D02*
X0037813Y0059309D01*
X0035187Y0053313D02*
X0035187Y0050687D01*
X0035187Y0053313D02*
X0037813Y0053313D01*
X0037813Y0050687D01*
X0035187Y0050687D01*
X0035187Y0051561D02*
X0037813Y0051561D01*
X0037813Y0052435D02*
X0035187Y0052435D01*
X0035187Y0053309D02*
X0037813Y0053309D01*
X0035187Y0037313D02*
X0035187Y0034687D01*
X0035187Y0037313D02*
X0037813Y0037313D01*
X0037813Y0034687D01*
X0035187Y0034687D01*
X0035187Y0035561D02*
X0037813Y0035561D01*
X0037813Y0036435D02*
X0035187Y0036435D01*
X0035187Y0037309D02*
X0037813Y0037309D01*
X0044813Y0037313D02*
X0044813Y0034687D01*
X0042187Y0034687D01*
X0042187Y0037313D01*
X0044813Y0037313D01*
X0044813Y0035561D02*
X0042187Y0035561D01*
X0042187Y0036435D02*
X0044813Y0036435D01*
X0044813Y0037309D02*
X0042187Y0037309D01*
X0044813Y0031313D02*
X0044813Y0028687D01*
X0042187Y0028687D01*
X0042187Y0031313D01*
X0044813Y0031313D01*
X0044813Y0029561D02*
X0042187Y0029561D01*
X0042187Y0030435D02*
X0044813Y0030435D01*
X0044813Y0031309D02*
X0042187Y0031309D01*
X0035187Y0031313D02*
X0035187Y0028687D01*
X0035187Y0031313D02*
X0037813Y0031313D01*
X0037813Y0028687D01*
X0035187Y0028687D01*
X0035187Y0029561D02*
X0037813Y0029561D01*
X0037813Y0030435D02*
X0035187Y0030435D01*
X0035187Y0031309D02*
X0037813Y0031309D01*
X0021813Y0019813D02*
X0019187Y0019813D01*
X0021813Y0019813D02*
X0021813Y0017187D01*
X0019187Y0017187D01*
X0019187Y0019813D01*
X0019187Y0018061D02*
X0021813Y0018061D01*
X0021813Y0018935D02*
X0019187Y0018935D01*
X0019187Y0019809D02*
X0021813Y0019809D01*
X0015813Y0019813D02*
X0013187Y0019813D01*
X0015813Y0019813D02*
X0015813Y0017187D01*
X0013187Y0017187D01*
X0013187Y0019813D01*
X0013187Y0018061D02*
X0015813Y0018061D01*
X0015813Y0018935D02*
X0013187Y0018935D01*
X0013187Y0019809D02*
X0015813Y0019809D01*
X0015313Y0013313D02*
X0012687Y0013313D01*
X0015313Y0013313D02*
X0015313Y0009187D01*
X0012687Y0009187D01*
X0012687Y0013313D01*
X0012687Y0010061D02*
X0015313Y0010061D01*
X0015313Y0010935D02*
X0012687Y0010935D01*
X0012687Y0011809D02*
X0015313Y0011809D01*
X0015313Y0012683D02*
X0012687Y0012683D01*
X0019687Y0013313D02*
X0022313Y0013313D01*
X0022313Y0009187D01*
X0019687Y0009187D01*
X0019687Y0013313D01*
X0019687Y0010061D02*
X0022313Y0010061D01*
X0022313Y0010935D02*
X0019687Y0010935D01*
X0019687Y0011809D02*
X0022313Y0011809D01*
X0022313Y0012683D02*
X0019687Y0012683D01*
D18*
X0082000Y0046000D03*
X0082000Y0057500D03*
D19*
X0132500Y0057750D03*
X0143500Y0057750D03*
D20*
X0043000Y0022250D03*
X0037000Y0022545D03*
X0031000Y0022250D03*
D21*
X0036000Y0015234D02*
X0038000Y0015234D01*
X0038000Y0006864D01*
X0036000Y0006864D01*
X0036000Y0015234D01*
X0036000Y0012863D02*
X0038000Y0012863D01*
D22*
X0043000Y0054500D03*
X0060000Y0054500D03*
D23*
X0098250Y0034750D03*
X0105250Y0034750D03*
X0114250Y0034750D03*
X0121250Y0034750D03*
X0117750Y0026750D03*
X0101750Y0026750D03*
M02*
