G75*
%MOIN*%
%OFA0B0*%
%FSLAX25Y25*%
%IPPOS*%
%LPD*%
%AMOC8*
5,1,8,0,0,1.08239X$1,22.5*
%
%ADD10C,0.00000*%
%ADD11C,0.00400*%
%ADD12C,0.04000*%
%ADD13R,0.06500X0.06500*%
%ADD14C,0.06500*%
%ADD15C,0.03169*%
%ADD16C,0.01600*%
%ADD17C,0.01000*%
D10*
X0008000Y0002250D02*
X0008000Y0062211D01*
X0158201Y0062211D01*
X0158201Y0002250D01*
X0008000Y0002250D01*
X0024191Y0034376D02*
X0024193Y0034446D01*
X0024199Y0034516D01*
X0024209Y0034585D01*
X0024222Y0034654D01*
X0024240Y0034722D01*
X0024261Y0034789D01*
X0024286Y0034854D01*
X0024315Y0034918D01*
X0024347Y0034981D01*
X0024383Y0035041D01*
X0024422Y0035099D01*
X0024464Y0035155D01*
X0024509Y0035209D01*
X0024557Y0035260D01*
X0024608Y0035308D01*
X0024662Y0035353D01*
X0024718Y0035395D01*
X0024776Y0035434D01*
X0024836Y0035470D01*
X0024899Y0035502D01*
X0024963Y0035531D01*
X0025028Y0035556D01*
X0025095Y0035577D01*
X0025163Y0035595D01*
X0025232Y0035608D01*
X0025301Y0035618D01*
X0025371Y0035624D01*
X0025441Y0035626D01*
X0025511Y0035624D01*
X0025581Y0035618D01*
X0025650Y0035608D01*
X0025719Y0035595D01*
X0025787Y0035577D01*
X0025854Y0035556D01*
X0025919Y0035531D01*
X0025983Y0035502D01*
X0026046Y0035470D01*
X0026106Y0035434D01*
X0026164Y0035395D01*
X0026220Y0035353D01*
X0026274Y0035308D01*
X0026325Y0035260D01*
X0026373Y0035209D01*
X0026418Y0035155D01*
X0026460Y0035099D01*
X0026499Y0035041D01*
X0026535Y0034981D01*
X0026567Y0034918D01*
X0026596Y0034854D01*
X0026621Y0034789D01*
X0026642Y0034722D01*
X0026660Y0034654D01*
X0026673Y0034585D01*
X0026683Y0034516D01*
X0026689Y0034446D01*
X0026691Y0034376D01*
X0026689Y0034306D01*
X0026683Y0034236D01*
X0026673Y0034167D01*
X0026660Y0034098D01*
X0026642Y0034030D01*
X0026621Y0033963D01*
X0026596Y0033898D01*
X0026567Y0033834D01*
X0026535Y0033771D01*
X0026499Y0033711D01*
X0026460Y0033653D01*
X0026418Y0033597D01*
X0026373Y0033543D01*
X0026325Y0033492D01*
X0026274Y0033444D01*
X0026220Y0033399D01*
X0026164Y0033357D01*
X0026106Y0033318D01*
X0026046Y0033282D01*
X0025983Y0033250D01*
X0025919Y0033221D01*
X0025854Y0033196D01*
X0025787Y0033175D01*
X0025719Y0033157D01*
X0025650Y0033144D01*
X0025581Y0033134D01*
X0025511Y0033128D01*
X0025441Y0033126D01*
X0025371Y0033128D01*
X0025301Y0033134D01*
X0025232Y0033144D01*
X0025163Y0033157D01*
X0025095Y0033175D01*
X0025028Y0033196D01*
X0024963Y0033221D01*
X0024899Y0033250D01*
X0024836Y0033282D01*
X0024776Y0033318D01*
X0024718Y0033357D01*
X0024662Y0033399D01*
X0024608Y0033444D01*
X0024557Y0033492D01*
X0024509Y0033543D01*
X0024464Y0033597D01*
X0024422Y0033653D01*
X0024383Y0033711D01*
X0024347Y0033771D01*
X0024315Y0033834D01*
X0024286Y0033898D01*
X0024261Y0033963D01*
X0024240Y0034030D01*
X0024222Y0034098D01*
X0024209Y0034167D01*
X0024199Y0034236D01*
X0024193Y0034306D01*
X0024191Y0034376D01*
X0024191Y0050124D02*
X0024193Y0050194D01*
X0024199Y0050264D01*
X0024209Y0050333D01*
X0024222Y0050402D01*
X0024240Y0050470D01*
X0024261Y0050537D01*
X0024286Y0050602D01*
X0024315Y0050666D01*
X0024347Y0050729D01*
X0024383Y0050789D01*
X0024422Y0050847D01*
X0024464Y0050903D01*
X0024509Y0050957D01*
X0024557Y0051008D01*
X0024608Y0051056D01*
X0024662Y0051101D01*
X0024718Y0051143D01*
X0024776Y0051182D01*
X0024836Y0051218D01*
X0024899Y0051250D01*
X0024963Y0051279D01*
X0025028Y0051304D01*
X0025095Y0051325D01*
X0025163Y0051343D01*
X0025232Y0051356D01*
X0025301Y0051366D01*
X0025371Y0051372D01*
X0025441Y0051374D01*
X0025511Y0051372D01*
X0025581Y0051366D01*
X0025650Y0051356D01*
X0025719Y0051343D01*
X0025787Y0051325D01*
X0025854Y0051304D01*
X0025919Y0051279D01*
X0025983Y0051250D01*
X0026046Y0051218D01*
X0026106Y0051182D01*
X0026164Y0051143D01*
X0026220Y0051101D01*
X0026274Y0051056D01*
X0026325Y0051008D01*
X0026373Y0050957D01*
X0026418Y0050903D01*
X0026460Y0050847D01*
X0026499Y0050789D01*
X0026535Y0050729D01*
X0026567Y0050666D01*
X0026596Y0050602D01*
X0026621Y0050537D01*
X0026642Y0050470D01*
X0026660Y0050402D01*
X0026673Y0050333D01*
X0026683Y0050264D01*
X0026689Y0050194D01*
X0026691Y0050124D01*
X0026689Y0050054D01*
X0026683Y0049984D01*
X0026673Y0049915D01*
X0026660Y0049846D01*
X0026642Y0049778D01*
X0026621Y0049711D01*
X0026596Y0049646D01*
X0026567Y0049582D01*
X0026535Y0049519D01*
X0026499Y0049459D01*
X0026460Y0049401D01*
X0026418Y0049345D01*
X0026373Y0049291D01*
X0026325Y0049240D01*
X0026274Y0049192D01*
X0026220Y0049147D01*
X0026164Y0049105D01*
X0026106Y0049066D01*
X0026046Y0049030D01*
X0025983Y0048998D01*
X0025919Y0048969D01*
X0025854Y0048944D01*
X0025787Y0048923D01*
X0025719Y0048905D01*
X0025650Y0048892D01*
X0025581Y0048882D01*
X0025511Y0048876D01*
X0025441Y0048874D01*
X0025371Y0048876D01*
X0025301Y0048882D01*
X0025232Y0048892D01*
X0025163Y0048905D01*
X0025095Y0048923D01*
X0025028Y0048944D01*
X0024963Y0048969D01*
X0024899Y0048998D01*
X0024836Y0049030D01*
X0024776Y0049066D01*
X0024718Y0049105D01*
X0024662Y0049147D01*
X0024608Y0049192D01*
X0024557Y0049240D01*
X0024509Y0049291D01*
X0024464Y0049345D01*
X0024422Y0049401D01*
X0024383Y0049459D01*
X0024347Y0049519D01*
X0024315Y0049582D01*
X0024286Y0049646D01*
X0024261Y0049711D01*
X0024240Y0049778D01*
X0024222Y0049846D01*
X0024209Y0049915D01*
X0024199Y0049984D01*
X0024193Y0050054D01*
X0024191Y0050124D01*
D11*
X0056335Y0051037D02*
X0056335Y0047967D01*
X0057102Y0047200D01*
X0058637Y0047200D01*
X0059404Y0047967D01*
X0056335Y0051037D01*
X0057102Y0051804D01*
X0058637Y0051804D01*
X0059404Y0051037D01*
X0059404Y0047967D01*
X0060939Y0047967D02*
X0060939Y0047200D01*
X0061706Y0047200D01*
X0061706Y0047967D01*
X0060939Y0047967D01*
X0063241Y0047200D02*
X0066310Y0047200D01*
X0064775Y0047200D02*
X0064775Y0051804D01*
X0066310Y0050269D01*
X0072448Y0050269D02*
X0073983Y0047200D01*
X0075518Y0050269D01*
X0077052Y0049502D02*
X0077052Y0048735D01*
X0080122Y0048735D01*
X0080122Y0049502D02*
X0080122Y0047967D01*
X0079354Y0047200D01*
X0077820Y0047200D01*
X0077052Y0049502D02*
X0077820Y0050269D01*
X0079354Y0050269D01*
X0080122Y0049502D01*
X0081656Y0049502D02*
X0082424Y0048735D01*
X0084726Y0048735D01*
X0083191Y0048735D02*
X0081656Y0047200D01*
X0084726Y0047200D02*
X0084726Y0051804D01*
X0082424Y0051804D01*
X0081656Y0051037D01*
X0081656Y0049502D01*
X0072134Y0018804D02*
X0072134Y0014200D01*
X0072134Y0015735D02*
X0069832Y0017269D01*
X0068297Y0017269D02*
X0068297Y0014967D01*
X0067530Y0014200D01*
X0065228Y0014200D01*
X0065228Y0017269D01*
X0063693Y0016502D02*
X0062926Y0017269D01*
X0060624Y0017269D01*
X0059089Y0018037D02*
X0058322Y0018804D01*
X0056787Y0018804D01*
X0056020Y0018037D01*
X0056020Y0016502D01*
X0056787Y0015735D01*
X0056787Y0017269D01*
X0058322Y0017269D01*
X0058322Y0015735D01*
X0056787Y0015735D01*
X0056020Y0014967D02*
X0056787Y0014200D01*
X0058322Y0014200D01*
X0059089Y0014967D01*
X0059089Y0018037D01*
X0062926Y0015735D02*
X0063693Y0016502D01*
X0062926Y0015735D02*
X0061391Y0015735D01*
X0060624Y0014967D01*
X0061391Y0014200D01*
X0063693Y0014200D01*
X0069832Y0014200D02*
X0072134Y0015735D01*
X0073669Y0017269D02*
X0074436Y0017269D01*
X0075970Y0015735D01*
X0077505Y0015735D02*
X0079807Y0015735D01*
X0080574Y0014967D01*
X0079807Y0014200D01*
X0077505Y0014200D01*
X0077505Y0016502D01*
X0078272Y0017269D01*
X0079807Y0017269D01*
X0082109Y0016502D02*
X0082109Y0014200D01*
X0083644Y0014200D02*
X0083644Y0016502D01*
X0082876Y0017269D01*
X0082109Y0016502D01*
X0083644Y0016502D02*
X0084411Y0017269D01*
X0085178Y0017269D01*
X0085178Y0014200D01*
X0086213Y0010804D02*
X0087748Y0010804D01*
X0088515Y0010037D01*
X0090050Y0010037D02*
X0090050Y0009269D01*
X0090817Y0008502D01*
X0092352Y0008502D01*
X0093119Y0009269D01*
X0093119Y0010037D01*
X0092352Y0010804D01*
X0090817Y0010804D01*
X0090050Y0010037D01*
X0090817Y0008502D02*
X0090050Y0007735D01*
X0090050Y0006967D01*
X0090817Y0006200D01*
X0092352Y0006200D01*
X0093119Y0006967D01*
X0093119Y0007735D01*
X0092352Y0008502D01*
X0094654Y0008502D02*
X0094654Y0010037D01*
X0095421Y0010804D01*
X0097723Y0010804D01*
X0097723Y0006200D01*
X0099257Y0006967D02*
X0100025Y0006200D01*
X0101559Y0006200D01*
X0102327Y0006967D01*
X0103861Y0006200D02*
X0106931Y0006200D01*
X0106931Y0010804D01*
X0103861Y0010804D01*
X0102327Y0010037D02*
X0102327Y0009269D01*
X0101559Y0008502D01*
X0100025Y0008502D01*
X0099257Y0007735D01*
X0099257Y0006967D01*
X0097723Y0007735D02*
X0095421Y0007735D01*
X0094654Y0008502D01*
X0099257Y0010037D02*
X0100025Y0010804D01*
X0101559Y0010804D01*
X0102327Y0010037D01*
X0105396Y0008502D02*
X0106931Y0008502D01*
X0088515Y0006200D02*
X0085446Y0009269D01*
X0085446Y0010037D01*
X0086213Y0010804D01*
X0083911Y0008502D02*
X0081609Y0008502D01*
X0080842Y0007735D01*
X0080842Y0006967D01*
X0081609Y0006200D01*
X0083144Y0006200D01*
X0083911Y0006967D01*
X0083911Y0008502D01*
X0082376Y0010037D01*
X0080842Y0010804D01*
X0079307Y0008502D02*
X0077772Y0010037D01*
X0076238Y0010804D01*
X0077005Y0008502D02*
X0079307Y0008502D01*
X0079307Y0006967D01*
X0078540Y0006200D01*
X0077005Y0006200D01*
X0076238Y0006967D01*
X0076238Y0007735D01*
X0077005Y0008502D01*
X0074703Y0006200D02*
X0071634Y0010804D01*
X0070099Y0010037D02*
X0070099Y0009269D01*
X0069332Y0008502D01*
X0067797Y0008502D01*
X0067030Y0007735D01*
X0067030Y0006967D01*
X0067797Y0006200D01*
X0069332Y0006200D01*
X0070099Y0006967D01*
X0070099Y0007735D01*
X0069332Y0008502D01*
X0067797Y0008502D02*
X0067030Y0009269D01*
X0067030Y0010037D01*
X0067797Y0010804D01*
X0069332Y0010804D01*
X0070099Y0010037D01*
X0065495Y0010804D02*
X0065495Y0008502D01*
X0063961Y0009269D01*
X0063193Y0009269D01*
X0062426Y0008502D01*
X0062426Y0006967D01*
X0063193Y0006200D01*
X0064728Y0006200D01*
X0065495Y0006967D01*
X0065495Y0010804D02*
X0062426Y0010804D01*
X0056287Y0010804D02*
X0053986Y0010804D01*
X0053218Y0010037D01*
X0053218Y0008502D01*
X0053986Y0007735D01*
X0056287Y0007735D01*
X0056287Y0006200D02*
X0056287Y0010804D01*
X0051684Y0009269D02*
X0051684Y0006200D01*
X0047847Y0006967D02*
X0047080Y0006200D01*
X0045545Y0006200D01*
X0044778Y0006967D01*
X0044778Y0008502D01*
X0045545Y0009269D01*
X0047080Y0009269D01*
X0047847Y0008502D01*
X0047847Y0006967D01*
X0050149Y0009269D02*
X0051684Y0007735D01*
X0050149Y0009269D02*
X0049382Y0009269D01*
X0043243Y0008502D02*
X0043243Y0006967D01*
X0042476Y0006200D01*
X0040174Y0006200D01*
X0040174Y0005433D02*
X0040174Y0009269D01*
X0042476Y0009269D01*
X0043243Y0008502D01*
X0038639Y0009269D02*
X0038639Y0006200D01*
X0040174Y0005433D02*
X0040941Y0004665D01*
X0041708Y0004665D01*
X0038639Y0007735D02*
X0037104Y0009269D01*
X0036337Y0009269D01*
X0034035Y0009269D02*
X0032501Y0009269D01*
X0031733Y0008502D01*
X0031733Y0006200D01*
X0034035Y0006200D01*
X0034803Y0006967D01*
X0034035Y0007735D01*
X0031733Y0007735D01*
X0030199Y0009269D02*
X0029431Y0009269D01*
X0028664Y0008502D01*
X0027897Y0009269D01*
X0027129Y0008502D01*
X0027129Y0006200D01*
X0025595Y0006200D02*
X0025595Y0009269D01*
X0024827Y0009269D01*
X0024060Y0008502D01*
X0023293Y0009269D01*
X0022525Y0008502D01*
X0022525Y0006200D01*
X0024060Y0006200D02*
X0024060Y0008502D01*
X0020991Y0008502D02*
X0020223Y0009269D01*
X0018689Y0009269D01*
X0017921Y0008502D01*
X0017921Y0007735D01*
X0020991Y0007735D01*
X0020991Y0008502D02*
X0020991Y0006967D01*
X0020223Y0006200D01*
X0018689Y0006200D01*
X0016387Y0006200D02*
X0016387Y0009269D01*
X0016387Y0007735D02*
X0014852Y0009269D01*
X0014085Y0009269D01*
X0015352Y0012665D02*
X0014585Y0013433D01*
X0014585Y0017269D01*
X0016887Y0017269D01*
X0017654Y0016502D01*
X0017654Y0014967D01*
X0016887Y0014200D01*
X0014585Y0014200D01*
X0015352Y0012665D02*
X0016119Y0012665D01*
X0021491Y0014200D02*
X0021491Y0017269D01*
X0021491Y0015735D02*
X0019956Y0017269D01*
X0019189Y0017269D01*
X0023025Y0016502D02*
X0023793Y0017269D01*
X0025327Y0017269D01*
X0026095Y0016502D01*
X0026095Y0014967D01*
X0025327Y0014200D01*
X0023793Y0014200D01*
X0023025Y0014967D01*
X0023025Y0016502D01*
X0027629Y0014967D02*
X0027629Y0014200D01*
X0028397Y0014200D01*
X0028397Y0014967D01*
X0027629Y0014967D01*
X0029931Y0014967D02*
X0030699Y0015735D01*
X0032233Y0015735D01*
X0033001Y0016502D01*
X0032233Y0017269D01*
X0029931Y0017269D01*
X0029931Y0014967D02*
X0030699Y0014200D01*
X0033001Y0014200D01*
X0034535Y0014200D02*
X0034535Y0017269D01*
X0037604Y0017269D02*
X0037604Y0014967D01*
X0036837Y0014200D01*
X0034535Y0014200D01*
X0039139Y0014200D02*
X0041441Y0015735D01*
X0039139Y0017269D01*
X0041441Y0018804D02*
X0041441Y0014200D01*
X0043743Y0017269D02*
X0045278Y0015735D01*
X0046812Y0015735D02*
X0049114Y0015735D01*
X0049882Y0014967D01*
X0049114Y0014200D01*
X0046812Y0014200D01*
X0046812Y0016502D01*
X0047580Y0017269D01*
X0049114Y0017269D01*
X0051416Y0016502D02*
X0051416Y0014200D01*
X0052951Y0014200D02*
X0052951Y0016502D01*
X0052184Y0017269D01*
X0051416Y0016502D01*
X0052951Y0016502D02*
X0053718Y0017269D01*
X0054485Y0017269D01*
X0054485Y0014200D01*
X0045278Y0014200D02*
X0045278Y0017269D01*
X0043743Y0017269D02*
X0042976Y0017269D01*
X0030199Y0009269D02*
X0030199Y0006200D01*
X0028664Y0006200D02*
X0028664Y0008502D01*
X0075970Y0014200D02*
X0075970Y0017269D01*
X0085446Y0006200D02*
X0088515Y0006200D01*
D12*
X0017500Y0029550D02*
X0013500Y0029550D01*
X0013500Y0054950D02*
X0017500Y0054950D01*
D13*
X0103000Y0057250D03*
X0113500Y0057250D03*
X0153000Y0057250D03*
D14*
X0153000Y0047250D03*
X0153000Y0037250D03*
X0153000Y0027250D03*
X0153000Y0017250D03*
X0153000Y0007250D03*
X0123500Y0057250D03*
X0093000Y0057250D03*
D15*
X0126000Y0039000D03*
X0126250Y0034500D03*
X0110000Y0034250D03*
X0093750Y0036000D03*
X0075500Y0031250D03*
X0064250Y0030000D03*
X0069000Y0025250D03*
X0093750Y0027000D03*
X0097250Y0021750D03*
X0050250Y0039500D03*
X0037000Y0039500D03*
X0032000Y0048750D03*
X0032000Y0028250D03*
D16*
X0032000Y0043250D01*
X0046500Y0043250D01*
X0050250Y0039500D01*
X0053019Y0040614D02*
X0123439Y0040614D01*
X0123470Y0040690D02*
X0123016Y0039594D01*
X0123016Y0038406D01*
X0123021Y0038393D01*
X0115110Y0028900D01*
X0107337Y0028900D01*
X0107400Y0028963D01*
X0109703Y0031266D01*
X0110594Y0031266D01*
X0111690Y0031720D01*
X0112530Y0032560D01*
X0112984Y0033656D01*
X0112984Y0034844D01*
X0112530Y0035940D01*
X0111690Y0036780D01*
X0110594Y0037234D01*
X0109406Y0037234D01*
X0108310Y0036780D01*
X0107470Y0035940D01*
X0107016Y0034844D01*
X0107016Y0033953D01*
X0104713Y0031650D01*
X0091573Y0031650D01*
X0090861Y0031705D01*
X0090797Y0031650D01*
X0090713Y0031650D01*
X0090208Y0031145D01*
X0089047Y0030150D01*
X0072489Y0030150D01*
X0072454Y0030182D01*
X0071709Y0030150D01*
X0070963Y0030150D01*
X0070929Y0030116D01*
X0070881Y0030114D01*
X0070377Y0029564D01*
X0069850Y0029037D01*
X0069850Y0028989D01*
X0069158Y0028234D01*
X0068406Y0028234D01*
X0067310Y0027780D01*
X0066470Y0026940D01*
X0066016Y0025844D01*
X0066016Y0024656D01*
X0066470Y0023560D01*
X0067310Y0022720D01*
X0068406Y0022266D01*
X0069594Y0022266D01*
X0070690Y0022720D01*
X0071530Y0023560D01*
X0071984Y0024656D01*
X0071984Y0025694D01*
X0072586Y0026350D01*
X0089677Y0026350D01*
X0090389Y0026295D01*
X0090453Y0026350D01*
X0090537Y0026350D01*
X0090766Y0026579D01*
X0090766Y0026406D01*
X0091220Y0025310D01*
X0092060Y0024470D01*
X0093156Y0024016D01*
X0094344Y0024016D01*
X0095440Y0024470D01*
X0096070Y0025100D01*
X0115312Y0025100D01*
X0115388Y0025037D01*
X0116044Y0025096D01*
X0114853Y0023650D01*
X0099570Y0023650D01*
X0098940Y0024280D01*
X0097844Y0024734D01*
X0096656Y0024734D01*
X0095560Y0024280D01*
X0094720Y0023440D01*
X0094266Y0022344D01*
X0094266Y0021156D01*
X0094720Y0020060D01*
X0095560Y0019220D01*
X0096656Y0018766D01*
X0097844Y0018766D01*
X0098940Y0019220D01*
X0099570Y0019850D01*
X0115068Y0019850D01*
X0115150Y0019783D01*
X0115842Y0019850D01*
X0116537Y0019850D01*
X0116611Y0019925D01*
X0116716Y0019935D01*
X0117158Y0020471D01*
X0117650Y0020963D01*
X0117650Y0021068D01*
X0126254Y0031516D01*
X0126844Y0031516D01*
X0127940Y0031970D01*
X0128780Y0032810D01*
X0129234Y0033906D01*
X0129234Y0035094D01*
X0128780Y0036190D01*
X0128095Y0036875D01*
X0128530Y0037310D01*
X0128984Y0038406D01*
X0128984Y0039594D01*
X0128530Y0040690D01*
X0127690Y0041530D01*
X0126594Y0041984D01*
X0125406Y0041984D01*
X0124310Y0041530D01*
X0123470Y0040690D01*
X0123016Y0039016D02*
X0053234Y0039016D01*
X0053234Y0038906D02*
X0053234Y0040094D01*
X0052780Y0041190D01*
X0051940Y0042030D01*
X0050844Y0042484D01*
X0050377Y0042484D01*
X0048700Y0044161D01*
X0047411Y0045450D01*
X0034200Y0045450D01*
X0034200Y0046730D01*
X0034530Y0047060D01*
X0034984Y0048156D01*
X0034984Y0049344D01*
X0034530Y0050440D01*
X0033690Y0051280D01*
X0032594Y0051734D01*
X0031406Y0051734D01*
X0030310Y0051280D01*
X0029470Y0050440D01*
X0029016Y0049344D01*
X0029016Y0048156D01*
X0029470Y0047060D01*
X0029800Y0046730D01*
X0029800Y0030270D01*
X0029470Y0029940D01*
X0029016Y0028844D01*
X0029016Y0027656D01*
X0029470Y0026560D01*
X0030310Y0025720D01*
X0031406Y0025266D01*
X0032594Y0025266D01*
X0033690Y0025720D01*
X0034530Y0026560D01*
X0034984Y0027656D01*
X0034984Y0028844D01*
X0034530Y0029940D01*
X0034200Y0030270D01*
X0034200Y0041050D01*
X0045589Y0041050D01*
X0047266Y0039373D01*
X0047266Y0038906D01*
X0047720Y0037810D01*
X0048560Y0036970D01*
X0049656Y0036516D01*
X0050844Y0036516D01*
X0051940Y0036970D01*
X0052780Y0037810D01*
X0053234Y0038906D01*
X0052388Y0037417D02*
X0068727Y0037417D01*
X0068642Y0037329D02*
X0068100Y0036787D01*
X0068100Y0036763D01*
X0064478Y0032984D01*
X0063656Y0032984D01*
X0062560Y0032530D01*
X0061720Y0031690D01*
X0061266Y0030594D01*
X0061266Y0029406D01*
X0061720Y0028310D01*
X0062560Y0027470D01*
X0063656Y0027016D01*
X0064844Y0027016D01*
X0065940Y0027470D01*
X0066780Y0028310D01*
X0067234Y0029406D01*
X0067234Y0030368D01*
X0070811Y0034100D01*
X0091430Y0034100D01*
X0092060Y0033470D01*
X0093156Y0033016D01*
X0094344Y0033016D01*
X0095440Y0033470D01*
X0096280Y0034310D01*
X0096734Y0035406D01*
X0096734Y0036594D01*
X0096280Y0037690D01*
X0095440Y0038530D01*
X0094344Y0038984D01*
X0093156Y0038984D01*
X0092060Y0038530D01*
X0091430Y0037900D01*
X0070763Y0037900D01*
X0070746Y0037916D01*
X0069980Y0037900D01*
X0069213Y0037900D01*
X0069196Y0037883D01*
X0069173Y0037883D01*
X0068642Y0037329D01*
X0067195Y0035819D02*
X0034200Y0035819D01*
X0034200Y0034220D02*
X0065663Y0034220D01*
X0062781Y0032622D02*
X0034200Y0032622D01*
X0034200Y0031023D02*
X0061444Y0031023D01*
X0061266Y0029425D02*
X0034744Y0029425D01*
X0034984Y0027826D02*
X0062203Y0027826D01*
X0066297Y0027826D02*
X0067421Y0027826D01*
X0067234Y0029425D02*
X0070238Y0029425D01*
X0067862Y0031023D02*
X0090066Y0031023D01*
X0096191Y0034220D02*
X0107016Y0034220D01*
X0107420Y0035819D02*
X0096734Y0035819D01*
X0096393Y0037417D02*
X0122208Y0037417D01*
X0120876Y0035819D02*
X0112580Y0035819D01*
X0112984Y0034220D02*
X0119544Y0034220D01*
X0118212Y0032622D02*
X0112556Y0032622D01*
X0109460Y0031023D02*
X0116879Y0031023D01*
X0115547Y0029425D02*
X0107862Y0029425D01*
X0105685Y0032622D02*
X0069394Y0032622D01*
X0075500Y0031250D02*
X0076250Y0031000D01*
X0072474Y0026228D02*
X0090840Y0026228D01*
X0091900Y0024629D02*
X0071973Y0024629D01*
X0071001Y0023031D02*
X0094550Y0023031D01*
X0094266Y0021432D02*
X0009800Y0021432D01*
X0009800Y0019834D02*
X0040208Y0019834D01*
X0039841Y0019467D02*
X0039841Y0018724D01*
X0039475Y0018968D01*
X0038386Y0018750D01*
X0038267Y0018869D01*
X0036942Y0018869D01*
X0036070Y0017997D01*
X0035198Y0018869D01*
X0033872Y0018869D01*
X0033384Y0018381D01*
X0032896Y0018869D01*
X0029268Y0018869D01*
X0028331Y0017932D01*
X0028331Y0016607D01*
X0028370Y0016567D01*
X0027695Y0016567D01*
X0027695Y0017165D01*
X0027118Y0017741D01*
X0026927Y0017932D01*
X0026566Y0018293D01*
X0025990Y0018869D01*
X0023130Y0018869D01*
X0022642Y0018381D01*
X0022153Y0018869D01*
X0020828Y0018869D01*
X0020723Y0018765D01*
X0020619Y0018869D01*
X0018526Y0018869D01*
X0018038Y0018381D01*
X0017550Y0018869D01*
X0013922Y0018869D01*
X0012985Y0017932D01*
X0012985Y0012770D01*
X0013922Y0011833D01*
X0014689Y0011065D01*
X0016015Y0011065D01*
X0016782Y0011065D01*
X0017719Y0012003D01*
X0017719Y0012770D01*
X0018487Y0013537D01*
X0019254Y0014305D01*
X0019254Y0015669D01*
X0019293Y0015669D01*
X0019891Y0015072D01*
X0019891Y0013537D01*
X0020828Y0012600D01*
X0022153Y0012600D01*
X0022642Y0013088D01*
X0023130Y0012600D01*
X0025990Y0012600D01*
X0026478Y0013088D01*
X0026967Y0012600D01*
X0029059Y0012600D01*
X0029548Y0013088D01*
X0030036Y0012600D01*
X0033663Y0012600D01*
X0033768Y0012705D01*
X0033872Y0012600D01*
X0037500Y0012600D01*
X0037970Y0013070D01*
X0038175Y0012761D01*
X0039475Y0012501D01*
X0040316Y0013062D01*
X0040778Y0012600D01*
X0042104Y0012600D01*
X0043041Y0013537D01*
X0043041Y0015250D01*
X0043140Y0015399D01*
X0043087Y0015662D01*
X0043678Y0015072D01*
X0043678Y0013537D01*
X0044615Y0012600D01*
X0045940Y0012600D01*
X0046045Y0012705D01*
X0046150Y0012600D01*
X0049777Y0012600D01*
X0050265Y0013088D01*
X0050753Y0012600D01*
X0052079Y0012600D01*
X0052184Y0012705D01*
X0052288Y0012600D01*
X0053614Y0012600D01*
X0053718Y0012705D01*
X0053823Y0012600D01*
X0055148Y0012600D01*
X0055636Y0013088D01*
X0056125Y0012600D01*
X0058985Y0012600D01*
X0059857Y0013472D01*
X0059961Y0013367D01*
X0059961Y0013367D01*
X0060169Y0013160D01*
X0060729Y0012600D01*
X0064356Y0012600D01*
X0064461Y0012705D01*
X0064565Y0012600D01*
X0068193Y0012600D01*
X0068662Y0013070D01*
X0068868Y0012761D01*
X0070168Y0012501D01*
X0071009Y0013062D01*
X0071471Y0012600D01*
X0072797Y0012600D01*
X0073734Y0013537D01*
X0073734Y0015250D01*
X0073833Y0015399D01*
X0073780Y0015662D01*
X0074370Y0015072D01*
X0074370Y0013537D01*
X0075308Y0012600D01*
X0076633Y0012600D01*
X0076738Y0012705D01*
X0076842Y0012600D01*
X0080470Y0012600D01*
X0080958Y0013088D01*
X0081446Y0012600D01*
X0082772Y0012600D01*
X0082876Y0012705D01*
X0082981Y0012600D01*
X0084306Y0012600D01*
X0084411Y0012705D01*
X0084516Y0012600D01*
X0085841Y0012600D01*
X0086778Y0013537D01*
X0086778Y0017932D01*
X0085841Y0018869D01*
X0083748Y0018869D01*
X0083644Y0018765D01*
X0083539Y0018869D01*
X0082214Y0018869D01*
X0081446Y0018102D01*
X0081342Y0017997D01*
X0080470Y0018869D01*
X0077610Y0018869D01*
X0077121Y0018381D01*
X0076633Y0018869D01*
X0075308Y0018869D01*
X0075203Y0018765D01*
X0075099Y0018869D01*
X0073734Y0018869D01*
X0073734Y0019467D01*
X0072797Y0020404D01*
X0071471Y0020404D01*
X0070534Y0019467D01*
X0070534Y0018724D01*
X0070168Y0018968D01*
X0069079Y0018750D01*
X0068960Y0018869D01*
X0067635Y0018869D01*
X0066763Y0017997D01*
X0065891Y0018869D01*
X0064565Y0018869D01*
X0064077Y0018381D01*
X0063589Y0018869D01*
X0060519Y0018869D01*
X0060129Y0019259D01*
X0059922Y0019467D01*
X0059545Y0019844D01*
X0058985Y0020404D01*
X0056125Y0020404D01*
X0055357Y0019637D01*
X0054590Y0018869D01*
X0053055Y0018869D01*
X0052951Y0018765D01*
X0052846Y0018869D01*
X0051521Y0018869D01*
X0050753Y0018102D01*
X0050649Y0017997D01*
X0049777Y0018869D01*
X0046917Y0018869D01*
X0046429Y0018381D01*
X0045940Y0018869D01*
X0044615Y0018869D01*
X0044510Y0018765D01*
X0044406Y0018869D01*
X0043041Y0018869D01*
X0043041Y0019467D01*
X0042104Y0020404D01*
X0040778Y0020404D01*
X0039841Y0019467D01*
X0042674Y0019834D02*
X0055554Y0019834D01*
X0059555Y0019834D02*
X0070901Y0019834D01*
X0073367Y0019834D02*
X0094946Y0019834D01*
X0099554Y0019834D02*
X0115088Y0019834D01*
X0115673Y0019834D02*
X0149037Y0019834D01*
X0149058Y0019884D02*
X0148350Y0018175D01*
X0148350Y0016325D01*
X0149058Y0014616D01*
X0150366Y0013308D01*
X0152075Y0012600D01*
X0153925Y0012600D01*
X0155634Y0013308D01*
X0156401Y0014075D01*
X0156401Y0010991D01*
X0156290Y0011102D01*
X0155647Y0011569D01*
X0154939Y0011930D01*
X0154183Y0012176D01*
X0153397Y0012300D01*
X0153075Y0012300D01*
X0153075Y0007325D01*
X0152925Y0007325D01*
X0152925Y0012300D01*
X0152603Y0012300D01*
X0151817Y0012176D01*
X0151061Y0011930D01*
X0150353Y0011569D01*
X0149710Y0011102D01*
X0149148Y0010540D01*
X0148681Y0009897D01*
X0148320Y0009189D01*
X0148074Y0008433D01*
X0147950Y0007647D01*
X0147950Y0007325D01*
X0152925Y0007325D01*
X0152925Y0007175D01*
X0147950Y0007175D01*
X0147950Y0006853D01*
X0148074Y0006067D01*
X0148320Y0005311D01*
X0148681Y0004603D01*
X0149083Y0004050D01*
X0043308Y0004050D01*
X0043308Y0004770D01*
X0044010Y0005472D01*
X0044115Y0005367D01*
X0044322Y0005160D01*
X0044882Y0004600D01*
X0047742Y0004600D01*
X0049447Y0006305D01*
X0049447Y0007669D01*
X0049486Y0007669D01*
X0050084Y0007072D01*
X0050084Y0005537D01*
X0051021Y0004600D01*
X0052346Y0004600D01*
X0053284Y0005537D01*
X0053284Y0006174D01*
X0053323Y0006135D01*
X0054687Y0006135D01*
X0054687Y0005537D01*
X0055625Y0004600D01*
X0056950Y0004600D01*
X0057887Y0005537D01*
X0057887Y0011467D01*
X0056950Y0012404D01*
X0053323Y0012404D01*
X0052555Y0011637D01*
X0051788Y0010869D01*
X0051021Y0010869D01*
X0050916Y0010765D01*
X0050812Y0010869D01*
X0048719Y0010869D01*
X0048231Y0010381D01*
X0047742Y0010869D01*
X0044882Y0010869D01*
X0044010Y0009997D01*
X0043715Y0010293D01*
X0043138Y0010869D01*
X0039511Y0010869D01*
X0039406Y0010765D01*
X0039302Y0010869D01*
X0037976Y0010869D01*
X0037872Y0010765D01*
X0037767Y0010869D01*
X0035674Y0010869D01*
X0035186Y0010381D01*
X0034698Y0010869D01*
X0031838Y0010869D01*
X0031350Y0010381D01*
X0030861Y0010869D01*
X0028769Y0010869D01*
X0028664Y0010765D01*
X0028559Y0010869D01*
X0027234Y0010869D01*
X0026746Y0010381D01*
X0026257Y0010869D01*
X0024165Y0010869D01*
X0024060Y0010765D01*
X0023955Y0010869D01*
X0022630Y0010869D01*
X0021863Y0010102D01*
X0021758Y0009997D01*
X0021446Y0010309D01*
X0020886Y0010869D01*
X0018026Y0010869D01*
X0017538Y0010381D01*
X0017050Y0010869D01*
X0015724Y0010869D01*
X0015619Y0010765D01*
X0015515Y0010869D01*
X0013422Y0010869D01*
X0012485Y0009932D01*
X0012485Y0008607D01*
X0013422Y0007669D01*
X0014189Y0007669D01*
X0014787Y0007072D01*
X0014787Y0005537D01*
X0015724Y0004600D01*
X0017050Y0004600D01*
X0017538Y0005088D01*
X0018026Y0004600D01*
X0020886Y0004600D01*
X0021374Y0005088D01*
X0021863Y0004600D01*
X0023188Y0004600D01*
X0023293Y0004705D01*
X0023397Y0004600D01*
X0024723Y0004600D01*
X0024827Y0004705D01*
X0024932Y0004600D01*
X0026257Y0004600D01*
X0026362Y0004705D01*
X0026467Y0004600D01*
X0027792Y0004600D01*
X0027897Y0004705D01*
X0028001Y0004600D01*
X0029327Y0004600D01*
X0029431Y0004705D01*
X0029536Y0004600D01*
X0030861Y0004600D01*
X0030966Y0004705D01*
X0031070Y0004600D01*
X0034698Y0004600D01*
X0035927Y0005829D01*
X0036402Y0006305D01*
X0036402Y0007630D01*
X0036363Y0007669D01*
X0036442Y0007669D01*
X0037039Y0007072D01*
X0037039Y0005537D01*
X0037976Y0004600D01*
X0038744Y0004600D01*
X0039294Y0004050D01*
X0009800Y0004050D01*
X0009800Y0028673D01*
X0009846Y0028442D01*
X0010132Y0027750D01*
X0010548Y0027128D01*
X0011078Y0026598D01*
X0011700Y0026182D01*
X0012392Y0025896D01*
X0013126Y0025750D01*
X0015500Y0025750D01*
X0017874Y0025750D01*
X0018608Y0025896D01*
X0019300Y0026182D01*
X0019922Y0026598D01*
X0020452Y0027128D01*
X0020868Y0027750D01*
X0021154Y0028442D01*
X0021300Y0029176D01*
X0021300Y0029550D01*
X0021300Y0029924D01*
X0021154Y0030658D01*
X0020868Y0031350D01*
X0020452Y0031972D01*
X0019922Y0032502D01*
X0019300Y0032918D01*
X0018608Y0033204D01*
X0017874Y0033350D01*
X0015500Y0033350D01*
X0015500Y0029550D01*
X0015500Y0029550D01*
X0021300Y0029550D01*
X0015500Y0029550D01*
X0015500Y0029550D01*
X0015500Y0033350D01*
X0013126Y0033350D01*
X0012392Y0033204D01*
X0011700Y0032918D01*
X0011078Y0032502D01*
X0010548Y0031972D01*
X0010132Y0031350D01*
X0009846Y0030658D01*
X0009800Y0030427D01*
X0009800Y0054073D01*
X0009846Y0053842D01*
X0010132Y0053150D01*
X0010548Y0052528D01*
X0011078Y0051998D01*
X0011700Y0051582D01*
X0012392Y0051296D01*
X0013126Y0051150D01*
X0015500Y0051150D01*
X0017874Y0051150D01*
X0018608Y0051296D01*
X0019300Y0051582D01*
X0019922Y0051998D01*
X0020452Y0052528D01*
X0020868Y0053150D01*
X0021154Y0053842D01*
X0021300Y0054576D01*
X0021300Y0054950D01*
X0021300Y0055324D01*
X0021154Y0056058D01*
X0020868Y0056750D01*
X0020452Y0057372D01*
X0019922Y0057902D01*
X0019300Y0058318D01*
X0018608Y0058604D01*
X0017874Y0058750D01*
X0015500Y0058750D01*
X0015500Y0054950D01*
X0015500Y0054950D01*
X0021300Y0054950D01*
X0015500Y0054950D01*
X0015500Y0054950D01*
X0015500Y0058750D01*
X0013126Y0058750D01*
X0012392Y0058604D01*
X0011700Y0058318D01*
X0011078Y0057902D01*
X0010548Y0057372D01*
X0010132Y0056750D01*
X0009846Y0056058D01*
X0009800Y0055827D01*
X0009800Y0060411D01*
X0089054Y0060411D01*
X0088681Y0059897D01*
X0088320Y0059189D01*
X0088074Y0058433D01*
X0087950Y0057647D01*
X0087950Y0057325D01*
X0092925Y0057325D01*
X0092925Y0057175D01*
X0087950Y0057175D01*
X0087950Y0056853D01*
X0088074Y0056067D01*
X0088320Y0055311D01*
X0088681Y0054603D01*
X0089148Y0053960D01*
X0089710Y0053398D01*
X0090353Y0052931D01*
X0091061Y0052570D01*
X0091817Y0052324D01*
X0092603Y0052200D01*
X0092925Y0052200D01*
X0092925Y0057175D01*
X0093075Y0057175D01*
X0093075Y0057325D01*
X0098050Y0057325D01*
X0098050Y0057647D01*
X0097926Y0058433D01*
X0097680Y0059189D01*
X0097319Y0059897D01*
X0096946Y0060411D01*
X0098350Y0060411D01*
X0098350Y0053420D01*
X0099170Y0052600D01*
X0106830Y0052600D01*
X0107650Y0053420D01*
X0107650Y0060411D01*
X0108850Y0060411D01*
X0108850Y0053420D01*
X0109670Y0052600D01*
X0117330Y0052600D01*
X0118150Y0053420D01*
X0118150Y0060411D01*
X0120085Y0060411D01*
X0119558Y0059884D01*
X0118850Y0058175D01*
X0118850Y0056325D01*
X0119558Y0054616D01*
X0120866Y0053308D01*
X0122575Y0052600D01*
X0124425Y0052600D01*
X0126134Y0053308D01*
X0127442Y0054616D01*
X0128150Y0056325D01*
X0128150Y0058175D01*
X0127442Y0059884D01*
X0126915Y0060411D01*
X0148350Y0060411D01*
X0148350Y0053420D01*
X0149170Y0052600D01*
X0156401Y0052600D01*
X0156401Y0050425D01*
X0155634Y0051192D01*
X0153925Y0051900D01*
X0152075Y0051900D01*
X0150366Y0051192D01*
X0149058Y0049884D01*
X0148350Y0048175D01*
X0148350Y0046325D01*
X0149058Y0044616D01*
X0150366Y0043308D01*
X0152075Y0042600D01*
X0153925Y0042600D01*
X0155634Y0043308D01*
X0156401Y0044075D01*
X0156401Y0040425D01*
X0155634Y0041192D01*
X0153925Y0041900D01*
X0152075Y0041900D01*
X0150366Y0041192D01*
X0149058Y0039884D01*
X0148350Y0038175D01*
X0148350Y0036325D01*
X0149058Y0034616D01*
X0150366Y0033308D01*
X0152075Y0032600D01*
X0153925Y0032600D01*
X0155634Y0033308D01*
X0156401Y0034075D01*
X0156401Y0030425D01*
X0155634Y0031192D01*
X0153925Y0031900D01*
X0152075Y0031900D01*
X0150366Y0031192D01*
X0149058Y0029884D01*
X0148350Y0028175D01*
X0148350Y0026325D01*
X0149058Y0024616D01*
X0150366Y0023308D01*
X0152075Y0022600D01*
X0153925Y0022600D01*
X0155634Y0023308D01*
X0156401Y0024075D01*
X0156401Y0020425D01*
X0155634Y0021192D01*
X0153925Y0021900D01*
X0152075Y0021900D01*
X0150366Y0021192D01*
X0149058Y0019884D01*
X0150946Y0021432D02*
X0117950Y0021432D01*
X0119266Y0023031D02*
X0151035Y0023031D01*
X0149052Y0024629D02*
X0120582Y0024629D01*
X0121899Y0026228D02*
X0148390Y0026228D01*
X0148350Y0027826D02*
X0123215Y0027826D01*
X0124532Y0029425D02*
X0148868Y0029425D01*
X0150197Y0031023D02*
X0125848Y0031023D01*
X0128592Y0032622D02*
X0152023Y0032622D01*
X0153977Y0032622D02*
X0156401Y0032622D01*
X0156401Y0031023D02*
X0155803Y0031023D01*
X0149454Y0034220D02*
X0129234Y0034220D01*
X0128934Y0035819D02*
X0148560Y0035819D01*
X0148350Y0037417D02*
X0128575Y0037417D01*
X0128984Y0039016D02*
X0148698Y0039016D01*
X0149788Y0040614D02*
X0128561Y0040614D01*
X0148729Y0045410D02*
X0047451Y0045410D01*
X0049050Y0043811D02*
X0149863Y0043811D01*
X0148350Y0047008D02*
X0086326Y0047008D01*
X0086326Y0046537D02*
X0086326Y0052467D01*
X0085388Y0053404D01*
X0081761Y0053404D01*
X0080994Y0052637D01*
X0080122Y0051765D01*
X0080017Y0051869D01*
X0077157Y0051869D01*
X0076736Y0051449D01*
X0075640Y0051997D01*
X0074383Y0051578D01*
X0073983Y0050778D01*
X0073583Y0051578D01*
X0072326Y0051997D01*
X0071140Y0051404D01*
X0070721Y0050146D01*
X0072501Y0046586D01*
X0072675Y0046065D01*
X0072791Y0046007D01*
X0072848Y0045892D01*
X0073369Y0045718D01*
X0073860Y0045473D01*
X0073983Y0045513D01*
X0074106Y0045473D01*
X0074597Y0045718D01*
X0075118Y0045892D01*
X0075176Y0046007D01*
X0075291Y0046065D01*
X0075465Y0046586D01*
X0075956Y0047568D01*
X0076220Y0047305D01*
X0076220Y0046537D01*
X0077157Y0045600D01*
X0080017Y0045600D01*
X0080505Y0046088D01*
X0080994Y0045600D01*
X0082319Y0045600D01*
X0083191Y0046472D01*
X0084063Y0045600D01*
X0085388Y0045600D01*
X0086326Y0046537D01*
X0086326Y0048607D02*
X0148529Y0048607D01*
X0149379Y0050205D02*
X0086326Y0050205D01*
X0086326Y0051804D02*
X0151843Y0051804D01*
X0154157Y0051804D02*
X0156401Y0051804D01*
X0148368Y0053402D02*
X0126228Y0053402D01*
X0127601Y0055001D02*
X0148350Y0055001D01*
X0148350Y0056599D02*
X0128150Y0056599D01*
X0128140Y0058198D02*
X0148350Y0058198D01*
X0148350Y0059796D02*
X0127478Y0059796D01*
X0119522Y0059796D02*
X0118150Y0059796D01*
X0118150Y0058198D02*
X0118860Y0058198D01*
X0118850Y0056599D02*
X0118150Y0056599D01*
X0118150Y0055001D02*
X0119398Y0055001D01*
X0118132Y0053402D02*
X0120772Y0053402D01*
X0108868Y0053402D02*
X0107632Y0053402D01*
X0107650Y0055001D02*
X0108850Y0055001D01*
X0108850Y0056599D02*
X0107650Y0056599D01*
X0107650Y0058198D02*
X0108850Y0058198D01*
X0108850Y0059796D02*
X0107650Y0059796D01*
X0098350Y0059796D02*
X0097370Y0059796D01*
X0097963Y0058198D02*
X0098350Y0058198D01*
X0098050Y0057175D02*
X0093075Y0057175D01*
X0093075Y0052200D01*
X0093397Y0052200D01*
X0094183Y0052324D01*
X0094939Y0052570D01*
X0095647Y0052931D01*
X0096290Y0053398D01*
X0096852Y0053960D01*
X0097319Y0054603D01*
X0097680Y0055311D01*
X0097926Y0056067D01*
X0098050Y0056853D01*
X0098050Y0057175D01*
X0098010Y0056599D02*
X0098350Y0056599D01*
X0098350Y0055001D02*
X0097522Y0055001D01*
X0098368Y0053402D02*
X0096294Y0053402D01*
X0093075Y0053402D02*
X0092925Y0053402D01*
X0092925Y0055001D02*
X0093075Y0055001D01*
X0093075Y0056599D02*
X0092925Y0056599D01*
X0088478Y0055001D02*
X0021300Y0055001D01*
X0020972Y0053402D02*
X0056438Y0053402D01*
X0056439Y0053404D02*
X0055672Y0052637D01*
X0054735Y0051699D01*
X0054735Y0047305D01*
X0055311Y0046728D01*
X0055672Y0046367D01*
X0055863Y0046176D01*
X0056439Y0045600D01*
X0059299Y0045600D01*
X0059788Y0046088D01*
X0060276Y0045600D01*
X0062369Y0045600D01*
X0062473Y0045705D01*
X0062578Y0045600D01*
X0066973Y0045600D01*
X0067910Y0046537D01*
X0067910Y0047863D01*
X0067038Y0048735D01*
X0067910Y0049607D01*
X0067910Y0050932D01*
X0065438Y0053404D01*
X0064112Y0053404D01*
X0064099Y0053390D01*
X0063175Y0052467D01*
X0063175Y0048800D01*
X0063136Y0048800D01*
X0062369Y0049567D01*
X0061004Y0049567D01*
X0061004Y0051699D01*
X0060444Y0052259D01*
X0060237Y0052467D01*
X0059859Y0052844D01*
X0059299Y0053404D01*
X0056439Y0053404D01*
X0059301Y0053402D02*
X0064111Y0053402D01*
X0065440Y0053402D02*
X0081759Y0053402D01*
X0085390Y0053402D02*
X0089706Y0053402D01*
X0087990Y0056599D02*
X0020930Y0056599D01*
X0019479Y0058198D02*
X0088037Y0058198D01*
X0088630Y0059796D02*
X0009800Y0059796D01*
X0009800Y0058198D02*
X0011521Y0058198D01*
X0010070Y0056599D02*
X0009800Y0056599D01*
X0015500Y0056599D02*
X0015500Y0056599D01*
X0015500Y0055001D02*
X0015500Y0055001D01*
X0015500Y0054950D02*
X0015500Y0051150D01*
X0015500Y0054950D01*
X0015500Y0054950D01*
X0015500Y0053402D02*
X0015500Y0053402D01*
X0015500Y0051804D02*
X0015500Y0051804D01*
X0011369Y0051804D02*
X0009800Y0051804D01*
X0009800Y0050205D02*
X0022391Y0050205D01*
X0022391Y0050731D02*
X0022391Y0049517D01*
X0022855Y0048396D01*
X0023713Y0047538D01*
X0024834Y0047074D01*
X0026048Y0047074D01*
X0027169Y0047538D01*
X0028027Y0048396D01*
X0028491Y0049517D01*
X0028491Y0050731D01*
X0028027Y0051852D01*
X0027169Y0052710D01*
X0026048Y0053174D01*
X0024834Y0053174D01*
X0023713Y0052710D01*
X0022855Y0051852D01*
X0022391Y0050731D01*
X0022835Y0051804D02*
X0019631Y0051804D01*
X0022768Y0048607D02*
X0009800Y0048607D01*
X0009800Y0047008D02*
X0029521Y0047008D01*
X0029800Y0045410D02*
X0009800Y0045410D01*
X0009800Y0043811D02*
X0029800Y0043811D01*
X0029800Y0042213D02*
X0009800Y0042213D01*
X0009800Y0040614D02*
X0029800Y0040614D01*
X0029800Y0039016D02*
X0009800Y0039016D01*
X0009800Y0037417D02*
X0024813Y0037417D01*
X0024834Y0037426D02*
X0023713Y0036962D01*
X0022855Y0036104D01*
X0022391Y0034983D01*
X0022391Y0033769D01*
X0022855Y0032648D01*
X0023713Y0031790D01*
X0024834Y0031326D01*
X0026048Y0031326D01*
X0027169Y0031790D01*
X0028027Y0032648D01*
X0028491Y0033769D01*
X0028491Y0034983D01*
X0028027Y0036104D01*
X0027169Y0036962D01*
X0026048Y0037426D01*
X0024834Y0037426D01*
X0026069Y0037417D02*
X0029800Y0037417D01*
X0029800Y0035819D02*
X0028145Y0035819D01*
X0028491Y0034220D02*
X0029800Y0034220D01*
X0029800Y0032622D02*
X0028000Y0032622D01*
X0029800Y0031023D02*
X0021003Y0031023D01*
X0019743Y0032622D02*
X0022882Y0032622D01*
X0022391Y0034220D02*
X0009800Y0034220D01*
X0009800Y0032622D02*
X0011257Y0032622D01*
X0009997Y0031023D02*
X0009800Y0031023D01*
X0015500Y0031023D02*
X0015500Y0031023D01*
X0015500Y0029550D02*
X0015500Y0025750D01*
X0015500Y0029550D01*
X0015500Y0029550D01*
X0015500Y0029425D02*
X0015500Y0029425D01*
X0015500Y0027826D02*
X0015500Y0027826D01*
X0015500Y0026228D02*
X0015500Y0026228D01*
X0011632Y0026228D02*
X0009800Y0026228D01*
X0009800Y0027826D02*
X0010101Y0027826D01*
X0009800Y0024629D02*
X0066027Y0024629D01*
X0066175Y0026228D02*
X0034198Y0026228D01*
X0029802Y0026228D02*
X0019368Y0026228D01*
X0020899Y0027826D02*
X0029016Y0027826D01*
X0029256Y0029425D02*
X0021300Y0029425D01*
X0015500Y0032622D02*
X0015500Y0032622D01*
X0009800Y0035819D02*
X0022737Y0035819D01*
X0034200Y0037417D02*
X0048112Y0037417D01*
X0047266Y0039016D02*
X0034200Y0039016D01*
X0034200Y0040614D02*
X0046024Y0040614D01*
X0051499Y0042213D02*
X0156401Y0042213D01*
X0156401Y0043811D02*
X0156137Y0043811D01*
X0156212Y0040614D02*
X0156401Y0040614D01*
X0156401Y0023031D02*
X0154965Y0023031D01*
X0155054Y0021432D02*
X0156401Y0021432D01*
X0148375Y0018235D02*
X0086475Y0018235D01*
X0086778Y0016637D02*
X0148350Y0016637D01*
X0148883Y0015038D02*
X0086778Y0015038D01*
X0086681Y0013440D02*
X0150234Y0013440D01*
X0150887Y0011841D02*
X0108156Y0011841D01*
X0108531Y0011467D02*
X0107593Y0012404D01*
X0103199Y0012404D01*
X0102710Y0011916D01*
X0102222Y0012404D01*
X0099362Y0012404D01*
X0098874Y0011916D01*
X0098386Y0012404D01*
X0094758Y0012404D01*
X0093991Y0011637D01*
X0093886Y0011532D01*
X0093574Y0011844D01*
X0093014Y0012404D01*
X0090154Y0012404D01*
X0089387Y0011637D01*
X0089282Y0011532D01*
X0088987Y0011827D01*
X0088410Y0012404D01*
X0085550Y0012404D01*
X0084613Y0011467D01*
X0083911Y0010765D01*
X0083775Y0010901D01*
X0083685Y0011171D01*
X0083324Y0011352D01*
X0083039Y0011637D01*
X0082754Y0011637D01*
X0080965Y0012531D01*
X0079707Y0012112D01*
X0079143Y0010984D01*
X0079081Y0011171D01*
X0078720Y0011352D01*
X0078435Y0011637D01*
X0078150Y0011637D01*
X0076361Y0012531D01*
X0075103Y0012112D01*
X0074510Y0010927D01*
X0074930Y0009669D01*
X0075583Y0009343D01*
X0075405Y0009165D01*
X0074952Y0008711D01*
X0072598Y0012243D01*
X0071298Y0012503D01*
X0070457Y0011942D01*
X0069995Y0012404D01*
X0067135Y0012404D01*
X0066646Y0011916D01*
X0066158Y0012404D01*
X0061763Y0012404D01*
X0060826Y0011467D01*
X0060826Y0010141D01*
X0061314Y0009653D01*
X0060826Y0009165D01*
X0060826Y0006305D01*
X0061403Y0005728D01*
X0061763Y0005367D01*
X0061763Y0005367D01*
X0061954Y0005176D01*
X0062531Y0004600D01*
X0065391Y0004600D01*
X0066263Y0005472D01*
X0066367Y0005367D01*
X0066367Y0005367D01*
X0066558Y0005176D01*
X0067135Y0004600D01*
X0069995Y0004600D01*
X0070762Y0005367D01*
X0071699Y0006305D01*
X0071699Y0007821D01*
X0073740Y0004761D01*
X0075039Y0004501D01*
X0075880Y0005062D01*
X0076342Y0004600D01*
X0079203Y0004600D01*
X0080074Y0005472D01*
X0080179Y0005367D01*
X0080386Y0005160D01*
X0080946Y0004600D01*
X0083806Y0004600D01*
X0084295Y0005088D01*
X0084783Y0004600D01*
X0089178Y0004600D01*
X0089666Y0005088D01*
X0090154Y0004600D01*
X0093014Y0004600D01*
X0093782Y0005367D01*
X0094654Y0006239D01*
X0094758Y0006135D01*
X0096123Y0006135D01*
X0096123Y0005537D01*
X0097060Y0004600D01*
X0098386Y0004600D01*
X0098874Y0005088D01*
X0099362Y0004600D01*
X0102222Y0004600D01*
X0102710Y0005088D01*
X0103199Y0004600D01*
X0107593Y0004600D01*
X0108531Y0005537D01*
X0108531Y0011467D01*
X0108531Y0010243D02*
X0148932Y0010243D01*
X0148143Y0008644D02*
X0108531Y0008644D01*
X0108531Y0007046D02*
X0147950Y0007046D01*
X0148276Y0005447D02*
X0108440Y0005447D01*
X0096213Y0005447D02*
X0093861Y0005447D01*
X0080179Y0005367D02*
X0080179Y0005367D01*
X0080099Y0005447D02*
X0080050Y0005447D01*
X0073282Y0005447D02*
X0070842Y0005447D01*
X0071699Y0007046D02*
X0072217Y0007046D01*
X0073931Y0010243D02*
X0074738Y0010243D01*
X0074968Y0011841D02*
X0072865Y0011841D01*
X0073636Y0013440D02*
X0074468Y0013440D01*
X0074370Y0015038D02*
X0073734Y0015038D01*
X0067000Y0018235D02*
X0066525Y0018235D01*
X0059922Y0019467D02*
X0059922Y0019467D01*
X0066999Y0023031D02*
X0009800Y0023031D01*
X0009800Y0018235D02*
X0013288Y0018235D01*
X0012985Y0016637D02*
X0009800Y0016637D01*
X0009800Y0015038D02*
X0012985Y0015038D01*
X0012985Y0013440D02*
X0009800Y0013440D01*
X0009800Y0011841D02*
X0013914Y0011841D01*
X0012795Y0010243D02*
X0009800Y0010243D01*
X0009800Y0008644D02*
X0012485Y0008644D01*
X0014787Y0007046D02*
X0009800Y0007046D01*
X0009800Y0005447D02*
X0014877Y0005447D01*
X0021513Y0010243D02*
X0022003Y0010243D01*
X0017558Y0011841D02*
X0052760Y0011841D01*
X0057513Y0011841D02*
X0061200Y0011841D01*
X0060826Y0010243D02*
X0057887Y0010243D01*
X0057887Y0008644D02*
X0060826Y0008644D01*
X0060826Y0007046D02*
X0057887Y0007046D01*
X0057797Y0005447D02*
X0061684Y0005447D01*
X0066238Y0005447D02*
X0066288Y0005447D01*
X0054778Y0005447D02*
X0053193Y0005447D01*
X0050174Y0005447D02*
X0048589Y0005447D01*
X0049447Y0007046D02*
X0050084Y0007046D01*
X0044115Y0005367D02*
X0044115Y0005367D01*
X0044035Y0005447D02*
X0043985Y0005447D01*
X0037129Y0005447D02*
X0035545Y0005447D01*
X0036402Y0007046D02*
X0037039Y0007046D01*
X0043765Y0010243D02*
X0044256Y0010243D01*
X0043775Y0013440D02*
X0042943Y0013440D01*
X0043041Y0015038D02*
X0043678Y0015038D01*
X0050411Y0018235D02*
X0050887Y0018235D01*
X0059824Y0013440D02*
X0059889Y0013440D01*
X0077741Y0011841D02*
X0079571Y0011841D01*
X0082345Y0011841D02*
X0084987Y0011841D01*
X0088973Y0011841D02*
X0089591Y0011841D01*
X0093577Y0011841D02*
X0094195Y0011841D01*
X0081579Y0018235D02*
X0081104Y0018235D01*
X0095600Y0024629D02*
X0096403Y0024629D01*
X0098097Y0024629D02*
X0115660Y0024629D01*
X0152925Y0011841D02*
X0153075Y0011841D01*
X0155113Y0011841D02*
X0156401Y0011841D01*
X0153075Y0010243D02*
X0152925Y0010243D01*
X0152925Y0008644D02*
X0153075Y0008644D01*
X0155766Y0013440D02*
X0156401Y0013440D01*
X0076220Y0047008D02*
X0075676Y0047008D01*
X0072290Y0047008D02*
X0067910Y0047008D01*
X0067166Y0048607D02*
X0071491Y0048607D01*
X0070741Y0050205D02*
X0067910Y0050205D01*
X0067038Y0051804D02*
X0071940Y0051804D01*
X0072904Y0051804D02*
X0075062Y0051804D01*
X0076026Y0051804D02*
X0077092Y0051804D01*
X0080082Y0051804D02*
X0080161Y0051804D01*
X0063175Y0051804D02*
X0060899Y0051804D01*
X0060237Y0052467D02*
X0060237Y0052467D01*
X0061004Y0050205D02*
X0063175Y0050205D01*
X0055672Y0046367D02*
X0055672Y0046367D01*
X0055031Y0047008D02*
X0034479Y0047008D01*
X0034984Y0048607D02*
X0054735Y0048607D01*
X0054735Y0050205D02*
X0034627Y0050205D01*
X0032000Y0048750D02*
X0032000Y0043250D01*
X0036750Y0039500D02*
X0037000Y0039500D01*
X0029016Y0048607D02*
X0028114Y0048607D01*
X0028491Y0050205D02*
X0029373Y0050205D01*
X0028046Y0051804D02*
X0054839Y0051804D01*
X0015500Y0058198D02*
X0015500Y0058198D01*
X0010028Y0053402D02*
X0009800Y0053402D01*
X0026624Y0018235D02*
X0028634Y0018235D01*
X0026927Y0017932D02*
X0026927Y0017932D01*
X0027695Y0016637D02*
X0028331Y0016637D01*
X0035832Y0018235D02*
X0036308Y0018235D01*
X0019891Y0015038D02*
X0019254Y0015038D01*
X0019988Y0013440D02*
X0018389Y0013440D01*
D17*
X0064250Y0030000D02*
X0070000Y0036000D01*
X0093750Y0036000D01*
X0091500Y0029750D02*
X0089750Y0028250D01*
X0071750Y0028250D01*
X0069000Y0025250D01*
X0091500Y0029750D02*
X0105500Y0029750D01*
X0110000Y0034250D01*
X0116000Y0027000D02*
X0126000Y0039000D01*
X0126250Y0034500D02*
X0115750Y0021750D01*
X0097250Y0021750D01*
X0093750Y0027000D02*
X0116000Y0027000D01*
M02*
