G75*
%MOIN*%
%OFA0B0*%
%FSLAX25Y25*%
%IPPOS*%
%LPD*%
%AMOC8*
5,1,8,0,0,1.08239X$1,22.5*
%
%ADD10C,0.00000*%
D10*
X0008000Y0002750D02*
X0008000Y0062711D01*
X0158201Y0062711D01*
X0158201Y0002750D01*
X0008000Y0002750D01*
X0024191Y0034876D02*
X0024193Y0034946D01*
X0024199Y0035016D01*
X0024209Y0035085D01*
X0024222Y0035154D01*
X0024240Y0035222D01*
X0024261Y0035289D01*
X0024286Y0035354D01*
X0024315Y0035418D01*
X0024347Y0035481D01*
X0024383Y0035541D01*
X0024422Y0035599D01*
X0024464Y0035655D01*
X0024509Y0035709D01*
X0024557Y0035760D01*
X0024608Y0035808D01*
X0024662Y0035853D01*
X0024718Y0035895D01*
X0024776Y0035934D01*
X0024836Y0035970D01*
X0024899Y0036002D01*
X0024963Y0036031D01*
X0025028Y0036056D01*
X0025095Y0036077D01*
X0025163Y0036095D01*
X0025232Y0036108D01*
X0025301Y0036118D01*
X0025371Y0036124D01*
X0025441Y0036126D01*
X0025511Y0036124D01*
X0025581Y0036118D01*
X0025650Y0036108D01*
X0025719Y0036095D01*
X0025787Y0036077D01*
X0025854Y0036056D01*
X0025919Y0036031D01*
X0025983Y0036002D01*
X0026046Y0035970D01*
X0026106Y0035934D01*
X0026164Y0035895D01*
X0026220Y0035853D01*
X0026274Y0035808D01*
X0026325Y0035760D01*
X0026373Y0035709D01*
X0026418Y0035655D01*
X0026460Y0035599D01*
X0026499Y0035541D01*
X0026535Y0035481D01*
X0026567Y0035418D01*
X0026596Y0035354D01*
X0026621Y0035289D01*
X0026642Y0035222D01*
X0026660Y0035154D01*
X0026673Y0035085D01*
X0026683Y0035016D01*
X0026689Y0034946D01*
X0026691Y0034876D01*
X0026689Y0034806D01*
X0026683Y0034736D01*
X0026673Y0034667D01*
X0026660Y0034598D01*
X0026642Y0034530D01*
X0026621Y0034463D01*
X0026596Y0034398D01*
X0026567Y0034334D01*
X0026535Y0034271D01*
X0026499Y0034211D01*
X0026460Y0034153D01*
X0026418Y0034097D01*
X0026373Y0034043D01*
X0026325Y0033992D01*
X0026274Y0033944D01*
X0026220Y0033899D01*
X0026164Y0033857D01*
X0026106Y0033818D01*
X0026046Y0033782D01*
X0025983Y0033750D01*
X0025919Y0033721D01*
X0025854Y0033696D01*
X0025787Y0033675D01*
X0025719Y0033657D01*
X0025650Y0033644D01*
X0025581Y0033634D01*
X0025511Y0033628D01*
X0025441Y0033626D01*
X0025371Y0033628D01*
X0025301Y0033634D01*
X0025232Y0033644D01*
X0025163Y0033657D01*
X0025095Y0033675D01*
X0025028Y0033696D01*
X0024963Y0033721D01*
X0024899Y0033750D01*
X0024836Y0033782D01*
X0024776Y0033818D01*
X0024718Y0033857D01*
X0024662Y0033899D01*
X0024608Y0033944D01*
X0024557Y0033992D01*
X0024509Y0034043D01*
X0024464Y0034097D01*
X0024422Y0034153D01*
X0024383Y0034211D01*
X0024347Y0034271D01*
X0024315Y0034334D01*
X0024286Y0034398D01*
X0024261Y0034463D01*
X0024240Y0034530D01*
X0024222Y0034598D01*
X0024209Y0034667D01*
X0024199Y0034736D01*
X0024193Y0034806D01*
X0024191Y0034876D01*
X0024191Y0050624D02*
X0024193Y0050694D01*
X0024199Y0050764D01*
X0024209Y0050833D01*
X0024222Y0050902D01*
X0024240Y0050970D01*
X0024261Y0051037D01*
X0024286Y0051102D01*
X0024315Y0051166D01*
X0024347Y0051229D01*
X0024383Y0051289D01*
X0024422Y0051347D01*
X0024464Y0051403D01*
X0024509Y0051457D01*
X0024557Y0051508D01*
X0024608Y0051556D01*
X0024662Y0051601D01*
X0024718Y0051643D01*
X0024776Y0051682D01*
X0024836Y0051718D01*
X0024899Y0051750D01*
X0024963Y0051779D01*
X0025028Y0051804D01*
X0025095Y0051825D01*
X0025163Y0051843D01*
X0025232Y0051856D01*
X0025301Y0051866D01*
X0025371Y0051872D01*
X0025441Y0051874D01*
X0025511Y0051872D01*
X0025581Y0051866D01*
X0025650Y0051856D01*
X0025719Y0051843D01*
X0025787Y0051825D01*
X0025854Y0051804D01*
X0025919Y0051779D01*
X0025983Y0051750D01*
X0026046Y0051718D01*
X0026106Y0051682D01*
X0026164Y0051643D01*
X0026220Y0051601D01*
X0026274Y0051556D01*
X0026325Y0051508D01*
X0026373Y0051457D01*
X0026418Y0051403D01*
X0026460Y0051347D01*
X0026499Y0051289D01*
X0026535Y0051229D01*
X0026567Y0051166D01*
X0026596Y0051102D01*
X0026621Y0051037D01*
X0026642Y0050970D01*
X0026660Y0050902D01*
X0026673Y0050833D01*
X0026683Y0050764D01*
X0026689Y0050694D01*
X0026691Y0050624D01*
X0026689Y0050554D01*
X0026683Y0050484D01*
X0026673Y0050415D01*
X0026660Y0050346D01*
X0026642Y0050278D01*
X0026621Y0050211D01*
X0026596Y0050146D01*
X0026567Y0050082D01*
X0026535Y0050019D01*
X0026499Y0049959D01*
X0026460Y0049901D01*
X0026418Y0049845D01*
X0026373Y0049791D01*
X0026325Y0049740D01*
X0026274Y0049692D01*
X0026220Y0049647D01*
X0026164Y0049605D01*
X0026106Y0049566D01*
X0026046Y0049530D01*
X0025983Y0049498D01*
X0025919Y0049469D01*
X0025854Y0049444D01*
X0025787Y0049423D01*
X0025719Y0049405D01*
X0025650Y0049392D01*
X0025581Y0049382D01*
X0025511Y0049376D01*
X0025441Y0049374D01*
X0025371Y0049376D01*
X0025301Y0049382D01*
X0025232Y0049392D01*
X0025163Y0049405D01*
X0025095Y0049423D01*
X0025028Y0049444D01*
X0024963Y0049469D01*
X0024899Y0049498D01*
X0024836Y0049530D01*
X0024776Y0049566D01*
X0024718Y0049605D01*
X0024662Y0049647D01*
X0024608Y0049692D01*
X0024557Y0049740D01*
X0024509Y0049791D01*
X0024464Y0049845D01*
X0024422Y0049901D01*
X0024383Y0049959D01*
X0024347Y0050019D01*
X0024315Y0050082D01*
X0024286Y0050146D01*
X0024261Y0050211D01*
X0024240Y0050278D01*
X0024222Y0050346D01*
X0024209Y0050415D01*
X0024199Y0050484D01*
X0024193Y0050554D01*
X0024191Y0050624D01*
M02*
