G75*
%MOIN*%
%OFA0B0*%
%FSLAX25Y25*%
%IPPOS*%
%LPD*%
%AMOC8*
5,1,8,0,0,1.08239X$1,22.5*
%
%ADD10C,0.00000*%
%ADD11C,0.00300*%
%ADD12C,0.00800*%
%ADD13C,0.00500*%
%ADD14C,0.03150*%
%ADD15C,0.00400*%
D10*
X0008000Y0002250D02*
X0008000Y0062211D01*
X0158201Y0062211D01*
X0158201Y0002250D01*
X0008000Y0002250D01*
X0024191Y0034376D02*
X0024193Y0034446D01*
X0024199Y0034516D01*
X0024209Y0034585D01*
X0024222Y0034654D01*
X0024240Y0034722D01*
X0024261Y0034789D01*
X0024286Y0034854D01*
X0024315Y0034918D01*
X0024347Y0034981D01*
X0024383Y0035041D01*
X0024422Y0035099D01*
X0024464Y0035155D01*
X0024509Y0035209D01*
X0024557Y0035260D01*
X0024608Y0035308D01*
X0024662Y0035353D01*
X0024718Y0035395D01*
X0024776Y0035434D01*
X0024836Y0035470D01*
X0024899Y0035502D01*
X0024963Y0035531D01*
X0025028Y0035556D01*
X0025095Y0035577D01*
X0025163Y0035595D01*
X0025232Y0035608D01*
X0025301Y0035618D01*
X0025371Y0035624D01*
X0025441Y0035626D01*
X0025511Y0035624D01*
X0025581Y0035618D01*
X0025650Y0035608D01*
X0025719Y0035595D01*
X0025787Y0035577D01*
X0025854Y0035556D01*
X0025919Y0035531D01*
X0025983Y0035502D01*
X0026046Y0035470D01*
X0026106Y0035434D01*
X0026164Y0035395D01*
X0026220Y0035353D01*
X0026274Y0035308D01*
X0026325Y0035260D01*
X0026373Y0035209D01*
X0026418Y0035155D01*
X0026460Y0035099D01*
X0026499Y0035041D01*
X0026535Y0034981D01*
X0026567Y0034918D01*
X0026596Y0034854D01*
X0026621Y0034789D01*
X0026642Y0034722D01*
X0026660Y0034654D01*
X0026673Y0034585D01*
X0026683Y0034516D01*
X0026689Y0034446D01*
X0026691Y0034376D01*
X0026689Y0034306D01*
X0026683Y0034236D01*
X0026673Y0034167D01*
X0026660Y0034098D01*
X0026642Y0034030D01*
X0026621Y0033963D01*
X0026596Y0033898D01*
X0026567Y0033834D01*
X0026535Y0033771D01*
X0026499Y0033711D01*
X0026460Y0033653D01*
X0026418Y0033597D01*
X0026373Y0033543D01*
X0026325Y0033492D01*
X0026274Y0033444D01*
X0026220Y0033399D01*
X0026164Y0033357D01*
X0026106Y0033318D01*
X0026046Y0033282D01*
X0025983Y0033250D01*
X0025919Y0033221D01*
X0025854Y0033196D01*
X0025787Y0033175D01*
X0025719Y0033157D01*
X0025650Y0033144D01*
X0025581Y0033134D01*
X0025511Y0033128D01*
X0025441Y0033126D01*
X0025371Y0033128D01*
X0025301Y0033134D01*
X0025232Y0033144D01*
X0025163Y0033157D01*
X0025095Y0033175D01*
X0025028Y0033196D01*
X0024963Y0033221D01*
X0024899Y0033250D01*
X0024836Y0033282D01*
X0024776Y0033318D01*
X0024718Y0033357D01*
X0024662Y0033399D01*
X0024608Y0033444D01*
X0024557Y0033492D01*
X0024509Y0033543D01*
X0024464Y0033597D01*
X0024422Y0033653D01*
X0024383Y0033711D01*
X0024347Y0033771D01*
X0024315Y0033834D01*
X0024286Y0033898D01*
X0024261Y0033963D01*
X0024240Y0034030D01*
X0024222Y0034098D01*
X0024209Y0034167D01*
X0024199Y0034236D01*
X0024193Y0034306D01*
X0024191Y0034376D01*
X0024191Y0050124D02*
X0024193Y0050194D01*
X0024199Y0050264D01*
X0024209Y0050333D01*
X0024222Y0050402D01*
X0024240Y0050470D01*
X0024261Y0050537D01*
X0024286Y0050602D01*
X0024315Y0050666D01*
X0024347Y0050729D01*
X0024383Y0050789D01*
X0024422Y0050847D01*
X0024464Y0050903D01*
X0024509Y0050957D01*
X0024557Y0051008D01*
X0024608Y0051056D01*
X0024662Y0051101D01*
X0024718Y0051143D01*
X0024776Y0051182D01*
X0024836Y0051218D01*
X0024899Y0051250D01*
X0024963Y0051279D01*
X0025028Y0051304D01*
X0025095Y0051325D01*
X0025163Y0051343D01*
X0025232Y0051356D01*
X0025301Y0051366D01*
X0025371Y0051372D01*
X0025441Y0051374D01*
X0025511Y0051372D01*
X0025581Y0051366D01*
X0025650Y0051356D01*
X0025719Y0051343D01*
X0025787Y0051325D01*
X0025854Y0051304D01*
X0025919Y0051279D01*
X0025983Y0051250D01*
X0026046Y0051218D01*
X0026106Y0051182D01*
X0026164Y0051143D01*
X0026220Y0051101D01*
X0026274Y0051056D01*
X0026325Y0051008D01*
X0026373Y0050957D01*
X0026418Y0050903D01*
X0026460Y0050847D01*
X0026499Y0050789D01*
X0026535Y0050729D01*
X0026567Y0050666D01*
X0026596Y0050602D01*
X0026621Y0050537D01*
X0026642Y0050470D01*
X0026660Y0050402D01*
X0026673Y0050333D01*
X0026683Y0050264D01*
X0026689Y0050194D01*
X0026691Y0050124D01*
X0026689Y0050054D01*
X0026683Y0049984D01*
X0026673Y0049915D01*
X0026660Y0049846D01*
X0026642Y0049778D01*
X0026621Y0049711D01*
X0026596Y0049646D01*
X0026567Y0049582D01*
X0026535Y0049519D01*
X0026499Y0049459D01*
X0026460Y0049401D01*
X0026418Y0049345D01*
X0026373Y0049291D01*
X0026325Y0049240D01*
X0026274Y0049192D01*
X0026220Y0049147D01*
X0026164Y0049105D01*
X0026106Y0049066D01*
X0026046Y0049030D01*
X0025983Y0048998D01*
X0025919Y0048969D01*
X0025854Y0048944D01*
X0025787Y0048923D01*
X0025719Y0048905D01*
X0025650Y0048892D01*
X0025581Y0048882D01*
X0025511Y0048876D01*
X0025441Y0048874D01*
X0025371Y0048876D01*
X0025301Y0048882D01*
X0025232Y0048892D01*
X0025163Y0048905D01*
X0025095Y0048923D01*
X0025028Y0048944D01*
X0024963Y0048969D01*
X0024899Y0048998D01*
X0024836Y0049030D01*
X0024776Y0049066D01*
X0024718Y0049105D01*
X0024662Y0049147D01*
X0024608Y0049192D01*
X0024557Y0049240D01*
X0024509Y0049291D01*
X0024464Y0049345D01*
X0024422Y0049401D01*
X0024383Y0049459D01*
X0024347Y0049519D01*
X0024315Y0049582D01*
X0024286Y0049646D01*
X0024261Y0049711D01*
X0024240Y0049778D01*
X0024222Y0049846D01*
X0024209Y0049915D01*
X0024199Y0049984D01*
X0024193Y0050054D01*
X0024191Y0050124D01*
D11*
X0087560Y0049184D02*
X0088044Y0048700D01*
X0089012Y0048700D01*
X0089495Y0049184D01*
X0089495Y0050151D01*
X0088528Y0050151D01*
X0087560Y0051119D02*
X0087560Y0049184D01*
X0087560Y0051119D02*
X0088044Y0051602D01*
X0089012Y0051602D01*
X0089495Y0051119D01*
X0090507Y0050635D02*
X0091958Y0050635D01*
X0092442Y0050151D01*
X0092442Y0048700D01*
X0093453Y0049184D02*
X0093937Y0048700D01*
X0095388Y0048700D01*
X0095388Y0051602D01*
X0095388Y0050635D02*
X0093937Y0050635D01*
X0093453Y0050151D01*
X0093453Y0049184D01*
X0090507Y0048700D02*
X0090507Y0050635D01*
X0096837Y0051119D02*
X0097321Y0051602D01*
X0098288Y0051602D01*
X0098772Y0051119D01*
X0098772Y0050635D01*
X0098288Y0050151D01*
X0098772Y0049667D01*
X0098772Y0049184D01*
X0098288Y0048700D01*
X0097321Y0048700D01*
X0096837Y0049184D01*
X0097805Y0050151D02*
X0098288Y0050151D01*
X0099784Y0049184D02*
X0100267Y0049184D01*
X0100267Y0048700D01*
X0099784Y0048700D01*
X0099784Y0049184D01*
X0101257Y0049184D02*
X0101741Y0048700D01*
X0102708Y0048700D01*
X0103192Y0049184D01*
X0103192Y0049667D01*
X0102708Y0050151D01*
X0102224Y0050151D01*
X0102708Y0050151D02*
X0103192Y0050635D01*
X0103192Y0051119D01*
X0102708Y0051602D01*
X0101741Y0051602D01*
X0101257Y0051119D01*
X0104203Y0051602D02*
X0104203Y0049667D01*
X0105171Y0048700D01*
X0106138Y0049667D01*
X0106138Y0051602D01*
X0144448Y0046601D02*
X0144448Y0045150D01*
X0147350Y0045150D01*
X0146383Y0045150D02*
X0146383Y0046601D01*
X0145899Y0047085D01*
X0144931Y0047085D01*
X0144448Y0046601D01*
X0146383Y0046117D02*
X0147350Y0047085D01*
X0147350Y0048097D02*
X0145415Y0050031D01*
X0145415Y0048097D02*
X0147350Y0050031D01*
X0147100Y0040281D02*
X0145165Y0038347D01*
X0144198Y0037335D02*
X0144198Y0035400D01*
X0144198Y0036367D02*
X0147100Y0036367D01*
X0147100Y0038347D02*
X0145165Y0040281D01*
X0144931Y0032996D02*
X0144448Y0032512D01*
X0144448Y0031545D01*
X0144931Y0031061D01*
X0146866Y0031061D01*
X0144931Y0032996D01*
X0146866Y0032996D01*
X0147350Y0032512D01*
X0147350Y0031545D01*
X0146866Y0031061D01*
X0146866Y0030049D02*
X0145899Y0030049D01*
X0145415Y0029566D01*
X0145415Y0028598D01*
X0145899Y0028114D01*
X0146866Y0028114D01*
X0147350Y0028598D01*
X0147350Y0029566D01*
X0146866Y0030049D01*
X0147350Y0027117D02*
X0147350Y0026150D01*
X0147350Y0026154D02*
X0146866Y0025670D01*
X0144931Y0025670D01*
X0144448Y0026150D02*
X0144448Y0027117D01*
X0144448Y0026634D02*
X0147350Y0026634D01*
X0145415Y0026154D02*
X0145415Y0025186D01*
X0145899Y0024175D02*
X0146383Y0024175D01*
X0146383Y0022240D01*
X0146866Y0022240D02*
X0145899Y0022240D01*
X0145415Y0022723D01*
X0145415Y0023691D01*
X0145899Y0024175D01*
X0147350Y0023691D02*
X0147350Y0022723D01*
X0146866Y0022240D01*
X0146866Y0021228D02*
X0146383Y0020744D01*
X0146383Y0019777D01*
X0145899Y0019293D01*
X0145415Y0019777D01*
X0145415Y0021228D01*
X0146866Y0021228D02*
X0147350Y0020744D01*
X0147350Y0019293D01*
X0146383Y0018281D02*
X0146383Y0016347D01*
X0146866Y0016347D02*
X0145899Y0016347D01*
X0145415Y0016830D01*
X0145415Y0017798D01*
X0145899Y0018281D01*
X0146383Y0018281D01*
X0147350Y0017798D02*
X0147350Y0016830D01*
X0146866Y0016347D01*
X0147350Y0015335D02*
X0146383Y0014367D01*
X0146383Y0014851D02*
X0146383Y0013400D01*
X0147350Y0013400D02*
X0144448Y0013400D01*
X0144448Y0014851D01*
X0144931Y0015335D01*
X0145899Y0015335D01*
X0146383Y0014851D01*
X0147100Y0011728D02*
X0144198Y0011728D01*
X0145165Y0011728D02*
X0145165Y0010277D01*
X0145649Y0009793D01*
X0146616Y0009793D01*
X0147100Y0010277D01*
X0147100Y0011728D01*
X0147100Y0008781D02*
X0145649Y0008781D01*
X0145165Y0008298D01*
X0145165Y0006847D01*
X0147100Y0006847D01*
X0146616Y0005835D02*
X0145649Y0005835D01*
X0145649Y0004867D01*
X0146616Y0003900D02*
X0144681Y0003900D01*
X0144198Y0004384D01*
X0144198Y0005351D01*
X0144681Y0005835D01*
X0146616Y0005835D02*
X0147100Y0005351D01*
X0147100Y0004384D01*
X0146616Y0003900D01*
X0132404Y0003400D02*
X0131920Y0003884D01*
X0131920Y0005819D01*
X0131436Y0005335D02*
X0132404Y0005335D01*
X0130425Y0004851D02*
X0130425Y0004367D01*
X0128490Y0004367D01*
X0128490Y0003884D02*
X0128490Y0004851D01*
X0128973Y0005335D01*
X0129941Y0005335D01*
X0130425Y0004851D01*
X0128973Y0003400D02*
X0128490Y0003884D01*
X0128973Y0003400D02*
X0129941Y0003400D01*
X0127478Y0003884D02*
X0126994Y0004367D01*
X0126027Y0004367D01*
X0125543Y0004851D01*
X0126027Y0005335D01*
X0127478Y0005335D01*
X0127478Y0003884D02*
X0126994Y0003400D01*
X0125543Y0003400D01*
X0124048Y0003400D02*
X0123080Y0003400D01*
X0122597Y0003884D01*
X0122597Y0004851D01*
X0123080Y0005335D01*
X0124048Y0005335D01*
X0124531Y0004851D01*
X0124531Y0004367D01*
X0122597Y0004367D01*
X0121585Y0004851D02*
X0121101Y0004367D01*
X0119650Y0004367D01*
X0120617Y0004367D02*
X0121585Y0003400D01*
X0119650Y0003400D02*
X0119650Y0006302D01*
X0121101Y0006302D01*
X0121585Y0005819D01*
X0121585Y0004851D01*
X0118139Y0005569D02*
X0118139Y0003634D01*
X0117655Y0003150D01*
X0116688Y0003150D01*
X0116204Y0003634D01*
X0118139Y0005569D01*
X0117655Y0006052D01*
X0116688Y0006052D01*
X0116204Y0005569D01*
X0116204Y0003634D01*
X0115192Y0003634D02*
X0115192Y0004601D01*
X0114709Y0005085D01*
X0113741Y0005085D01*
X0113257Y0004601D01*
X0113257Y0003634D01*
X0113741Y0003150D01*
X0114709Y0003150D01*
X0115192Y0003634D01*
X0112261Y0003150D02*
X0111293Y0003150D01*
X0111777Y0003150D02*
X0111777Y0005085D01*
X0111293Y0005085D01*
X0111777Y0006052D02*
X0111777Y0006536D01*
X0110281Y0004601D02*
X0109798Y0005085D01*
X0108347Y0005085D01*
X0108347Y0002183D01*
X0108347Y0003150D02*
X0109798Y0003150D01*
X0110281Y0003634D01*
X0110281Y0004601D01*
X0107335Y0004601D02*
X0107335Y0003634D01*
X0106851Y0003150D01*
X0105884Y0003150D01*
X0105400Y0003634D01*
X0105400Y0005569D01*
X0105884Y0006052D01*
X0106851Y0006052D01*
X0107335Y0005569D01*
X0107335Y0004601D02*
X0106367Y0004601D01*
X0100031Y0005085D02*
X0098097Y0003150D01*
X0100031Y0003150D02*
X0098097Y0005085D01*
X0097085Y0006052D02*
X0095150Y0006052D01*
X0096117Y0006052D02*
X0096117Y0003150D01*
X0070461Y0005450D02*
X0068526Y0005450D01*
X0069494Y0005450D02*
X0069494Y0008352D01*
X0068526Y0007385D01*
X0067515Y0008352D02*
X0067515Y0005934D01*
X0067031Y0005450D01*
X0066064Y0005450D01*
X0065580Y0005934D01*
X0065580Y0008352D01*
X0023637Y0005085D02*
X0023154Y0005085D01*
X0022186Y0004117D01*
X0022186Y0003150D02*
X0022186Y0005085D01*
X0021175Y0004601D02*
X0021175Y0004117D01*
X0019240Y0004117D01*
X0019240Y0003634D02*
X0019240Y0004601D01*
X0019723Y0005085D01*
X0020691Y0005085D01*
X0021175Y0004601D01*
X0019723Y0003150D02*
X0019240Y0003634D01*
X0019723Y0003150D02*
X0020691Y0003150D01*
X0018228Y0003634D02*
X0018228Y0005085D01*
X0016293Y0005085D02*
X0016293Y0003634D01*
X0016777Y0003150D01*
X0017261Y0003634D01*
X0017744Y0003150D01*
X0018228Y0003634D01*
X0015281Y0003634D02*
X0014798Y0003150D01*
X0013830Y0003150D01*
X0013347Y0003634D01*
X0013347Y0004601D01*
X0013830Y0005085D01*
X0014798Y0005085D01*
X0015281Y0004601D01*
X0015281Y0003634D01*
X0012335Y0004601D02*
X0012335Y0005569D01*
X0011851Y0006052D01*
X0010400Y0006052D01*
X0010400Y0003150D01*
X0010400Y0004117D02*
X0011851Y0004117D01*
X0012335Y0004601D01*
D12*
X0058764Y0009539D02*
X0058764Y0039461D01*
X0079236Y0039461D01*
X0079236Y0012039D01*
X0076736Y0009539D01*
X0058862Y0009539D01*
D13*
X0058862Y0009441D01*
X0047000Y0006750D02*
X0047000Y0019250D01*
X0046843Y0019250D02*
X0045268Y0019250D01*
X0040937Y0019250D02*
X0039362Y0019250D01*
X0034638Y0019250D02*
X0033063Y0019250D01*
X0028732Y0019250D02*
X0027157Y0019250D01*
X0027000Y0019250D02*
X0027000Y0006750D01*
X0032276Y0006750D01*
X0041331Y0006750D02*
X0046843Y0006750D01*
X0023750Y0007250D02*
X0011250Y0007250D01*
X0011250Y0014250D01*
X0023750Y0014250D01*
X0023750Y0007250D01*
X0018250Y0008750D02*
X0018250Y0009750D01*
X0017250Y0011250D01*
X0018250Y0010750D01*
X0017500Y0011750D01*
X0018250Y0011750D01*
X0018250Y0012750D01*
X0017500Y0011750D01*
X0016750Y0010750D01*
X0018250Y0008750D01*
X0017000Y0011000D01*
X0018250Y0009750D01*
X0018250Y0010750D01*
X0018250Y0011750D01*
X0023000Y0015500D02*
X0012000Y0015500D01*
X0012000Y0020500D01*
X0023000Y0020500D01*
X0023000Y0015500D01*
X0008315Y0027683D02*
X0005953Y0026502D01*
X0006346Y0029652D01*
X0006346Y0055242D01*
X0005953Y0057998D01*
X0008315Y0056817D01*
X0011465Y0056817D01*
X0008315Y0056817D02*
X0008315Y0027683D01*
X0011465Y0027683D01*
X0019339Y0027683D02*
X0022882Y0027683D01*
X0028000Y0032801D02*
X0028000Y0035951D01*
X0034000Y0038000D02*
X0039000Y0038000D01*
X0039000Y0027000D01*
X0034000Y0027000D01*
X0034000Y0038000D01*
X0041000Y0038000D02*
X0046000Y0038000D01*
X0046000Y0027000D01*
X0041000Y0027000D01*
X0041000Y0038000D01*
X0041657Y0047701D02*
X0061343Y0047701D01*
X0061343Y0049276D01*
X0064250Y0049000D02*
X0064250Y0060000D01*
X0069250Y0060000D01*
X0069250Y0049000D01*
X0064250Y0049000D01*
X0070250Y0049000D02*
X0070250Y0060000D01*
X0075250Y0060000D01*
X0075250Y0049000D01*
X0070250Y0049000D01*
X0081000Y0053000D02*
X0083000Y0053000D01*
X0082000Y0054000D02*
X0082000Y0052000D01*
X0088000Y0052250D02*
X0088000Y0062250D01*
X0108000Y0062250D01*
X0108000Y0052250D01*
X0088000Y0052250D01*
X0107500Y0050250D02*
X0107500Y0045250D01*
X0118500Y0045250D01*
X0118500Y0050250D01*
X0107500Y0050250D01*
X0108500Y0052250D02*
X0128500Y0052250D01*
X0128500Y0062250D01*
X0108500Y0062250D01*
X0108500Y0052250D01*
X0107500Y0043500D02*
X0107500Y0038500D01*
X0118500Y0038500D01*
X0118500Y0043500D01*
X0107500Y0043500D01*
X0129500Y0053250D02*
X0129500Y0061250D01*
X0146500Y0061250D01*
X0146500Y0053250D01*
X0129500Y0053250D01*
X0132000Y0048250D02*
X0132000Y0043250D01*
X0143000Y0043250D01*
X0143000Y0048250D01*
X0132000Y0048250D01*
X0132000Y0041500D02*
X0132000Y0036500D01*
X0143000Y0036500D01*
X0143000Y0041500D01*
X0132000Y0041500D01*
X0132000Y0034750D02*
X0132000Y0029750D01*
X0143000Y0029750D01*
X0143000Y0034750D01*
X0132000Y0034750D01*
X0123500Y0031250D02*
X0123500Y0027750D01*
X0120500Y0027750D01*
X0115000Y0027750D02*
X0112000Y0027750D01*
X0112000Y0031250D01*
X0107500Y0031250D02*
X0107500Y0027750D01*
X0104500Y0027750D01*
X0099000Y0027750D02*
X0096000Y0027750D01*
X0096000Y0031250D01*
X0101000Y0032750D02*
X0102500Y0032750D01*
X0117000Y0032750D02*
X0118500Y0032750D01*
X0133329Y0021156D02*
X0143171Y0021156D01*
X0143171Y0009344D01*
X0133329Y0009344D01*
X0133329Y0021156D01*
X0130750Y0020500D02*
X0130750Y0015500D01*
X0119750Y0015500D01*
X0119750Y0020500D01*
X0130750Y0020500D01*
X0135297Y0015250D02*
X0135299Y0015358D01*
X0135305Y0015467D01*
X0135315Y0015575D01*
X0135329Y0015682D01*
X0135347Y0015789D01*
X0135368Y0015896D01*
X0135394Y0016001D01*
X0135424Y0016106D01*
X0135457Y0016209D01*
X0135494Y0016311D01*
X0135535Y0016411D01*
X0135579Y0016510D01*
X0135628Y0016608D01*
X0135679Y0016703D01*
X0135734Y0016796D01*
X0135793Y0016888D01*
X0135855Y0016977D01*
X0135920Y0017064D01*
X0135988Y0017148D01*
X0136059Y0017230D01*
X0136133Y0017309D01*
X0136210Y0017385D01*
X0136290Y0017459D01*
X0136373Y0017529D01*
X0136458Y0017597D01*
X0136545Y0017661D01*
X0136635Y0017722D01*
X0136727Y0017780D01*
X0136821Y0017834D01*
X0136917Y0017885D01*
X0137014Y0017932D01*
X0137114Y0017976D01*
X0137215Y0018016D01*
X0137317Y0018052D01*
X0137420Y0018084D01*
X0137525Y0018113D01*
X0137631Y0018137D01*
X0137737Y0018158D01*
X0137844Y0018175D01*
X0137952Y0018188D01*
X0138060Y0018197D01*
X0138169Y0018202D01*
X0138277Y0018203D01*
X0138386Y0018200D01*
X0138494Y0018193D01*
X0138602Y0018182D01*
X0138709Y0018167D01*
X0138816Y0018148D01*
X0138922Y0018125D01*
X0139027Y0018099D01*
X0139132Y0018068D01*
X0139234Y0018034D01*
X0139336Y0017996D01*
X0139436Y0017954D01*
X0139535Y0017909D01*
X0139632Y0017860D01*
X0139726Y0017807D01*
X0139819Y0017751D01*
X0139910Y0017692D01*
X0139999Y0017629D01*
X0140085Y0017564D01*
X0140169Y0017495D01*
X0140250Y0017423D01*
X0140328Y0017348D01*
X0140404Y0017270D01*
X0140477Y0017189D01*
X0140547Y0017106D01*
X0140613Y0017021D01*
X0140677Y0016933D01*
X0140737Y0016842D01*
X0140794Y0016750D01*
X0140847Y0016655D01*
X0140897Y0016559D01*
X0140943Y0016461D01*
X0140986Y0016361D01*
X0141025Y0016260D01*
X0141060Y0016157D01*
X0141092Y0016054D01*
X0141119Y0015949D01*
X0141143Y0015843D01*
X0141163Y0015736D01*
X0141179Y0015629D01*
X0141191Y0015521D01*
X0141199Y0015413D01*
X0141203Y0015304D01*
X0141203Y0015196D01*
X0141199Y0015087D01*
X0141191Y0014979D01*
X0141179Y0014871D01*
X0141163Y0014764D01*
X0141143Y0014657D01*
X0141119Y0014551D01*
X0141092Y0014446D01*
X0141060Y0014343D01*
X0141025Y0014240D01*
X0140986Y0014139D01*
X0140943Y0014039D01*
X0140897Y0013941D01*
X0140847Y0013845D01*
X0140794Y0013750D01*
X0140737Y0013658D01*
X0140677Y0013567D01*
X0140613Y0013479D01*
X0140547Y0013394D01*
X0140477Y0013311D01*
X0140404Y0013230D01*
X0140328Y0013152D01*
X0140250Y0013077D01*
X0140169Y0013005D01*
X0140085Y0012936D01*
X0139999Y0012871D01*
X0139910Y0012808D01*
X0139819Y0012749D01*
X0139727Y0012693D01*
X0139632Y0012640D01*
X0139535Y0012591D01*
X0139436Y0012546D01*
X0139336Y0012504D01*
X0139234Y0012466D01*
X0139132Y0012432D01*
X0139027Y0012401D01*
X0138922Y0012375D01*
X0138816Y0012352D01*
X0138709Y0012333D01*
X0138602Y0012318D01*
X0138494Y0012307D01*
X0138386Y0012300D01*
X0138277Y0012297D01*
X0138169Y0012298D01*
X0138060Y0012303D01*
X0137952Y0012312D01*
X0137844Y0012325D01*
X0137737Y0012342D01*
X0137631Y0012363D01*
X0137525Y0012387D01*
X0137420Y0012416D01*
X0137317Y0012448D01*
X0137215Y0012484D01*
X0137114Y0012524D01*
X0137014Y0012568D01*
X0136917Y0012615D01*
X0136821Y0012666D01*
X0136727Y0012720D01*
X0136635Y0012778D01*
X0136545Y0012839D01*
X0136458Y0012903D01*
X0136373Y0012971D01*
X0136290Y0013041D01*
X0136210Y0013115D01*
X0136133Y0013191D01*
X0136059Y0013270D01*
X0135988Y0013352D01*
X0135920Y0013436D01*
X0135855Y0013523D01*
X0135793Y0013612D01*
X0135734Y0013704D01*
X0135679Y0013797D01*
X0135628Y0013892D01*
X0135579Y0013990D01*
X0135535Y0014089D01*
X0135494Y0014189D01*
X0135457Y0014291D01*
X0135424Y0014394D01*
X0135394Y0014499D01*
X0135368Y0014604D01*
X0135347Y0014711D01*
X0135329Y0014818D01*
X0135315Y0014925D01*
X0135305Y0015033D01*
X0135299Y0015142D01*
X0135297Y0015250D01*
X0131500Y0014250D02*
X0119000Y0014250D01*
X0119000Y0007250D01*
X0131500Y0007250D01*
X0131500Y0014250D01*
X0126000Y0010750D02*
X0124500Y0012750D01*
X0125750Y0010500D01*
X0124500Y0011750D01*
X0125500Y0010250D01*
X0124500Y0010750D01*
X0125250Y0009750D01*
X0124500Y0009750D01*
X0124500Y0008750D01*
X0125250Y0009750D01*
X0126000Y0010750D01*
X0124500Y0010750D02*
X0124500Y0011750D01*
X0124500Y0012750D01*
X0124500Y0010750D02*
X0124500Y0009750D01*
X0117500Y0007250D02*
X0105000Y0007250D01*
X0105000Y0014250D01*
X0117500Y0014250D01*
X0117500Y0007250D01*
X0112000Y0010750D02*
X0111250Y0009750D01*
X0110500Y0009750D01*
X0110500Y0008750D01*
X0111250Y0009750D01*
X0110500Y0010750D01*
X0111500Y0010250D01*
X0110500Y0011750D01*
X0111750Y0010500D01*
X0110500Y0012750D01*
X0112000Y0010750D01*
X0110500Y0010750D02*
X0110500Y0011750D01*
X0110500Y0012750D01*
X0110500Y0010750D02*
X0110500Y0009750D01*
X0103500Y0007250D02*
X0091000Y0007250D01*
X0091000Y0014250D01*
X0103500Y0014250D01*
X0103500Y0007250D01*
X0098000Y0010750D02*
X0097250Y0009750D01*
X0096500Y0009750D01*
X0096500Y0008750D01*
X0097250Y0009750D01*
X0096500Y0010750D01*
X0097500Y0010250D01*
X0096500Y0011750D01*
X0097750Y0010500D01*
X0096500Y0012750D01*
X0098000Y0010750D01*
X0096500Y0010750D02*
X0096500Y0011750D01*
X0096500Y0012750D01*
X0096500Y0010750D02*
X0096500Y0009750D01*
X0091750Y0015500D02*
X0091750Y0020500D01*
X0102750Y0020500D01*
X0102750Y0015500D01*
X0091750Y0015500D01*
X0106000Y0015500D02*
X0106000Y0020500D01*
X0117000Y0020500D01*
X0117000Y0015500D01*
X0106000Y0015500D01*
X0148000Y0002250D02*
X0148000Y0062250D01*
X0158000Y0062250D01*
X0158000Y0002250D01*
X0148000Y0002250D01*
X0054000Y0049000D02*
X0054000Y0054000D01*
X0056000Y0054000D01*
X0054000Y0054000D02*
X0054000Y0059000D01*
X0052500Y0058000D02*
X0050500Y0058000D01*
X0050500Y0050000D01*
X0052500Y0050000D01*
X0052500Y0058000D01*
X0049000Y0059000D02*
X0049000Y0054000D01*
X0047000Y0054000D01*
X0049000Y0054000D02*
X0049000Y0049000D01*
X0041657Y0049276D02*
X0041657Y0047701D01*
X0039000Y0049000D02*
X0034000Y0049000D01*
X0034000Y0060000D01*
X0039000Y0060000D01*
X0039000Y0049000D01*
X0028000Y0048549D02*
X0028000Y0052093D01*
X0022882Y0056817D02*
X0019339Y0056817D01*
X0041657Y0058724D02*
X0041657Y0060299D01*
X0061343Y0060299D01*
X0061343Y0058724D01*
D14*
X0081000Y0007500D03*
D15*
X0087498Y0008200D02*
X0087498Y0009601D01*
X0087965Y0010068D01*
X0089833Y0010068D01*
X0090300Y0009601D01*
X0090300Y0008200D01*
X0087498Y0008200D01*
X0087965Y0011147D02*
X0087498Y0011614D01*
X0087498Y0012548D01*
X0087965Y0013015D01*
X0088432Y0013015D01*
X0088899Y0012548D01*
X0089366Y0013015D01*
X0089833Y0013015D01*
X0090300Y0012548D01*
X0090300Y0011614D01*
X0089833Y0011147D01*
X0088899Y0012081D02*
X0088899Y0012548D01*
X0089366Y0015200D02*
X0089366Y0016601D01*
X0088899Y0017068D01*
X0087965Y0017068D01*
X0087498Y0016601D01*
X0087498Y0015200D01*
X0090300Y0015200D01*
X0089366Y0016134D02*
X0090300Y0017068D01*
X0090300Y0018147D02*
X0089833Y0018147D01*
X0087965Y0020015D01*
X0087498Y0020015D01*
X0087498Y0018147D01*
X0104450Y0021200D02*
X0104450Y0024002D01*
X0105851Y0024002D01*
X0106318Y0023535D01*
X0106318Y0022601D01*
X0105851Y0022134D01*
X0104450Y0022134D01*
X0105384Y0022134D02*
X0106318Y0021200D01*
X0107397Y0021667D02*
X0107397Y0022134D01*
X0107864Y0022601D01*
X0108798Y0022601D01*
X0109265Y0022134D01*
X0109265Y0021667D01*
X0108798Y0021200D01*
X0107864Y0021200D01*
X0107397Y0021667D01*
X0107864Y0022601D02*
X0107397Y0023068D01*
X0107397Y0023535D01*
X0107864Y0024002D01*
X0108798Y0024002D01*
X0109265Y0023535D01*
X0109265Y0023068D01*
X0108798Y0022601D01*
X0111200Y0021200D02*
X0112601Y0021200D01*
X0113068Y0021667D01*
X0113068Y0023535D01*
X0112601Y0024002D01*
X0111200Y0024002D01*
X0111200Y0021200D01*
X0114147Y0021200D02*
X0116015Y0023068D01*
X0116015Y0023535D01*
X0115548Y0024002D01*
X0114614Y0024002D01*
X0114147Y0023535D01*
X0114147Y0021200D02*
X0116015Y0021200D01*
X0119450Y0021200D02*
X0119450Y0024002D01*
X0120851Y0024002D01*
X0121318Y0023535D01*
X0121318Y0022601D01*
X0120851Y0022134D01*
X0119450Y0022134D01*
X0120384Y0022134D02*
X0121318Y0021200D01*
X0122397Y0021667D02*
X0122864Y0021200D01*
X0123798Y0021200D01*
X0124265Y0021667D01*
X0124265Y0023535D01*
X0123798Y0024002D01*
X0122864Y0024002D01*
X0122397Y0023535D01*
X0122397Y0023068D01*
X0122864Y0022601D01*
X0124265Y0022601D01*
X0126950Y0021200D02*
X0128351Y0021200D01*
X0128818Y0021667D01*
X0128818Y0023535D01*
X0128351Y0024002D01*
X0126950Y0024002D01*
X0126950Y0021200D01*
X0129897Y0022601D02*
X0131765Y0022601D01*
X0131298Y0024002D02*
X0129897Y0022601D01*
X0131298Y0021200D02*
X0131298Y0024002D01*
X0135450Y0024200D02*
X0135450Y0027303D01*
X0137518Y0027303D02*
X0135450Y0025234D01*
X0135967Y0025751D02*
X0137518Y0024200D01*
X0138673Y0024200D02*
X0140741Y0024200D01*
X0139707Y0024200D02*
X0139707Y0027303D01*
X0138673Y0026268D01*
X0130872Y0029717D02*
X0130872Y0030184D01*
X0130405Y0030651D01*
X0129003Y0030651D01*
X0129003Y0029717D01*
X0129471Y0029250D01*
X0130405Y0029250D01*
X0130872Y0029717D01*
X0129938Y0031585D02*
X0129003Y0030651D01*
X0127925Y0030651D02*
X0127458Y0030184D01*
X0126057Y0030184D01*
X0126057Y0029250D02*
X0126057Y0032052D01*
X0127458Y0032052D01*
X0127925Y0031585D01*
X0127925Y0030651D01*
X0126991Y0030184D02*
X0127925Y0029250D01*
X0129938Y0031585D02*
X0130872Y0032052D01*
X0130405Y0037750D02*
X0130405Y0040552D01*
X0129003Y0039151D01*
X0130872Y0039151D01*
X0127925Y0039151D02*
X0127925Y0040085D01*
X0127458Y0040552D01*
X0126057Y0040552D01*
X0126057Y0037750D01*
X0126991Y0038684D02*
X0127925Y0037750D01*
X0127458Y0038684D02*
X0126057Y0038684D01*
X0127458Y0038684D02*
X0127925Y0039151D01*
X0123765Y0038950D02*
X0121897Y0038950D01*
X0123765Y0040818D01*
X0123765Y0041285D01*
X0123298Y0041752D01*
X0122364Y0041752D01*
X0121897Y0041285D01*
X0120818Y0041285D02*
X0120818Y0040351D01*
X0120351Y0039884D01*
X0118950Y0039884D01*
X0118950Y0038950D02*
X0118950Y0041752D01*
X0120351Y0041752D01*
X0120818Y0041285D01*
X0119884Y0039884D02*
X0120818Y0038950D01*
X0120818Y0043950D02*
X0119884Y0044884D01*
X0120351Y0044884D02*
X0118950Y0044884D01*
X0118950Y0043950D02*
X0118950Y0046752D01*
X0120351Y0046752D01*
X0120818Y0046285D01*
X0120818Y0045351D01*
X0120351Y0044884D01*
X0121897Y0044417D02*
X0122364Y0043950D01*
X0123298Y0043950D01*
X0123765Y0044417D01*
X0123765Y0044884D01*
X0123298Y0045351D01*
X0122831Y0045351D01*
X0123298Y0045351D02*
X0123765Y0045818D01*
X0123765Y0046285D01*
X0123298Y0046752D01*
X0122364Y0046752D01*
X0121897Y0046285D01*
X0123244Y0048450D02*
X0122727Y0048967D01*
X0123244Y0048450D02*
X0124279Y0048450D01*
X0124796Y0048967D01*
X0124796Y0049484D01*
X0124279Y0050001D01*
X0123761Y0050001D01*
X0124279Y0050001D02*
X0124796Y0050518D01*
X0124796Y0051036D01*
X0124279Y0051553D01*
X0123244Y0051553D01*
X0122727Y0051036D01*
X0121573Y0051553D02*
X0120539Y0051553D01*
X0121056Y0051553D02*
X0121056Y0048967D01*
X0120539Y0048450D01*
X0120022Y0048450D01*
X0119505Y0048967D01*
X0126057Y0047302D02*
X0127458Y0047302D01*
X0127925Y0046835D01*
X0127925Y0045901D01*
X0127458Y0045434D01*
X0126057Y0045434D01*
X0126057Y0044500D02*
X0126057Y0047302D01*
X0129003Y0047302D02*
X0129003Y0045901D01*
X0129938Y0046368D01*
X0130405Y0046368D01*
X0130872Y0045901D01*
X0130872Y0044967D01*
X0130405Y0044500D01*
X0129471Y0044500D01*
X0129003Y0044967D01*
X0127925Y0044500D02*
X0126991Y0045434D01*
X0129003Y0047302D02*
X0130872Y0047302D01*
X0134807Y0049750D02*
X0134807Y0052552D01*
X0136675Y0052552D01*
X0137753Y0051618D02*
X0138688Y0052552D01*
X0138688Y0049750D01*
X0139622Y0049750D02*
X0137753Y0049750D01*
X0135741Y0051151D02*
X0134807Y0051151D01*
X0098796Y0047036D02*
X0098279Y0047553D01*
X0097244Y0047553D01*
X0096727Y0047036D01*
X0095573Y0047553D02*
X0094539Y0047553D01*
X0095056Y0047553D02*
X0095056Y0044967D01*
X0094539Y0044450D01*
X0094022Y0044450D01*
X0093505Y0044967D01*
X0096727Y0044450D02*
X0098796Y0046518D01*
X0098796Y0047036D01*
X0098796Y0044450D02*
X0096727Y0044450D01*
X0087500Y0042500D02*
X0076500Y0042500D01*
X0076500Y0060000D01*
X0087500Y0060000D01*
X0087500Y0042500D01*
X0083622Y0041552D02*
X0083622Y0041085D01*
X0081753Y0039217D01*
X0081753Y0038750D01*
X0080675Y0039217D02*
X0080208Y0038750D01*
X0079274Y0038750D01*
X0078807Y0039217D01*
X0078807Y0041085D01*
X0079274Y0041552D01*
X0080208Y0041552D01*
X0080675Y0041085D01*
X0081753Y0041552D02*
X0083622Y0041552D01*
X0074872Y0045717D02*
X0074872Y0046184D01*
X0074405Y0046651D01*
X0073003Y0046651D01*
X0073003Y0045717D01*
X0073471Y0045250D01*
X0074405Y0045250D01*
X0074872Y0045717D01*
X0073938Y0047585D02*
X0073003Y0046651D01*
X0073938Y0047585D02*
X0074872Y0048052D01*
X0071925Y0047585D02*
X0071458Y0048052D01*
X0070524Y0048052D01*
X0070057Y0047585D01*
X0070057Y0045717D01*
X0070524Y0045250D01*
X0071458Y0045250D01*
X0071925Y0045717D01*
X0068622Y0045250D02*
X0066753Y0045250D01*
X0068622Y0047118D01*
X0068622Y0047585D01*
X0068155Y0048052D01*
X0067221Y0048052D01*
X0066753Y0047585D01*
X0065675Y0047585D02*
X0065208Y0048052D01*
X0064274Y0048052D01*
X0063807Y0047585D01*
X0063807Y0045717D01*
X0064274Y0045250D01*
X0065208Y0045250D01*
X0065675Y0045717D01*
X0054015Y0043950D02*
X0052147Y0043950D01*
X0053081Y0043950D02*
X0053081Y0046752D01*
X0052147Y0045818D01*
X0051068Y0046285D02*
X0051068Y0046752D01*
X0051068Y0046285D02*
X0050134Y0045351D01*
X0050134Y0043950D01*
X0050134Y0045351D02*
X0049200Y0046285D01*
X0049200Y0046752D01*
X0038622Y0045250D02*
X0036753Y0045250D01*
X0037688Y0045250D02*
X0037688Y0048052D01*
X0036753Y0047118D01*
X0035675Y0047585D02*
X0035208Y0048052D01*
X0034274Y0048052D01*
X0033807Y0047585D01*
X0033807Y0045717D01*
X0034274Y0045250D01*
X0035208Y0045250D01*
X0035675Y0045717D01*
X0032033Y0051032D02*
X0029447Y0051032D01*
X0032033Y0051032D02*
X0032550Y0051549D01*
X0032550Y0052583D01*
X0032033Y0053100D01*
X0029447Y0053100D01*
X0029964Y0054254D02*
X0030482Y0054254D01*
X0030999Y0054772D01*
X0030999Y0055806D01*
X0031516Y0056323D01*
X0032033Y0056323D01*
X0032550Y0055806D01*
X0032550Y0054772D01*
X0032033Y0054254D01*
X0029964Y0054254D02*
X0029447Y0054772D01*
X0029447Y0055806D01*
X0029964Y0056323D01*
X0029447Y0057477D02*
X0029447Y0059029D01*
X0029964Y0059546D01*
X0030482Y0059546D01*
X0030999Y0059029D01*
X0030999Y0057477D01*
X0032550Y0057477D02*
X0029447Y0057477D01*
X0032550Y0057477D02*
X0032550Y0059029D01*
X0032033Y0059546D01*
X0031516Y0059546D01*
X0030999Y0059029D01*
X0031899Y0035515D02*
X0031899Y0033647D01*
X0030498Y0035048D01*
X0033300Y0035048D01*
X0032833Y0032568D02*
X0033300Y0032101D01*
X0033300Y0031167D01*
X0032833Y0030700D01*
X0030965Y0030700D01*
X0030498Y0031167D01*
X0030498Y0032101D01*
X0030965Y0032568D01*
X0046998Y0032864D02*
X0046998Y0033798D01*
X0047465Y0034265D01*
X0047932Y0034265D01*
X0048399Y0033798D01*
X0048866Y0034265D01*
X0049333Y0034265D01*
X0049800Y0033798D01*
X0049800Y0032864D01*
X0049333Y0032397D01*
X0048399Y0033331D02*
X0048399Y0033798D01*
X0047465Y0032397D02*
X0046998Y0032864D01*
X0047465Y0031318D02*
X0046998Y0030851D01*
X0046998Y0029917D01*
X0047465Y0029450D01*
X0049333Y0029450D01*
X0049800Y0029917D01*
X0049800Y0030851D01*
X0049333Y0031318D01*
X0022938Y0024052D02*
X0022938Y0021250D01*
X0023872Y0021250D02*
X0022003Y0021250D01*
X0020925Y0021717D02*
X0020925Y0023585D01*
X0020458Y0024052D01*
X0019057Y0024052D01*
X0019057Y0021250D01*
X0020458Y0021250D01*
X0020925Y0021717D01*
X0022003Y0023118D02*
X0022938Y0024052D01*
X0015872Y0021250D02*
X0014003Y0021250D01*
X0014938Y0021250D02*
X0014938Y0024052D01*
X0014003Y0023118D01*
X0012925Y0022651D02*
X0012458Y0022184D01*
X0011057Y0022184D01*
X0011057Y0021250D02*
X0011057Y0024052D01*
X0012458Y0024052D01*
X0012925Y0023585D01*
X0012925Y0022651D01*
X0011991Y0022184D02*
X0012925Y0021250D01*
X0048200Y0008252D02*
X0048200Y0005917D01*
X0048667Y0005450D01*
X0049601Y0005450D01*
X0050068Y0005917D01*
X0050068Y0008252D01*
X0051147Y0007785D02*
X0051614Y0008252D01*
X0052548Y0008252D01*
X0053015Y0007785D01*
X0053015Y0007318D01*
X0051147Y0005450D01*
X0053015Y0005450D01*
X0092498Y0027417D02*
X0092965Y0026950D01*
X0094833Y0026950D01*
X0095300Y0027417D01*
X0095300Y0028351D01*
X0094833Y0028818D01*
X0092965Y0028818D01*
X0092498Y0028351D01*
X0092498Y0027417D01*
X0094366Y0027884D02*
X0095300Y0028818D01*
X0095300Y0029897D02*
X0095300Y0031765D01*
X0095300Y0030831D02*
X0092498Y0030831D01*
X0093432Y0029897D01*
X0108498Y0030114D02*
X0108965Y0029647D01*
X0108498Y0030114D02*
X0108498Y0031048D01*
X0108965Y0031515D01*
X0109432Y0031515D01*
X0111300Y0029647D01*
X0111300Y0031515D01*
X0111300Y0028568D02*
X0110366Y0027634D01*
X0110833Y0026700D02*
X0108965Y0026700D01*
X0108498Y0027167D01*
X0108498Y0028101D01*
X0108965Y0028568D01*
X0110833Y0028568D01*
X0111300Y0028101D01*
X0111300Y0027167D01*
X0110833Y0026700D01*
M02*
