%
M48
M72
T01C0.01575
T02C0.01969
T03C0.02362
T04C0.04000
%
T01
X121016Y58028
T02
X21000Y49550
X37250Y50550
X54250Y50550
X59000Y46550
X73250Y46300
X79250Y40300
X84000Y36300
X88250Y32050
X81750Y29550
X73500Y30800
X60500Y30800
X67000Y24550
X74500Y16050
X78000Y14300
X85500Y18800
X105000Y23050
X110250Y26300
X120000Y25050
X120000Y15050
X120000Y5050
X120000Y35050
X104750Y41550
X101750Y36800
X120000Y45050
X101500Y48550
X89500Y48550
X67000Y37300
X42750Y34550
X26750Y36800
X26750Y40800
X14250Y34050
X15250Y30050
X18000Y27300
X20750Y24550
X48000Y24550
T03
X18250Y15800
T04
X7000Y7300
X22000Y7300
X32000Y7300
X42000Y7300
X52000Y7300
X62000Y7300
X72000Y7300
X82000Y7300
X92000Y7300
X102000Y7300
X112000Y7300
X43500Y45300
X42000Y57300
X32000Y57300
X22000Y57300
X7000Y57300
X7000Y47300
X7000Y37300
X7000Y27300
X7000Y17300
X83250Y46800
X82000Y57300
X72000Y57300
X62000Y57300
X52000Y57300
X92000Y57300
X102000Y57300
X112000Y57300
M30
