G75*
%MOIN*%
%OFA0B0*%
%FSLAX25Y25*%
%IPPOS*%
%LPD*%
%AMOC8*
5,1,8,0,0,1.08239X$1,22.5*
%
%ADD10C,0.00000*%
%ADD11C,0.00600*%
%ADD12C,0.00500*%
%ADD13C,0.01000*%
%ADD14C,0.00394*%
%ADD15C,0.00800*%
%ADD16C,0.00300*%
D10*
X0001250Y0002383D02*
X0001250Y0063593D01*
X0142451Y0063343D01*
X0142451Y0002383D01*
X0001250Y0002383D01*
D11*
X0012297Y0003200D02*
X0012864Y0002633D01*
X0015133Y0002633D01*
X0015700Y0003200D01*
X0015700Y0004335D01*
X0015133Y0004902D01*
X0013999Y0004902D01*
X0013999Y0003768D01*
X0012864Y0004902D02*
X0012297Y0004335D01*
X0012297Y0003200D01*
X0013431Y0006316D02*
X0013431Y0008018D01*
X0013999Y0008585D01*
X0015700Y0008585D01*
X0015133Y0010000D02*
X0013999Y0010000D01*
X0013431Y0010567D01*
X0013431Y0012268D01*
X0012297Y0012268D02*
X0015700Y0012268D01*
X0015700Y0010567D01*
X0015133Y0010000D01*
X0021000Y0012200D02*
X0021567Y0011633D01*
X0022701Y0011633D01*
X0023269Y0012200D01*
X0023269Y0014469D01*
X0022701Y0015036D01*
X0021567Y0015036D01*
X0021000Y0014469D01*
X0021000Y0013901D01*
X0021567Y0013334D01*
X0023269Y0013334D01*
X0029250Y0013901D02*
X0030384Y0015036D01*
X0030384Y0011633D01*
X0029250Y0011633D02*
X0031519Y0011633D01*
X0032933Y0012200D02*
X0035202Y0014469D01*
X0035202Y0012200D01*
X0034635Y0011633D01*
X0033500Y0011633D01*
X0032933Y0012200D01*
X0032933Y0014469D01*
X0033500Y0015036D01*
X0034635Y0015036D01*
X0035202Y0014469D01*
X0039250Y0013901D02*
X0040384Y0015036D01*
X0040384Y0011633D01*
X0039250Y0011633D02*
X0041519Y0011633D01*
X0042933Y0011633D02*
X0045202Y0011633D01*
X0044067Y0011633D02*
X0044067Y0015036D01*
X0042933Y0013901D01*
X0051000Y0013334D02*
X0051000Y0012200D01*
X0051567Y0011633D01*
X0052701Y0011633D01*
X0053269Y0012200D01*
X0053269Y0012767D01*
X0052701Y0013334D01*
X0051000Y0013334D01*
X0052134Y0014469D01*
X0053269Y0015036D01*
X0061250Y0015036D02*
X0063519Y0015036D01*
X0063519Y0014469D01*
X0061250Y0012200D01*
X0061250Y0011633D01*
X0071000Y0012200D02*
X0071567Y0011633D01*
X0072701Y0011633D01*
X0073269Y0012200D01*
X0073269Y0012767D01*
X0072701Y0013334D01*
X0071567Y0013334D01*
X0071000Y0013901D01*
X0071000Y0014469D01*
X0071567Y0015036D01*
X0072701Y0015036D01*
X0073269Y0014469D01*
X0073269Y0013901D01*
X0072701Y0013334D01*
X0071567Y0013334D02*
X0071000Y0012767D01*
X0071000Y0012200D01*
X0081000Y0012200D02*
X0081567Y0011633D01*
X0082701Y0011633D01*
X0083269Y0012200D01*
X0083269Y0013334D01*
X0082701Y0013901D01*
X0082134Y0013901D01*
X0081000Y0013334D01*
X0081000Y0015036D01*
X0083269Y0015036D01*
X0091000Y0014469D02*
X0091567Y0015036D01*
X0092701Y0015036D01*
X0093269Y0014469D01*
X0093269Y0013901D01*
X0092701Y0013334D01*
X0093269Y0012767D01*
X0093269Y0012200D01*
X0092701Y0011633D01*
X0091567Y0011633D01*
X0091000Y0012200D01*
X0092134Y0013334D02*
X0092701Y0013334D01*
X0101000Y0013901D02*
X0102134Y0015036D01*
X0102134Y0011633D01*
X0101000Y0011633D02*
X0103269Y0011633D01*
X0107750Y0012200D02*
X0107750Y0014469D01*
X0108317Y0015036D01*
X0109451Y0015036D01*
X0110019Y0014469D01*
X0110019Y0013334D02*
X0108884Y0013334D01*
X0110019Y0013334D02*
X0110019Y0012200D01*
X0109451Y0011633D01*
X0108317Y0011633D01*
X0107750Y0012200D01*
X0111433Y0011633D02*
X0111433Y0015036D01*
X0113702Y0011633D01*
X0113702Y0015036D01*
X0115116Y0015036D02*
X0116818Y0015036D01*
X0117385Y0014469D01*
X0117385Y0012200D01*
X0116818Y0011633D01*
X0115116Y0011633D01*
X0115116Y0015036D01*
X0123872Y0012874D02*
X0123872Y0011740D01*
X0124439Y0011173D01*
X0125006Y0013441D02*
X0127275Y0011173D01*
X0127275Y0013441D01*
X0125006Y0013441D02*
X0124439Y0013441D01*
X0123872Y0012874D01*
X0126708Y0014856D02*
X0126708Y0015423D01*
X0127275Y0015423D01*
X0127275Y0014856D01*
X0126708Y0014856D01*
X0125573Y0016697D02*
X0125573Y0018966D01*
X0123872Y0018399D02*
X0125573Y0016697D01*
X0127275Y0018399D02*
X0123872Y0018399D01*
X0124439Y0020380D02*
X0126708Y0020380D01*
X0127275Y0020948D01*
X0127275Y0022082D01*
X0126708Y0022649D01*
X0125573Y0022649D01*
X0125573Y0021515D01*
X0124439Y0022649D02*
X0123872Y0022082D01*
X0123872Y0020948D01*
X0124439Y0020380D01*
X0123872Y0024064D02*
X0127275Y0024064D01*
X0125573Y0024064D02*
X0125006Y0024631D01*
X0125006Y0025765D01*
X0125573Y0026332D01*
X0127275Y0026332D01*
X0127275Y0027747D02*
X0127275Y0030015D01*
X0127275Y0027747D02*
X0125006Y0030015D01*
X0125006Y0027747D01*
X0125006Y0035113D02*
X0123872Y0036247D01*
X0125006Y0037382D01*
X0127275Y0037382D01*
X0125573Y0037382D02*
X0125573Y0035113D01*
X0125006Y0035113D02*
X0127275Y0035113D01*
X0127275Y0038796D02*
X0125006Y0038796D01*
X0125006Y0040498D01*
X0125573Y0041065D01*
X0127275Y0041065D01*
X0125006Y0042479D02*
X0125006Y0043614D01*
X0124439Y0043046D02*
X0126708Y0043046D01*
X0127275Y0043614D01*
X0116935Y0051300D02*
X0116368Y0050733D01*
X0115234Y0050733D01*
X0114667Y0051300D01*
X0113252Y0051867D02*
X0113252Y0054136D01*
X0114667Y0053569D02*
X0115234Y0054136D01*
X0116368Y0054136D01*
X0116935Y0053569D01*
X0116935Y0053001D01*
X0116368Y0052434D01*
X0116935Y0051867D01*
X0116935Y0051300D01*
X0116368Y0052434D02*
X0115801Y0052434D01*
X0113252Y0051867D02*
X0112118Y0050733D01*
X0110984Y0051867D01*
X0110984Y0054136D01*
X0109569Y0053569D02*
X0109569Y0053001D01*
X0109002Y0052434D01*
X0109569Y0051867D01*
X0109569Y0051300D01*
X0109002Y0050733D01*
X0107868Y0050733D01*
X0107301Y0051300D01*
X0104935Y0051300D02*
X0104935Y0053569D01*
X0104368Y0054136D01*
X0103234Y0054136D01*
X0102667Y0053569D01*
X0102667Y0051300D01*
X0103234Y0050733D01*
X0104368Y0050733D01*
X0104935Y0051300D01*
X0108435Y0052434D02*
X0109002Y0052434D01*
X0109569Y0053569D02*
X0109002Y0054136D01*
X0107868Y0054136D01*
X0107301Y0053569D01*
X0101252Y0054136D02*
X0098984Y0054136D01*
X0100118Y0054136D02*
X0100118Y0050733D01*
X0094435Y0051300D02*
X0094435Y0051867D01*
X0093868Y0052434D01*
X0092167Y0052434D01*
X0092167Y0051300D01*
X0092734Y0050733D01*
X0093868Y0050733D01*
X0094435Y0051300D01*
X0092167Y0052434D02*
X0093301Y0053569D01*
X0094435Y0054136D01*
X0089618Y0054136D02*
X0089618Y0050733D01*
X0088484Y0050733D02*
X0090752Y0050733D01*
X0088484Y0053001D02*
X0089618Y0054136D01*
X0080677Y0053294D02*
X0078271Y0055701D01*
X0078271Y0053294D01*
X0079875Y0054899D01*
X0075266Y0052695D02*
X0077672Y0050289D01*
X0076870Y0049487D02*
X0078474Y0051091D01*
X0075266Y0051091D02*
X0075266Y0052695D01*
X0073685Y0053001D02*
X0073685Y0053569D01*
X0073118Y0054136D01*
X0071984Y0054136D01*
X0071417Y0053569D01*
X0068868Y0054136D02*
X0068868Y0050733D01*
X0067734Y0050733D02*
X0070002Y0050733D01*
X0071417Y0050733D02*
X0073685Y0053001D01*
X0073685Y0050733D02*
X0071417Y0050733D01*
X0068868Y0054136D02*
X0067734Y0053001D01*
X0064685Y0053001D02*
X0064118Y0052434D01*
X0064685Y0051867D01*
X0064685Y0051300D01*
X0064118Y0050733D01*
X0062984Y0050733D01*
X0062417Y0051300D01*
X0061002Y0050733D02*
X0058734Y0050733D01*
X0059868Y0050733D02*
X0059868Y0054136D01*
X0058734Y0053001D01*
X0054935Y0052434D02*
X0054935Y0051300D01*
X0054368Y0050733D01*
X0053234Y0050733D01*
X0052667Y0051300D01*
X0051252Y0050733D02*
X0048984Y0050733D01*
X0050118Y0050733D02*
X0050118Y0054136D01*
X0048984Y0053001D01*
X0052667Y0052434D02*
X0052667Y0054136D01*
X0054935Y0054136D01*
X0054368Y0053001D02*
X0054935Y0052434D01*
X0054368Y0053001D02*
X0053801Y0053001D01*
X0052667Y0052434D01*
X0045685Y0053501D02*
X0045685Y0054069D01*
X0045118Y0054636D01*
X0043984Y0054636D01*
X0043417Y0054069D01*
X0045685Y0053501D02*
X0043417Y0051233D01*
X0045685Y0051233D01*
X0029775Y0053956D02*
X0026567Y0053956D01*
X0026567Y0053154D01*
X0027369Y0052352D01*
X0028171Y0052352D01*
X0029775Y0053956D01*
X0029775Y0054758D01*
X0028973Y0055560D01*
X0028171Y0055560D01*
X0026567Y0053956D01*
X0020935Y0052184D02*
X0018667Y0052184D01*
X0020368Y0053886D01*
X0020368Y0050483D01*
X0015700Y0050268D02*
X0013431Y0048000D01*
X0013431Y0050268D02*
X0015700Y0048000D01*
X0012297Y0046585D02*
X0012297Y0044316D01*
X0012297Y0045451D02*
X0015700Y0045451D01*
X0015700Y0040518D02*
X0013431Y0038250D01*
X0013431Y0040518D02*
X0015700Y0038250D01*
X0015700Y0036835D02*
X0014566Y0035701D01*
X0014566Y0036268D02*
X0014566Y0034566D01*
X0015700Y0034566D02*
X0012297Y0034566D01*
X0012297Y0036268D01*
X0012864Y0036835D01*
X0013999Y0036835D01*
X0014566Y0036268D01*
X0015133Y0031268D02*
X0012864Y0031268D01*
X0015133Y0029000D01*
X0015700Y0029567D01*
X0015700Y0030701D01*
X0015133Y0031268D01*
X0012864Y0031268D02*
X0012297Y0030701D01*
X0012297Y0029567D01*
X0012864Y0029000D01*
X0015133Y0029000D01*
X0015133Y0027585D02*
X0013999Y0027585D01*
X0013431Y0027018D01*
X0013431Y0025884D01*
X0013999Y0025316D01*
X0015133Y0025316D01*
X0015700Y0025884D01*
X0015700Y0027018D01*
X0015133Y0027585D01*
X0015700Y0023995D02*
X0015700Y0022861D01*
X0015700Y0023428D02*
X0012297Y0023428D01*
X0012297Y0022861D02*
X0012297Y0023995D01*
X0013999Y0020018D02*
X0014566Y0020018D01*
X0014566Y0017750D01*
X0015133Y0017750D02*
X0013999Y0017750D01*
X0013431Y0018317D01*
X0013431Y0019451D01*
X0013999Y0020018D01*
X0015700Y0019451D02*
X0015700Y0018317D01*
X0015133Y0017750D01*
X0015700Y0016335D02*
X0014566Y0015201D01*
X0014566Y0015768D02*
X0014566Y0014066D01*
X0015700Y0014066D02*
X0012297Y0014066D01*
X0012297Y0015768D01*
X0012864Y0016335D01*
X0013999Y0016335D01*
X0014566Y0015768D01*
X0015700Y0006316D02*
X0013431Y0006316D01*
X0063551Y0052434D02*
X0064118Y0052434D01*
X0064685Y0053001D02*
X0064685Y0053569D01*
X0064118Y0054136D01*
X0062984Y0054136D01*
X0062417Y0053569D01*
X0015700Y0053450D02*
X0015133Y0052883D01*
X0015700Y0053450D02*
X0015700Y0054585D01*
X0015133Y0055152D01*
X0014566Y0055152D01*
X0013999Y0054585D01*
X0013999Y0054018D01*
X0013999Y0054585D02*
X0013431Y0055152D01*
X0012864Y0055152D01*
X0012297Y0054585D01*
X0012297Y0053450D01*
X0012864Y0052883D01*
X0013431Y0056566D02*
X0015700Y0057701D01*
X0013431Y0058835D01*
X0012864Y0060250D02*
X0012297Y0060817D01*
X0012297Y0061951D01*
X0012864Y0062518D01*
X0013431Y0062518D01*
X0013999Y0061951D01*
X0014566Y0062518D01*
X0015133Y0062518D01*
X0015700Y0061951D01*
X0015700Y0060817D01*
X0015133Y0060250D01*
X0013999Y0061384D02*
X0013999Y0061951D01*
D12*
X0029000Y0052383D02*
X0040000Y0052383D01*
X0040000Y0047383D01*
X0029000Y0047383D01*
X0029000Y0052383D01*
X0027905Y0050885D02*
X0027004Y0050885D01*
X0026553Y0050435D01*
X0026553Y0049984D01*
X0027004Y0049534D01*
X0028355Y0049534D01*
X0028355Y0050435D02*
X0027905Y0050885D01*
X0028355Y0050435D02*
X0028355Y0048633D01*
X0027905Y0048183D01*
X0027004Y0048183D01*
X0026553Y0048633D01*
X0025409Y0048183D02*
X0024508Y0049084D01*
X0024958Y0049084D02*
X0023607Y0049084D01*
X0023607Y0048183D02*
X0023607Y0050885D01*
X0024958Y0050885D01*
X0025409Y0050435D01*
X0025409Y0049534D01*
X0024958Y0049084D01*
X0024000Y0047633D02*
X0024000Y0036633D01*
X0019000Y0036633D01*
X0019000Y0047633D01*
X0024000Y0047633D01*
X0025548Y0046430D02*
X0025548Y0045530D01*
X0025998Y0045079D01*
X0026448Y0046881D02*
X0028250Y0045079D01*
X0028250Y0046881D01*
X0029000Y0047383D02*
X0040000Y0047383D01*
X0040000Y0042383D01*
X0029000Y0042383D01*
X0029000Y0047383D01*
X0026448Y0046881D02*
X0025998Y0046881D01*
X0025548Y0046430D01*
X0025998Y0043934D02*
X0025548Y0043484D01*
X0025548Y0042133D01*
X0028250Y0042133D01*
X0029000Y0042133D02*
X0029000Y0037133D01*
X0040000Y0037133D01*
X0040000Y0042133D01*
X0029000Y0042133D01*
X0027800Y0041381D02*
X0027349Y0041381D01*
X0026899Y0040930D01*
X0026899Y0039579D01*
X0027800Y0039579D01*
X0028250Y0040030D01*
X0028250Y0040930D01*
X0027800Y0041381D01*
X0027349Y0042133D02*
X0027349Y0043484D01*
X0026899Y0043934D01*
X0025998Y0043934D01*
X0027349Y0043034D02*
X0028250Y0043934D01*
X0025548Y0041381D02*
X0025998Y0040480D01*
X0026899Y0039579D01*
X0026899Y0038434D02*
X0027349Y0037984D01*
X0027349Y0036633D01*
X0028250Y0036633D02*
X0025548Y0036633D01*
X0025548Y0037984D01*
X0025998Y0038434D01*
X0026899Y0038434D01*
X0027349Y0037534D02*
X0028250Y0038434D01*
X0029000Y0037133D02*
X0040000Y0037133D01*
X0040000Y0032133D01*
X0029000Y0032133D01*
X0029000Y0037133D01*
X0023748Y0035835D02*
X0021947Y0035835D01*
X0021947Y0034484D01*
X0022847Y0034934D01*
X0023298Y0034934D01*
X0023748Y0034484D01*
X0023748Y0033583D01*
X0023298Y0033133D01*
X0022397Y0033133D01*
X0021947Y0033583D01*
X0020802Y0033583D02*
X0020351Y0033133D01*
X0019450Y0033133D01*
X0019000Y0033583D01*
X0019000Y0035385D01*
X0019450Y0035835D01*
X0020351Y0035835D01*
X0020802Y0035385D01*
X0019248Y0030131D02*
X0021050Y0028329D01*
X0021500Y0028329D01*
X0022250Y0028883D02*
X0033250Y0028883D01*
X0033250Y0023883D01*
X0044250Y0023883D01*
X0044250Y0028883D01*
X0033250Y0028883D01*
X0033250Y0023883D01*
X0045750Y0023883D01*
X0045750Y0016883D01*
X0033250Y0016883D01*
X0033250Y0023883D01*
X0022250Y0023883D01*
X0022250Y0028883D01*
X0019248Y0030131D02*
X0018798Y0030131D01*
X0018798Y0028329D01*
X0019248Y0027184D02*
X0020149Y0027184D01*
X0020599Y0026734D01*
X0020599Y0025383D01*
X0020599Y0026284D02*
X0021500Y0027184D01*
X0019248Y0027184D02*
X0018798Y0026734D01*
X0018798Y0025383D01*
X0021500Y0025383D01*
X0020750Y0023883D02*
X0033250Y0023883D01*
X0033250Y0016883D01*
X0020750Y0016883D01*
X0020750Y0023883D01*
X0020000Y0022526D02*
X0018198Y0022526D01*
X0019099Y0022526D02*
X0018198Y0023427D01*
X0018198Y0023877D01*
X0018198Y0021381D02*
X0019550Y0021381D01*
X0020000Y0020930D01*
X0019550Y0020480D01*
X0020000Y0020030D01*
X0019550Y0019579D01*
X0018198Y0019579D01*
X0017748Y0018434D02*
X0018649Y0018434D01*
X0019099Y0017984D01*
X0019099Y0016633D01*
X0020000Y0016633D02*
X0017298Y0016633D01*
X0017298Y0017984D01*
X0017748Y0018434D01*
X0026250Y0018383D02*
X0027000Y0019383D01*
X0026250Y0019383D01*
X0026250Y0018383D01*
X0026250Y0019383D02*
X0026250Y0020383D01*
X0027000Y0019383D01*
X0027750Y0020383D01*
X0026250Y0022383D01*
X0027500Y0020133D01*
X0026250Y0021383D01*
X0027250Y0019883D01*
X0026250Y0020383D01*
X0026250Y0021383D01*
X0026250Y0022383D01*
X0038750Y0022383D02*
X0040000Y0020133D01*
X0038750Y0021383D01*
X0039750Y0019883D01*
X0038750Y0020383D01*
X0039500Y0019383D01*
X0038750Y0019383D01*
X0038750Y0018383D01*
X0039500Y0019383D01*
X0040250Y0020383D01*
X0038750Y0022383D01*
X0038750Y0021383D01*
X0038750Y0020383D01*
X0038750Y0019383D01*
X0046748Y0019291D02*
X0046748Y0017490D01*
X0046748Y0018390D02*
X0049450Y0018390D01*
X0049450Y0020436D02*
X0047648Y0022238D01*
X0047648Y0020436D02*
X0049450Y0022238D01*
X0048000Y0024687D02*
X0044997Y0024687D01*
X0044997Y0026189D01*
X0045498Y0026689D01*
X0046499Y0026689D01*
X0046999Y0026189D01*
X0046999Y0024687D01*
X0046999Y0025688D02*
X0048000Y0026689D01*
X0047500Y0027910D02*
X0046999Y0027910D01*
X0046499Y0028410D01*
X0046499Y0029411D01*
X0046999Y0029912D01*
X0047500Y0029912D01*
X0048000Y0029411D01*
X0048000Y0028410D01*
X0047500Y0027910D01*
X0046499Y0028410D02*
X0045998Y0027910D01*
X0045498Y0027910D01*
X0044997Y0028410D01*
X0044997Y0029411D01*
X0045498Y0029912D01*
X0045998Y0029912D01*
X0046499Y0029411D01*
X0043450Y0031990D02*
X0040748Y0031990D01*
X0040748Y0033341D01*
X0041198Y0033791D01*
X0042099Y0033791D01*
X0042549Y0033341D01*
X0042549Y0031990D01*
X0042549Y0032890D02*
X0043450Y0033791D01*
X0043000Y0034936D02*
X0043450Y0035387D01*
X0043450Y0036287D01*
X0043000Y0036738D01*
X0042549Y0036738D01*
X0042099Y0036287D01*
X0042099Y0035837D01*
X0042099Y0036287D02*
X0041648Y0036738D01*
X0041198Y0036738D01*
X0040748Y0036287D01*
X0040748Y0035387D01*
X0041198Y0034936D01*
X0044658Y0038111D02*
X0045932Y0036838D01*
X0046568Y0036838D01*
X0047205Y0037475D01*
X0047205Y0038111D01*
X0048334Y0038603D02*
X0046423Y0040513D01*
X0045932Y0039385D02*
X0045295Y0039385D01*
X0044658Y0038748D01*
X0044658Y0038111D01*
X0047378Y0039558D02*
X0048652Y0040832D01*
X0047697Y0041787D02*
X0049607Y0039877D01*
X0050735Y0040368D02*
X0052009Y0041642D01*
X0052501Y0042770D02*
X0050590Y0044680D01*
X0051545Y0045636D01*
X0052182Y0045636D01*
X0052819Y0044999D01*
X0052819Y0044362D01*
X0051864Y0043407D01*
X0054266Y0045172D02*
X0054902Y0045172D01*
X0055539Y0045809D01*
X0055539Y0046445D01*
X0053947Y0048038D01*
X0052673Y0046764D02*
X0054266Y0045172D01*
X0065232Y0044464D02*
X0067000Y0046232D01*
X0068768Y0044464D01*
X0073797Y0045484D02*
X0073797Y0046758D01*
X0075071Y0048032D01*
X0076345Y0046758D02*
X0075071Y0045484D01*
X0073797Y0045484D01*
X0075244Y0044038D02*
X0076199Y0043082D01*
X0076836Y0043082D01*
X0078110Y0044356D01*
X0078110Y0044993D01*
X0077155Y0045948D01*
X0075244Y0044038D01*
X0077327Y0041954D02*
X0079238Y0043865D01*
X0080194Y0042909D01*
X0080194Y0042272D01*
X0078920Y0040999D01*
X0078283Y0040999D01*
X0077327Y0041954D01*
X0080048Y0040507D02*
X0081003Y0039552D01*
X0081640Y0039552D01*
X0082277Y0040189D01*
X0082277Y0040826D01*
X0081322Y0041781D01*
X0079411Y0039870D01*
X0080685Y0039870D02*
X0080685Y0038597D01*
X0082131Y0037150D02*
X0084042Y0039061D01*
X0083405Y0039698D02*
X0084679Y0038424D01*
X0085170Y0037296D02*
X0083896Y0036022D01*
X0083896Y0035385D01*
X0084533Y0034748D01*
X0085170Y0034748D01*
X0086444Y0036022D02*
X0086444Y0036659D01*
X0085807Y0037296D01*
X0085170Y0037296D01*
X0089750Y0037883D02*
X0089750Y0042883D01*
X0100750Y0042883D01*
X0100750Y0037883D01*
X0089750Y0037883D01*
X0089823Y0037060D02*
X0089823Y0032060D01*
X0100823Y0032060D01*
X0100823Y0037060D01*
X0089823Y0037060D01*
X0080789Y0032443D02*
X0080789Y0030322D01*
X0080081Y0029615D01*
X0080789Y0032443D02*
X0080081Y0033151D01*
X0089728Y0030770D02*
X0089728Y0028969D01*
X0090179Y0028519D01*
X0091079Y0028519D01*
X0091530Y0028969D01*
X0092675Y0029870D02*
X0094476Y0029870D01*
X0094026Y0031221D02*
X0092675Y0029870D01*
X0091530Y0030770D02*
X0091079Y0031221D01*
X0090179Y0031221D01*
X0089728Y0030770D01*
X0094026Y0031221D02*
X0094026Y0028519D01*
X0096604Y0029572D02*
X0107604Y0029572D01*
X0107604Y0024572D01*
X0096604Y0024572D01*
X0096604Y0029572D01*
X0106250Y0031133D02*
X0106250Y0036133D01*
X0117250Y0036133D01*
X0117250Y0031133D01*
X0106250Y0031133D01*
X0108513Y0028804D02*
X0108964Y0029255D01*
X0109414Y0029255D01*
X0109864Y0028804D01*
X0110315Y0029255D01*
X0110765Y0029255D01*
X0111216Y0028804D01*
X0111216Y0027904D01*
X0110765Y0027453D01*
X0109864Y0028354D02*
X0109864Y0028804D01*
X0108513Y0028804D02*
X0108513Y0027904D01*
X0108964Y0027453D01*
X0108964Y0026308D02*
X0108513Y0025858D01*
X0108513Y0024957D01*
X0108964Y0024507D01*
X0110765Y0024507D01*
X0111216Y0024957D01*
X0111216Y0025858D01*
X0110765Y0026308D01*
X0113607Y0027683D02*
X0113607Y0030385D01*
X0114958Y0030385D01*
X0115409Y0029935D01*
X0115409Y0029034D01*
X0114958Y0028584D01*
X0113607Y0028584D01*
X0114508Y0028584D02*
X0115409Y0027683D01*
X0116553Y0029034D02*
X0118355Y0029034D01*
X0117905Y0030385D02*
X0116553Y0029034D01*
X0117905Y0027683D02*
X0117905Y0030385D01*
X0105500Y0036133D02*
X0102798Y0036133D01*
X0102798Y0037484D01*
X0103248Y0037934D01*
X0104149Y0037934D01*
X0104599Y0037484D01*
X0104599Y0036133D01*
X0104599Y0037034D02*
X0105500Y0037934D01*
X0106250Y0037133D02*
X0106250Y0042133D01*
X0117250Y0042133D01*
X0117250Y0037133D01*
X0106250Y0037133D01*
X0105050Y0039079D02*
X0105500Y0039530D01*
X0105500Y0040430D01*
X0105050Y0040881D01*
X0104149Y0040881D01*
X0103698Y0040430D01*
X0103698Y0039980D01*
X0104149Y0039079D01*
X0102798Y0039079D01*
X0102798Y0040881D01*
X0106250Y0043383D02*
X0106250Y0048383D01*
X0117250Y0048383D01*
X0117250Y0043383D01*
X0106250Y0043383D01*
X0105498Y0044633D02*
X0103697Y0044633D01*
X0104597Y0044633D02*
X0104597Y0047335D01*
X0103697Y0046434D01*
X0102552Y0046885D02*
X0102101Y0047335D01*
X0101200Y0047335D01*
X0100750Y0046885D01*
X0100750Y0045083D01*
X0101200Y0044633D01*
X0102101Y0044633D01*
X0102552Y0045083D01*
X0096248Y0043633D02*
X0094447Y0043633D01*
X0095347Y0043633D02*
X0095347Y0046335D01*
X0094447Y0045434D01*
X0093302Y0045885D02*
X0093302Y0044984D01*
X0092851Y0044534D01*
X0091500Y0044534D01*
X0092401Y0044534D02*
X0093302Y0043633D01*
X0091500Y0043633D02*
X0091500Y0046335D01*
X0092851Y0046335D01*
X0093302Y0045885D01*
X0053919Y0033151D02*
X0052151Y0031383D01*
X0053919Y0029615D01*
X0065232Y0018301D02*
X0067000Y0016534D01*
X0068768Y0018301D01*
X0082246Y0021550D02*
X0082696Y0021100D01*
X0083597Y0021100D01*
X0084048Y0021550D01*
X0084048Y0023352D01*
X0083597Y0023802D01*
X0082696Y0023802D01*
X0082246Y0023352D01*
X0082246Y0021550D01*
X0083147Y0022001D02*
X0084048Y0021100D01*
X0085193Y0021100D02*
X0086994Y0021100D01*
X0086093Y0021100D02*
X0086093Y0023802D01*
X0085193Y0022902D01*
X0096500Y0022711D02*
X0096500Y0017711D01*
X0107500Y0017711D01*
X0107500Y0022711D01*
X0096500Y0022711D01*
X0108379Y0022017D02*
X0108379Y0021116D01*
X0108830Y0020665D01*
X0108830Y0019520D02*
X0108379Y0019070D01*
X0108379Y0018169D01*
X0108830Y0017719D01*
X0110631Y0017719D01*
X0111082Y0018169D01*
X0111082Y0019070D01*
X0110631Y0019520D01*
X0111082Y0020665D02*
X0109280Y0022467D01*
X0108830Y0022467D01*
X0108379Y0022017D01*
X0111082Y0022467D02*
X0111082Y0020665D01*
D13*
X0078524Y0031308D02*
X0078526Y0031347D01*
X0078532Y0031386D01*
X0078542Y0031424D01*
X0078555Y0031461D01*
X0078572Y0031496D01*
X0078592Y0031530D01*
X0078616Y0031561D01*
X0078643Y0031590D01*
X0078672Y0031616D01*
X0078704Y0031639D01*
X0078738Y0031659D01*
X0078774Y0031675D01*
X0078811Y0031687D01*
X0078850Y0031696D01*
X0078889Y0031701D01*
X0078928Y0031702D01*
X0078967Y0031699D01*
X0079006Y0031692D01*
X0079043Y0031681D01*
X0079080Y0031667D01*
X0079115Y0031649D01*
X0079148Y0031628D01*
X0079179Y0031603D01*
X0079207Y0031576D01*
X0079232Y0031546D01*
X0079254Y0031513D01*
X0079273Y0031479D01*
X0079288Y0031443D01*
X0079300Y0031405D01*
X0079308Y0031367D01*
X0079312Y0031328D01*
X0079312Y0031288D01*
X0079308Y0031249D01*
X0079300Y0031211D01*
X0079288Y0031173D01*
X0079273Y0031137D01*
X0079254Y0031103D01*
X0079232Y0031070D01*
X0079207Y0031040D01*
X0079179Y0031013D01*
X0079148Y0030988D01*
X0079115Y0030967D01*
X0079080Y0030949D01*
X0079043Y0030935D01*
X0079006Y0030924D01*
X0078967Y0030917D01*
X0078928Y0030914D01*
X0078889Y0030915D01*
X0078850Y0030920D01*
X0078811Y0030929D01*
X0078774Y0030941D01*
X0078738Y0030957D01*
X0078704Y0030977D01*
X0078672Y0031000D01*
X0078643Y0031026D01*
X0078616Y0031055D01*
X0078592Y0031086D01*
X0078572Y0031120D01*
X0078555Y0031155D01*
X0078542Y0031192D01*
X0078532Y0031230D01*
X0078526Y0031269D01*
X0078524Y0031308D01*
D14*
X0122000Y0002902D02*
X0142079Y0002902D01*
X0142079Y0062351D01*
X0122000Y0062351D01*
X0122000Y0002902D01*
D15*
X0012000Y0005383D02*
X0009500Y0002883D01*
X0004500Y0002883D01*
X0002000Y0005383D01*
X0002000Y0010383D01*
X0004500Y0012883D01*
X0002000Y0015383D01*
X0002000Y0020383D01*
X0004500Y0022883D01*
X0002000Y0025383D01*
X0002000Y0030383D01*
X0004500Y0032883D01*
X0002000Y0035383D01*
X0002000Y0040383D01*
X0004500Y0042883D01*
X0002000Y0045383D01*
X0002000Y0050383D01*
X0004500Y0052883D01*
X0002000Y0055383D01*
X0002000Y0060383D01*
X0004500Y0062883D01*
X0009500Y0062883D01*
X0012000Y0060383D01*
X0012000Y0055383D01*
X0009500Y0052883D01*
X0012000Y0050383D01*
X0012000Y0045383D01*
X0009500Y0042883D01*
X0012000Y0040383D01*
X0012000Y0035383D01*
X0009500Y0032883D01*
X0012000Y0030383D01*
X0012000Y0025383D01*
X0009500Y0022883D01*
X0012000Y0020383D01*
X0012000Y0015383D01*
X0009500Y0012883D01*
X0012000Y0010383D01*
X0012000Y0005383D01*
D16*
X0017000Y0005383D02*
X0019500Y0002883D01*
X0024500Y0002883D01*
X0027000Y0005383D01*
X0027000Y0010383D01*
X0024500Y0012883D01*
X0019500Y0012883D01*
X0017000Y0010383D01*
X0017000Y0005383D01*
X0027000Y0005383D02*
X0027000Y0010383D01*
X0029500Y0012883D01*
X0034500Y0012883D01*
X0037000Y0010383D01*
X0037000Y0005383D01*
X0034500Y0002883D01*
X0029500Y0002883D01*
X0027000Y0005383D01*
X0037000Y0005383D02*
X0037000Y0010383D01*
X0039500Y0012883D01*
X0044500Y0012883D01*
X0047000Y0010383D01*
X0049500Y0012883D01*
X0054500Y0012883D01*
X0057000Y0010383D01*
X0057000Y0005383D01*
X0054500Y0002883D01*
X0049500Y0002883D01*
X0047000Y0005383D01*
X0047000Y0010383D01*
X0047000Y0005383D01*
X0044500Y0002883D01*
X0039500Y0002883D01*
X0037000Y0005383D01*
X0057000Y0005383D02*
X0059500Y0002883D01*
X0064500Y0002883D01*
X0067000Y0005383D01*
X0067000Y0010383D01*
X0064500Y0012883D01*
X0059500Y0012883D01*
X0057000Y0010383D01*
X0057000Y0005383D01*
X0067000Y0005383D02*
X0067000Y0010383D01*
X0069500Y0012883D01*
X0074500Y0012883D01*
X0077000Y0010383D01*
X0079500Y0012883D01*
X0084500Y0012883D01*
X0087000Y0010383D01*
X0089500Y0012883D01*
X0094500Y0012883D01*
X0097000Y0010383D01*
X0099500Y0012883D01*
X0104500Y0012883D01*
X0107000Y0010383D01*
X0109500Y0012883D01*
X0114500Y0012883D01*
X0117000Y0010383D01*
X0117000Y0005383D01*
X0114500Y0002883D01*
X0109500Y0002883D01*
X0107000Y0005383D01*
X0107000Y0010383D01*
X0107000Y0005383D01*
X0104500Y0002883D01*
X0099500Y0002883D01*
X0097000Y0005383D01*
X0097000Y0010383D01*
X0097000Y0005383D01*
X0094500Y0002883D01*
X0089500Y0002883D01*
X0087000Y0005383D01*
X0087000Y0010383D01*
X0087000Y0005383D01*
X0084500Y0002883D01*
X0079500Y0002883D01*
X0077000Y0005383D01*
X0077000Y0010383D01*
X0077000Y0005383D01*
X0074500Y0002883D01*
X0069500Y0002883D01*
X0067000Y0005383D01*
X0046000Y0040883D02*
X0041000Y0040883D01*
X0038500Y0043383D01*
X0038500Y0048383D01*
X0041000Y0050883D01*
X0046000Y0050883D01*
X0048500Y0048383D01*
X0048500Y0043383D01*
X0046000Y0040883D01*
X0044500Y0052883D02*
X0039500Y0052883D01*
X0037000Y0055383D01*
X0034500Y0052883D01*
X0029500Y0052883D01*
X0027000Y0055383D01*
X0027000Y0060383D01*
X0029500Y0062883D01*
X0034500Y0062883D01*
X0037000Y0060383D01*
X0037000Y0055383D01*
X0037000Y0060383D01*
X0039500Y0062883D01*
X0044500Y0062883D01*
X0047000Y0060383D01*
X0047000Y0055383D01*
X0044500Y0052883D01*
X0047000Y0055383D02*
X0049500Y0052883D01*
X0054500Y0052883D01*
X0057000Y0055383D01*
X0057000Y0060383D01*
X0059500Y0062883D01*
X0064500Y0062883D01*
X0067000Y0060383D01*
X0069500Y0062883D01*
X0074500Y0062883D01*
X0077000Y0060383D01*
X0077000Y0055383D01*
X0074500Y0052883D01*
X0069500Y0052883D01*
X0067000Y0055383D01*
X0067000Y0060383D01*
X0067000Y0055383D01*
X0064500Y0052883D01*
X0059500Y0052883D01*
X0057000Y0055383D01*
X0057000Y0060383D01*
X0054500Y0062883D01*
X0049500Y0062883D01*
X0047000Y0060383D01*
X0047000Y0055383D01*
X0027000Y0055383D02*
X0024500Y0052883D01*
X0019500Y0052883D01*
X0017000Y0055383D01*
X0017000Y0060383D01*
X0019500Y0062883D01*
X0024500Y0062883D01*
X0027000Y0060383D01*
X0027000Y0055383D01*
X0077000Y0055383D02*
X0077000Y0060383D01*
X0079500Y0062883D01*
X0084500Y0062883D01*
X0087000Y0060383D01*
X0089500Y0062883D01*
X0094500Y0062883D01*
X0097000Y0060383D01*
X0099500Y0062883D01*
X0104500Y0062883D01*
X0107000Y0060383D01*
X0109500Y0062883D01*
X0114500Y0062883D01*
X0117000Y0060383D01*
X0117000Y0055383D01*
X0114500Y0052883D01*
X0109500Y0052883D01*
X0107000Y0055383D01*
X0107000Y0060383D01*
X0107000Y0055383D01*
X0104500Y0052883D01*
X0099500Y0052883D01*
X0097000Y0055383D01*
X0097000Y0060383D01*
X0097000Y0055383D01*
X0094500Y0052883D01*
X0089500Y0052883D01*
X0087000Y0055383D01*
X0087000Y0060383D01*
X0087000Y0055383D01*
X0084500Y0052883D01*
X0079500Y0052883D01*
X0077000Y0055383D01*
X0080750Y0052383D02*
X0078250Y0049883D01*
X0078250Y0044883D01*
X0080750Y0042383D01*
X0085750Y0042383D01*
X0088250Y0044883D01*
X0088250Y0049883D01*
X0085750Y0052383D01*
X0080750Y0052383D01*
M02*
