G75*
%MOIN*%
%OFA0B0*%
%FSLAX25Y25*%
%IPPOS*%
%LPD*%
%AMOC8*
5,1,8,0,0,1.08239X$1,22.5*
%
%ADD10C,0.00000*%
%ADD11C,0.00875*%
%ADD12C,0.00728*%
%ADD13C,0.00492*%
%ADD14R,0.01969X0.01969*%
%ADD15R,0.01969X0.03543*%
%ADD16R,0.02953X0.03346*%
%ADD17C,0.00200*%
D10*
X0001250Y0001800D02*
X0001250Y0063011D01*
X0142451Y0062761D01*
X0142451Y0001800D01*
X0001250Y0001800D01*
D11*
X0022187Y0017737D02*
X0024813Y0017737D01*
X0022187Y0017737D02*
X0022187Y0021863D01*
X0024813Y0021863D01*
X0024813Y0017737D01*
X0024813Y0018611D02*
X0022187Y0018611D01*
X0022187Y0019485D02*
X0024813Y0019485D01*
X0024813Y0020359D02*
X0022187Y0020359D01*
X0022187Y0021233D02*
X0024813Y0021233D01*
X0029187Y0017737D02*
X0031813Y0017737D01*
X0029187Y0017737D02*
X0029187Y0021863D01*
X0031813Y0021863D01*
X0031813Y0017737D01*
X0031813Y0018611D02*
X0029187Y0018611D01*
X0029187Y0019485D02*
X0031813Y0019485D01*
X0031813Y0020359D02*
X0029187Y0020359D01*
X0029187Y0021233D02*
X0031813Y0021233D01*
X0034687Y0017737D02*
X0037313Y0017737D01*
X0034687Y0017737D02*
X0034687Y0021863D01*
X0037313Y0021863D01*
X0037313Y0017737D01*
X0037313Y0018611D02*
X0034687Y0018611D01*
X0034687Y0019485D02*
X0037313Y0019485D01*
X0037313Y0020359D02*
X0034687Y0020359D01*
X0034687Y0021233D02*
X0037313Y0021233D01*
X0041687Y0017737D02*
X0044313Y0017737D01*
X0041687Y0017737D02*
X0041687Y0021863D01*
X0044313Y0021863D01*
X0044313Y0017737D01*
X0044313Y0018611D02*
X0041687Y0018611D01*
X0041687Y0019485D02*
X0044313Y0019485D01*
X0044313Y0020359D02*
X0041687Y0020359D01*
X0041687Y0021233D02*
X0044313Y0021233D01*
X0043063Y0024487D02*
X0040437Y0024487D01*
X0040437Y0027113D01*
X0043063Y0027113D01*
X0043063Y0024487D01*
X0043063Y0025361D02*
X0040437Y0025361D01*
X0040437Y0026235D02*
X0043063Y0026235D01*
X0043063Y0027109D02*
X0040437Y0027109D01*
X0037063Y0024487D02*
X0034437Y0024487D01*
X0034437Y0027113D01*
X0037063Y0027113D01*
X0037063Y0024487D01*
X0037063Y0025361D02*
X0034437Y0025361D01*
X0034437Y0026235D02*
X0037063Y0026235D01*
X0037063Y0027109D02*
X0034437Y0027109D01*
X0032063Y0027113D02*
X0029437Y0027113D01*
X0032063Y0027113D02*
X0032063Y0024487D01*
X0029437Y0024487D01*
X0029437Y0027113D01*
X0029437Y0025361D02*
X0032063Y0025361D01*
X0032063Y0026235D02*
X0029437Y0026235D01*
X0029437Y0027109D02*
X0032063Y0027109D01*
X0026063Y0027113D02*
X0023437Y0027113D01*
X0026063Y0027113D02*
X0026063Y0024487D01*
X0023437Y0024487D01*
X0023437Y0027113D01*
X0023437Y0025361D02*
X0026063Y0025361D01*
X0026063Y0026235D02*
X0023437Y0026235D01*
X0023437Y0027109D02*
X0026063Y0027109D01*
X0030187Y0036113D02*
X0032813Y0036113D01*
X0032813Y0033487D01*
X0030187Y0033487D01*
X0030187Y0036113D01*
X0030187Y0034361D02*
X0032813Y0034361D01*
X0032813Y0035235D02*
X0030187Y0035235D01*
X0030187Y0036109D02*
X0032813Y0036109D01*
X0036187Y0036113D02*
X0038813Y0036113D01*
X0038813Y0033487D01*
X0036187Y0033487D01*
X0036187Y0036113D01*
X0036187Y0034361D02*
X0038813Y0034361D01*
X0038813Y0035235D02*
X0036187Y0035235D01*
X0036187Y0036109D02*
X0038813Y0036109D01*
X0038813Y0038487D02*
X0036187Y0038487D01*
X0036187Y0041113D01*
X0038813Y0041113D01*
X0038813Y0038487D01*
X0038813Y0039361D02*
X0036187Y0039361D01*
X0036187Y0040235D02*
X0038813Y0040235D01*
X0038813Y0041109D02*
X0036187Y0041109D01*
X0032813Y0038487D02*
X0030187Y0038487D01*
X0030187Y0041113D01*
X0032813Y0041113D01*
X0032813Y0038487D01*
X0032813Y0039361D02*
X0030187Y0039361D01*
X0030187Y0040235D02*
X0032813Y0040235D01*
X0032813Y0041109D02*
X0030187Y0041109D01*
X0030187Y0046113D02*
X0032813Y0046113D01*
X0032813Y0043487D01*
X0030187Y0043487D01*
X0030187Y0046113D01*
X0030187Y0044361D02*
X0032813Y0044361D01*
X0032813Y0045235D02*
X0030187Y0045235D01*
X0030187Y0046109D02*
X0032813Y0046109D01*
X0036187Y0046113D02*
X0038813Y0046113D01*
X0038813Y0043487D01*
X0036187Y0043487D01*
X0036187Y0046113D01*
X0036187Y0044361D02*
X0038813Y0044361D01*
X0038813Y0045235D02*
X0036187Y0045235D01*
X0036187Y0046109D02*
X0038813Y0046109D01*
X0022813Y0045863D02*
X0022813Y0043237D01*
X0020187Y0043237D01*
X0020187Y0045863D01*
X0022813Y0045863D01*
X0022813Y0044111D02*
X0020187Y0044111D01*
X0020187Y0044985D02*
X0022813Y0044985D01*
X0022813Y0045859D02*
X0020187Y0045859D01*
X0022813Y0039863D02*
X0022813Y0037237D01*
X0020187Y0037237D01*
X0020187Y0039863D01*
X0022813Y0039863D01*
X0022813Y0038111D02*
X0020187Y0038111D01*
X0020187Y0038985D02*
X0022813Y0038985D01*
X0022813Y0039859D02*
X0020187Y0039859D01*
X0090937Y0041113D02*
X0093563Y0041113D01*
X0093563Y0038487D01*
X0090937Y0038487D01*
X0090937Y0041113D01*
X0090937Y0039361D02*
X0093563Y0039361D01*
X0093563Y0040235D02*
X0090937Y0040235D01*
X0090937Y0041109D02*
X0093563Y0041109D01*
X0096937Y0041113D02*
X0099563Y0041113D01*
X0099563Y0038487D01*
X0096937Y0038487D01*
X0096937Y0041113D01*
X0096937Y0039361D02*
X0099563Y0039361D01*
X0099563Y0040235D02*
X0096937Y0040235D01*
X0096937Y0041109D02*
X0099563Y0041109D01*
X0107437Y0040363D02*
X0110063Y0040363D01*
X0110063Y0037737D01*
X0107437Y0037737D01*
X0107437Y0040363D01*
X0107437Y0038611D02*
X0110063Y0038611D01*
X0110063Y0039485D02*
X0107437Y0039485D01*
X0107437Y0040359D02*
X0110063Y0040359D01*
X0113437Y0040363D02*
X0116063Y0040363D01*
X0116063Y0037737D01*
X0113437Y0037737D01*
X0113437Y0040363D01*
X0113437Y0038611D02*
X0116063Y0038611D01*
X0116063Y0039485D02*
X0113437Y0039485D01*
X0113437Y0040359D02*
X0116063Y0040359D01*
X0116063Y0046613D02*
X0113437Y0046613D01*
X0116063Y0046613D02*
X0116063Y0043987D01*
X0113437Y0043987D01*
X0113437Y0046613D01*
X0113437Y0044861D02*
X0116063Y0044861D01*
X0116063Y0045735D02*
X0113437Y0045735D01*
X0113437Y0046609D02*
X0116063Y0046609D01*
X0110063Y0046613D02*
X0107437Y0046613D01*
X0110063Y0046613D02*
X0110063Y0043987D01*
X0107437Y0043987D01*
X0107437Y0046613D01*
X0107437Y0044861D02*
X0110063Y0044861D01*
X0110063Y0045735D02*
X0107437Y0045735D01*
X0107437Y0046609D02*
X0110063Y0046609D01*
X0099636Y0032664D02*
X0097010Y0032664D01*
X0097010Y0035290D01*
X0099636Y0035290D01*
X0099636Y0032664D01*
X0099636Y0033538D02*
X0097010Y0033538D01*
X0097010Y0034412D02*
X0099636Y0034412D01*
X0099636Y0035286D02*
X0097010Y0035286D01*
X0093636Y0032664D02*
X0091010Y0032664D01*
X0091010Y0035290D01*
X0093636Y0035290D01*
X0093636Y0032664D01*
X0093636Y0033538D02*
X0091010Y0033538D01*
X0091010Y0034412D02*
X0093636Y0034412D01*
X0093636Y0035286D02*
X0091010Y0035286D01*
X0107437Y0031737D02*
X0110063Y0031737D01*
X0107437Y0031737D02*
X0107437Y0034363D01*
X0110063Y0034363D01*
X0110063Y0031737D01*
X0110063Y0032611D02*
X0107437Y0032611D01*
X0107437Y0033485D02*
X0110063Y0033485D01*
X0110063Y0034359D02*
X0107437Y0034359D01*
X0113437Y0031737D02*
X0116063Y0031737D01*
X0113437Y0031737D02*
X0113437Y0034363D01*
X0116063Y0034363D01*
X0116063Y0031737D01*
X0116063Y0032611D02*
X0113437Y0032611D01*
X0113437Y0033485D02*
X0116063Y0033485D01*
X0116063Y0034359D02*
X0113437Y0034359D01*
X0106417Y0027802D02*
X0103791Y0027802D01*
X0106417Y0027802D02*
X0106417Y0025176D01*
X0103791Y0025176D01*
X0103791Y0027802D01*
X0103791Y0026050D02*
X0106417Y0026050D01*
X0106417Y0026924D02*
X0103791Y0026924D01*
X0103791Y0027798D02*
X0106417Y0027798D01*
X0100417Y0027802D02*
X0097791Y0027802D01*
X0100417Y0027802D02*
X0100417Y0025176D01*
X0097791Y0025176D01*
X0097791Y0027802D01*
X0097791Y0026050D02*
X0100417Y0026050D01*
X0100417Y0026924D02*
X0097791Y0026924D01*
X0097791Y0027798D02*
X0100417Y0027798D01*
X0100313Y0020941D02*
X0097687Y0020941D01*
X0100313Y0020941D02*
X0100313Y0018315D01*
X0097687Y0018315D01*
X0097687Y0020941D01*
X0097687Y0019189D02*
X0100313Y0019189D01*
X0100313Y0020063D02*
X0097687Y0020063D01*
X0097687Y0020937D02*
X0100313Y0020937D01*
X0103687Y0020941D02*
X0106313Y0020941D01*
X0106313Y0018315D01*
X0103687Y0018315D01*
X0103687Y0020941D01*
X0103687Y0019189D02*
X0106313Y0019189D01*
X0106313Y0020063D02*
X0103687Y0020063D01*
X0103687Y0020937D02*
X0106313Y0020937D01*
D12*
X0076784Y0030800D02*
X0067000Y0040584D01*
X0076784Y0030800D02*
X0067000Y0021016D01*
X0057216Y0030800D01*
X0067000Y0040584D01*
X0067727Y0021743D02*
X0066273Y0021743D01*
X0065546Y0022470D02*
X0068454Y0022470D01*
X0069181Y0023197D02*
X0064819Y0023197D01*
X0064092Y0023924D02*
X0069908Y0023924D01*
X0070635Y0024651D02*
X0063365Y0024651D01*
X0062638Y0025378D02*
X0071362Y0025378D01*
X0072089Y0026105D02*
X0061911Y0026105D01*
X0061184Y0026832D02*
X0072816Y0026832D01*
X0073543Y0027559D02*
X0060457Y0027559D01*
X0059730Y0028286D02*
X0074270Y0028286D01*
X0074997Y0029013D02*
X0059003Y0029013D01*
X0058276Y0029740D02*
X0075724Y0029740D01*
X0076451Y0030467D02*
X0057549Y0030467D01*
X0057610Y0031194D02*
X0076390Y0031194D01*
X0075663Y0031921D02*
X0058337Y0031921D01*
X0059064Y0032648D02*
X0074936Y0032648D01*
X0074209Y0033375D02*
X0059791Y0033375D01*
X0060518Y0034102D02*
X0073482Y0034102D01*
X0072755Y0034829D02*
X0061245Y0034829D01*
X0061972Y0035556D02*
X0072028Y0035556D01*
X0071301Y0036283D02*
X0062699Y0036283D01*
X0063426Y0037010D02*
X0070574Y0037010D01*
X0069847Y0037737D02*
X0064153Y0037737D01*
X0064880Y0038464D02*
X0069120Y0038464D01*
X0068393Y0039191D02*
X0065607Y0039191D01*
X0066334Y0039918D02*
X0067666Y0039918D01*
D13*
X0069854Y0040684D02*
X0072288Y0043118D01*
X0072636Y0042770D01*
X0070202Y0040336D01*
X0069854Y0040684D01*
X0069997Y0040827D02*
X0070693Y0040827D01*
X0070488Y0041318D02*
X0071184Y0041318D01*
X0070979Y0041809D02*
X0071675Y0041809D01*
X0071470Y0042300D02*
X0072166Y0042300D01*
X0071961Y0042791D02*
X0072615Y0042791D01*
X0070896Y0044510D02*
X0068462Y0042076D01*
X0070896Y0044510D02*
X0071244Y0044162D01*
X0068810Y0041728D01*
X0068462Y0042076D01*
X0068605Y0042219D02*
X0069301Y0042219D01*
X0069096Y0042710D02*
X0069792Y0042710D01*
X0069587Y0043201D02*
X0070283Y0043201D01*
X0070078Y0043692D02*
X0070774Y0043692D01*
X0070569Y0044183D02*
X0071223Y0044183D01*
X0065190Y0041728D02*
X0062756Y0044162D01*
X0063104Y0044510D01*
X0065538Y0042076D01*
X0065190Y0041728D01*
X0065395Y0042219D02*
X0064699Y0042219D01*
X0064904Y0042710D02*
X0064208Y0042710D01*
X0064413Y0043201D02*
X0063717Y0043201D01*
X0063922Y0043692D02*
X0063226Y0043692D01*
X0063431Y0044183D02*
X0062777Y0044183D01*
X0061433Y0042839D02*
X0063867Y0040405D01*
X0061433Y0042839D02*
X0061781Y0043187D01*
X0064215Y0040753D01*
X0063867Y0040405D01*
X0064072Y0040896D02*
X0063376Y0040896D01*
X0063581Y0041387D02*
X0062885Y0041387D01*
X0063090Y0041878D02*
X0062394Y0041878D01*
X0062599Y0042369D02*
X0061903Y0042369D01*
X0062108Y0042860D02*
X0061454Y0042860D01*
X0060111Y0041517D02*
X0062545Y0039083D01*
X0060111Y0041517D02*
X0060459Y0041865D01*
X0062893Y0039431D01*
X0062545Y0039083D01*
X0062750Y0039574D02*
X0062054Y0039574D01*
X0062259Y0040065D02*
X0061563Y0040065D01*
X0061768Y0040556D02*
X0061072Y0040556D01*
X0061277Y0041047D02*
X0060581Y0041047D01*
X0060786Y0041538D02*
X0060132Y0041538D01*
X0058719Y0040125D02*
X0061153Y0037691D01*
X0058719Y0040125D02*
X0059067Y0040473D01*
X0061501Y0038039D01*
X0061153Y0037691D01*
X0061358Y0038182D02*
X0060662Y0038182D01*
X0060867Y0038673D02*
X0060171Y0038673D01*
X0060376Y0039164D02*
X0059680Y0039164D01*
X0059885Y0039655D02*
X0059189Y0039655D01*
X0059394Y0040146D02*
X0058740Y0040146D01*
X0057327Y0038733D02*
X0059761Y0036299D01*
X0057327Y0038733D02*
X0057675Y0039081D01*
X0060109Y0036647D01*
X0059761Y0036299D01*
X0059966Y0036790D02*
X0059270Y0036790D01*
X0059475Y0037281D02*
X0058779Y0037281D01*
X0058984Y0037772D02*
X0058288Y0037772D01*
X0058493Y0038263D02*
X0057797Y0038263D01*
X0058002Y0038754D02*
X0057348Y0038754D01*
X0056005Y0037411D02*
X0058439Y0034977D01*
X0056005Y0037411D02*
X0056353Y0037759D01*
X0058787Y0035325D01*
X0058439Y0034977D01*
X0058644Y0035468D02*
X0057948Y0035468D01*
X0058153Y0035959D02*
X0057457Y0035959D01*
X0057662Y0036450D02*
X0056966Y0036450D01*
X0057171Y0036941D02*
X0056475Y0036941D01*
X0056680Y0037432D02*
X0056026Y0037432D01*
X0054613Y0036019D02*
X0057047Y0033585D01*
X0054613Y0036019D02*
X0054961Y0036367D01*
X0057395Y0033933D01*
X0057047Y0033585D01*
X0057252Y0034076D02*
X0056556Y0034076D01*
X0056761Y0034567D02*
X0056065Y0034567D01*
X0056270Y0035058D02*
X0055574Y0035058D01*
X0055779Y0035549D02*
X0055083Y0035549D01*
X0055288Y0036040D02*
X0054634Y0036040D01*
X0053290Y0034696D02*
X0055724Y0032262D01*
X0053290Y0034696D02*
X0053638Y0035044D01*
X0056072Y0032610D01*
X0055724Y0032262D01*
X0055929Y0032753D02*
X0055233Y0032753D01*
X0055438Y0033244D02*
X0054742Y0033244D01*
X0054947Y0033735D02*
X0054251Y0033735D01*
X0054456Y0034226D02*
X0053760Y0034226D01*
X0053965Y0034717D02*
X0053311Y0034717D01*
X0056072Y0028990D02*
X0053638Y0026556D01*
X0053290Y0026904D01*
X0055724Y0029338D01*
X0056072Y0028990D01*
X0054129Y0027047D02*
X0053433Y0027047D01*
X0053924Y0027538D02*
X0054620Y0027538D01*
X0054415Y0028029D02*
X0055111Y0028029D01*
X0054906Y0028520D02*
X0055602Y0028520D01*
X0055397Y0029011D02*
X0056051Y0029011D01*
X0057395Y0027667D02*
X0054961Y0025233D01*
X0054613Y0025581D01*
X0057047Y0028015D01*
X0057395Y0027667D01*
X0055452Y0025724D02*
X0054756Y0025724D01*
X0055247Y0026215D02*
X0055943Y0026215D01*
X0055738Y0026706D02*
X0056434Y0026706D01*
X0056229Y0027197D02*
X0056925Y0027197D01*
X0056720Y0027688D02*
X0057374Y0027688D01*
X0058717Y0026345D02*
X0056283Y0023911D01*
X0055935Y0024259D01*
X0058369Y0026693D01*
X0058717Y0026345D01*
X0056774Y0024402D02*
X0056078Y0024402D01*
X0056569Y0024893D02*
X0057265Y0024893D01*
X0057060Y0025384D02*
X0057756Y0025384D01*
X0057551Y0025875D02*
X0058247Y0025875D01*
X0058042Y0026366D02*
X0058696Y0026366D01*
X0060109Y0024953D02*
X0057675Y0022519D01*
X0057327Y0022867D01*
X0059761Y0025301D01*
X0060109Y0024953D01*
X0058166Y0023010D02*
X0057470Y0023010D01*
X0057961Y0023501D02*
X0058657Y0023501D01*
X0058452Y0023992D02*
X0059148Y0023992D01*
X0058943Y0024483D02*
X0059639Y0024483D01*
X0059434Y0024974D02*
X0060088Y0024974D01*
X0061501Y0023561D02*
X0059067Y0021127D01*
X0058719Y0021475D01*
X0061153Y0023909D01*
X0061501Y0023561D01*
X0059558Y0021618D02*
X0058862Y0021618D01*
X0059353Y0022109D02*
X0060049Y0022109D01*
X0059844Y0022600D02*
X0060540Y0022600D01*
X0060335Y0023091D02*
X0061031Y0023091D01*
X0060826Y0023582D02*
X0061480Y0023582D01*
X0062823Y0022239D02*
X0060389Y0019805D01*
X0060041Y0020153D01*
X0062475Y0022587D01*
X0062823Y0022239D01*
X0060880Y0020296D02*
X0060184Y0020296D01*
X0060675Y0020787D02*
X0061371Y0020787D01*
X0061166Y0021278D02*
X0061862Y0021278D01*
X0061657Y0021769D02*
X0062353Y0021769D01*
X0062148Y0022260D02*
X0062802Y0022260D01*
X0064215Y0020847D02*
X0061781Y0018413D01*
X0061433Y0018761D01*
X0063867Y0021195D01*
X0064215Y0020847D01*
X0062272Y0018904D02*
X0061576Y0018904D01*
X0062067Y0019395D02*
X0062763Y0019395D01*
X0062558Y0019886D02*
X0063254Y0019886D01*
X0063049Y0020377D02*
X0063745Y0020377D01*
X0063540Y0020868D02*
X0064194Y0020868D01*
X0065538Y0019524D02*
X0063104Y0017090D01*
X0062756Y0017438D01*
X0065190Y0019872D01*
X0065538Y0019524D01*
X0063595Y0017581D02*
X0062899Y0017581D01*
X0063390Y0018072D02*
X0064086Y0018072D01*
X0063881Y0018563D02*
X0064577Y0018563D01*
X0064372Y0019054D02*
X0065068Y0019054D01*
X0064863Y0019545D02*
X0065517Y0019545D01*
X0068810Y0019872D02*
X0071244Y0017438D01*
X0070896Y0017090D01*
X0068462Y0019524D01*
X0068810Y0019872D01*
X0070405Y0017581D02*
X0071101Y0017581D01*
X0070610Y0018072D02*
X0069914Y0018072D01*
X0070119Y0018563D02*
X0069423Y0018563D01*
X0069628Y0019054D02*
X0068932Y0019054D01*
X0069137Y0019545D02*
X0068483Y0019545D01*
X0070133Y0021195D02*
X0072567Y0018761D01*
X0072219Y0018413D01*
X0069785Y0020847D01*
X0070133Y0021195D01*
X0071728Y0018904D02*
X0072424Y0018904D01*
X0071933Y0019395D02*
X0071237Y0019395D01*
X0071442Y0019886D02*
X0070746Y0019886D01*
X0070951Y0020377D02*
X0070255Y0020377D01*
X0070460Y0020868D02*
X0069806Y0020868D01*
X0071455Y0022517D02*
X0073889Y0020083D01*
X0073541Y0019735D01*
X0071107Y0022169D01*
X0071455Y0022517D01*
X0073050Y0020226D02*
X0073746Y0020226D01*
X0073255Y0020717D02*
X0072559Y0020717D01*
X0072764Y0021208D02*
X0072068Y0021208D01*
X0072273Y0021699D02*
X0071577Y0021699D01*
X0071782Y0022190D02*
X0071128Y0022190D01*
X0072847Y0023909D02*
X0075281Y0021475D01*
X0074933Y0021127D01*
X0072499Y0023561D01*
X0072847Y0023909D01*
X0074442Y0021618D02*
X0075138Y0021618D01*
X0074647Y0022109D02*
X0073951Y0022109D01*
X0074156Y0022600D02*
X0073460Y0022600D01*
X0073665Y0023091D02*
X0072969Y0023091D01*
X0073174Y0023582D02*
X0072520Y0023582D01*
X0074239Y0025301D02*
X0076673Y0022867D01*
X0076325Y0022519D01*
X0073891Y0024953D01*
X0074239Y0025301D01*
X0075834Y0023010D02*
X0076530Y0023010D01*
X0076039Y0023501D02*
X0075343Y0023501D01*
X0075548Y0023992D02*
X0074852Y0023992D01*
X0075057Y0024483D02*
X0074361Y0024483D01*
X0074566Y0024974D02*
X0073912Y0024974D01*
X0075561Y0026623D02*
X0077995Y0024189D01*
X0077647Y0023841D01*
X0075213Y0026275D01*
X0075561Y0026623D01*
X0077156Y0024332D02*
X0077852Y0024332D01*
X0077361Y0024823D02*
X0076665Y0024823D01*
X0076870Y0025314D02*
X0076174Y0025314D01*
X0076379Y0025805D02*
X0075683Y0025805D01*
X0075888Y0026296D02*
X0075234Y0026296D01*
X0076953Y0028015D02*
X0079387Y0025581D01*
X0079039Y0025233D01*
X0076605Y0027667D01*
X0076953Y0028015D01*
X0078548Y0025724D02*
X0079244Y0025724D01*
X0078753Y0026215D02*
X0078057Y0026215D01*
X0078262Y0026706D02*
X0077566Y0026706D01*
X0077771Y0027197D02*
X0077075Y0027197D01*
X0077280Y0027688D02*
X0076626Y0027688D01*
X0078276Y0029338D02*
X0080710Y0026904D01*
X0080362Y0026556D01*
X0077928Y0028990D01*
X0078276Y0029338D01*
X0079871Y0027047D02*
X0080567Y0027047D01*
X0080076Y0027538D02*
X0079380Y0027538D01*
X0079585Y0028029D02*
X0078889Y0028029D01*
X0079094Y0028520D02*
X0078398Y0028520D01*
X0078603Y0029011D02*
X0077949Y0029011D01*
X0077928Y0032610D02*
X0080362Y0035044D01*
X0080710Y0034696D01*
X0078276Y0032262D01*
X0077928Y0032610D01*
X0078071Y0032753D02*
X0078767Y0032753D01*
X0078562Y0033244D02*
X0079258Y0033244D01*
X0079053Y0033735D02*
X0079749Y0033735D01*
X0079544Y0034226D02*
X0080240Y0034226D01*
X0080035Y0034717D02*
X0080689Y0034717D01*
X0079039Y0036367D02*
X0076605Y0033933D01*
X0079039Y0036367D02*
X0079387Y0036019D01*
X0076953Y0033585D01*
X0076605Y0033933D01*
X0076748Y0034076D02*
X0077444Y0034076D01*
X0077239Y0034567D02*
X0077935Y0034567D01*
X0077730Y0035058D02*
X0078426Y0035058D01*
X0078221Y0035549D02*
X0078917Y0035549D01*
X0078712Y0036040D02*
X0079366Y0036040D01*
X0077717Y0037689D02*
X0075283Y0035255D01*
X0077717Y0037689D02*
X0078065Y0037341D01*
X0075631Y0034907D01*
X0075283Y0035255D01*
X0075426Y0035398D02*
X0076122Y0035398D01*
X0075917Y0035889D02*
X0076613Y0035889D01*
X0076408Y0036380D02*
X0077104Y0036380D01*
X0076899Y0036871D02*
X0077595Y0036871D01*
X0077390Y0037362D02*
X0078044Y0037362D01*
X0076325Y0039081D02*
X0073891Y0036647D01*
X0076325Y0039081D02*
X0076673Y0038733D01*
X0074239Y0036299D01*
X0073891Y0036647D01*
X0074034Y0036790D02*
X0074730Y0036790D01*
X0074525Y0037281D02*
X0075221Y0037281D01*
X0075016Y0037772D02*
X0075712Y0037772D01*
X0075507Y0038263D02*
X0076203Y0038263D01*
X0075998Y0038754D02*
X0076652Y0038754D01*
X0074933Y0040473D02*
X0072499Y0038039D01*
X0074933Y0040473D02*
X0075281Y0040125D01*
X0072847Y0037691D01*
X0072499Y0038039D01*
X0072642Y0038182D02*
X0073338Y0038182D01*
X0073133Y0038673D02*
X0073829Y0038673D01*
X0073624Y0039164D02*
X0074320Y0039164D01*
X0074115Y0039655D02*
X0074811Y0039655D01*
X0074606Y0040146D02*
X0075260Y0040146D01*
X0073611Y0041795D02*
X0071177Y0039361D01*
X0073611Y0041795D02*
X0073959Y0041447D01*
X0071525Y0039013D01*
X0071177Y0039361D01*
X0071320Y0039504D02*
X0072016Y0039504D01*
X0071811Y0039995D02*
X0072507Y0039995D01*
X0072302Y0040486D02*
X0072998Y0040486D01*
X0072793Y0040977D02*
X0073489Y0040977D01*
X0073284Y0041468D02*
X0073938Y0041468D01*
D14*
X0121016Y0050154D03*
D15*
X0121016Y0058028D03*
D16*
X0089456Y0024478D03*
X0089456Y0018769D03*
X0093983Y0018769D03*
D17*
X0093590Y0022903D02*
X0095361Y0022903D01*
X0095361Y0026052D01*
X0092605Y0026052D01*
X0092605Y0023887D01*
X0093590Y0022903D01*
X0093503Y0022989D02*
X0095361Y0022989D01*
X0095361Y0023188D02*
X0093305Y0023188D01*
X0093106Y0023386D02*
X0095361Y0023386D01*
X0095361Y0023585D02*
X0092908Y0023585D01*
X0092709Y0023783D02*
X0095361Y0023783D01*
X0095361Y0023982D02*
X0092605Y0023982D01*
X0092605Y0024180D02*
X0095361Y0024180D01*
X0095361Y0024379D02*
X0092605Y0024379D01*
X0092605Y0024577D02*
X0095361Y0024577D01*
X0095361Y0024776D02*
X0092605Y0024776D01*
X0092605Y0024974D02*
X0095361Y0024974D01*
X0095361Y0025173D02*
X0092605Y0025173D01*
X0092605Y0025371D02*
X0095361Y0025371D01*
X0095361Y0025570D02*
X0092605Y0025570D01*
X0092605Y0025768D02*
X0095361Y0025768D01*
X0095361Y0025967D02*
X0092605Y0025967D01*
M02*
