G75*
%MOIN*%
%OFA0B0*%
%FSLAX25Y25*%
%IPPOS*%
%LPD*%
%AMOC8*
5,1,8,0,0,1.08239X$1,22.5*
%
%ADD10C,0.00000*%
%ADD11C,0.00975*%
%ADD12C,0.00748*%
%ADD13C,0.00692*%
%ADD14R,0.02369X0.02369*%
%ADD15R,0.02369X0.03943*%
%ADD16C,0.03975*%
%ADD17C,0.07800*%
%ADD18R,0.03740X0.04134*%
%ADD19C,0.00200*%
%ADD20OC8,0.06400*%
D10*
X0001250Y0002383D02*
X0001250Y0063593D01*
X0142451Y0063343D01*
X0142451Y0002383D01*
X0001250Y0002383D01*
D11*
X0022037Y0018170D02*
X0024963Y0018170D01*
X0022037Y0018170D02*
X0022037Y0022596D01*
X0024963Y0022596D01*
X0024963Y0018170D01*
X0024963Y0019144D02*
X0022037Y0019144D01*
X0022037Y0020118D02*
X0024963Y0020118D01*
X0024963Y0021092D02*
X0022037Y0021092D01*
X0022037Y0022066D02*
X0024963Y0022066D01*
X0029037Y0018170D02*
X0031963Y0018170D01*
X0029037Y0018170D02*
X0029037Y0022596D01*
X0031963Y0022596D01*
X0031963Y0018170D01*
X0031963Y0019144D02*
X0029037Y0019144D01*
X0029037Y0020118D02*
X0031963Y0020118D01*
X0031963Y0021092D02*
X0029037Y0021092D01*
X0029037Y0022066D02*
X0031963Y0022066D01*
X0034537Y0018170D02*
X0037463Y0018170D01*
X0034537Y0018170D02*
X0034537Y0022596D01*
X0037463Y0022596D01*
X0037463Y0018170D01*
X0037463Y0019144D02*
X0034537Y0019144D01*
X0034537Y0020118D02*
X0037463Y0020118D01*
X0037463Y0021092D02*
X0034537Y0021092D01*
X0034537Y0022066D02*
X0037463Y0022066D01*
X0041537Y0018170D02*
X0044463Y0018170D01*
X0041537Y0018170D02*
X0041537Y0022596D01*
X0044463Y0022596D01*
X0044463Y0018170D01*
X0044463Y0019144D02*
X0041537Y0019144D01*
X0041537Y0020118D02*
X0044463Y0020118D01*
X0044463Y0021092D02*
X0041537Y0021092D01*
X0041537Y0022066D02*
X0044463Y0022066D01*
X0043213Y0024920D02*
X0040287Y0024920D01*
X0040287Y0027846D01*
X0043213Y0027846D01*
X0043213Y0024920D01*
X0043213Y0025894D02*
X0040287Y0025894D01*
X0040287Y0026868D02*
X0043213Y0026868D01*
X0043213Y0027842D02*
X0040287Y0027842D01*
X0037213Y0024920D02*
X0034287Y0024920D01*
X0034287Y0027846D01*
X0037213Y0027846D01*
X0037213Y0024920D01*
X0037213Y0025894D02*
X0034287Y0025894D01*
X0034287Y0026868D02*
X0037213Y0026868D01*
X0037213Y0027842D02*
X0034287Y0027842D01*
X0032213Y0027846D02*
X0029287Y0027846D01*
X0032213Y0027846D02*
X0032213Y0024920D01*
X0029287Y0024920D01*
X0029287Y0027846D01*
X0029287Y0025894D02*
X0032213Y0025894D01*
X0032213Y0026868D02*
X0029287Y0026868D01*
X0029287Y0027842D02*
X0032213Y0027842D01*
X0026213Y0027846D02*
X0023287Y0027846D01*
X0026213Y0027846D02*
X0026213Y0024920D01*
X0023287Y0024920D01*
X0023287Y0027846D01*
X0023287Y0025894D02*
X0026213Y0025894D01*
X0026213Y0026868D02*
X0023287Y0026868D01*
X0023287Y0027842D02*
X0026213Y0027842D01*
X0030037Y0036096D02*
X0032963Y0036096D01*
X0032963Y0033170D01*
X0030037Y0033170D01*
X0030037Y0036096D01*
X0030037Y0034144D02*
X0032963Y0034144D01*
X0032963Y0035118D02*
X0030037Y0035118D01*
X0030037Y0036092D02*
X0032963Y0036092D01*
X0036037Y0036096D02*
X0038963Y0036096D01*
X0038963Y0033170D01*
X0036037Y0033170D01*
X0036037Y0036096D01*
X0036037Y0034144D02*
X0038963Y0034144D01*
X0038963Y0035118D02*
X0036037Y0035118D01*
X0036037Y0036092D02*
X0038963Y0036092D01*
X0038963Y0038170D02*
X0036037Y0038170D01*
X0036037Y0041096D01*
X0038963Y0041096D01*
X0038963Y0038170D01*
X0038963Y0039144D02*
X0036037Y0039144D01*
X0036037Y0040118D02*
X0038963Y0040118D01*
X0038963Y0041092D02*
X0036037Y0041092D01*
X0032963Y0038170D02*
X0030037Y0038170D01*
X0030037Y0041096D01*
X0032963Y0041096D01*
X0032963Y0038170D01*
X0032963Y0039144D02*
X0030037Y0039144D01*
X0030037Y0040118D02*
X0032963Y0040118D01*
X0032963Y0041092D02*
X0030037Y0041092D01*
X0030037Y0046346D02*
X0032963Y0046346D01*
X0032963Y0043420D01*
X0030037Y0043420D01*
X0030037Y0046346D01*
X0030037Y0044394D02*
X0032963Y0044394D01*
X0032963Y0045368D02*
X0030037Y0045368D01*
X0030037Y0046342D02*
X0032963Y0046342D01*
X0036037Y0046346D02*
X0038963Y0046346D01*
X0038963Y0043420D01*
X0036037Y0043420D01*
X0036037Y0046346D01*
X0036037Y0044394D02*
X0038963Y0044394D01*
X0038963Y0045368D02*
X0036037Y0045368D01*
X0036037Y0046342D02*
X0038963Y0046342D01*
X0038963Y0051346D02*
X0036037Y0051346D01*
X0038963Y0051346D02*
X0038963Y0048420D01*
X0036037Y0048420D01*
X0036037Y0051346D01*
X0036037Y0049394D02*
X0038963Y0049394D01*
X0038963Y0050368D02*
X0036037Y0050368D01*
X0036037Y0051342D02*
X0038963Y0051342D01*
X0032963Y0051346D02*
X0030037Y0051346D01*
X0032963Y0051346D02*
X0032963Y0048420D01*
X0030037Y0048420D01*
X0030037Y0051346D01*
X0030037Y0049394D02*
X0032963Y0049394D01*
X0032963Y0050368D02*
X0030037Y0050368D01*
X0030037Y0051342D02*
X0032963Y0051342D01*
X0022963Y0046596D02*
X0022963Y0043670D01*
X0020037Y0043670D01*
X0020037Y0046596D01*
X0022963Y0046596D01*
X0022963Y0044644D02*
X0020037Y0044644D01*
X0020037Y0045618D02*
X0022963Y0045618D01*
X0022963Y0046592D02*
X0020037Y0046592D01*
X0022963Y0040596D02*
X0022963Y0037670D01*
X0020037Y0037670D01*
X0020037Y0040596D01*
X0022963Y0040596D01*
X0022963Y0038644D02*
X0020037Y0038644D01*
X0020037Y0039618D02*
X0022963Y0039618D01*
X0022963Y0040592D02*
X0020037Y0040592D01*
X0090787Y0041846D02*
X0093713Y0041846D01*
X0093713Y0038920D01*
X0090787Y0038920D01*
X0090787Y0041846D01*
X0090787Y0039894D02*
X0093713Y0039894D01*
X0093713Y0040868D02*
X0090787Y0040868D01*
X0090787Y0041842D02*
X0093713Y0041842D01*
X0096787Y0041846D02*
X0099713Y0041846D01*
X0099713Y0038920D01*
X0096787Y0038920D01*
X0096787Y0041846D01*
X0096787Y0039894D02*
X0099713Y0039894D01*
X0099713Y0040868D02*
X0096787Y0040868D01*
X0096787Y0041842D02*
X0099713Y0041842D01*
X0107287Y0041096D02*
X0110213Y0041096D01*
X0110213Y0038170D01*
X0107287Y0038170D01*
X0107287Y0041096D01*
X0107287Y0039144D02*
X0110213Y0039144D01*
X0110213Y0040118D02*
X0107287Y0040118D01*
X0107287Y0041092D02*
X0110213Y0041092D01*
X0113287Y0041096D02*
X0116213Y0041096D01*
X0116213Y0038170D01*
X0113287Y0038170D01*
X0113287Y0041096D01*
X0113287Y0039144D02*
X0116213Y0039144D01*
X0116213Y0040118D02*
X0113287Y0040118D01*
X0113287Y0041092D02*
X0116213Y0041092D01*
X0116213Y0047346D02*
X0113287Y0047346D01*
X0116213Y0047346D02*
X0116213Y0044420D01*
X0113287Y0044420D01*
X0113287Y0047346D01*
X0113287Y0045394D02*
X0116213Y0045394D01*
X0116213Y0046368D02*
X0113287Y0046368D01*
X0113287Y0047342D02*
X0116213Y0047342D01*
X0110213Y0047346D02*
X0107287Y0047346D01*
X0110213Y0047346D02*
X0110213Y0044420D01*
X0107287Y0044420D01*
X0107287Y0047346D01*
X0107287Y0045394D02*
X0110213Y0045394D01*
X0110213Y0046368D02*
X0107287Y0046368D01*
X0107287Y0047342D02*
X0110213Y0047342D01*
X0099786Y0033097D02*
X0096860Y0033097D01*
X0096860Y0036023D01*
X0099786Y0036023D01*
X0099786Y0033097D01*
X0099786Y0034071D02*
X0096860Y0034071D01*
X0096860Y0035045D02*
X0099786Y0035045D01*
X0099786Y0036019D02*
X0096860Y0036019D01*
X0093786Y0033097D02*
X0090860Y0033097D01*
X0090860Y0036023D01*
X0093786Y0036023D01*
X0093786Y0033097D01*
X0093786Y0034071D02*
X0090860Y0034071D01*
X0090860Y0035045D02*
X0093786Y0035045D01*
X0093786Y0036019D02*
X0090860Y0036019D01*
X0107287Y0032170D02*
X0110213Y0032170D01*
X0107287Y0032170D02*
X0107287Y0035096D01*
X0110213Y0035096D01*
X0110213Y0032170D01*
X0110213Y0033144D02*
X0107287Y0033144D01*
X0107287Y0034118D02*
X0110213Y0034118D01*
X0110213Y0035092D02*
X0107287Y0035092D01*
X0113287Y0032170D02*
X0116213Y0032170D01*
X0113287Y0032170D02*
X0113287Y0035096D01*
X0116213Y0035096D01*
X0116213Y0032170D01*
X0116213Y0033144D02*
X0113287Y0033144D01*
X0113287Y0034118D02*
X0116213Y0034118D01*
X0116213Y0035092D02*
X0113287Y0035092D01*
X0106567Y0028535D02*
X0103641Y0028535D01*
X0106567Y0028535D02*
X0106567Y0025609D01*
X0103641Y0025609D01*
X0103641Y0028535D01*
X0103641Y0026583D02*
X0106567Y0026583D01*
X0106567Y0027557D02*
X0103641Y0027557D01*
X0103641Y0028531D02*
X0106567Y0028531D01*
X0100567Y0028535D02*
X0097641Y0028535D01*
X0100567Y0028535D02*
X0100567Y0025609D01*
X0097641Y0025609D01*
X0097641Y0028535D01*
X0097641Y0026583D02*
X0100567Y0026583D01*
X0100567Y0027557D02*
X0097641Y0027557D01*
X0097641Y0028531D02*
X0100567Y0028531D01*
X0100463Y0021674D02*
X0097537Y0021674D01*
X0100463Y0021674D02*
X0100463Y0018748D01*
X0097537Y0018748D01*
X0097537Y0021674D01*
X0097537Y0019722D02*
X0100463Y0019722D01*
X0100463Y0020696D02*
X0097537Y0020696D01*
X0097537Y0021670D02*
X0100463Y0021670D01*
X0103537Y0021674D02*
X0106463Y0021674D01*
X0106463Y0018748D01*
X0103537Y0018748D01*
X0103537Y0021674D01*
X0103537Y0019722D02*
X0106463Y0019722D01*
X0106463Y0020696D02*
X0103537Y0020696D01*
X0103537Y0021670D02*
X0106463Y0021670D01*
D12*
X0077053Y0031383D02*
X0067000Y0041436D01*
X0077053Y0031383D02*
X0067000Y0021330D01*
X0056947Y0031383D01*
X0067000Y0041436D01*
X0067747Y0022077D02*
X0066253Y0022077D01*
X0065506Y0022824D02*
X0068494Y0022824D01*
X0069241Y0023571D02*
X0064759Y0023571D01*
X0064012Y0024318D02*
X0069988Y0024318D01*
X0070735Y0025065D02*
X0063265Y0025065D01*
X0062518Y0025812D02*
X0071482Y0025812D01*
X0072229Y0026559D02*
X0061771Y0026559D01*
X0061024Y0027306D02*
X0072976Y0027306D01*
X0073723Y0028053D02*
X0060277Y0028053D01*
X0059530Y0028800D02*
X0074470Y0028800D01*
X0075217Y0029547D02*
X0058783Y0029547D01*
X0058036Y0030294D02*
X0075964Y0030294D01*
X0076711Y0031041D02*
X0057289Y0031041D01*
X0057352Y0031788D02*
X0076648Y0031788D01*
X0075901Y0032535D02*
X0058099Y0032535D01*
X0058846Y0033282D02*
X0075154Y0033282D01*
X0074407Y0034029D02*
X0059593Y0034029D01*
X0060340Y0034776D02*
X0073660Y0034776D01*
X0072913Y0035523D02*
X0061087Y0035523D01*
X0061834Y0036270D02*
X0072166Y0036270D01*
X0071419Y0037017D02*
X0062581Y0037017D01*
X0063328Y0037764D02*
X0070672Y0037764D01*
X0069925Y0038511D02*
X0064075Y0038511D01*
X0064822Y0039258D02*
X0069178Y0039258D01*
X0068431Y0040005D02*
X0065569Y0040005D01*
X0066316Y0040752D02*
X0067684Y0040752D01*
D13*
X0069712Y0041267D02*
X0072288Y0043843D01*
X0072778Y0043353D01*
X0070202Y0040777D01*
X0069712Y0041267D01*
X0069913Y0041468D02*
X0070893Y0041468D01*
X0070604Y0042159D02*
X0071584Y0042159D01*
X0071295Y0042850D02*
X0072275Y0042850D01*
X0071986Y0043541D02*
X0072590Y0043541D01*
X0070896Y0045234D02*
X0068320Y0042658D01*
X0070896Y0045234D02*
X0071386Y0044744D01*
X0068810Y0042168D01*
X0068320Y0042658D01*
X0068521Y0042859D02*
X0069501Y0042859D01*
X0069212Y0043550D02*
X0070192Y0043550D01*
X0069903Y0044241D02*
X0070883Y0044241D01*
X0070594Y0044932D02*
X0071198Y0044932D01*
X0065190Y0042168D02*
X0062614Y0044744D01*
X0063104Y0045234D01*
X0065680Y0042658D01*
X0065190Y0042168D01*
X0065479Y0042859D02*
X0064499Y0042859D01*
X0064788Y0043550D02*
X0063808Y0043550D01*
X0064097Y0044241D02*
X0063117Y0044241D01*
X0063406Y0044932D02*
X0062802Y0044932D01*
X0061291Y0043422D02*
X0063867Y0040846D01*
X0061291Y0043422D02*
X0061781Y0043912D01*
X0064357Y0041336D01*
X0063867Y0040846D01*
X0064156Y0041537D02*
X0063176Y0041537D01*
X0063465Y0042228D02*
X0062485Y0042228D01*
X0062774Y0042919D02*
X0061794Y0042919D01*
X0062083Y0043610D02*
X0061479Y0043610D01*
X0059969Y0042100D02*
X0062545Y0039524D01*
X0059969Y0042100D02*
X0060459Y0042590D01*
X0063035Y0040014D01*
X0062545Y0039524D01*
X0062834Y0040215D02*
X0061854Y0040215D01*
X0062143Y0040906D02*
X0061163Y0040906D01*
X0061452Y0041597D02*
X0060472Y0041597D01*
X0060761Y0042288D02*
X0060157Y0042288D01*
X0058577Y0040708D02*
X0061153Y0038132D01*
X0058577Y0040708D02*
X0059067Y0041198D01*
X0061643Y0038622D01*
X0061153Y0038132D01*
X0061442Y0038823D02*
X0060462Y0038823D01*
X0060751Y0039514D02*
X0059771Y0039514D01*
X0060060Y0040205D02*
X0059080Y0040205D01*
X0059369Y0040896D02*
X0058765Y0040896D01*
X0057185Y0039316D02*
X0059761Y0036740D01*
X0057185Y0039316D02*
X0057675Y0039806D01*
X0060251Y0037230D01*
X0059761Y0036740D01*
X0060050Y0037431D02*
X0059070Y0037431D01*
X0059359Y0038122D02*
X0058379Y0038122D01*
X0058668Y0038813D02*
X0057688Y0038813D01*
X0057977Y0039504D02*
X0057373Y0039504D01*
X0055863Y0037994D02*
X0058439Y0035418D01*
X0055863Y0037994D02*
X0056353Y0038484D01*
X0058929Y0035908D01*
X0058439Y0035418D01*
X0058728Y0036109D02*
X0057748Y0036109D01*
X0058037Y0036800D02*
X0057057Y0036800D01*
X0057346Y0037491D02*
X0056366Y0037491D01*
X0056655Y0038182D02*
X0056051Y0038182D01*
X0054471Y0036602D02*
X0057047Y0034026D01*
X0054471Y0036602D02*
X0054961Y0037092D01*
X0057537Y0034516D01*
X0057047Y0034026D01*
X0057336Y0034717D02*
X0056356Y0034717D01*
X0056645Y0035408D02*
X0055665Y0035408D01*
X0055954Y0036099D02*
X0054974Y0036099D01*
X0055263Y0036790D02*
X0054659Y0036790D01*
X0053148Y0035279D02*
X0055724Y0032703D01*
X0053148Y0035279D02*
X0053638Y0035769D01*
X0056214Y0033193D01*
X0055724Y0032703D01*
X0056013Y0033394D02*
X0055033Y0033394D01*
X0055322Y0034085D02*
X0054342Y0034085D01*
X0054631Y0034776D02*
X0053651Y0034776D01*
X0053940Y0035467D02*
X0053336Y0035467D01*
X0056214Y0029572D02*
X0053638Y0026996D01*
X0053148Y0027486D01*
X0055724Y0030062D01*
X0056214Y0029572D01*
X0054329Y0027687D02*
X0053349Y0027687D01*
X0054040Y0028378D02*
X0055020Y0028378D01*
X0054731Y0029069D02*
X0055711Y0029069D01*
X0055422Y0029760D02*
X0056026Y0029760D01*
X0057537Y0028250D02*
X0054961Y0025674D01*
X0054471Y0026164D01*
X0057047Y0028740D01*
X0057537Y0028250D01*
X0055652Y0026365D02*
X0054672Y0026365D01*
X0055363Y0027056D02*
X0056343Y0027056D01*
X0056054Y0027747D02*
X0057034Y0027747D01*
X0056745Y0028438D02*
X0057349Y0028438D01*
X0058859Y0026928D02*
X0056283Y0024352D01*
X0055793Y0024842D01*
X0058369Y0027418D01*
X0058859Y0026928D01*
X0056974Y0025043D02*
X0055994Y0025043D01*
X0056685Y0025734D02*
X0057665Y0025734D01*
X0057376Y0026425D02*
X0058356Y0026425D01*
X0058067Y0027116D02*
X0058671Y0027116D01*
X0060251Y0025536D02*
X0057675Y0022960D01*
X0057185Y0023450D01*
X0059761Y0026026D01*
X0060251Y0025536D01*
X0058366Y0023651D02*
X0057386Y0023651D01*
X0058077Y0024342D02*
X0059057Y0024342D01*
X0058768Y0025033D02*
X0059748Y0025033D01*
X0059459Y0025724D02*
X0060063Y0025724D01*
X0061643Y0024144D02*
X0059067Y0021568D01*
X0058577Y0022058D01*
X0061153Y0024634D01*
X0061643Y0024144D01*
X0059758Y0022259D02*
X0058778Y0022259D01*
X0059469Y0022950D02*
X0060449Y0022950D01*
X0060160Y0023641D02*
X0061140Y0023641D01*
X0060851Y0024332D02*
X0061455Y0024332D01*
X0062965Y0022821D02*
X0060389Y0020245D01*
X0059899Y0020735D01*
X0062475Y0023311D01*
X0062965Y0022821D01*
X0061080Y0020936D02*
X0060100Y0020936D01*
X0060791Y0021627D02*
X0061771Y0021627D01*
X0061482Y0022318D02*
X0062462Y0022318D01*
X0062173Y0023009D02*
X0062777Y0023009D01*
X0064357Y0021429D02*
X0061781Y0018853D01*
X0061291Y0019343D01*
X0063867Y0021919D01*
X0064357Y0021429D01*
X0062472Y0019544D02*
X0061492Y0019544D01*
X0062183Y0020235D02*
X0063163Y0020235D01*
X0062874Y0020926D02*
X0063854Y0020926D01*
X0063565Y0021617D02*
X0064169Y0021617D01*
X0065680Y0020107D02*
X0063104Y0017531D01*
X0062614Y0018021D01*
X0065190Y0020597D01*
X0065680Y0020107D01*
X0063795Y0018222D02*
X0062815Y0018222D01*
X0063506Y0018913D02*
X0064486Y0018913D01*
X0064197Y0019604D02*
X0065177Y0019604D01*
X0064888Y0020295D02*
X0065492Y0020295D01*
X0068810Y0020597D02*
X0071386Y0018021D01*
X0070896Y0017531D01*
X0068320Y0020107D01*
X0068810Y0020597D01*
X0070205Y0018222D02*
X0071185Y0018222D01*
X0070494Y0018913D02*
X0069514Y0018913D01*
X0069803Y0019604D02*
X0068823Y0019604D01*
X0069112Y0020295D02*
X0068508Y0020295D01*
X0070133Y0021919D02*
X0072709Y0019343D01*
X0072219Y0018853D01*
X0069643Y0021429D01*
X0070133Y0021919D01*
X0071528Y0019544D02*
X0072508Y0019544D01*
X0071817Y0020235D02*
X0070837Y0020235D01*
X0071126Y0020926D02*
X0070146Y0020926D01*
X0070435Y0021617D02*
X0069831Y0021617D01*
X0071455Y0023242D02*
X0074031Y0020666D01*
X0073541Y0020176D01*
X0070965Y0022752D01*
X0071455Y0023242D01*
X0072850Y0020867D02*
X0073830Y0020867D01*
X0073139Y0021558D02*
X0072159Y0021558D01*
X0072448Y0022249D02*
X0071468Y0022249D01*
X0071757Y0022940D02*
X0071153Y0022940D01*
X0072847Y0024634D02*
X0075423Y0022058D01*
X0074933Y0021568D01*
X0072357Y0024144D01*
X0072847Y0024634D01*
X0074242Y0022259D02*
X0075222Y0022259D01*
X0074531Y0022950D02*
X0073551Y0022950D01*
X0073840Y0023641D02*
X0072860Y0023641D01*
X0073149Y0024332D02*
X0072545Y0024332D01*
X0074239Y0026026D02*
X0076815Y0023450D01*
X0076325Y0022960D01*
X0073749Y0025536D01*
X0074239Y0026026D01*
X0075634Y0023651D02*
X0076614Y0023651D01*
X0075923Y0024342D02*
X0074943Y0024342D01*
X0075232Y0025033D02*
X0074252Y0025033D01*
X0074541Y0025724D02*
X0073937Y0025724D01*
X0075561Y0027348D02*
X0078137Y0024772D01*
X0077647Y0024282D01*
X0075071Y0026858D01*
X0075561Y0027348D01*
X0076956Y0024973D02*
X0077936Y0024973D01*
X0077245Y0025664D02*
X0076265Y0025664D01*
X0076554Y0026355D02*
X0075574Y0026355D01*
X0075863Y0027046D02*
X0075259Y0027046D01*
X0076953Y0028740D02*
X0079529Y0026164D01*
X0079039Y0025674D01*
X0076463Y0028250D01*
X0076953Y0028740D01*
X0078348Y0026365D02*
X0079328Y0026365D01*
X0078637Y0027056D02*
X0077657Y0027056D01*
X0077946Y0027747D02*
X0076966Y0027747D01*
X0077255Y0028438D02*
X0076651Y0028438D01*
X0078276Y0030062D02*
X0080852Y0027486D01*
X0080362Y0026996D01*
X0077786Y0029572D01*
X0078276Y0030062D01*
X0079671Y0027687D02*
X0080651Y0027687D01*
X0079960Y0028378D02*
X0078980Y0028378D01*
X0079269Y0029069D02*
X0078289Y0029069D01*
X0078578Y0029760D02*
X0077974Y0029760D01*
X0077786Y0033193D02*
X0080362Y0035769D01*
X0080852Y0035279D01*
X0078276Y0032703D01*
X0077786Y0033193D01*
X0077987Y0033394D02*
X0078967Y0033394D01*
X0078678Y0034085D02*
X0079658Y0034085D01*
X0079369Y0034776D02*
X0080349Y0034776D01*
X0080060Y0035467D02*
X0080664Y0035467D01*
X0079039Y0037092D02*
X0076463Y0034516D01*
X0079039Y0037092D02*
X0079529Y0036602D01*
X0076953Y0034026D01*
X0076463Y0034516D01*
X0076664Y0034717D02*
X0077644Y0034717D01*
X0077355Y0035408D02*
X0078335Y0035408D01*
X0078046Y0036099D02*
X0079026Y0036099D01*
X0078737Y0036790D02*
X0079341Y0036790D01*
X0077717Y0038414D02*
X0075141Y0035838D01*
X0077717Y0038414D02*
X0078207Y0037924D01*
X0075631Y0035348D01*
X0075141Y0035838D01*
X0075342Y0036039D02*
X0076322Y0036039D01*
X0076033Y0036730D02*
X0077013Y0036730D01*
X0076724Y0037421D02*
X0077704Y0037421D01*
X0077415Y0038112D02*
X0078019Y0038112D01*
X0076325Y0039806D02*
X0073749Y0037230D01*
X0076325Y0039806D02*
X0076815Y0039316D01*
X0074239Y0036740D01*
X0073749Y0037230D01*
X0073950Y0037431D02*
X0074930Y0037431D01*
X0074641Y0038122D02*
X0075621Y0038122D01*
X0075332Y0038813D02*
X0076312Y0038813D01*
X0076023Y0039504D02*
X0076627Y0039504D01*
X0074933Y0041198D02*
X0072357Y0038622D01*
X0074933Y0041198D02*
X0075423Y0040708D01*
X0072847Y0038132D01*
X0072357Y0038622D01*
X0072558Y0038823D02*
X0073538Y0038823D01*
X0073249Y0039514D02*
X0074229Y0039514D01*
X0073940Y0040205D02*
X0074920Y0040205D01*
X0074631Y0040896D02*
X0075235Y0040896D01*
X0073611Y0042520D02*
X0071035Y0039944D01*
X0073611Y0042520D02*
X0074101Y0042030D01*
X0071525Y0039454D01*
X0071035Y0039944D01*
X0071236Y0040145D02*
X0072216Y0040145D01*
X0071927Y0040836D02*
X0072907Y0040836D01*
X0072618Y0041527D02*
X0073598Y0041527D01*
X0073309Y0042218D02*
X0073913Y0042218D01*
D14*
X0121016Y0050737D03*
D15*
X0121016Y0058611D03*
D16*
X0121016Y0058611D03*
X0121016Y0043611D03*
D17*
X0007000Y0047883D03*
X0007000Y0057883D03*
X0007000Y0037883D03*
X0007000Y0027883D03*
X0007000Y0017883D03*
X0007000Y0007883D03*
D18*
X0089456Y0019352D03*
X0093983Y0019352D03*
X0089456Y0025060D03*
D19*
X0092212Y0024962D02*
X0095755Y0024962D01*
X0095755Y0025160D02*
X0092212Y0025160D01*
X0092212Y0025359D02*
X0095755Y0025359D01*
X0095755Y0025557D02*
X0092212Y0025557D01*
X0092212Y0025756D02*
X0095755Y0025756D01*
X0095755Y0025954D02*
X0092212Y0025954D01*
X0092212Y0026153D02*
X0095755Y0026153D01*
X0095755Y0026351D02*
X0092212Y0026351D01*
X0092212Y0026550D02*
X0095755Y0026550D01*
X0095755Y0026748D02*
X0092212Y0026748D01*
X0092212Y0026947D02*
X0095755Y0026947D01*
X0095755Y0027029D02*
X0095755Y0023092D01*
X0093491Y0023092D01*
X0092212Y0024371D01*
X0092212Y0027029D01*
X0095755Y0027029D01*
X0095755Y0024763D02*
X0092212Y0024763D01*
X0092212Y0024565D02*
X0095755Y0024565D01*
X0095755Y0024366D02*
X0092217Y0024366D01*
X0092416Y0024168D02*
X0095755Y0024168D01*
X0095755Y0023969D02*
X0092614Y0023969D01*
X0092813Y0023770D02*
X0095755Y0023770D01*
X0095755Y0023572D02*
X0093011Y0023572D01*
X0093210Y0023373D02*
X0095755Y0023373D01*
X0095755Y0023175D02*
X0093408Y0023175D01*
D20*
X0092000Y0007883D03*
X0082000Y0007883D03*
X0072000Y0007883D03*
X0062000Y0007883D03*
X0052000Y0007883D03*
X0042000Y0007883D03*
X0032000Y0007883D03*
X0022000Y0007883D03*
X0102000Y0007883D03*
X0112000Y0007883D03*
X0043500Y0045883D03*
X0042000Y0057883D03*
X0032000Y0057883D03*
X0022000Y0057883D03*
X0052000Y0057883D03*
X0062000Y0057883D03*
X0072000Y0057883D03*
X0082000Y0057883D03*
X0092000Y0057883D03*
X0102000Y0057883D03*
X0112000Y0057883D03*
X0083250Y0047383D03*
M02*
