%
M48
M72
T01C0.01200
T02C0.01575
T03C0.04000
%
T01
X18250Y16383
X20750Y25133
X18000Y27883
X15250Y30633
X14250Y34633
X26750Y37383
X26750Y41383
X21500Y49133
X37000Y52883
X43500Y51133
X54250Y51133
X58750Y45383
X73250Y46883
X79250Y40883
X84000Y36883
X88250Y32633
X81750Y30133
X73500Y31383
X67000Y37883
X60500Y31383
X67000Y25133
X74500Y16633
X78000Y14883
X85500Y19383
X105000Y23633
X110250Y26883
X120000Y25633
X120000Y35633
X104750Y42133
X101750Y37383
X101500Y49133
X92000Y51133
X89500Y49133
X42750Y35133
X48000Y25133
X120000Y15633
X120000Y5633
T02
X121016Y43611
X121016Y58611
T03
X7000Y57883
X22000Y57883
X32000Y57883
X42000Y57883
X52000Y57883
X62000Y57883
X72000Y57883
X82000Y57883
X92000Y57883
X102000Y57883
X112000Y57883
X83250Y47383
X43500Y45883
X7000Y47883
X7000Y37883
X7000Y27883
X7000Y17883
X7000Y7883
X22000Y7883
X32000Y7883
X42000Y7883
X52000Y7883
X62000Y7883
X72000Y7883
X82000Y7883
X92000Y7883
X102000Y7883
X112000Y7883
M30
