G75*
%MOIN*%
%OFA0B0*%
%FSLAX25Y25*%
%IPPOS*%
%LPD*%
%AMOC8*
5,1,8,0,0,1.08239X$1,22.5*
%
%ADD10C,0.00000*%
%ADD11C,0.00300*%
%ADD12C,0.00200*%
%ADD13R,0.01969X0.59449*%
%ADD14C,0.03575*%
%ADD15C,0.07400*%
%ADD16OC8,0.06000*%
%ADD17C,0.01000*%
%ADD18C,0.03169*%
%ADD19C,0.01200*%
%ADD20C,0.03200*%
%ADD21C,0.03562*%
%ADD22C,0.02400*%
%ADD23C,0.01600*%
D10*
X0001250Y0001800D02*
X0001250Y0063011D01*
X0142451Y0062761D01*
X0142451Y0001800D01*
X0001250Y0001800D01*
D11*
X0095959Y0015184D02*
X0096443Y0014700D01*
X0097410Y0014700D01*
X0097894Y0015184D01*
X0095959Y0017119D01*
X0095959Y0015184D01*
X0097894Y0015184D02*
X0097894Y0017119D01*
X0097410Y0017602D01*
X0096443Y0017602D01*
X0095959Y0017119D01*
X0098884Y0015184D02*
X0098884Y0014700D01*
X0099367Y0014700D01*
X0099367Y0015184D01*
X0098884Y0015184D01*
X0100379Y0014700D02*
X0102314Y0014700D01*
X0101346Y0014700D02*
X0101346Y0017602D01*
X0102314Y0016635D01*
X0106272Y0016635D02*
X0107239Y0014700D01*
X0108207Y0016635D01*
X0109219Y0016151D02*
X0109219Y0015667D01*
X0111153Y0015667D01*
X0111153Y0015184D02*
X0111153Y0016151D01*
X0110670Y0016635D01*
X0109702Y0016635D01*
X0109219Y0016151D01*
X0110670Y0014700D02*
X0111153Y0015184D01*
X0110670Y0014700D02*
X0109702Y0014700D01*
X0112165Y0014700D02*
X0113133Y0015667D01*
X0112649Y0015667D02*
X0114100Y0015667D01*
X0114100Y0014700D02*
X0114100Y0017602D01*
X0112649Y0017602D01*
X0112165Y0017119D01*
X0112165Y0016151D01*
X0112649Y0015667D01*
D12*
X0057900Y0015602D02*
X0057900Y0013400D01*
X0056432Y0013400D01*
X0055690Y0013767D02*
X0055323Y0013400D01*
X0054589Y0013400D01*
X0054222Y0013767D01*
X0054222Y0014134D01*
X0054589Y0014501D01*
X0055323Y0014501D01*
X0055690Y0014868D01*
X0055690Y0015235D01*
X0055323Y0015602D01*
X0054589Y0015602D01*
X0054222Y0015235D01*
X0053480Y0015602D02*
X0052379Y0015602D01*
X0052012Y0015235D01*
X0052012Y0014501D01*
X0052379Y0014134D01*
X0053480Y0014134D01*
X0053480Y0013400D02*
X0053480Y0015602D01*
X0051270Y0015235D02*
X0051270Y0014868D01*
X0050903Y0014501D01*
X0050169Y0014501D01*
X0049802Y0014134D01*
X0049802Y0013767D01*
X0050169Y0013400D01*
X0050903Y0013400D01*
X0051270Y0013767D01*
X0051270Y0014134D01*
X0050903Y0014501D01*
X0050169Y0014501D02*
X0049802Y0014868D01*
X0049802Y0015235D01*
X0050169Y0015602D01*
X0050903Y0015602D01*
X0051270Y0015235D01*
X0049060Y0015235D02*
X0048694Y0015602D01*
X0047960Y0015602D01*
X0047593Y0015235D01*
X0047593Y0014868D01*
X0049060Y0013400D01*
X0047593Y0013400D01*
X0046851Y0013767D02*
X0046851Y0014134D01*
X0046484Y0014501D01*
X0045750Y0014501D01*
X0045383Y0014134D01*
X0045383Y0013767D01*
X0045750Y0013400D01*
X0046484Y0013400D01*
X0046851Y0013767D01*
X0046484Y0014501D02*
X0046851Y0014868D01*
X0046851Y0015235D01*
X0046484Y0015602D01*
X0045750Y0015602D01*
X0045383Y0015235D01*
X0045383Y0014868D01*
X0045750Y0014501D01*
X0044641Y0014501D02*
X0043907Y0014868D01*
X0043540Y0014868D01*
X0043173Y0014501D01*
X0043173Y0013767D01*
X0043540Y0013400D01*
X0044274Y0013400D01*
X0044641Y0013767D01*
X0044641Y0014501D02*
X0044641Y0015602D01*
X0043173Y0015602D01*
X0040221Y0015602D02*
X0039487Y0014868D01*
X0038753Y0015602D01*
X0038753Y0013400D01*
X0038011Y0013400D02*
X0037277Y0013400D01*
X0037644Y0013400D02*
X0037644Y0014868D01*
X0038011Y0014868D01*
X0037644Y0015602D02*
X0037644Y0015969D01*
X0036538Y0014868D02*
X0035437Y0014868D01*
X0035070Y0014501D01*
X0035070Y0013400D01*
X0034328Y0013400D02*
X0033594Y0013400D01*
X0033961Y0013400D02*
X0033961Y0014868D01*
X0034328Y0014868D01*
X0033961Y0015602D02*
X0033961Y0015969D01*
X0032855Y0015602D02*
X0032855Y0013400D01*
X0031754Y0013400D01*
X0031387Y0013767D01*
X0031387Y0014501D01*
X0031754Y0014868D01*
X0032855Y0014868D01*
X0030645Y0014501D02*
X0030645Y0013767D01*
X0030278Y0013400D01*
X0029544Y0013400D01*
X0029177Y0013767D01*
X0029177Y0014501D01*
X0029544Y0014868D01*
X0030278Y0014868D01*
X0030645Y0014501D01*
X0028435Y0013767D02*
X0028068Y0013400D01*
X0026967Y0013400D01*
X0026967Y0014501D01*
X0027334Y0014868D01*
X0028068Y0014868D01*
X0028068Y0014134D02*
X0026967Y0014134D01*
X0026225Y0014134D02*
X0025491Y0014868D01*
X0025124Y0014868D01*
X0024383Y0014501D02*
X0024383Y0013767D01*
X0024017Y0013400D01*
X0022916Y0013400D01*
X0022916Y0015602D01*
X0022916Y0014868D02*
X0024017Y0014868D01*
X0024383Y0014501D01*
X0026225Y0014868D02*
X0026225Y0013400D01*
X0028068Y0014134D02*
X0028435Y0013767D01*
X0024504Y0017666D02*
X0024137Y0017666D01*
X0023770Y0018033D01*
X0023770Y0019868D01*
X0024871Y0019868D01*
X0025238Y0019501D01*
X0025238Y0018767D01*
X0024871Y0018400D01*
X0023770Y0018400D01*
X0025979Y0019868D02*
X0026346Y0019868D01*
X0027080Y0019134D01*
X0027080Y0018400D02*
X0027080Y0019868D01*
X0027822Y0019501D02*
X0028189Y0019868D01*
X0028923Y0019868D01*
X0029290Y0019501D01*
X0029290Y0018767D01*
X0028923Y0018400D01*
X0028189Y0018400D01*
X0027822Y0018767D01*
X0027822Y0019501D01*
X0030028Y0018767D02*
X0030028Y0018400D01*
X0030395Y0018400D01*
X0030395Y0018767D01*
X0030028Y0018767D01*
X0031137Y0018767D02*
X0031504Y0019134D01*
X0032238Y0019134D01*
X0032605Y0019501D01*
X0032238Y0019868D01*
X0031137Y0019868D01*
X0031137Y0018767D02*
X0031504Y0018400D01*
X0032605Y0018400D01*
X0033347Y0018400D02*
X0033347Y0019868D01*
X0034815Y0019868D02*
X0034815Y0018767D01*
X0034448Y0018400D01*
X0033347Y0018400D01*
X0035555Y0018400D02*
X0036656Y0019134D01*
X0035555Y0019868D01*
X0036656Y0020602D02*
X0036656Y0018400D01*
X0037764Y0019868D02*
X0038498Y0019134D01*
X0038498Y0018400D02*
X0038498Y0019868D01*
X0037764Y0019868D02*
X0037397Y0019868D01*
X0039240Y0019501D02*
X0039240Y0018400D01*
X0040341Y0018400D01*
X0040708Y0018767D01*
X0040341Y0019134D01*
X0039240Y0019134D01*
X0039240Y0019501D02*
X0039607Y0019868D01*
X0040341Y0019868D01*
X0041450Y0019501D02*
X0041450Y0018400D01*
X0042184Y0018400D02*
X0042184Y0019501D01*
X0041817Y0019868D01*
X0041450Y0019501D01*
X0042184Y0019501D02*
X0042550Y0019868D01*
X0042917Y0019868D01*
X0042917Y0018400D01*
X0043659Y0018767D02*
X0044026Y0018400D01*
X0044760Y0018400D01*
X0045127Y0018767D01*
X0045127Y0020235D01*
X0044760Y0020602D01*
X0044026Y0020602D01*
X0043659Y0020235D01*
X0043659Y0019501D01*
X0044026Y0019134D01*
X0044026Y0019868D01*
X0044760Y0019868D01*
X0044760Y0019134D01*
X0044026Y0019134D01*
X0045869Y0018767D02*
X0046236Y0019134D01*
X0046970Y0019134D01*
X0047337Y0019501D01*
X0046970Y0019868D01*
X0045869Y0019868D01*
X0045869Y0018767D02*
X0046236Y0018400D01*
X0047337Y0018400D01*
X0048079Y0018400D02*
X0048079Y0019868D01*
X0049547Y0019868D02*
X0049547Y0018767D01*
X0049180Y0018400D01*
X0048079Y0018400D01*
X0050288Y0018400D02*
X0051389Y0019134D01*
X0050288Y0019868D01*
X0051389Y0020602D02*
X0051389Y0018400D01*
X0052129Y0019868D02*
X0052496Y0019868D01*
X0053230Y0019134D01*
X0053230Y0018400D02*
X0053230Y0019868D01*
X0053972Y0019501D02*
X0054339Y0019868D01*
X0055073Y0019868D01*
X0055073Y0019134D02*
X0053972Y0019134D01*
X0053972Y0019501D02*
X0053972Y0018400D01*
X0055073Y0018400D01*
X0055440Y0018767D01*
X0055073Y0019134D01*
X0056182Y0019501D02*
X0056182Y0018400D01*
X0056916Y0018400D02*
X0056916Y0019501D01*
X0056549Y0019868D01*
X0056182Y0019501D01*
X0056916Y0019501D02*
X0057283Y0019868D01*
X0057650Y0019868D01*
X0057650Y0018400D01*
X0057900Y0015602D02*
X0056432Y0015602D01*
X0057166Y0014501D02*
X0057900Y0014501D01*
X0040221Y0013400D02*
X0040221Y0015602D01*
X0036538Y0014868D02*
X0036538Y0013400D01*
D13*
X0121016Y0032044D03*
D14*
X0121016Y0058028D03*
D15*
X0007000Y0057300D03*
X0007000Y0047300D03*
X0007000Y0037300D03*
X0007000Y0027300D03*
X0007000Y0017300D03*
X0007000Y0007300D03*
D16*
X0022000Y0007300D03*
X0032000Y0007300D03*
X0042000Y0007300D03*
X0052000Y0007300D03*
X0062000Y0007300D03*
X0072000Y0007300D03*
X0082000Y0007300D03*
X0092000Y0007300D03*
X0102000Y0007300D03*
X0112000Y0007300D03*
X0043500Y0045300D03*
X0042000Y0057300D03*
X0032000Y0057300D03*
X0022000Y0057300D03*
X0052000Y0057300D03*
X0062000Y0057300D03*
X0072000Y0057300D03*
X0082000Y0057300D03*
X0092000Y0057300D03*
X0102000Y0057300D03*
X0112000Y0057300D03*
X0083250Y0046800D03*
D17*
X0087350Y0046483D02*
X0102850Y0046483D01*
X0102850Y0047482D02*
X0087350Y0047482D01*
X0087350Y0048480D02*
X0102850Y0048480D01*
X0102850Y0049479D02*
X0086370Y0049479D01*
X0087350Y0048498D02*
X0084948Y0050900D01*
X0081552Y0050900D01*
X0079150Y0048498D01*
X0079150Y0045102D01*
X0081552Y0042700D01*
X0084948Y0042700D01*
X0087350Y0045102D01*
X0087350Y0048498D01*
X0085371Y0050477D02*
X0102850Y0050477D01*
X0102850Y0050837D02*
X0102850Y0043446D01*
X0102474Y0043070D01*
X0102066Y0042084D01*
X0102066Y0041016D01*
X0102474Y0040029D01*
X0103229Y0039274D01*
X0104216Y0038866D01*
X0105284Y0038866D01*
X0106270Y0039274D01*
X0107026Y0040029D01*
X0107434Y0041016D01*
X0107434Y0042084D01*
X0107026Y0043070D01*
X0106650Y0043446D01*
X0106650Y0049263D01*
X0110587Y0053200D01*
X0113698Y0053200D01*
X0116100Y0055602D01*
X0116100Y0058998D01*
X0113787Y0061311D01*
X0118931Y0061302D01*
X0118931Y0060027D01*
X0118568Y0059664D01*
X0118128Y0058603D01*
X0118128Y0057454D01*
X0118568Y0056393D01*
X0118931Y0056029D01*
X0118931Y0003300D01*
X0114364Y0003300D01*
X0116500Y0005436D01*
X0116500Y0006800D01*
X0112500Y0006800D01*
X0112500Y0007800D01*
X0116500Y0007800D01*
X0116500Y0009164D01*
X0113864Y0011800D01*
X0112500Y0011800D01*
X0112500Y0007800D01*
X0111500Y0007800D01*
X0111500Y0011800D01*
X0110136Y0011800D01*
X0107500Y0009164D01*
X0107500Y0007800D01*
X0111500Y0007800D01*
X0111500Y0006800D01*
X0107500Y0006800D01*
X0107500Y0005436D01*
X0109636Y0003300D01*
X0103798Y0003300D01*
X0106100Y0005602D01*
X0106100Y0008998D01*
X0103698Y0011400D01*
X0100302Y0011400D01*
X0097900Y0008998D01*
X0097900Y0005602D01*
X0100202Y0003300D01*
X0093798Y0003300D01*
X0096100Y0005602D01*
X0096100Y0008998D01*
X0093698Y0011400D01*
X0090302Y0011400D01*
X0087900Y0008998D01*
X0087900Y0005602D01*
X0090202Y0003300D01*
X0083798Y0003300D01*
X0086100Y0005602D01*
X0086100Y0008998D01*
X0083698Y0011400D01*
X0080302Y0011400D01*
X0077900Y0008998D01*
X0077900Y0005602D01*
X0080202Y0003300D01*
X0073798Y0003300D01*
X0076100Y0005602D01*
X0076100Y0008998D01*
X0073698Y0011400D01*
X0070302Y0011400D01*
X0067900Y0008998D01*
X0067900Y0005602D01*
X0070202Y0003300D01*
X0063798Y0003300D01*
X0066100Y0005602D01*
X0066100Y0008998D01*
X0063698Y0011400D01*
X0060302Y0011400D01*
X0057900Y0008998D01*
X0057900Y0005602D01*
X0060202Y0003300D01*
X0053798Y0003300D01*
X0056100Y0005602D01*
X0056100Y0008998D01*
X0053698Y0011400D01*
X0050302Y0011400D01*
X0047900Y0008998D01*
X0047900Y0005602D01*
X0050202Y0003300D01*
X0043798Y0003300D01*
X0046100Y0005602D01*
X0046100Y0008998D01*
X0043698Y0011400D01*
X0040302Y0011400D01*
X0037900Y0008998D01*
X0037900Y0005602D01*
X0040202Y0003300D01*
X0033798Y0003300D01*
X0036100Y0005602D01*
X0036100Y0008998D01*
X0033698Y0011400D01*
X0030302Y0011400D01*
X0027900Y0008998D01*
X0027900Y0005602D01*
X0030202Y0003300D01*
X0023798Y0003300D01*
X0026100Y0005602D01*
X0026100Y0008998D01*
X0023698Y0011400D01*
X0020302Y0011400D01*
X0017900Y0008998D01*
X0017900Y0005602D01*
X0020202Y0003300D01*
X0010341Y0003300D01*
X0010388Y0003334D01*
X0010966Y0003912D01*
X0011447Y0004575D01*
X0011819Y0005304D01*
X0012072Y0006082D01*
X0012186Y0006800D01*
X0007500Y0006800D01*
X0007500Y0007800D01*
X0006500Y0007800D01*
X0006500Y0012486D01*
X0005782Y0012372D01*
X0005004Y0012119D01*
X0004275Y0011747D01*
X0003612Y0011266D01*
X0003034Y0010688D01*
X0002750Y0010297D01*
X0002750Y0015017D01*
X0002931Y0014581D01*
X0004281Y0013231D01*
X0006045Y0012500D01*
X0007955Y0012500D01*
X0009719Y0013231D01*
X0011069Y0014581D01*
X0011800Y0016345D01*
X0011800Y0018255D01*
X0011069Y0020019D01*
X0009719Y0021369D01*
X0007955Y0022100D01*
X0006045Y0022100D01*
X0004281Y0021369D01*
X0002931Y0020019D01*
X0002750Y0019583D01*
X0002750Y0025017D01*
X0002931Y0024581D01*
X0004281Y0023231D01*
X0006045Y0022500D01*
X0007955Y0022500D01*
X0009719Y0023231D01*
X0011069Y0024581D01*
X0011800Y0026345D01*
X0011800Y0028255D01*
X0011069Y0030019D01*
X0009719Y0031369D01*
X0007955Y0032100D01*
X0006045Y0032100D01*
X0004281Y0031369D01*
X0002931Y0030019D01*
X0002750Y0029583D01*
X0002750Y0035017D01*
X0002931Y0034581D01*
X0004281Y0033231D01*
X0006045Y0032500D01*
X0007955Y0032500D01*
X0009719Y0033231D01*
X0011069Y0034581D01*
X0011800Y0036345D01*
X0011800Y0038255D01*
X0011069Y0040019D01*
X0009719Y0041369D01*
X0007955Y0042100D01*
X0006045Y0042100D01*
X0004281Y0041369D01*
X0002931Y0040019D01*
X0002750Y0039583D01*
X0002750Y0045017D01*
X0002931Y0044581D01*
X0004281Y0043231D01*
X0006045Y0042500D01*
X0007955Y0042500D01*
X0009719Y0043231D01*
X0011069Y0044581D01*
X0011800Y0046345D01*
X0011800Y0048255D01*
X0011069Y0050019D01*
X0009719Y0051369D01*
X0007955Y0052100D01*
X0006045Y0052100D01*
X0004281Y0051369D01*
X0002931Y0050019D01*
X0002750Y0049583D01*
X0002750Y0055017D01*
X0002931Y0054581D01*
X0004281Y0053231D01*
X0006045Y0052500D01*
X0007955Y0052500D01*
X0009719Y0053231D01*
X0011069Y0054581D01*
X0011800Y0056345D01*
X0011800Y0058255D01*
X0011069Y0060019D01*
X0009719Y0061369D01*
X0009412Y0061496D01*
X0070290Y0061388D01*
X0067900Y0058998D01*
X0067900Y0055602D01*
X0070302Y0053200D01*
X0073698Y0053200D01*
X0076100Y0055602D01*
X0076100Y0058998D01*
X0073716Y0061382D01*
X0080272Y0061371D01*
X0077900Y0058998D01*
X0077900Y0055602D01*
X0080302Y0053200D01*
X0083698Y0053200D01*
X0086100Y0055602D01*
X0086100Y0058998D01*
X0083734Y0061365D01*
X0090255Y0061353D01*
X0087900Y0058998D01*
X0087900Y0055602D01*
X0090302Y0053200D01*
X0093698Y0053200D01*
X0096100Y0055602D01*
X0096100Y0058998D01*
X0093751Y0061347D01*
X0100237Y0061335D01*
X0097900Y0058998D01*
X0097900Y0055602D01*
X0100302Y0053200D01*
X0103698Y0053200D01*
X0106100Y0055602D01*
X0106100Y0058998D01*
X0103769Y0061329D01*
X0110219Y0061318D01*
X0107900Y0058998D01*
X0107900Y0055887D01*
X0103963Y0051950D01*
X0102850Y0050837D01*
X0103489Y0051476D02*
X0056772Y0051476D01*
X0056934Y0051084D02*
X0056526Y0052070D01*
X0055770Y0052826D01*
X0054784Y0053234D01*
X0053732Y0053234D01*
X0056100Y0055602D01*
X0056100Y0058998D01*
X0053698Y0061400D01*
X0050302Y0061400D01*
X0047900Y0058998D01*
X0047900Y0055602D01*
X0050302Y0053200D01*
X0053633Y0053200D01*
X0052729Y0052826D01*
X0052054Y0052150D01*
X0039446Y0052150D01*
X0038770Y0052826D01*
X0037784Y0053234D01*
X0036716Y0053234D01*
X0035729Y0052826D01*
X0034974Y0052070D01*
X0034566Y0051084D01*
X0034566Y0050016D01*
X0034974Y0049029D01*
X0035729Y0048274D01*
X0036716Y0047866D01*
X0037784Y0047866D01*
X0038770Y0048274D01*
X0039446Y0048950D01*
X0041352Y0048950D01*
X0039400Y0046998D01*
X0039400Y0043602D01*
X0040302Y0042700D01*
X0028646Y0042700D01*
X0028270Y0043076D01*
X0027284Y0043484D01*
X0026216Y0043484D01*
X0025229Y0043076D01*
X0024474Y0042320D01*
X0024066Y0041334D01*
X0024066Y0040266D01*
X0024474Y0039279D01*
X0025229Y0038524D01*
X0026216Y0038116D01*
X0027284Y0038116D01*
X0028270Y0038524D01*
X0028646Y0038900D01*
X0052229Y0038900D01*
X0052995Y0038883D01*
X0053012Y0038900D01*
X0053037Y0038900D01*
X0053578Y0039441D01*
X0058283Y0043942D01*
X0058466Y0043866D01*
X0059534Y0043866D01*
X0060520Y0044274D01*
X0060896Y0044650D01*
X0067235Y0044650D01*
X0073170Y0038943D01*
X0073713Y0038400D01*
X0073735Y0038400D01*
X0073750Y0038385D01*
X0074518Y0038400D01*
X0077354Y0038400D01*
X0077729Y0038024D01*
X0078716Y0037616D01*
X0079784Y0037616D01*
X0079823Y0037632D01*
X0081316Y0036222D01*
X0081316Y0035766D01*
X0081724Y0034779D01*
X0082479Y0034024D01*
X0083466Y0033616D01*
X0083997Y0033616D01*
X0085566Y0032047D01*
X0085566Y0031516D01*
X0085974Y0030529D01*
X0086729Y0029774D01*
X0087716Y0029366D01*
X0088784Y0029366D01*
X0089770Y0029774D01*
X0090526Y0030529D01*
X0090934Y0031516D01*
X0090934Y0032584D01*
X0090526Y0033570D01*
X0089770Y0034326D01*
X0088784Y0034734D01*
X0088253Y0034734D01*
X0086684Y0036303D01*
X0086684Y0036834D01*
X0086276Y0037820D01*
X0085520Y0038576D01*
X0084534Y0038984D01*
X0083925Y0038984D01*
X0081913Y0040884D01*
X0081526Y0041820D01*
X0080770Y0042576D01*
X0079784Y0042984D01*
X0078716Y0042984D01*
X0077729Y0042576D01*
X0077354Y0042200D01*
X0075265Y0042200D01*
X0073790Y0043618D01*
X0074770Y0044024D01*
X0075526Y0044779D01*
X0075934Y0045766D01*
X0075934Y0046834D01*
X0075526Y0047820D01*
X0074770Y0048576D01*
X0073784Y0048984D01*
X0072828Y0048984D01*
X0071850Y0049963D01*
X0070913Y0050900D01*
X0057087Y0050900D01*
X0056934Y0050747D01*
X0056934Y0051084D01*
X0056122Y0052474D02*
X0104487Y0052474D01*
X0103963Y0051950D02*
X0103963Y0051950D01*
X0103971Y0053473D02*
X0105486Y0053473D01*
X0104969Y0054471D02*
X0106484Y0054471D01*
X0105968Y0055470D02*
X0107483Y0055470D01*
X0107900Y0056468D02*
X0106100Y0056468D01*
X0106100Y0057467D02*
X0107900Y0057467D01*
X0107900Y0058465D02*
X0106100Y0058465D01*
X0105635Y0059464D02*
X0108365Y0059464D01*
X0109364Y0060462D02*
X0104636Y0060462D01*
X0099364Y0060462D02*
X0094636Y0060462D01*
X0095635Y0059464D02*
X0098365Y0059464D01*
X0097900Y0058465D02*
X0096100Y0058465D01*
X0096100Y0057467D02*
X0097900Y0057467D01*
X0097900Y0056468D02*
X0096100Y0056468D01*
X0095968Y0055470D02*
X0098032Y0055470D01*
X0099031Y0054471D02*
X0094969Y0054471D01*
X0093971Y0053473D02*
X0100029Y0053473D01*
X0106866Y0049479D02*
X0118931Y0049479D01*
X0118931Y0048480D02*
X0106650Y0048480D01*
X0106650Y0047482D02*
X0118931Y0047482D01*
X0118931Y0046483D02*
X0106650Y0046483D01*
X0106650Y0045484D02*
X0118931Y0045484D01*
X0118931Y0044486D02*
X0106650Y0044486D01*
X0106650Y0043487D02*
X0118931Y0043487D01*
X0118931Y0042489D02*
X0107266Y0042489D01*
X0107434Y0041490D02*
X0118931Y0041490D01*
X0118931Y0040492D02*
X0107217Y0040492D01*
X0106490Y0039493D02*
X0118931Y0039493D01*
X0118931Y0038495D02*
X0085601Y0038495D01*
X0086410Y0037496D02*
X0118931Y0037496D01*
X0118931Y0036498D02*
X0086684Y0036498D01*
X0087488Y0035499D02*
X0118931Y0035499D01*
X0118931Y0034501D02*
X0089347Y0034501D01*
X0090554Y0033502D02*
X0118931Y0033502D01*
X0118931Y0032504D02*
X0090934Y0032504D01*
X0090930Y0031505D02*
X0118931Y0031505D01*
X0118931Y0030507D02*
X0090503Y0030507D01*
X0089128Y0029508D02*
X0118931Y0029508D01*
X0118931Y0028510D02*
X0111836Y0028510D01*
X0111770Y0028576D02*
X0110784Y0028984D01*
X0109716Y0028984D01*
X0108729Y0028576D01*
X0108054Y0027900D01*
X0085663Y0027900D01*
X0084434Y0029128D01*
X0084434Y0030084D01*
X0084026Y0031070D01*
X0083270Y0031826D01*
X0082284Y0032234D01*
X0081216Y0032234D01*
X0080229Y0031826D01*
X0079474Y0031070D01*
X0079066Y0030084D01*
X0079066Y0029150D01*
X0060413Y0029150D01*
X0057913Y0031650D01*
X0017446Y0031650D01*
X0016770Y0032326D01*
X0016470Y0032450D01*
X0030592Y0032450D01*
X0031086Y0032351D01*
X0031234Y0032450D01*
X0031413Y0032450D01*
X0031769Y0032807D01*
X0031984Y0032950D01*
X0040554Y0032950D01*
X0041229Y0032274D01*
X0042216Y0031866D01*
X0043284Y0031866D01*
X0044270Y0032274D01*
X0045026Y0033029D01*
X0045434Y0034016D01*
X0045434Y0035084D01*
X0045026Y0036070D01*
X0044270Y0036826D01*
X0043284Y0037234D01*
X0042216Y0037234D01*
X0041229Y0036826D01*
X0040554Y0036150D01*
X0031658Y0036150D01*
X0031164Y0036249D01*
X0031016Y0036150D01*
X0030837Y0036150D01*
X0030481Y0035793D01*
X0030266Y0035650D01*
X0016446Y0035650D01*
X0015770Y0036326D01*
X0014784Y0036734D01*
X0013716Y0036734D01*
X0012729Y0036326D01*
X0011974Y0035570D01*
X0011566Y0034584D01*
X0011566Y0033516D01*
X0011974Y0032529D01*
X0012729Y0031774D01*
X0013047Y0031643D01*
X0012974Y0031570D01*
X0012566Y0030584D01*
X0012566Y0029516D01*
X0012974Y0028529D01*
X0013729Y0027774D01*
X0014716Y0027366D01*
X0015316Y0027366D01*
X0015316Y0026766D01*
X0015724Y0025779D01*
X0016479Y0025024D01*
X0017466Y0024616D01*
X0018066Y0024616D01*
X0018066Y0024016D01*
X0018474Y0023029D01*
X0019229Y0022274D01*
X0020216Y0021866D01*
X0021284Y0021866D01*
X0022270Y0022274D01*
X0022946Y0022950D01*
X0045804Y0022950D01*
X0046479Y0022274D01*
X0047466Y0021866D01*
X0048534Y0021866D01*
X0049520Y0022274D01*
X0050196Y0022950D01*
X0057087Y0022950D01*
X0064650Y0015387D01*
X0065587Y0014450D01*
X0072304Y0014450D01*
X0072979Y0013774D01*
X0073966Y0013366D01*
X0075034Y0013366D01*
X0075416Y0013524D01*
X0075724Y0012779D01*
X0076479Y0012024D01*
X0077466Y0011616D01*
X0078534Y0011616D01*
X0079520Y0012024D01*
X0080276Y0012779D01*
X0080684Y0013766D01*
X0080684Y0014834D01*
X0080276Y0015820D01*
X0079600Y0016496D01*
X0079600Y0017713D01*
X0078663Y0018650D01*
X0076663Y0020650D01*
X0066413Y0020650D01*
X0061113Y0025950D01*
X0080413Y0025950D01*
X0081328Y0026866D01*
X0082172Y0026866D01*
X0084337Y0024700D01*
X0108054Y0024700D01*
X0108729Y0024024D01*
X0109716Y0023616D01*
X0110784Y0023616D01*
X0111770Y0024024D01*
X0112526Y0024779D01*
X0112934Y0025766D01*
X0112934Y0026834D01*
X0112526Y0027820D01*
X0111770Y0028576D01*
X0112654Y0027511D02*
X0118931Y0027511D01*
X0118931Y0026513D02*
X0112934Y0026513D01*
X0112830Y0025514D02*
X0118931Y0025514D01*
X0118931Y0024516D02*
X0112262Y0024516D01*
X0110250Y0026300D02*
X0085000Y0026300D01*
X0081750Y0029550D01*
X0079750Y0027550D01*
X0059750Y0027550D01*
X0057250Y0030050D01*
X0015250Y0030050D01*
X0012566Y0030507D02*
X0010581Y0030507D01*
X0011281Y0029508D02*
X0012569Y0029508D01*
X0012994Y0028510D02*
X0011694Y0028510D01*
X0011800Y0027511D02*
X0014365Y0027511D01*
X0015421Y0026513D02*
X0011800Y0026513D01*
X0011456Y0025514D02*
X0015990Y0025514D01*
X0018066Y0024516D02*
X0011004Y0024516D01*
X0010005Y0023517D02*
X0018272Y0023517D01*
X0018985Y0022519D02*
X0008000Y0022519D01*
X0006000Y0022519D02*
X0002750Y0022519D01*
X0002750Y0023517D02*
X0003995Y0023517D01*
X0002996Y0024516D02*
X0002750Y0024516D01*
X0002750Y0021520D02*
X0004646Y0021520D01*
X0003434Y0020522D02*
X0002750Y0020522D01*
X0009354Y0021520D02*
X0035877Y0021520D01*
X0036159Y0021802D02*
X0035456Y0021099D01*
X0035456Y0021072D01*
X0035332Y0021047D01*
X0035312Y0021068D01*
X0034317Y0021068D01*
X0034081Y0020831D01*
X0033844Y0021068D01*
X0032850Y0021068D01*
X0032792Y0021010D01*
X0032735Y0021068D01*
X0030640Y0021068D01*
X0030030Y0020458D01*
X0029787Y0020701D01*
X0029420Y0021068D01*
X0027692Y0021068D01*
X0027634Y0021010D01*
X0027577Y0021068D01*
X0025482Y0021068D01*
X0025425Y0021011D01*
X0025368Y0021068D01*
X0023273Y0021068D01*
X0022570Y0020365D01*
X0022570Y0017536D01*
X0023273Y0016833D01*
X0023305Y0016802D01*
X0022419Y0016802D01*
X0021716Y0016099D01*
X0021716Y0012903D01*
X0022419Y0012200D01*
X0024514Y0012200D01*
X0024881Y0012567D01*
X0025121Y0012807D01*
X0025728Y0012200D01*
X0028565Y0012200D01*
X0028806Y0012441D01*
X0029047Y0012200D01*
X0030775Y0012200D01*
X0031016Y0012441D01*
X0031257Y0012200D01*
X0035567Y0012200D01*
X0035804Y0012437D01*
X0036041Y0012200D01*
X0039250Y0012200D01*
X0039487Y0012437D01*
X0039724Y0012200D01*
X0040718Y0012200D01*
X0041421Y0012903D01*
X0041421Y0016099D01*
X0040718Y0016802D01*
X0039724Y0016802D01*
X0039487Y0016565D01*
X0039250Y0016802D01*
X0038508Y0016802D01*
X0038141Y0017169D01*
X0037147Y0017169D01*
X0036444Y0016466D01*
X0036444Y0016068D01*
X0035161Y0016068D01*
X0035161Y0016466D01*
X0034458Y0017169D01*
X0033464Y0017169D01*
X0033097Y0016802D01*
X0032358Y0016802D01*
X0031655Y0016099D01*
X0031655Y0016068D01*
X0031257Y0016068D01*
X0031016Y0015827D01*
X0030775Y0016068D01*
X0029047Y0016068D01*
X0028806Y0015827D01*
X0028565Y0016068D01*
X0026837Y0016068D01*
X0026780Y0016010D01*
X0026722Y0016068D01*
X0024627Y0016068D01*
X0024570Y0016011D01*
X0024514Y0016068D01*
X0024116Y0016068D01*
X0024116Y0016099D01*
X0023748Y0016466D01*
X0025002Y0016466D01*
X0025704Y0017169D01*
X0025704Y0017536D01*
X0025976Y0017807D01*
X0026583Y0017200D01*
X0027577Y0017200D01*
X0027634Y0017257D01*
X0027692Y0017200D01*
X0029420Y0017200D01*
X0029475Y0017255D01*
X0029531Y0017200D01*
X0030892Y0017200D01*
X0030949Y0017257D01*
X0031007Y0017200D01*
X0034945Y0017200D01*
X0035027Y0017282D01*
X0035807Y0017126D01*
X0036063Y0017296D01*
X0036159Y0017200D01*
X0037153Y0017200D01*
X0037577Y0017624D01*
X0038001Y0017200D01*
X0040838Y0017200D01*
X0040895Y0017257D01*
X0040952Y0017200D01*
X0043415Y0017200D01*
X0043472Y0017257D01*
X0043529Y0017200D01*
X0045257Y0017200D01*
X0045498Y0017441D01*
X0045739Y0017200D01*
X0049677Y0017200D01*
X0049759Y0017282D01*
X0050540Y0017126D01*
X0050795Y0017296D01*
X0050892Y0017200D01*
X0051886Y0017200D01*
X0052309Y0017624D01*
X0052733Y0017200D01*
X0055570Y0017200D01*
X0055628Y0017257D01*
X0055685Y0017200D01*
X0057413Y0017200D01*
X0058147Y0017200D01*
X0058850Y0017903D01*
X0058850Y0020365D01*
X0058147Y0021068D01*
X0056052Y0021068D01*
X0055811Y0020827D01*
X0055570Y0021068D01*
X0053842Y0021068D01*
X0053785Y0021010D01*
X0053727Y0021068D01*
X0052589Y0021068D01*
X0052589Y0021099D01*
X0051886Y0021802D01*
X0050892Y0021802D01*
X0050189Y0021099D01*
X0050189Y0021072D01*
X0050065Y0021047D01*
X0050044Y0021068D01*
X0049050Y0021068D01*
X0048813Y0020831D01*
X0048576Y0021068D01*
X0047582Y0021068D01*
X0047525Y0021010D01*
X0047467Y0021068D01*
X0045991Y0021068D01*
X0045257Y0021802D01*
X0043529Y0021802D01*
X0043162Y0021435D01*
X0042795Y0021068D01*
X0041319Y0021068D01*
X0041079Y0020827D01*
X0040838Y0021068D01*
X0039110Y0021068D01*
X0039052Y0021010D01*
X0038995Y0021068D01*
X0037856Y0021068D01*
X0037856Y0021099D01*
X0037153Y0021802D01*
X0036159Y0021802D01*
X0037435Y0021520D02*
X0043248Y0021520D01*
X0043162Y0021435D02*
X0043162Y0021435D01*
X0045539Y0021520D02*
X0050610Y0021520D01*
X0052167Y0021520D02*
X0058517Y0021520D01*
X0058693Y0020522D02*
X0059516Y0020522D01*
X0058850Y0019523D02*
X0060514Y0019523D01*
X0061513Y0018525D02*
X0058850Y0018525D01*
X0058473Y0017526D02*
X0062511Y0017526D01*
X0063510Y0016528D02*
X0058671Y0016528D01*
X0058397Y0016802D02*
X0057403Y0016802D01*
X0055935Y0016802D01*
X0055878Y0016744D01*
X0055820Y0016802D01*
X0054092Y0016802D01*
X0054035Y0016744D01*
X0053977Y0016802D01*
X0051882Y0016802D01*
X0051641Y0016561D01*
X0051400Y0016802D01*
X0049672Y0016802D01*
X0049431Y0016561D01*
X0049191Y0016802D01*
X0047462Y0016802D01*
X0047222Y0016561D01*
X0046981Y0016802D01*
X0045253Y0016802D01*
X0045195Y0016744D01*
X0045138Y0016802D01*
X0042676Y0016802D01*
X0041973Y0016099D01*
X0041973Y0015105D01*
X0042026Y0015051D01*
X0041973Y0014998D01*
X0041973Y0013270D01*
X0042340Y0012903D01*
X0043043Y0012200D01*
X0044771Y0012200D01*
X0045012Y0012441D01*
X0045253Y0012200D01*
X0046981Y0012200D01*
X0047038Y0012257D01*
X0047096Y0012200D01*
X0049558Y0012200D01*
X0049615Y0012257D01*
X0049672Y0012200D01*
X0051400Y0012200D01*
X0051767Y0012567D01*
X0052134Y0012934D01*
X0052280Y0012934D01*
X0052280Y0012903D01*
X0052983Y0012200D01*
X0053977Y0012200D01*
X0054035Y0012257D01*
X0054092Y0012200D01*
X0055820Y0012200D01*
X0055878Y0012257D01*
X0055935Y0012200D01*
X0058397Y0012200D01*
X0059100Y0012903D01*
X0059100Y0016099D01*
X0058397Y0016802D01*
X0059100Y0015529D02*
X0064508Y0015529D01*
X0065507Y0014531D02*
X0059100Y0014531D01*
X0059100Y0013532D02*
X0073564Y0013532D01*
X0075970Y0012534D02*
X0058731Y0012534D01*
X0059438Y0010537D02*
X0054562Y0010537D01*
X0055560Y0009538D02*
X0058440Y0009538D01*
X0057900Y0008540D02*
X0056100Y0008540D01*
X0056100Y0007541D02*
X0057900Y0007541D01*
X0057900Y0006543D02*
X0056100Y0006543D01*
X0056042Y0005544D02*
X0057958Y0005544D01*
X0058956Y0004546D02*
X0055044Y0004546D01*
X0054045Y0003547D02*
X0059955Y0003547D01*
X0064045Y0003547D02*
X0069955Y0003547D01*
X0068956Y0004546D02*
X0065044Y0004546D01*
X0066042Y0005544D02*
X0067958Y0005544D01*
X0067900Y0006543D02*
X0066100Y0006543D01*
X0066100Y0007541D02*
X0067900Y0007541D01*
X0067900Y0008540D02*
X0066100Y0008540D01*
X0065560Y0009538D02*
X0068440Y0009538D01*
X0069438Y0010537D02*
X0064562Y0010537D01*
X0074562Y0010537D02*
X0079438Y0010537D01*
X0078440Y0009538D02*
X0075560Y0009538D01*
X0076100Y0008540D02*
X0077900Y0008540D01*
X0077900Y0007541D02*
X0076100Y0007541D01*
X0076100Y0006543D02*
X0077900Y0006543D01*
X0077958Y0005544D02*
X0076042Y0005544D01*
X0075044Y0004546D02*
X0078956Y0004546D01*
X0079955Y0003547D02*
X0074045Y0003547D01*
X0084045Y0003547D02*
X0089955Y0003547D01*
X0088956Y0004546D02*
X0085044Y0004546D01*
X0086042Y0005544D02*
X0087958Y0005544D01*
X0087900Y0006543D02*
X0086100Y0006543D01*
X0086100Y0007541D02*
X0087900Y0007541D01*
X0087900Y0008540D02*
X0086100Y0008540D01*
X0085560Y0009538D02*
X0088440Y0009538D01*
X0089438Y0010537D02*
X0084562Y0010537D01*
X0080030Y0012534D02*
X0118931Y0012534D01*
X0118931Y0013532D02*
X0114700Y0013532D01*
X0114618Y0013450D02*
X0115350Y0014182D01*
X0115350Y0018120D01*
X0114618Y0018852D01*
X0112131Y0018852D01*
X0111647Y0018369D01*
X0111164Y0017885D01*
X0110664Y0017885D01*
X0110152Y0017885D01*
X0110152Y0017885D01*
X0109184Y0017885D01*
X0108957Y0017657D01*
X0108303Y0017985D01*
X0107320Y0017657D01*
X0107239Y0017495D01*
X0107158Y0017657D01*
X0106176Y0017985D01*
X0105250Y0017521D01*
X0104922Y0016539D01*
X0106082Y0014220D01*
X0106217Y0013814D01*
X0106308Y0013768D01*
X0106353Y0013678D01*
X0106760Y0013542D01*
X0107144Y0013350D01*
X0107239Y0013382D01*
X0107335Y0013350D01*
X0107719Y0013542D01*
X0108126Y0013678D01*
X0108171Y0013768D01*
X0108262Y0013814D01*
X0108397Y0014220D01*
X0108452Y0014330D01*
X0108452Y0014182D01*
X0109184Y0013450D01*
X0111188Y0013450D01*
X0111417Y0013680D01*
X0111647Y0013450D01*
X0112683Y0013450D01*
X0113133Y0013900D01*
X0113582Y0013450D01*
X0114618Y0013450D01*
X0113500Y0013532D02*
X0112765Y0013532D01*
X0111565Y0013532D02*
X0111270Y0013532D01*
X0109102Y0013532D02*
X0107699Y0013532D01*
X0106780Y0013532D02*
X0102914Y0013532D01*
X0102832Y0013450D02*
X0103564Y0014182D01*
X0103564Y0015218D01*
X0103114Y0015667D01*
X0103564Y0016117D01*
X0103564Y0017153D01*
X0102596Y0018120D01*
X0101864Y0018852D01*
X0100829Y0018852D01*
X0100096Y0018120D01*
X0100096Y0016222D01*
X0099885Y0016434D01*
X0099144Y0016434D01*
X0099144Y0017113D01*
X0099144Y0017636D01*
X0099144Y0017636D01*
X0099144Y0017636D01*
X0098660Y0018120D01*
X0098660Y0018120D01*
X0097928Y0018852D01*
X0097405Y0018852D01*
X0096893Y0018852D01*
X0095925Y0018852D01*
X0095441Y0018369D01*
X0094752Y0017679D01*
X0094709Y0017636D01*
X0094709Y0015701D01*
X0094709Y0015178D01*
X0094709Y0014666D01*
X0094709Y0014666D01*
X0094718Y0014657D01*
X0095441Y0013934D01*
X0095441Y0013934D01*
X0095925Y0013450D01*
X0095925Y0013450D01*
X0095925Y0013450D01*
X0096438Y0013450D01*
X0097928Y0013450D01*
X0098147Y0013669D01*
X0098366Y0013450D01*
X0102832Y0013450D01*
X0103564Y0014531D02*
X0105927Y0014531D01*
X0105427Y0015529D02*
X0103253Y0015529D01*
X0103564Y0016528D02*
X0104928Y0016528D01*
X0105259Y0017526D02*
X0103190Y0017526D01*
X0102596Y0018120D02*
X0102596Y0018120D01*
X0102192Y0018525D02*
X0111803Y0018525D01*
X0114946Y0018525D02*
X0118931Y0018525D01*
X0118931Y0019523D02*
X0077790Y0019523D01*
X0078788Y0018525D02*
X0095597Y0018525D01*
X0096893Y0018852D02*
X0096893Y0018852D01*
X0098256Y0018525D02*
X0100501Y0018525D01*
X0100096Y0017526D02*
X0099144Y0017526D01*
X0099144Y0016528D02*
X0100096Y0016528D01*
X0094709Y0016528D02*
X0079600Y0016528D01*
X0079600Y0017526D02*
X0094709Y0017526D01*
X0094709Y0015701D02*
X0094709Y0015701D01*
X0094709Y0015529D02*
X0080396Y0015529D01*
X0080684Y0014531D02*
X0094844Y0014531D01*
X0095843Y0013532D02*
X0080587Y0013532D01*
X0078000Y0014300D02*
X0078000Y0017050D01*
X0076000Y0019050D01*
X0065750Y0019050D01*
X0057500Y0027300D01*
X0018000Y0027300D01*
X0020750Y0024550D02*
X0048000Y0024550D01*
X0057750Y0024550D01*
X0066250Y0016050D01*
X0074500Y0016050D01*
X0076791Y0020522D02*
X0118931Y0020522D01*
X0118931Y0021520D02*
X0065542Y0021520D01*
X0064544Y0022519D02*
X0118931Y0022519D01*
X0118931Y0023517D02*
X0063545Y0023517D01*
X0062547Y0024516D02*
X0108238Y0024516D01*
X0108664Y0028510D02*
X0085053Y0028510D01*
X0084434Y0029508D02*
X0087372Y0029508D01*
X0085997Y0030507D02*
X0084259Y0030507D01*
X0083591Y0031505D02*
X0085570Y0031505D01*
X0085109Y0032504D02*
X0044500Y0032504D01*
X0045221Y0033502D02*
X0084111Y0033502D01*
X0082003Y0034501D02*
X0045434Y0034501D01*
X0045262Y0035499D02*
X0081426Y0035499D01*
X0081023Y0036498D02*
X0044598Y0036498D01*
X0042750Y0034550D02*
X0031500Y0034550D01*
X0030750Y0034050D01*
X0014250Y0034050D01*
X0011566Y0034501D02*
X0010989Y0034501D01*
X0011571Y0033502D02*
X0009991Y0033502D01*
X0012000Y0032504D02*
X0007964Y0032504D01*
X0009390Y0031505D02*
X0012947Y0031505D01*
X0006036Y0032504D02*
X0002750Y0032504D01*
X0002750Y0031505D02*
X0004610Y0031505D01*
X0003419Y0030507D02*
X0002750Y0030507D01*
X0002750Y0033502D02*
X0004009Y0033502D01*
X0003011Y0034501D02*
X0002750Y0034501D01*
X0011450Y0035499D02*
X0011945Y0035499D01*
X0011800Y0036498D02*
X0013145Y0036498D01*
X0015355Y0036498D02*
X0040902Y0036498D01*
X0041000Y0032504D02*
X0031467Y0032504D01*
X0028199Y0038495D02*
X0073618Y0038495D01*
X0072598Y0039493D02*
X0053633Y0039493D01*
X0054677Y0040492D02*
X0071559Y0040492D01*
X0070521Y0041490D02*
X0055721Y0041490D01*
X0056764Y0042489D02*
X0069482Y0042489D01*
X0068444Y0043487D02*
X0057808Y0043487D01*
X0060732Y0044486D02*
X0067405Y0044486D01*
X0070250Y0049300D02*
X0073250Y0046300D01*
X0075934Y0046483D02*
X0079150Y0046483D01*
X0079150Y0047482D02*
X0075666Y0047482D01*
X0074866Y0048480D02*
X0079150Y0048480D01*
X0080130Y0049479D02*
X0072334Y0049479D01*
X0071336Y0050477D02*
X0081129Y0050477D01*
X0080029Y0053473D02*
X0073971Y0053473D01*
X0074969Y0054471D02*
X0079031Y0054471D01*
X0078032Y0055470D02*
X0075968Y0055470D01*
X0076100Y0056468D02*
X0077900Y0056468D01*
X0077900Y0057467D02*
X0076100Y0057467D01*
X0076100Y0058465D02*
X0077900Y0058465D01*
X0078365Y0059464D02*
X0075635Y0059464D01*
X0074636Y0060462D02*
X0079364Y0060462D01*
X0084636Y0060462D02*
X0089364Y0060462D01*
X0088365Y0059464D02*
X0085635Y0059464D01*
X0086100Y0058465D02*
X0087900Y0058465D01*
X0087900Y0057467D02*
X0086100Y0057467D01*
X0086100Y0056468D02*
X0087900Y0056468D01*
X0088032Y0055470D02*
X0085968Y0055470D01*
X0084969Y0054471D02*
X0089031Y0054471D01*
X0090029Y0053473D02*
X0083971Y0053473D01*
X0070029Y0053473D02*
X0063971Y0053473D01*
X0063698Y0053200D02*
X0066100Y0055602D01*
X0066100Y0058998D01*
X0063698Y0061400D01*
X0060302Y0061400D01*
X0057900Y0058998D01*
X0057900Y0055602D01*
X0060302Y0053200D01*
X0063698Y0053200D01*
X0064969Y0054471D02*
X0069031Y0054471D01*
X0068032Y0055470D02*
X0065968Y0055470D01*
X0066100Y0056468D02*
X0067900Y0056468D01*
X0067900Y0057467D02*
X0066100Y0057467D01*
X0066100Y0058465D02*
X0067900Y0058465D01*
X0068365Y0059464D02*
X0065635Y0059464D01*
X0064636Y0060462D02*
X0069364Y0060462D01*
X0059364Y0060462D02*
X0054636Y0060462D01*
X0055635Y0059464D02*
X0058365Y0059464D01*
X0057900Y0058465D02*
X0056100Y0058465D01*
X0056100Y0057467D02*
X0057900Y0057467D01*
X0057900Y0056468D02*
X0056100Y0056468D01*
X0055968Y0055470D02*
X0058032Y0055470D01*
X0059031Y0054471D02*
X0054969Y0054471D01*
X0053971Y0053473D02*
X0060029Y0053473D01*
X0054250Y0050550D02*
X0037250Y0050550D01*
X0034566Y0050477D02*
X0010611Y0050477D01*
X0009462Y0051476D02*
X0034728Y0051476D01*
X0035378Y0052474D02*
X0002750Y0052474D01*
X0002750Y0053473D02*
X0004039Y0053473D01*
X0003041Y0054471D02*
X0002750Y0054471D01*
X0002750Y0051476D02*
X0004538Y0051476D01*
X0003389Y0050477D02*
X0002750Y0050477D01*
X0009961Y0053473D02*
X0020029Y0053473D01*
X0020302Y0053200D02*
X0023698Y0053200D01*
X0026100Y0055602D01*
X0026100Y0058998D01*
X0023698Y0061400D01*
X0020302Y0061400D01*
X0017900Y0058998D01*
X0017900Y0055602D01*
X0020302Y0053200D01*
X0019031Y0054471D02*
X0010959Y0054471D01*
X0011437Y0055470D02*
X0018032Y0055470D01*
X0017900Y0056468D02*
X0011800Y0056468D01*
X0011800Y0057467D02*
X0017900Y0057467D01*
X0017900Y0058465D02*
X0011713Y0058465D01*
X0011299Y0059464D02*
X0018365Y0059464D01*
X0019364Y0060462D02*
X0010626Y0060462D01*
X0009498Y0061461D02*
X0029466Y0061461D01*
X0030302Y0061400D02*
X0027900Y0058998D01*
X0027900Y0055602D01*
X0030302Y0053200D01*
X0033698Y0053200D01*
X0036100Y0055602D01*
X0036100Y0058998D01*
X0033698Y0061400D01*
X0030302Y0061400D01*
X0029364Y0060462D02*
X0024636Y0060462D01*
X0025635Y0059464D02*
X0028365Y0059464D01*
X0027900Y0058465D02*
X0026100Y0058465D01*
X0026100Y0057467D02*
X0027900Y0057467D01*
X0027900Y0056468D02*
X0026100Y0056468D01*
X0025968Y0055470D02*
X0028032Y0055470D01*
X0029031Y0054471D02*
X0024969Y0054471D01*
X0023971Y0053473D02*
X0030029Y0053473D01*
X0033971Y0053473D02*
X0040029Y0053473D01*
X0040302Y0053200D02*
X0043698Y0053200D01*
X0046100Y0055602D01*
X0046100Y0058998D01*
X0043698Y0061400D01*
X0040302Y0061400D01*
X0037900Y0058998D01*
X0037900Y0055602D01*
X0040302Y0053200D01*
X0039122Y0052474D02*
X0052378Y0052474D01*
X0050029Y0053473D02*
X0043971Y0053473D01*
X0044969Y0054471D02*
X0049031Y0054471D01*
X0048032Y0055470D02*
X0045968Y0055470D01*
X0046100Y0056468D02*
X0047900Y0056468D01*
X0047900Y0057467D02*
X0046100Y0057467D01*
X0046100Y0058465D02*
X0047900Y0058465D01*
X0048365Y0059464D02*
X0045635Y0059464D01*
X0044636Y0060462D02*
X0049364Y0060462D01*
X0039364Y0060462D02*
X0034636Y0060462D01*
X0035635Y0059464D02*
X0038365Y0059464D01*
X0037900Y0058465D02*
X0036100Y0058465D01*
X0036100Y0057467D02*
X0037900Y0057467D01*
X0037900Y0056468D02*
X0036100Y0056468D01*
X0035968Y0055470D02*
X0038032Y0055470D01*
X0039031Y0054471D02*
X0034969Y0054471D01*
X0034788Y0049479D02*
X0011293Y0049479D01*
X0011707Y0048480D02*
X0035524Y0048480D01*
X0038976Y0048480D02*
X0040882Y0048480D01*
X0039883Y0047482D02*
X0011800Y0047482D01*
X0011800Y0046483D02*
X0039400Y0046483D01*
X0039400Y0045484D02*
X0011443Y0045484D01*
X0010974Y0044486D02*
X0039400Y0044486D01*
X0039514Y0043487D02*
X0009976Y0043487D01*
X0009426Y0041490D02*
X0024131Y0041490D01*
X0024643Y0042489D02*
X0002750Y0042489D01*
X0002750Y0041490D02*
X0004574Y0041490D01*
X0003404Y0040492D02*
X0002750Y0040492D01*
X0002750Y0043487D02*
X0004024Y0043487D01*
X0003026Y0044486D02*
X0002750Y0044486D01*
X0010596Y0040492D02*
X0024066Y0040492D01*
X0024386Y0039493D02*
X0011287Y0039493D01*
X0011701Y0038495D02*
X0025301Y0038495D01*
X0011800Y0037496D02*
X0079966Y0037496D01*
X0083386Y0039493D02*
X0103010Y0039493D01*
X0102283Y0040492D02*
X0082329Y0040492D01*
X0081662Y0041490D02*
X0102066Y0041490D01*
X0102234Y0042489D02*
X0080857Y0042489D01*
X0080764Y0043487D02*
X0073926Y0043487D01*
X0075232Y0044486D02*
X0079766Y0044486D01*
X0079150Y0045484D02*
X0075818Y0045484D01*
X0074965Y0042489D02*
X0077643Y0042489D01*
X0085736Y0043487D02*
X0102850Y0043487D01*
X0102850Y0044486D02*
X0086734Y0044486D01*
X0087350Y0045484D02*
X0102850Y0045484D01*
X0107864Y0050477D02*
X0118931Y0050477D01*
X0118931Y0051476D02*
X0108863Y0051476D01*
X0109861Y0052474D02*
X0118931Y0052474D01*
X0118931Y0053473D02*
X0113971Y0053473D01*
X0114969Y0054471D02*
X0118931Y0054471D01*
X0118931Y0055470D02*
X0115968Y0055470D01*
X0116100Y0056468D02*
X0118537Y0056468D01*
X0118128Y0057467D02*
X0116100Y0057467D01*
X0116100Y0058465D02*
X0118128Y0058465D01*
X0118485Y0059464D02*
X0115635Y0059464D01*
X0114636Y0060462D02*
X0118931Y0060462D01*
X0070250Y0049300D02*
X0057750Y0049300D01*
X0053750Y0045300D01*
X0043500Y0045300D01*
X0060500Y0030800D02*
X0066500Y0036800D01*
X0067000Y0036800D01*
X0067000Y0037300D01*
X0058057Y0031505D02*
X0079909Y0031505D01*
X0079241Y0030507D02*
X0059056Y0030507D01*
X0060054Y0029508D02*
X0079066Y0029508D01*
X0080976Y0026513D02*
X0082524Y0026513D01*
X0083523Y0025514D02*
X0061548Y0025514D01*
X0057519Y0022519D02*
X0049765Y0022519D01*
X0046235Y0022519D02*
X0022515Y0022519D01*
X0022727Y0020522D02*
X0010566Y0020522D01*
X0011275Y0019523D02*
X0022570Y0019523D01*
X0022570Y0018525D02*
X0011688Y0018525D01*
X0011800Y0017526D02*
X0022580Y0017526D01*
X0022144Y0016528D02*
X0011800Y0016528D01*
X0011462Y0015529D02*
X0021716Y0015529D01*
X0021716Y0014531D02*
X0011019Y0014531D01*
X0010020Y0013532D02*
X0021716Y0013532D01*
X0022085Y0012534D02*
X0008036Y0012534D01*
X0008218Y0012372D02*
X0007500Y0012486D01*
X0007500Y0007800D01*
X0012186Y0007800D01*
X0012072Y0008518D01*
X0011819Y0009296D01*
X0011447Y0010025D01*
X0010966Y0010688D01*
X0010388Y0011266D01*
X0009725Y0011747D01*
X0008996Y0012119D01*
X0008218Y0012372D01*
X0007500Y0011535D02*
X0006500Y0011535D01*
X0006500Y0010537D02*
X0007500Y0010537D01*
X0010018Y0011535D02*
X0109871Y0011535D01*
X0108873Y0010537D02*
X0104562Y0010537D01*
X0105560Y0009538D02*
X0107874Y0009538D01*
X0107500Y0008540D02*
X0106100Y0008540D01*
X0106100Y0007541D02*
X0111500Y0007541D01*
X0112500Y0007541D02*
X0118931Y0007541D01*
X0118931Y0006543D02*
X0116500Y0006543D01*
X0116500Y0005544D02*
X0118931Y0005544D01*
X0118931Y0004546D02*
X0115609Y0004546D01*
X0114611Y0003547D02*
X0118931Y0003547D01*
X0109389Y0003547D02*
X0104045Y0003547D01*
X0105044Y0004546D02*
X0108391Y0004546D01*
X0107500Y0005544D02*
X0106042Y0005544D01*
X0106100Y0006543D02*
X0107500Y0006543D01*
X0111500Y0008540D02*
X0112500Y0008540D01*
X0112500Y0009538D02*
X0111500Y0009538D01*
X0111500Y0010537D02*
X0112500Y0010537D01*
X0112500Y0011535D02*
X0111500Y0011535D01*
X0114129Y0011535D02*
X0118931Y0011535D01*
X0118931Y0010537D02*
X0115127Y0010537D01*
X0116126Y0009538D02*
X0118931Y0009538D01*
X0118931Y0008540D02*
X0116500Y0008540D01*
X0115350Y0014531D02*
X0118931Y0014531D01*
X0118931Y0015529D02*
X0115350Y0015529D01*
X0115350Y0016528D02*
X0118931Y0016528D01*
X0118931Y0017526D02*
X0115350Y0017526D01*
X0107255Y0017526D02*
X0107224Y0017526D01*
X0098284Y0013532D02*
X0098010Y0013532D01*
X0099438Y0010537D02*
X0094562Y0010537D01*
X0095560Y0009538D02*
X0098440Y0009538D01*
X0097900Y0008540D02*
X0096100Y0008540D01*
X0096100Y0007541D02*
X0097900Y0007541D01*
X0097900Y0006543D02*
X0096100Y0006543D01*
X0096042Y0005544D02*
X0097958Y0005544D01*
X0098956Y0004546D02*
X0095044Y0004546D01*
X0094045Y0003547D02*
X0099955Y0003547D01*
X0085750Y0018800D02*
X0085500Y0018800D01*
X0067250Y0024300D02*
X0067000Y0024300D01*
X0067000Y0024550D01*
X0052407Y0017526D02*
X0052212Y0017526D01*
X0052650Y0012534D02*
X0051734Y0012534D01*
X0049438Y0010537D02*
X0044562Y0010537D01*
X0045560Y0009538D02*
X0048440Y0009538D01*
X0047900Y0008540D02*
X0046100Y0008540D01*
X0046100Y0007541D02*
X0047900Y0007541D01*
X0047900Y0006543D02*
X0046100Y0006543D01*
X0046042Y0005544D02*
X0047958Y0005544D01*
X0048956Y0004546D02*
X0045044Y0004546D01*
X0044045Y0003547D02*
X0049955Y0003547D01*
X0039955Y0003547D02*
X0034045Y0003547D01*
X0035044Y0004546D02*
X0038956Y0004546D01*
X0037958Y0005544D02*
X0036042Y0005544D01*
X0036100Y0006543D02*
X0037900Y0006543D01*
X0037900Y0007541D02*
X0036100Y0007541D01*
X0036100Y0008540D02*
X0037900Y0008540D01*
X0038440Y0009538D02*
X0035560Y0009538D01*
X0034562Y0010537D02*
X0039438Y0010537D01*
X0041052Y0012534D02*
X0042709Y0012534D01*
X0041973Y0013532D02*
X0041421Y0013532D01*
X0041421Y0014531D02*
X0041973Y0014531D01*
X0041973Y0015529D02*
X0041421Y0015529D01*
X0040992Y0016528D02*
X0042402Y0016528D01*
X0037674Y0017526D02*
X0037479Y0017526D01*
X0036506Y0016528D02*
X0035099Y0016528D01*
X0032083Y0016528D02*
X0025063Y0016528D01*
X0025704Y0017526D02*
X0026257Y0017526D01*
X0029966Y0020522D02*
X0030094Y0020522D01*
X0018250Y0017050D02*
X0018250Y0016800D01*
X0017500Y0016800D01*
X0017000Y0017300D01*
X0018250Y0016800D02*
X0018250Y0015800D01*
X0024847Y0012534D02*
X0025394Y0012534D01*
X0024562Y0010537D02*
X0029438Y0010537D01*
X0028440Y0009538D02*
X0025560Y0009538D01*
X0026100Y0008540D02*
X0027900Y0008540D01*
X0027900Y0007541D02*
X0026100Y0007541D01*
X0026100Y0006543D02*
X0027900Y0006543D01*
X0027958Y0005544D02*
X0026042Y0005544D01*
X0025044Y0004546D02*
X0028956Y0004546D01*
X0029955Y0003547D02*
X0024045Y0003547D01*
X0019955Y0003547D02*
X0010601Y0003547D01*
X0011426Y0004546D02*
X0018956Y0004546D01*
X0017958Y0005544D02*
X0011897Y0005544D01*
X0012145Y0006543D02*
X0017900Y0006543D01*
X0017900Y0007541D02*
X0007500Y0007541D01*
X0007500Y0008540D02*
X0006500Y0008540D01*
X0006500Y0009538D02*
X0007500Y0009538D01*
X0011076Y0010537D02*
X0019438Y0010537D01*
X0018440Y0009538D02*
X0011696Y0009538D01*
X0012065Y0008540D02*
X0017900Y0008540D01*
X0005964Y0012534D02*
X0002750Y0012534D01*
X0002750Y0013532D02*
X0003980Y0013532D01*
X0002981Y0014531D02*
X0002750Y0014531D01*
X0002750Y0011535D02*
X0003982Y0011535D01*
X0002924Y0010537D02*
X0002750Y0010537D01*
D18*
X0020750Y0024550D03*
X0018000Y0027300D03*
X0015250Y0030050D03*
X0014250Y0034050D03*
X0026750Y0036800D03*
X0026750Y0040800D03*
X0042750Y0034550D03*
X0060500Y0030800D03*
X0073500Y0030800D03*
X0081750Y0029550D03*
X0088250Y0032050D03*
X0084000Y0036300D03*
X0079250Y0040300D03*
X0073250Y0046300D03*
X0059000Y0046550D03*
X0054250Y0050550D03*
X0037250Y0050550D03*
X0021000Y0049550D03*
X0067000Y0037300D03*
X0089500Y0048550D03*
X0101500Y0048550D03*
X0104750Y0041550D03*
X0101750Y0036800D03*
X0120000Y0035050D03*
X0110250Y0026300D03*
X0105000Y0023050D03*
X0120000Y0025050D03*
X0120000Y0015050D03*
X0120000Y0005050D03*
X0085500Y0018800D03*
X0078000Y0014300D03*
X0074500Y0016050D03*
X0067000Y0024550D03*
X0048000Y0024550D03*
X0120000Y0045050D03*
D19*
X0105250Y0023050D02*
X0105000Y0023050D01*
D20*
X0119750Y0004300D02*
X0119750Y0060050D01*
D21*
X0018250Y0015800D03*
D22*
X0021000Y0048800D02*
X0021000Y0049550D01*
D23*
X0026750Y0040800D02*
X0052250Y0040800D01*
X0058000Y0046300D01*
X0058250Y0046550D01*
X0059000Y0046550D01*
X0068000Y0046550D01*
X0074500Y0040300D01*
X0079250Y0040300D01*
X0079500Y0040550D01*
X0084000Y0036300D01*
X0088250Y0032050D01*
X0104750Y0041550D02*
X0104750Y0050050D01*
X0112000Y0057300D01*
M02*
