G75*
%MOIN*%
%OFA0B0*%
%FSLAX25Y25*%
%IPPOS*%
%LPD*%
%AMOC8*
5,1,8,0,0,1.08239X$1,22.5*
%
%ADD10C,0.00000*%
%ADD11C,0.00875*%
%ADD12C,0.00728*%
%ADD13C,0.00492*%
%ADD14R,0.01969X0.01969*%
%ADD15R,0.01969X0.03543*%
%ADD16R,0.02953X0.03346*%
%ADD17C,0.00200*%
D10*
X0001250Y0002383D02*
X0001250Y0063593D01*
X0142451Y0063343D01*
X0142451Y0002383D01*
X0001250Y0002383D01*
D11*
X0022187Y0018320D02*
X0024813Y0018320D01*
X0022187Y0018320D02*
X0022187Y0022446D01*
X0024813Y0022446D01*
X0024813Y0018320D01*
X0024813Y0019194D02*
X0022187Y0019194D01*
X0022187Y0020068D02*
X0024813Y0020068D01*
X0024813Y0020942D02*
X0022187Y0020942D01*
X0022187Y0021816D02*
X0024813Y0021816D01*
X0029187Y0018320D02*
X0031813Y0018320D01*
X0029187Y0018320D02*
X0029187Y0022446D01*
X0031813Y0022446D01*
X0031813Y0018320D01*
X0031813Y0019194D02*
X0029187Y0019194D01*
X0029187Y0020068D02*
X0031813Y0020068D01*
X0031813Y0020942D02*
X0029187Y0020942D01*
X0029187Y0021816D02*
X0031813Y0021816D01*
X0034687Y0018320D02*
X0037313Y0018320D01*
X0034687Y0018320D02*
X0034687Y0022446D01*
X0037313Y0022446D01*
X0037313Y0018320D01*
X0037313Y0019194D02*
X0034687Y0019194D01*
X0034687Y0020068D02*
X0037313Y0020068D01*
X0037313Y0020942D02*
X0034687Y0020942D01*
X0034687Y0021816D02*
X0037313Y0021816D01*
X0041687Y0018320D02*
X0044313Y0018320D01*
X0041687Y0018320D02*
X0041687Y0022446D01*
X0044313Y0022446D01*
X0044313Y0018320D01*
X0044313Y0019194D02*
X0041687Y0019194D01*
X0041687Y0020068D02*
X0044313Y0020068D01*
X0044313Y0020942D02*
X0041687Y0020942D01*
X0041687Y0021816D02*
X0044313Y0021816D01*
X0043063Y0025070D02*
X0040437Y0025070D01*
X0040437Y0027696D01*
X0043063Y0027696D01*
X0043063Y0025070D01*
X0043063Y0025944D02*
X0040437Y0025944D01*
X0040437Y0026818D02*
X0043063Y0026818D01*
X0043063Y0027692D02*
X0040437Y0027692D01*
X0037063Y0025070D02*
X0034437Y0025070D01*
X0034437Y0027696D01*
X0037063Y0027696D01*
X0037063Y0025070D01*
X0037063Y0025944D02*
X0034437Y0025944D01*
X0034437Y0026818D02*
X0037063Y0026818D01*
X0037063Y0027692D02*
X0034437Y0027692D01*
X0032063Y0027696D02*
X0029437Y0027696D01*
X0032063Y0027696D02*
X0032063Y0025070D01*
X0029437Y0025070D01*
X0029437Y0027696D01*
X0029437Y0025944D02*
X0032063Y0025944D01*
X0032063Y0026818D02*
X0029437Y0026818D01*
X0029437Y0027692D02*
X0032063Y0027692D01*
X0026063Y0027696D02*
X0023437Y0027696D01*
X0026063Y0027696D02*
X0026063Y0025070D01*
X0023437Y0025070D01*
X0023437Y0027696D01*
X0023437Y0025944D02*
X0026063Y0025944D01*
X0026063Y0026818D02*
X0023437Y0026818D01*
X0023437Y0027692D02*
X0026063Y0027692D01*
X0030187Y0035946D02*
X0032813Y0035946D01*
X0032813Y0033320D01*
X0030187Y0033320D01*
X0030187Y0035946D01*
X0030187Y0034194D02*
X0032813Y0034194D01*
X0032813Y0035068D02*
X0030187Y0035068D01*
X0030187Y0035942D02*
X0032813Y0035942D01*
X0036187Y0035946D02*
X0038813Y0035946D01*
X0038813Y0033320D01*
X0036187Y0033320D01*
X0036187Y0035946D01*
X0036187Y0034194D02*
X0038813Y0034194D01*
X0038813Y0035068D02*
X0036187Y0035068D01*
X0036187Y0035942D02*
X0038813Y0035942D01*
X0038813Y0038320D02*
X0036187Y0038320D01*
X0036187Y0040946D01*
X0038813Y0040946D01*
X0038813Y0038320D01*
X0038813Y0039194D02*
X0036187Y0039194D01*
X0036187Y0040068D02*
X0038813Y0040068D01*
X0038813Y0040942D02*
X0036187Y0040942D01*
X0032813Y0038320D02*
X0030187Y0038320D01*
X0030187Y0040946D01*
X0032813Y0040946D01*
X0032813Y0038320D01*
X0032813Y0039194D02*
X0030187Y0039194D01*
X0030187Y0040068D02*
X0032813Y0040068D01*
X0032813Y0040942D02*
X0030187Y0040942D01*
X0030187Y0046196D02*
X0032813Y0046196D01*
X0032813Y0043570D01*
X0030187Y0043570D01*
X0030187Y0046196D01*
X0030187Y0044444D02*
X0032813Y0044444D01*
X0032813Y0045318D02*
X0030187Y0045318D01*
X0030187Y0046192D02*
X0032813Y0046192D01*
X0036187Y0046196D02*
X0038813Y0046196D01*
X0038813Y0043570D01*
X0036187Y0043570D01*
X0036187Y0046196D01*
X0036187Y0044444D02*
X0038813Y0044444D01*
X0038813Y0045318D02*
X0036187Y0045318D01*
X0036187Y0046192D02*
X0038813Y0046192D01*
X0038813Y0051196D02*
X0036187Y0051196D01*
X0038813Y0051196D02*
X0038813Y0048570D01*
X0036187Y0048570D01*
X0036187Y0051196D01*
X0036187Y0049444D02*
X0038813Y0049444D01*
X0038813Y0050318D02*
X0036187Y0050318D01*
X0036187Y0051192D02*
X0038813Y0051192D01*
X0032813Y0051196D02*
X0030187Y0051196D01*
X0032813Y0051196D02*
X0032813Y0048570D01*
X0030187Y0048570D01*
X0030187Y0051196D01*
X0030187Y0049444D02*
X0032813Y0049444D01*
X0032813Y0050318D02*
X0030187Y0050318D01*
X0030187Y0051192D02*
X0032813Y0051192D01*
X0022813Y0046446D02*
X0022813Y0043820D01*
X0020187Y0043820D01*
X0020187Y0046446D01*
X0022813Y0046446D01*
X0022813Y0044694D02*
X0020187Y0044694D01*
X0020187Y0045568D02*
X0022813Y0045568D01*
X0022813Y0046442D02*
X0020187Y0046442D01*
X0022813Y0040446D02*
X0022813Y0037820D01*
X0020187Y0037820D01*
X0020187Y0040446D01*
X0022813Y0040446D01*
X0022813Y0038694D02*
X0020187Y0038694D01*
X0020187Y0039568D02*
X0022813Y0039568D01*
X0022813Y0040442D02*
X0020187Y0040442D01*
X0090937Y0041696D02*
X0093563Y0041696D01*
X0093563Y0039070D01*
X0090937Y0039070D01*
X0090937Y0041696D01*
X0090937Y0039944D02*
X0093563Y0039944D01*
X0093563Y0040818D02*
X0090937Y0040818D01*
X0090937Y0041692D02*
X0093563Y0041692D01*
X0096937Y0041696D02*
X0099563Y0041696D01*
X0099563Y0039070D01*
X0096937Y0039070D01*
X0096937Y0041696D01*
X0096937Y0039944D02*
X0099563Y0039944D01*
X0099563Y0040818D02*
X0096937Y0040818D01*
X0096937Y0041692D02*
X0099563Y0041692D01*
X0107437Y0040946D02*
X0110063Y0040946D01*
X0110063Y0038320D01*
X0107437Y0038320D01*
X0107437Y0040946D01*
X0107437Y0039194D02*
X0110063Y0039194D01*
X0110063Y0040068D02*
X0107437Y0040068D01*
X0107437Y0040942D02*
X0110063Y0040942D01*
X0113437Y0040946D02*
X0116063Y0040946D01*
X0116063Y0038320D01*
X0113437Y0038320D01*
X0113437Y0040946D01*
X0113437Y0039194D02*
X0116063Y0039194D01*
X0116063Y0040068D02*
X0113437Y0040068D01*
X0113437Y0040942D02*
X0116063Y0040942D01*
X0116063Y0047196D02*
X0113437Y0047196D01*
X0116063Y0047196D02*
X0116063Y0044570D01*
X0113437Y0044570D01*
X0113437Y0047196D01*
X0113437Y0045444D02*
X0116063Y0045444D01*
X0116063Y0046318D02*
X0113437Y0046318D01*
X0113437Y0047192D02*
X0116063Y0047192D01*
X0110063Y0047196D02*
X0107437Y0047196D01*
X0110063Y0047196D02*
X0110063Y0044570D01*
X0107437Y0044570D01*
X0107437Y0047196D01*
X0107437Y0045444D02*
X0110063Y0045444D01*
X0110063Y0046318D02*
X0107437Y0046318D01*
X0107437Y0047192D02*
X0110063Y0047192D01*
X0099636Y0033247D02*
X0097010Y0033247D01*
X0097010Y0035873D01*
X0099636Y0035873D01*
X0099636Y0033247D01*
X0099636Y0034121D02*
X0097010Y0034121D01*
X0097010Y0034995D02*
X0099636Y0034995D01*
X0099636Y0035869D02*
X0097010Y0035869D01*
X0093636Y0033247D02*
X0091010Y0033247D01*
X0091010Y0035873D01*
X0093636Y0035873D01*
X0093636Y0033247D01*
X0093636Y0034121D02*
X0091010Y0034121D01*
X0091010Y0034995D02*
X0093636Y0034995D01*
X0093636Y0035869D02*
X0091010Y0035869D01*
X0107437Y0032320D02*
X0110063Y0032320D01*
X0107437Y0032320D02*
X0107437Y0034946D01*
X0110063Y0034946D01*
X0110063Y0032320D01*
X0110063Y0033194D02*
X0107437Y0033194D01*
X0107437Y0034068D02*
X0110063Y0034068D01*
X0110063Y0034942D02*
X0107437Y0034942D01*
X0113437Y0032320D02*
X0116063Y0032320D01*
X0113437Y0032320D02*
X0113437Y0034946D01*
X0116063Y0034946D01*
X0116063Y0032320D01*
X0116063Y0033194D02*
X0113437Y0033194D01*
X0113437Y0034068D02*
X0116063Y0034068D01*
X0116063Y0034942D02*
X0113437Y0034942D01*
X0106417Y0028385D02*
X0103791Y0028385D01*
X0106417Y0028385D02*
X0106417Y0025759D01*
X0103791Y0025759D01*
X0103791Y0028385D01*
X0103791Y0026633D02*
X0106417Y0026633D01*
X0106417Y0027507D02*
X0103791Y0027507D01*
X0103791Y0028381D02*
X0106417Y0028381D01*
X0100417Y0028385D02*
X0097791Y0028385D01*
X0100417Y0028385D02*
X0100417Y0025759D01*
X0097791Y0025759D01*
X0097791Y0028385D01*
X0097791Y0026633D02*
X0100417Y0026633D01*
X0100417Y0027507D02*
X0097791Y0027507D01*
X0097791Y0028381D02*
X0100417Y0028381D01*
X0100313Y0021524D02*
X0097687Y0021524D01*
X0100313Y0021524D02*
X0100313Y0018898D01*
X0097687Y0018898D01*
X0097687Y0021524D01*
X0097687Y0019772D02*
X0100313Y0019772D01*
X0100313Y0020646D02*
X0097687Y0020646D01*
X0097687Y0021520D02*
X0100313Y0021520D01*
X0103687Y0021524D02*
X0106313Y0021524D01*
X0106313Y0018898D01*
X0103687Y0018898D01*
X0103687Y0021524D01*
X0103687Y0019772D02*
X0106313Y0019772D01*
X0106313Y0020646D02*
X0103687Y0020646D01*
X0103687Y0021520D02*
X0106313Y0021520D01*
D12*
X0076784Y0031383D02*
X0067000Y0041167D01*
X0076784Y0031383D02*
X0067000Y0021599D01*
X0057216Y0031383D01*
X0067000Y0041167D01*
X0067727Y0022326D02*
X0066273Y0022326D01*
X0065546Y0023053D02*
X0068454Y0023053D01*
X0069181Y0023780D02*
X0064819Y0023780D01*
X0064092Y0024507D02*
X0069908Y0024507D01*
X0070635Y0025234D02*
X0063365Y0025234D01*
X0062638Y0025961D02*
X0071362Y0025961D01*
X0072089Y0026688D02*
X0061911Y0026688D01*
X0061184Y0027415D02*
X0072816Y0027415D01*
X0073543Y0028142D02*
X0060457Y0028142D01*
X0059730Y0028869D02*
X0074270Y0028869D01*
X0074997Y0029596D02*
X0059003Y0029596D01*
X0058276Y0030323D02*
X0075724Y0030323D01*
X0076451Y0031050D02*
X0057549Y0031050D01*
X0057610Y0031777D02*
X0076390Y0031777D01*
X0075663Y0032504D02*
X0058337Y0032504D01*
X0059064Y0033231D02*
X0074936Y0033231D01*
X0074209Y0033958D02*
X0059791Y0033958D01*
X0060518Y0034685D02*
X0073482Y0034685D01*
X0072755Y0035412D02*
X0061245Y0035412D01*
X0061972Y0036139D02*
X0072028Y0036139D01*
X0071301Y0036866D02*
X0062699Y0036866D01*
X0063426Y0037593D02*
X0070574Y0037593D01*
X0069847Y0038320D02*
X0064153Y0038320D01*
X0064880Y0039047D02*
X0069120Y0039047D01*
X0068393Y0039774D02*
X0065607Y0039774D01*
X0066334Y0040501D02*
X0067666Y0040501D01*
D13*
X0069854Y0041267D02*
X0072288Y0043701D01*
X0072636Y0043353D01*
X0070202Y0040919D01*
X0069854Y0041267D01*
X0069997Y0041410D02*
X0070693Y0041410D01*
X0070488Y0041901D02*
X0071184Y0041901D01*
X0070979Y0042392D02*
X0071675Y0042392D01*
X0071470Y0042883D02*
X0072166Y0042883D01*
X0071961Y0043374D02*
X0072615Y0043374D01*
X0070896Y0045092D02*
X0068462Y0042658D01*
X0070896Y0045092D02*
X0071244Y0044744D01*
X0068810Y0042310D01*
X0068462Y0042658D01*
X0068605Y0042801D02*
X0069301Y0042801D01*
X0069096Y0043292D02*
X0069792Y0043292D01*
X0069587Y0043783D02*
X0070283Y0043783D01*
X0070078Y0044274D02*
X0070774Y0044274D01*
X0070569Y0044765D02*
X0071223Y0044765D01*
X0065190Y0042310D02*
X0062756Y0044744D01*
X0063104Y0045092D01*
X0065538Y0042658D01*
X0065190Y0042310D01*
X0065395Y0042801D02*
X0064699Y0042801D01*
X0064904Y0043292D02*
X0064208Y0043292D01*
X0064413Y0043783D02*
X0063717Y0043783D01*
X0063922Y0044274D02*
X0063226Y0044274D01*
X0063431Y0044765D02*
X0062777Y0044765D01*
X0061433Y0043422D02*
X0063867Y0040988D01*
X0061433Y0043422D02*
X0061781Y0043770D01*
X0064215Y0041336D01*
X0063867Y0040988D01*
X0064072Y0041479D02*
X0063376Y0041479D01*
X0063581Y0041970D02*
X0062885Y0041970D01*
X0063090Y0042461D02*
X0062394Y0042461D01*
X0062599Y0042952D02*
X0061903Y0042952D01*
X0062108Y0043443D02*
X0061454Y0043443D01*
X0060111Y0042100D02*
X0062545Y0039666D01*
X0060111Y0042100D02*
X0060459Y0042448D01*
X0062893Y0040014D01*
X0062545Y0039666D01*
X0062750Y0040157D02*
X0062054Y0040157D01*
X0062259Y0040648D02*
X0061563Y0040648D01*
X0061768Y0041139D02*
X0061072Y0041139D01*
X0061277Y0041630D02*
X0060581Y0041630D01*
X0060786Y0042121D02*
X0060132Y0042121D01*
X0058719Y0040708D02*
X0061153Y0038274D01*
X0058719Y0040708D02*
X0059067Y0041056D01*
X0061501Y0038622D01*
X0061153Y0038274D01*
X0061358Y0038765D02*
X0060662Y0038765D01*
X0060867Y0039256D02*
X0060171Y0039256D01*
X0060376Y0039747D02*
X0059680Y0039747D01*
X0059885Y0040238D02*
X0059189Y0040238D01*
X0059394Y0040729D02*
X0058740Y0040729D01*
X0057327Y0039316D02*
X0059761Y0036882D01*
X0057327Y0039316D02*
X0057675Y0039664D01*
X0060109Y0037230D01*
X0059761Y0036882D01*
X0059966Y0037373D02*
X0059270Y0037373D01*
X0059475Y0037864D02*
X0058779Y0037864D01*
X0058984Y0038355D02*
X0058288Y0038355D01*
X0058493Y0038846D02*
X0057797Y0038846D01*
X0058002Y0039337D02*
X0057348Y0039337D01*
X0056005Y0037994D02*
X0058439Y0035560D01*
X0056005Y0037994D02*
X0056353Y0038342D01*
X0058787Y0035908D01*
X0058439Y0035560D01*
X0058644Y0036051D02*
X0057948Y0036051D01*
X0058153Y0036542D02*
X0057457Y0036542D01*
X0057662Y0037033D02*
X0056966Y0037033D01*
X0057171Y0037524D02*
X0056475Y0037524D01*
X0056680Y0038015D02*
X0056026Y0038015D01*
X0054613Y0036602D02*
X0057047Y0034168D01*
X0054613Y0036602D02*
X0054961Y0036950D01*
X0057395Y0034516D01*
X0057047Y0034168D01*
X0057252Y0034659D02*
X0056556Y0034659D01*
X0056761Y0035150D02*
X0056065Y0035150D01*
X0056270Y0035641D02*
X0055574Y0035641D01*
X0055779Y0036132D02*
X0055083Y0036132D01*
X0055288Y0036623D02*
X0054634Y0036623D01*
X0053290Y0035279D02*
X0055724Y0032845D01*
X0053290Y0035279D02*
X0053638Y0035627D01*
X0056072Y0033193D01*
X0055724Y0032845D01*
X0055929Y0033336D02*
X0055233Y0033336D01*
X0055438Y0033827D02*
X0054742Y0033827D01*
X0054947Y0034318D02*
X0054251Y0034318D01*
X0054456Y0034809D02*
X0053760Y0034809D01*
X0053965Y0035300D02*
X0053311Y0035300D01*
X0056072Y0029572D02*
X0053638Y0027138D01*
X0053290Y0027486D01*
X0055724Y0029920D01*
X0056072Y0029572D01*
X0054129Y0027629D02*
X0053433Y0027629D01*
X0053924Y0028120D02*
X0054620Y0028120D01*
X0054415Y0028611D02*
X0055111Y0028611D01*
X0054906Y0029102D02*
X0055602Y0029102D01*
X0055397Y0029593D02*
X0056051Y0029593D01*
X0057395Y0028250D02*
X0054961Y0025816D01*
X0054613Y0026164D01*
X0057047Y0028598D01*
X0057395Y0028250D01*
X0055452Y0026307D02*
X0054756Y0026307D01*
X0055247Y0026798D02*
X0055943Y0026798D01*
X0055738Y0027289D02*
X0056434Y0027289D01*
X0056229Y0027780D02*
X0056925Y0027780D01*
X0056720Y0028271D02*
X0057374Y0028271D01*
X0058717Y0026928D02*
X0056283Y0024494D01*
X0055935Y0024842D01*
X0058369Y0027276D01*
X0058717Y0026928D01*
X0056774Y0024985D02*
X0056078Y0024985D01*
X0056569Y0025476D02*
X0057265Y0025476D01*
X0057060Y0025967D02*
X0057756Y0025967D01*
X0057551Y0026458D02*
X0058247Y0026458D01*
X0058042Y0026949D02*
X0058696Y0026949D01*
X0060109Y0025536D02*
X0057675Y0023102D01*
X0057327Y0023450D01*
X0059761Y0025884D01*
X0060109Y0025536D01*
X0058166Y0023593D02*
X0057470Y0023593D01*
X0057961Y0024084D02*
X0058657Y0024084D01*
X0058452Y0024575D02*
X0059148Y0024575D01*
X0058943Y0025066D02*
X0059639Y0025066D01*
X0059434Y0025557D02*
X0060088Y0025557D01*
X0061501Y0024144D02*
X0059067Y0021710D01*
X0058719Y0022058D01*
X0061153Y0024492D01*
X0061501Y0024144D01*
X0059558Y0022201D02*
X0058862Y0022201D01*
X0059353Y0022692D02*
X0060049Y0022692D01*
X0059844Y0023183D02*
X0060540Y0023183D01*
X0060335Y0023674D02*
X0061031Y0023674D01*
X0060826Y0024165D02*
X0061480Y0024165D01*
X0062823Y0022821D02*
X0060389Y0020387D01*
X0060041Y0020735D01*
X0062475Y0023169D01*
X0062823Y0022821D01*
X0060880Y0020878D02*
X0060184Y0020878D01*
X0060675Y0021369D02*
X0061371Y0021369D01*
X0061166Y0021860D02*
X0061862Y0021860D01*
X0061657Y0022351D02*
X0062353Y0022351D01*
X0062148Y0022842D02*
X0062802Y0022842D01*
X0064215Y0021429D02*
X0061781Y0018995D01*
X0061433Y0019343D01*
X0063867Y0021777D01*
X0064215Y0021429D01*
X0062272Y0019486D02*
X0061576Y0019486D01*
X0062067Y0019977D02*
X0062763Y0019977D01*
X0062558Y0020468D02*
X0063254Y0020468D01*
X0063049Y0020959D02*
X0063745Y0020959D01*
X0063540Y0021450D02*
X0064194Y0021450D01*
X0065538Y0020107D02*
X0063104Y0017673D01*
X0062756Y0018021D01*
X0065190Y0020455D01*
X0065538Y0020107D01*
X0063595Y0018164D02*
X0062899Y0018164D01*
X0063390Y0018655D02*
X0064086Y0018655D01*
X0063881Y0019146D02*
X0064577Y0019146D01*
X0064372Y0019637D02*
X0065068Y0019637D01*
X0064863Y0020128D02*
X0065517Y0020128D01*
X0068810Y0020455D02*
X0071244Y0018021D01*
X0070896Y0017673D01*
X0068462Y0020107D01*
X0068810Y0020455D01*
X0070405Y0018164D02*
X0071101Y0018164D01*
X0070610Y0018655D02*
X0069914Y0018655D01*
X0070119Y0019146D02*
X0069423Y0019146D01*
X0069628Y0019637D02*
X0068932Y0019637D01*
X0069137Y0020128D02*
X0068483Y0020128D01*
X0070133Y0021777D02*
X0072567Y0019343D01*
X0072219Y0018995D01*
X0069785Y0021429D01*
X0070133Y0021777D01*
X0071728Y0019486D02*
X0072424Y0019486D01*
X0071933Y0019977D02*
X0071237Y0019977D01*
X0071442Y0020468D02*
X0070746Y0020468D01*
X0070951Y0020959D02*
X0070255Y0020959D01*
X0070460Y0021450D02*
X0069806Y0021450D01*
X0071455Y0023100D02*
X0073889Y0020666D01*
X0073541Y0020318D01*
X0071107Y0022752D01*
X0071455Y0023100D01*
X0073050Y0020809D02*
X0073746Y0020809D01*
X0073255Y0021300D02*
X0072559Y0021300D01*
X0072764Y0021791D02*
X0072068Y0021791D01*
X0072273Y0022282D02*
X0071577Y0022282D01*
X0071782Y0022773D02*
X0071128Y0022773D01*
X0072847Y0024492D02*
X0075281Y0022058D01*
X0074933Y0021710D01*
X0072499Y0024144D01*
X0072847Y0024492D01*
X0074442Y0022201D02*
X0075138Y0022201D01*
X0074647Y0022692D02*
X0073951Y0022692D01*
X0074156Y0023183D02*
X0073460Y0023183D01*
X0073665Y0023674D02*
X0072969Y0023674D01*
X0073174Y0024165D02*
X0072520Y0024165D01*
X0074239Y0025884D02*
X0076673Y0023450D01*
X0076325Y0023102D01*
X0073891Y0025536D01*
X0074239Y0025884D01*
X0075834Y0023593D02*
X0076530Y0023593D01*
X0076039Y0024084D02*
X0075343Y0024084D01*
X0075548Y0024575D02*
X0074852Y0024575D01*
X0075057Y0025066D02*
X0074361Y0025066D01*
X0074566Y0025557D02*
X0073912Y0025557D01*
X0075561Y0027206D02*
X0077995Y0024772D01*
X0077647Y0024424D01*
X0075213Y0026858D01*
X0075561Y0027206D01*
X0077156Y0024915D02*
X0077852Y0024915D01*
X0077361Y0025406D02*
X0076665Y0025406D01*
X0076870Y0025897D02*
X0076174Y0025897D01*
X0076379Y0026388D02*
X0075683Y0026388D01*
X0075888Y0026879D02*
X0075234Y0026879D01*
X0076953Y0028598D02*
X0079387Y0026164D01*
X0079039Y0025816D01*
X0076605Y0028250D01*
X0076953Y0028598D01*
X0078548Y0026307D02*
X0079244Y0026307D01*
X0078753Y0026798D02*
X0078057Y0026798D01*
X0078262Y0027289D02*
X0077566Y0027289D01*
X0077771Y0027780D02*
X0077075Y0027780D01*
X0077280Y0028271D02*
X0076626Y0028271D01*
X0078276Y0029920D02*
X0080710Y0027486D01*
X0080362Y0027138D01*
X0077928Y0029572D01*
X0078276Y0029920D01*
X0079871Y0027629D02*
X0080567Y0027629D01*
X0080076Y0028120D02*
X0079380Y0028120D01*
X0079585Y0028611D02*
X0078889Y0028611D01*
X0079094Y0029102D02*
X0078398Y0029102D01*
X0078603Y0029593D02*
X0077949Y0029593D01*
X0077928Y0033193D02*
X0080362Y0035627D01*
X0080710Y0035279D01*
X0078276Y0032845D01*
X0077928Y0033193D01*
X0078071Y0033336D02*
X0078767Y0033336D01*
X0078562Y0033827D02*
X0079258Y0033827D01*
X0079053Y0034318D02*
X0079749Y0034318D01*
X0079544Y0034809D02*
X0080240Y0034809D01*
X0080035Y0035300D02*
X0080689Y0035300D01*
X0079039Y0036950D02*
X0076605Y0034516D01*
X0079039Y0036950D02*
X0079387Y0036602D01*
X0076953Y0034168D01*
X0076605Y0034516D01*
X0076748Y0034659D02*
X0077444Y0034659D01*
X0077239Y0035150D02*
X0077935Y0035150D01*
X0077730Y0035641D02*
X0078426Y0035641D01*
X0078221Y0036132D02*
X0078917Y0036132D01*
X0078712Y0036623D02*
X0079366Y0036623D01*
X0077717Y0038272D02*
X0075283Y0035838D01*
X0077717Y0038272D02*
X0078065Y0037924D01*
X0075631Y0035490D01*
X0075283Y0035838D01*
X0075426Y0035981D02*
X0076122Y0035981D01*
X0075917Y0036472D02*
X0076613Y0036472D01*
X0076408Y0036963D02*
X0077104Y0036963D01*
X0076899Y0037454D02*
X0077595Y0037454D01*
X0077390Y0037945D02*
X0078044Y0037945D01*
X0076325Y0039664D02*
X0073891Y0037230D01*
X0076325Y0039664D02*
X0076673Y0039316D01*
X0074239Y0036882D01*
X0073891Y0037230D01*
X0074034Y0037373D02*
X0074730Y0037373D01*
X0074525Y0037864D02*
X0075221Y0037864D01*
X0075016Y0038355D02*
X0075712Y0038355D01*
X0075507Y0038846D02*
X0076203Y0038846D01*
X0075998Y0039337D02*
X0076652Y0039337D01*
X0074933Y0041056D02*
X0072499Y0038622D01*
X0074933Y0041056D02*
X0075281Y0040708D01*
X0072847Y0038274D01*
X0072499Y0038622D01*
X0072642Y0038765D02*
X0073338Y0038765D01*
X0073133Y0039256D02*
X0073829Y0039256D01*
X0073624Y0039747D02*
X0074320Y0039747D01*
X0074115Y0040238D02*
X0074811Y0040238D01*
X0074606Y0040729D02*
X0075260Y0040729D01*
X0073611Y0042378D02*
X0071177Y0039944D01*
X0073611Y0042378D02*
X0073959Y0042030D01*
X0071525Y0039596D01*
X0071177Y0039944D01*
X0071320Y0040087D02*
X0072016Y0040087D01*
X0071811Y0040578D02*
X0072507Y0040578D01*
X0072302Y0041069D02*
X0072998Y0041069D01*
X0072793Y0041560D02*
X0073489Y0041560D01*
X0073284Y0042051D02*
X0073938Y0042051D01*
D14*
X0121016Y0050737D03*
D15*
X0121016Y0058611D03*
D16*
X0089456Y0025060D03*
X0089456Y0019352D03*
X0093983Y0019352D03*
D17*
X0093590Y0023486D02*
X0095361Y0023486D01*
X0095361Y0026635D01*
X0092605Y0026635D01*
X0092605Y0024470D01*
X0093590Y0023486D01*
X0093503Y0023572D02*
X0095361Y0023572D01*
X0095361Y0023770D02*
X0093305Y0023770D01*
X0093106Y0023969D02*
X0095361Y0023969D01*
X0095361Y0024168D02*
X0092908Y0024168D01*
X0092709Y0024366D02*
X0095361Y0024366D01*
X0095361Y0024565D02*
X0092605Y0024565D01*
X0092605Y0024763D02*
X0095361Y0024763D01*
X0095361Y0024962D02*
X0092605Y0024962D01*
X0092605Y0025160D02*
X0095361Y0025160D01*
X0095361Y0025359D02*
X0092605Y0025359D01*
X0092605Y0025557D02*
X0095361Y0025557D01*
X0095361Y0025756D02*
X0092605Y0025756D01*
X0092605Y0025954D02*
X0095361Y0025954D01*
X0095361Y0026153D02*
X0092605Y0026153D01*
X0092605Y0026351D02*
X0095361Y0026351D01*
X0095361Y0026550D02*
X0092605Y0026550D01*
M02*
