G75*
%MOIN*%
%OFA0B0*%
%FSLAX25Y25*%
%IPPOS*%
%LPD*%
%AMOC8*
5,1,8,0,0,1.08239X$1,22.5*
%
%ADD10C,0.00000*%
%ADD11C,0.00600*%
%ADD12C,0.00400*%
%ADD13R,0.01969X0.59449*%
%ADD14C,0.03575*%
%ADD15C,0.07400*%
%ADD16OC8,0.06000*%
%ADD17C,0.01000*%
%ADD18C,0.02400*%
%ADD19C,0.01200*%
%ADD20C,0.03200*%
%ADD21C,0.01600*%
D10*
X0001250Y0002383D02*
X0001250Y0063593D01*
X0142451Y0063343D01*
X0142451Y0002383D01*
X0001250Y0002383D01*
D11*
X0091424Y0016000D02*
X0091991Y0015433D01*
X0093126Y0015433D01*
X0093693Y0016000D01*
X0091424Y0018269D01*
X0091424Y0016000D01*
X0093693Y0016000D02*
X0093693Y0018269D01*
X0093126Y0018836D01*
X0091991Y0018836D01*
X0091424Y0018269D01*
X0094967Y0016000D02*
X0094967Y0015433D01*
X0095534Y0015433D01*
X0095534Y0016000D01*
X0094967Y0016000D01*
X0096949Y0015433D02*
X0099217Y0015433D01*
X0098083Y0015433D02*
X0098083Y0018836D01*
X0099217Y0017701D01*
X0104315Y0017701D02*
X0105449Y0015433D01*
X0106584Y0017701D01*
X0107998Y0017134D02*
X0107998Y0016567D01*
X0110267Y0016567D01*
X0110267Y0016000D02*
X0110267Y0017134D01*
X0109700Y0017701D01*
X0108565Y0017701D01*
X0107998Y0017134D01*
X0109700Y0015433D02*
X0110267Y0016000D01*
X0109700Y0015433D02*
X0108565Y0015433D01*
X0111681Y0015433D02*
X0112816Y0016567D01*
X0112249Y0016567D02*
X0113950Y0016567D01*
X0113950Y0015433D02*
X0113950Y0018836D01*
X0112249Y0018836D01*
X0111681Y0018269D01*
X0111681Y0017134D01*
X0112249Y0016567D01*
D12*
X0057800Y0016084D02*
X0057800Y0014083D01*
X0056466Y0014083D01*
X0055590Y0014416D02*
X0055257Y0014083D01*
X0054589Y0014083D01*
X0054256Y0014416D01*
X0054256Y0014750D01*
X0054589Y0015084D01*
X0055257Y0015084D01*
X0055590Y0015417D01*
X0055590Y0015751D01*
X0055257Y0016084D01*
X0054589Y0016084D01*
X0054256Y0015751D01*
X0053380Y0016084D02*
X0052379Y0016084D01*
X0052046Y0015751D01*
X0052046Y0015084D01*
X0052379Y0014750D01*
X0053380Y0014750D01*
X0053380Y0014083D02*
X0053380Y0016084D01*
X0051170Y0015751D02*
X0051170Y0015417D01*
X0050837Y0015084D01*
X0050170Y0015084D01*
X0049836Y0014750D01*
X0049836Y0014416D01*
X0050170Y0014083D01*
X0050837Y0014083D01*
X0051170Y0014416D01*
X0051170Y0014750D01*
X0050837Y0015084D01*
X0050170Y0015084D02*
X0049836Y0015417D01*
X0049836Y0015751D01*
X0050170Y0016084D01*
X0050837Y0016084D01*
X0051170Y0015751D01*
X0048960Y0015751D02*
X0048627Y0016084D01*
X0047960Y0016084D01*
X0047626Y0015751D01*
X0047626Y0015417D01*
X0048960Y0014083D01*
X0047626Y0014083D01*
X0046751Y0014416D02*
X0046751Y0014750D01*
X0046417Y0015084D01*
X0045750Y0015084D01*
X0045416Y0014750D01*
X0045416Y0014416D01*
X0045750Y0014083D01*
X0046417Y0014083D01*
X0046751Y0014416D01*
X0046417Y0015084D02*
X0046751Y0015417D01*
X0046751Y0015751D01*
X0046417Y0016084D01*
X0045750Y0016084D01*
X0045416Y0015751D01*
X0045416Y0015417D01*
X0045750Y0015084D01*
X0044541Y0015084D02*
X0043873Y0015417D01*
X0043540Y0015417D01*
X0043206Y0015084D01*
X0043206Y0014416D01*
X0043540Y0014083D01*
X0044207Y0014083D01*
X0044541Y0014416D01*
X0044541Y0015084D02*
X0044541Y0016084D01*
X0043206Y0016084D01*
X0040121Y0016084D02*
X0040121Y0014083D01*
X0038786Y0014083D02*
X0038786Y0016084D01*
X0039454Y0015417D01*
X0040121Y0016084D01*
X0037911Y0015417D02*
X0037577Y0015417D01*
X0037577Y0014083D01*
X0037244Y0014083D02*
X0037911Y0014083D01*
X0036438Y0014083D02*
X0036438Y0015417D01*
X0035437Y0015417D01*
X0035103Y0015084D01*
X0035103Y0014083D01*
X0034228Y0014083D02*
X0033561Y0014083D01*
X0033894Y0014083D02*
X0033894Y0015417D01*
X0034228Y0015417D01*
X0033894Y0016084D02*
X0033894Y0016418D01*
X0032755Y0016084D02*
X0032755Y0014083D01*
X0031754Y0014083D01*
X0031420Y0014416D01*
X0031420Y0015084D01*
X0031754Y0015417D01*
X0032755Y0015417D01*
X0030545Y0015084D02*
X0030545Y0014416D01*
X0030211Y0014083D01*
X0029544Y0014083D01*
X0029210Y0014416D01*
X0029210Y0015084D01*
X0029544Y0015417D01*
X0030211Y0015417D01*
X0030545Y0015084D01*
X0028335Y0014416D02*
X0028001Y0014750D01*
X0027000Y0014750D01*
X0027000Y0015084D02*
X0027000Y0014083D01*
X0028001Y0014083D01*
X0028335Y0014416D01*
X0027334Y0015417D02*
X0027000Y0015084D01*
X0027334Y0015417D02*
X0028001Y0015417D01*
X0026125Y0015417D02*
X0026125Y0014083D01*
X0026125Y0014750D02*
X0025458Y0015417D01*
X0025124Y0015417D01*
X0024283Y0015084D02*
X0023950Y0015417D01*
X0022949Y0015417D01*
X0022949Y0016084D02*
X0022949Y0014083D01*
X0023950Y0014083D01*
X0024283Y0014416D01*
X0024283Y0015084D01*
X0024138Y0018416D02*
X0023804Y0018749D01*
X0023804Y0020417D01*
X0024805Y0020417D01*
X0025138Y0020084D01*
X0025138Y0019416D01*
X0024805Y0019083D01*
X0023804Y0019083D01*
X0024138Y0018416D02*
X0024471Y0018416D01*
X0026980Y0019083D02*
X0026980Y0020417D01*
X0026980Y0019750D02*
X0026313Y0020417D01*
X0025979Y0020417D01*
X0027855Y0020084D02*
X0027855Y0019416D01*
X0028189Y0019083D01*
X0028856Y0019083D01*
X0029190Y0019416D01*
X0029190Y0020084D01*
X0028856Y0020417D01*
X0028189Y0020417D01*
X0027855Y0020084D01*
X0029961Y0019416D02*
X0029961Y0019083D01*
X0030295Y0019083D01*
X0030295Y0019416D01*
X0029961Y0019416D01*
X0031170Y0019416D02*
X0031504Y0019083D01*
X0032505Y0019083D01*
X0032171Y0019750D02*
X0031504Y0019750D01*
X0031170Y0019416D01*
X0031170Y0020417D02*
X0032171Y0020417D01*
X0032505Y0020084D01*
X0032171Y0019750D01*
X0033380Y0019083D02*
X0033380Y0020417D01*
X0034715Y0020417D02*
X0034715Y0019416D01*
X0034381Y0019083D01*
X0033380Y0019083D01*
X0035555Y0019083D02*
X0036556Y0019750D01*
X0035555Y0020417D01*
X0036556Y0021084D02*
X0036556Y0019083D01*
X0037730Y0020417D02*
X0038398Y0019750D01*
X0038398Y0019083D02*
X0038398Y0020417D01*
X0037730Y0020417D02*
X0037397Y0020417D01*
X0039273Y0020084D02*
X0039273Y0019083D01*
X0040274Y0019083D01*
X0040608Y0019416D01*
X0040274Y0019750D01*
X0039273Y0019750D01*
X0039273Y0020084D02*
X0039607Y0020417D01*
X0040274Y0020417D01*
X0041483Y0020084D02*
X0041483Y0019083D01*
X0042150Y0019083D02*
X0042150Y0020084D01*
X0041817Y0020417D01*
X0041483Y0020084D01*
X0042150Y0020084D02*
X0042484Y0020417D01*
X0042817Y0020417D01*
X0042817Y0019083D01*
X0043693Y0019416D02*
X0044026Y0019083D01*
X0044694Y0019083D01*
X0045027Y0019416D01*
X0045027Y0020751D01*
X0044694Y0021084D01*
X0044026Y0021084D01*
X0043693Y0020751D01*
X0043693Y0020084D01*
X0044026Y0019750D01*
X0044026Y0020417D01*
X0044694Y0020417D01*
X0044694Y0019750D01*
X0044026Y0019750D01*
X0045903Y0019416D02*
X0046236Y0019750D01*
X0046904Y0019750D01*
X0047237Y0020084D01*
X0046904Y0020417D01*
X0045903Y0020417D01*
X0045903Y0019416D02*
X0046236Y0019083D01*
X0047237Y0019083D01*
X0048113Y0019083D02*
X0048113Y0020417D01*
X0049447Y0020417D02*
X0049447Y0019416D01*
X0049113Y0019083D01*
X0048113Y0019083D01*
X0050288Y0019083D02*
X0051289Y0019750D01*
X0050288Y0020417D01*
X0051289Y0021084D02*
X0051289Y0019083D01*
X0052129Y0020417D02*
X0052463Y0020417D01*
X0053130Y0019750D01*
X0053130Y0019083D02*
X0053130Y0020417D01*
X0054006Y0020084D02*
X0054006Y0019083D01*
X0055007Y0019083D01*
X0055340Y0019416D01*
X0055007Y0019750D01*
X0054006Y0019750D01*
X0054006Y0020084D02*
X0054339Y0020417D01*
X0055007Y0020417D01*
X0056216Y0020084D02*
X0056216Y0019083D01*
X0056883Y0019083D02*
X0056883Y0020084D01*
X0056549Y0020417D01*
X0056216Y0020084D01*
X0056883Y0020084D02*
X0057216Y0020417D01*
X0057550Y0020417D01*
X0057550Y0019083D01*
X0057800Y0016084D02*
X0056466Y0016084D01*
X0057133Y0015084D02*
X0057800Y0015084D01*
X0037577Y0016084D02*
X0037577Y0016418D01*
D13*
X0121016Y0032627D03*
D14*
X0121016Y0043611D03*
X0121016Y0058611D03*
D15*
X0007000Y0057883D03*
X0007000Y0047883D03*
X0007000Y0037883D03*
X0007000Y0027883D03*
X0007000Y0017883D03*
X0007000Y0007883D03*
D16*
X0022000Y0007883D03*
X0032000Y0007883D03*
X0042000Y0007883D03*
X0052000Y0007883D03*
X0062000Y0007883D03*
X0072000Y0007883D03*
X0082000Y0007883D03*
X0092000Y0007883D03*
X0102000Y0007883D03*
X0112000Y0007883D03*
X0043500Y0045883D03*
X0042000Y0057883D03*
X0032000Y0057883D03*
X0022000Y0057883D03*
X0052000Y0057883D03*
X0062000Y0057883D03*
X0072000Y0057883D03*
X0082000Y0057883D03*
X0092000Y0057883D03*
X0102000Y0057883D03*
X0112000Y0057883D03*
X0083250Y0047383D03*
D17*
X0087350Y0047066D02*
X0102850Y0047066D01*
X0102850Y0046067D02*
X0087350Y0046067D01*
X0087350Y0045684D02*
X0084948Y0043283D01*
X0081552Y0043283D01*
X0079150Y0045684D01*
X0079150Y0049081D01*
X0081552Y0051483D01*
X0084948Y0051483D01*
X0087350Y0049081D01*
X0087350Y0045684D01*
X0086734Y0045069D02*
X0102850Y0045069D01*
X0102850Y0044070D02*
X0085736Y0044070D01*
X0081312Y0042073D02*
X0102450Y0042073D01*
X0102450Y0041180D02*
X0102450Y0043085D01*
X0102850Y0043485D01*
X0102850Y0051420D01*
X0107900Y0056470D01*
X0107900Y0059581D01*
X0110219Y0061900D01*
X0103769Y0061912D01*
X0106100Y0059581D01*
X0106100Y0056184D01*
X0103698Y0053783D01*
X0100302Y0053783D01*
X0097900Y0056184D01*
X0097900Y0059581D01*
X0100237Y0061918D01*
X0093751Y0061930D01*
X0096100Y0059581D01*
X0096100Y0056184D01*
X0093698Y0053783D01*
X0093600Y0053783D01*
X0093600Y0052785D01*
X0094300Y0052085D01*
X0094300Y0050180D01*
X0092953Y0048833D01*
X0091047Y0048833D01*
X0089700Y0050180D01*
X0089700Y0052085D01*
X0090400Y0052785D01*
X0090400Y0053783D01*
X0090302Y0053783D01*
X0087900Y0056184D01*
X0087900Y0059581D01*
X0090255Y0061936D01*
X0083734Y0061947D01*
X0086100Y0059581D01*
X0086100Y0056184D01*
X0083698Y0053783D01*
X0080302Y0053783D01*
X0077900Y0056184D01*
X0077900Y0059581D01*
X0080272Y0061953D01*
X0073716Y0061965D01*
X0076100Y0059581D01*
X0076100Y0056184D01*
X0073698Y0053783D01*
X0070302Y0053783D01*
X0067900Y0056184D01*
X0067900Y0059581D01*
X0070290Y0061971D01*
X0009412Y0062079D01*
X0009719Y0061952D01*
X0011069Y0060602D01*
X0011800Y0058838D01*
X0011800Y0056928D01*
X0011069Y0055164D01*
X0009719Y0053814D01*
X0007955Y0053083D01*
X0006045Y0053083D01*
X0004281Y0053814D01*
X0002931Y0055164D01*
X0002750Y0055600D01*
X0002750Y0050165D01*
X0002931Y0050602D01*
X0004281Y0051952D01*
X0006045Y0052683D01*
X0007955Y0052683D01*
X0009719Y0051952D01*
X0011069Y0050602D01*
X0011800Y0048838D01*
X0011800Y0046928D01*
X0011069Y0045164D01*
X0009719Y0043814D01*
X0007955Y0043083D01*
X0006045Y0043083D01*
X0004281Y0043814D01*
X0002931Y0045164D01*
X0002750Y0045600D01*
X0002750Y0040165D01*
X0002931Y0040602D01*
X0004281Y0041952D01*
X0006045Y0042683D01*
X0007955Y0042683D01*
X0009719Y0041952D01*
X0011069Y0040602D01*
X0011800Y0038838D01*
X0011800Y0036928D01*
X0011069Y0035164D01*
X0009719Y0033814D01*
X0007955Y0033083D01*
X0006045Y0033083D01*
X0004281Y0033814D01*
X0002931Y0035164D01*
X0002750Y0035600D01*
X0002750Y0030165D01*
X0002931Y0030602D01*
X0004281Y0031952D01*
X0006045Y0032683D01*
X0007955Y0032683D01*
X0009719Y0031952D01*
X0011069Y0030602D01*
X0011800Y0028838D01*
X0011800Y0026928D01*
X0011069Y0025164D01*
X0009719Y0023814D01*
X0007955Y0023083D01*
X0006045Y0023083D01*
X0004281Y0023814D01*
X0002931Y0025164D01*
X0002750Y0025600D01*
X0002750Y0020165D01*
X0002931Y0020602D01*
X0004281Y0021952D01*
X0006045Y0022683D01*
X0007955Y0022683D01*
X0009719Y0021952D01*
X0011069Y0020602D01*
X0011800Y0018838D01*
X0011800Y0016928D01*
X0011069Y0015164D01*
X0009719Y0013814D01*
X0007955Y0013083D01*
X0006045Y0013083D01*
X0004281Y0013814D01*
X0002931Y0015164D01*
X0002750Y0015600D01*
X0002750Y0010880D01*
X0003034Y0011270D01*
X0003612Y0011849D01*
X0004275Y0012330D01*
X0005004Y0012702D01*
X0005782Y0012955D01*
X0006500Y0013068D01*
X0006500Y0008383D01*
X0007500Y0008383D01*
X0007500Y0013068D01*
X0008218Y0012955D01*
X0008996Y0012702D01*
X0009725Y0012330D01*
X0010388Y0011849D01*
X0010966Y0011270D01*
X0011447Y0010608D01*
X0011819Y0009879D01*
X0012072Y0009100D01*
X0012186Y0008383D01*
X0007500Y0008383D01*
X0007500Y0007383D01*
X0012186Y0007383D01*
X0012072Y0006665D01*
X0011819Y0005887D01*
X0011447Y0005157D01*
X0010966Y0004495D01*
X0010388Y0003916D01*
X0010341Y0003883D01*
X0020202Y0003883D01*
X0017900Y0006184D01*
X0017900Y0009581D01*
X0020302Y0011983D01*
X0023698Y0011983D01*
X0026100Y0009581D01*
X0026100Y0006184D01*
X0023798Y0003883D01*
X0030202Y0003883D01*
X0027900Y0006184D01*
X0027900Y0009581D01*
X0030302Y0011983D01*
X0033698Y0011983D01*
X0036100Y0009581D01*
X0036100Y0006184D01*
X0033798Y0003883D01*
X0040202Y0003883D01*
X0037900Y0006184D01*
X0037900Y0009581D01*
X0040302Y0011983D01*
X0043698Y0011983D01*
X0046100Y0009581D01*
X0046100Y0006184D01*
X0043798Y0003883D01*
X0050202Y0003883D01*
X0047900Y0006184D01*
X0047900Y0009581D01*
X0050302Y0011983D01*
X0053698Y0011983D01*
X0056100Y0009581D01*
X0056100Y0006184D01*
X0053798Y0003883D01*
X0060202Y0003883D01*
X0057900Y0006184D01*
X0057900Y0009581D01*
X0060302Y0011983D01*
X0063698Y0011983D01*
X0066100Y0009581D01*
X0066100Y0006184D01*
X0063798Y0003883D01*
X0070202Y0003883D01*
X0067900Y0006184D01*
X0067900Y0009581D01*
X0070302Y0011983D01*
X0073698Y0011983D01*
X0076100Y0009581D01*
X0076100Y0006184D01*
X0073798Y0003883D01*
X0080202Y0003883D01*
X0077900Y0006184D01*
X0077900Y0009581D01*
X0080302Y0011983D01*
X0083698Y0011983D01*
X0086100Y0009581D01*
X0086100Y0006184D01*
X0083798Y0003883D01*
X0090202Y0003883D01*
X0087900Y0006184D01*
X0087900Y0009581D01*
X0090302Y0011983D01*
X0093698Y0011983D01*
X0096100Y0009581D01*
X0096100Y0006184D01*
X0093798Y0003883D01*
X0100202Y0003883D01*
X0097900Y0006184D01*
X0097900Y0009581D01*
X0100302Y0011983D01*
X0103698Y0011983D01*
X0106100Y0009581D01*
X0106100Y0006184D01*
X0103798Y0003883D01*
X0109636Y0003883D01*
X0107500Y0006019D01*
X0107500Y0007383D01*
X0111500Y0007383D01*
X0111500Y0008383D01*
X0111500Y0012383D01*
X0110136Y0012383D01*
X0107500Y0009747D01*
X0107500Y0008383D01*
X0111500Y0008383D01*
X0112500Y0008383D01*
X0112500Y0012383D01*
X0113864Y0012383D01*
X0116500Y0009747D01*
X0116500Y0008383D01*
X0112500Y0008383D01*
X0112500Y0007383D01*
X0116500Y0007383D01*
X0116500Y0006019D01*
X0114364Y0003883D01*
X0118931Y0003883D01*
X0118931Y0041612D01*
X0118568Y0041976D01*
X0118128Y0043037D01*
X0118128Y0044185D01*
X0118568Y0045247D01*
X0118931Y0045610D01*
X0118931Y0056612D01*
X0118568Y0056976D01*
X0118128Y0058037D01*
X0118128Y0059185D01*
X0118568Y0060247D01*
X0118931Y0060610D01*
X0118931Y0061885D01*
X0113787Y0061894D01*
X0116100Y0059581D01*
X0116100Y0056184D01*
X0113698Y0053783D01*
X0110587Y0053783D01*
X0106650Y0049846D01*
X0106650Y0043485D01*
X0107050Y0043085D01*
X0107050Y0041180D01*
X0105703Y0039833D01*
X0103797Y0039833D01*
X0102450Y0041180D01*
X0102555Y0041075D02*
X0082329Y0041075D01*
X0081550Y0041810D02*
X0081550Y0041835D01*
X0080203Y0043183D01*
X0078297Y0043183D01*
X0077897Y0042783D01*
X0069005Y0042783D01*
X0065109Y0046463D01*
X0064631Y0046991D01*
X0064545Y0046995D01*
X0064482Y0047054D01*
X0063770Y0047034D01*
X0060171Y0047214D01*
X0059703Y0047683D01*
X0057797Y0047683D01*
X0056450Y0046335D01*
X0056450Y0045880D01*
X0053528Y0043283D01*
X0046698Y0043283D01*
X0047600Y0044184D01*
X0047600Y0047033D01*
X0055913Y0047033D01*
X0056850Y0047970D01*
X0057163Y0048283D01*
X0069587Y0048283D01*
X0070950Y0046920D01*
X0070950Y0045930D01*
X0072297Y0044583D01*
X0074203Y0044583D01*
X0075550Y0045930D01*
X0075550Y0047835D01*
X0074203Y0049183D01*
X0073213Y0049183D01*
X0071850Y0050545D01*
X0070913Y0051483D01*
X0056550Y0051483D01*
X0056550Y0052085D01*
X0055203Y0053433D01*
X0053297Y0053433D01*
X0052597Y0052733D01*
X0045153Y0052733D01*
X0044453Y0053433D01*
X0042547Y0053433D01*
X0041200Y0052085D01*
X0041200Y0050180D01*
X0041600Y0049781D01*
X0039400Y0047581D01*
X0039400Y0044184D01*
X0040302Y0043283D01*
X0028103Y0043283D01*
X0027703Y0043683D01*
X0025797Y0043683D01*
X0024450Y0042335D01*
X0024450Y0040430D01*
X0025797Y0039083D01*
X0027703Y0039083D01*
X0028103Y0039483D01*
X0054194Y0039483D01*
X0054924Y0039440D01*
X0054972Y0039483D01*
X0055037Y0039483D01*
X0055554Y0040000D01*
X0059022Y0043083D01*
X0059703Y0043083D01*
X0060036Y0043416D01*
X0062955Y0043270D01*
X0066926Y0039520D01*
X0067463Y0038983D01*
X0067495Y0038983D01*
X0067518Y0038961D01*
X0068277Y0038983D01*
X0077897Y0038983D01*
X0078297Y0038583D01*
X0079433Y0038583D01*
X0081700Y0036442D01*
X0081700Y0035930D01*
X0083047Y0034583D01*
X0083613Y0034583D01*
X0085950Y0032246D01*
X0085950Y0031680D01*
X0087297Y0030333D01*
X0089203Y0030333D01*
X0090550Y0031680D01*
X0090550Y0033585D01*
X0089203Y0034933D01*
X0088637Y0034933D01*
X0086300Y0037270D01*
X0086300Y0037835D01*
X0084953Y0039183D01*
X0084332Y0039183D01*
X0081550Y0041810D01*
X0080314Y0043072D02*
X0102450Y0043072D01*
X0106650Y0044070D02*
X0118128Y0044070D01*
X0118494Y0045069D02*
X0106650Y0045069D01*
X0106650Y0046067D02*
X0118931Y0046067D01*
X0118931Y0047066D02*
X0106650Y0047066D01*
X0106650Y0048064D02*
X0118931Y0048064D01*
X0118931Y0049063D02*
X0106650Y0049063D01*
X0106866Y0050061D02*
X0118931Y0050061D01*
X0118931Y0051060D02*
X0107864Y0051060D01*
X0108863Y0052058D02*
X0118931Y0052058D01*
X0118931Y0053057D02*
X0109861Y0053057D01*
X0106484Y0055054D02*
X0104969Y0055054D01*
X0105486Y0054055D02*
X0103971Y0054055D01*
X0104487Y0053057D02*
X0093600Y0053057D01*
X0094300Y0052058D02*
X0103489Y0052058D01*
X0102850Y0051060D02*
X0094300Y0051060D01*
X0094181Y0050061D02*
X0102850Y0050061D01*
X0102850Y0049063D02*
X0093183Y0049063D01*
X0090817Y0049063D02*
X0087350Y0049063D01*
X0087350Y0048064D02*
X0102850Y0048064D01*
X0092000Y0051133D02*
X0092000Y0057883D01*
X0096100Y0058049D02*
X0097900Y0058049D01*
X0097900Y0059048D02*
X0096100Y0059048D01*
X0095635Y0060046D02*
X0098365Y0060046D01*
X0099364Y0061045D02*
X0094636Y0061045D01*
X0089364Y0061045D02*
X0084636Y0061045D01*
X0085635Y0060046D02*
X0088365Y0060046D01*
X0087900Y0059048D02*
X0086100Y0059048D01*
X0086100Y0058049D02*
X0087900Y0058049D01*
X0087900Y0057051D02*
X0086100Y0057051D01*
X0085968Y0056052D02*
X0088032Y0056052D01*
X0089031Y0055054D02*
X0084969Y0055054D01*
X0083971Y0054055D02*
X0090029Y0054055D01*
X0090400Y0053057D02*
X0055579Y0053057D01*
X0056550Y0052058D02*
X0089700Y0052058D01*
X0089700Y0051060D02*
X0085371Y0051060D01*
X0086370Y0050061D02*
X0089819Y0050061D01*
X0093971Y0054055D02*
X0100029Y0054055D01*
X0099031Y0055054D02*
X0094969Y0055054D01*
X0095968Y0056052D02*
X0098032Y0056052D01*
X0097900Y0057051D02*
X0096100Y0057051D01*
X0104636Y0061045D02*
X0109364Y0061045D01*
X0108365Y0060046D02*
X0105635Y0060046D01*
X0106100Y0059048D02*
X0107900Y0059048D01*
X0107900Y0058049D02*
X0106100Y0058049D01*
X0106100Y0057051D02*
X0107900Y0057051D01*
X0107483Y0056052D02*
X0105968Y0056052D01*
X0113971Y0054055D02*
X0118931Y0054055D01*
X0118931Y0055054D02*
X0114969Y0055054D01*
X0115968Y0056052D02*
X0118931Y0056052D01*
X0118537Y0057051D02*
X0116100Y0057051D01*
X0116100Y0058049D02*
X0118128Y0058049D01*
X0118128Y0059048D02*
X0116100Y0059048D01*
X0115635Y0060046D02*
X0118485Y0060046D01*
X0118931Y0061045D02*
X0114636Y0061045D01*
X0081129Y0051060D02*
X0071336Y0051060D01*
X0072334Y0050061D02*
X0080130Y0050061D01*
X0079150Y0049063D02*
X0074323Y0049063D01*
X0075321Y0048064D02*
X0079150Y0048064D01*
X0079150Y0047066D02*
X0075550Y0047066D01*
X0075550Y0046067D02*
X0079150Y0046067D01*
X0079766Y0045069D02*
X0074689Y0045069D01*
X0071811Y0045069D02*
X0066585Y0045069D01*
X0067642Y0044070D02*
X0080764Y0044070D01*
X0078186Y0043072D02*
X0068699Y0043072D01*
X0065280Y0041075D02*
X0056763Y0041075D01*
X0055640Y0040076D02*
X0066337Y0040076D01*
X0067368Y0039078D02*
X0011701Y0039078D01*
X0011800Y0038079D02*
X0079966Y0038079D01*
X0081023Y0037081D02*
X0044055Y0037081D01*
X0043703Y0037433D02*
X0041797Y0037433D01*
X0041097Y0036733D01*
X0031658Y0036733D01*
X0031164Y0036832D01*
X0031016Y0036733D01*
X0030837Y0036733D01*
X0030481Y0036376D01*
X0030266Y0036233D01*
X0015903Y0036233D01*
X0015203Y0036933D01*
X0013297Y0036933D01*
X0011950Y0035585D01*
X0011950Y0033680D01*
X0013297Y0032333D01*
X0013697Y0032333D01*
X0012950Y0031585D01*
X0012950Y0029680D01*
X0014297Y0028333D01*
X0015700Y0028333D01*
X0015700Y0026930D01*
X0017047Y0025583D01*
X0018450Y0025583D01*
X0018450Y0024180D01*
X0019797Y0022833D01*
X0021703Y0022833D01*
X0022403Y0023533D01*
X0046347Y0023533D01*
X0047047Y0022833D01*
X0048953Y0022833D01*
X0049653Y0023533D01*
X0057087Y0023533D01*
X0064650Y0015970D01*
X0065587Y0015033D01*
X0072847Y0015033D01*
X0073547Y0014333D01*
X0075453Y0014333D01*
X0075700Y0014580D01*
X0075700Y0013930D01*
X0077047Y0012583D01*
X0078953Y0012583D01*
X0080300Y0013930D01*
X0080300Y0015835D01*
X0079600Y0016535D01*
X0079600Y0018295D01*
X0078663Y0019233D01*
X0076663Y0021233D01*
X0066413Y0021233D01*
X0061113Y0026533D01*
X0080413Y0026533D01*
X0081713Y0027833D01*
X0081787Y0027833D01*
X0084337Y0025283D01*
X0108597Y0025283D01*
X0109297Y0024583D01*
X0111203Y0024583D01*
X0112550Y0025930D01*
X0112550Y0027835D01*
X0111203Y0029183D01*
X0109297Y0029183D01*
X0108597Y0028483D01*
X0085663Y0028483D01*
X0084050Y0030095D01*
X0084050Y0031085D01*
X0082703Y0032433D01*
X0080797Y0032433D01*
X0079450Y0031085D01*
X0079450Y0030095D01*
X0079087Y0029733D01*
X0060413Y0029733D01*
X0057913Y0032233D01*
X0016903Y0032233D01*
X0016203Y0032933D01*
X0015803Y0032933D01*
X0015903Y0033033D01*
X0030592Y0033033D01*
X0031086Y0032934D01*
X0031234Y0033033D01*
X0031413Y0033033D01*
X0031769Y0033389D01*
X0031984Y0033533D01*
X0041097Y0033533D01*
X0041797Y0032833D01*
X0043703Y0032833D01*
X0045050Y0034180D01*
X0045050Y0036085D01*
X0043703Y0037433D01*
X0045050Y0036082D02*
X0081700Y0036082D01*
X0082546Y0035084D02*
X0045050Y0035084D01*
X0044955Y0034085D02*
X0084111Y0034085D01*
X0085109Y0033087D02*
X0043957Y0033087D01*
X0041543Y0033087D02*
X0031467Y0033087D01*
X0030750Y0034633D02*
X0031500Y0035133D01*
X0042750Y0035133D01*
X0041445Y0037081D02*
X0011800Y0037081D01*
X0011450Y0036082D02*
X0012447Y0036082D01*
X0011950Y0035084D02*
X0010989Y0035084D01*
X0011950Y0034085D02*
X0009991Y0034085D01*
X0007964Y0033087D02*
X0012543Y0033087D01*
X0013453Y0032088D02*
X0009390Y0032088D01*
X0010581Y0031090D02*
X0012950Y0031090D01*
X0012950Y0030091D02*
X0011281Y0030091D01*
X0011694Y0029093D02*
X0013537Y0029093D01*
X0011800Y0028094D02*
X0015700Y0028094D01*
X0015700Y0027096D02*
X0011800Y0027096D01*
X0011456Y0026097D02*
X0016533Y0026097D01*
X0018450Y0025099D02*
X0011004Y0025099D01*
X0010005Y0024100D02*
X0018530Y0024100D01*
X0019529Y0023102D02*
X0008000Y0023102D01*
X0009354Y0022103D02*
X0035736Y0022103D01*
X0036018Y0022384D02*
X0035331Y0021698D01*
X0035282Y0021688D01*
X0035253Y0021717D01*
X0034176Y0021717D01*
X0034047Y0021588D01*
X0033919Y0021717D01*
X0032842Y0021717D01*
X0032776Y0021651D01*
X0032710Y0021717D01*
X0032710Y0021717D01*
X0032710Y0021717D01*
X0032166Y0021717D01*
X0031633Y0021717D01*
X0030632Y0021717D01*
X0030013Y0021099D01*
X0029765Y0021347D01*
X0029395Y0021717D01*
X0029395Y0021717D01*
X0029395Y0021717D01*
X0028862Y0021717D01*
X0028318Y0021717D01*
X0027651Y0021717D01*
X0027584Y0021651D01*
X0027518Y0021717D01*
X0025441Y0021717D01*
X0025392Y0021669D01*
X0025343Y0021717D01*
X0024810Y0021717D01*
X0024266Y0021717D01*
X0023265Y0021717D01*
X0022504Y0020956D01*
X0022504Y0018211D01*
X0023265Y0017449D01*
X0023330Y0017384D01*
X0022411Y0017384D01*
X0021649Y0016623D01*
X0021649Y0013544D01*
X0022411Y0012783D01*
X0024488Y0012783D01*
X0024822Y0013116D01*
X0025037Y0013332D01*
X0025587Y0012783D01*
X0028540Y0012783D01*
X0028773Y0013016D01*
X0029005Y0012783D01*
X0029005Y0012783D01*
X0029006Y0012783D01*
X0029550Y0012783D01*
X0030750Y0012783D01*
X0030983Y0013016D01*
X0031215Y0012783D01*
X0031215Y0012783D01*
X0031215Y0012783D01*
X0031759Y0012783D01*
X0035642Y0012783D01*
X0035771Y0012912D01*
X0035899Y0012783D01*
X0039325Y0012783D01*
X0039454Y0012912D01*
X0039582Y0012783D01*
X0040659Y0012783D01*
X0041421Y0013544D01*
X0041421Y0016623D01*
X0040659Y0017384D01*
X0039582Y0017384D01*
X0039454Y0017256D01*
X0039325Y0017384D01*
X0038450Y0017384D01*
X0038116Y0017718D01*
X0037039Y0017718D01*
X0036277Y0016957D01*
X0036277Y0016717D01*
X0035194Y0016717D01*
X0035194Y0016957D01*
X0034433Y0017718D01*
X0033356Y0017718D01*
X0033022Y0017384D01*
X0032216Y0017384D01*
X0031549Y0016717D01*
X0031215Y0016717D01*
X0030983Y0016484D01*
X0030750Y0016717D01*
X0030750Y0016717D01*
X0030750Y0016717D01*
X0030217Y0016717D01*
X0029673Y0016717D01*
X0029005Y0016717D01*
X0028773Y0016484D01*
X0028540Y0016717D01*
X0026796Y0016717D01*
X0026730Y0016651D01*
X0026664Y0016717D01*
X0024586Y0016717D01*
X0024537Y0016669D01*
X0024488Y0016717D01*
X0024155Y0016717D01*
X0023756Y0017116D01*
X0025010Y0017116D01*
X0025771Y0017877D01*
X0025771Y0018211D01*
X0025892Y0018332D01*
X0026441Y0017783D01*
X0027518Y0017783D01*
X0027584Y0017849D01*
X0027651Y0017783D01*
X0028195Y0017783D01*
X0029395Y0017783D01*
X0029409Y0017797D01*
X0029423Y0017783D01*
X0030833Y0017783D01*
X0030899Y0017849D01*
X0030965Y0017783D01*
X0030965Y0017783D01*
X0030965Y0017783D01*
X0031509Y0017783D01*
X0034919Y0017783D01*
X0035004Y0017867D01*
X0035828Y0017702D01*
X0035990Y0017810D01*
X0036018Y0017783D01*
X0037095Y0017783D01*
X0037477Y0018165D01*
X0037859Y0017783D01*
X0040812Y0017783D01*
X0040878Y0017849D01*
X0040945Y0017783D01*
X0043356Y0017783D01*
X0043422Y0017849D01*
X0043488Y0017783D01*
X0043488Y0017783D01*
X0043488Y0017783D01*
X0044021Y0017783D01*
X0045232Y0017783D01*
X0045465Y0018016D01*
X0045698Y0017783D01*
X0045698Y0017783D01*
X0045698Y0017783D01*
X0046242Y0017783D01*
X0049652Y0017783D01*
X0049736Y0017867D01*
X0050561Y0017702D01*
X0050723Y0017810D01*
X0050750Y0017783D01*
X0051827Y0017783D01*
X0052209Y0018165D01*
X0052592Y0017783D01*
X0055545Y0017783D01*
X0055611Y0017849D01*
X0055677Y0017783D01*
X0057421Y0017783D01*
X0058088Y0017783D01*
X0058850Y0018544D01*
X0058850Y0020956D01*
X0058088Y0021717D01*
X0056544Y0021717D01*
X0056011Y0021717D01*
X0056011Y0021717D01*
X0056011Y0021717D01*
X0055778Y0021484D01*
X0055545Y0021717D01*
X0053801Y0021717D01*
X0053735Y0021651D01*
X0053669Y0021717D01*
X0052494Y0021717D01*
X0051827Y0022384D01*
X0050750Y0022384D01*
X0050064Y0021698D01*
X0050014Y0021688D01*
X0049986Y0021717D01*
X0048909Y0021717D01*
X0048780Y0021588D01*
X0048651Y0021717D01*
X0047574Y0021717D01*
X0047508Y0021651D01*
X0047442Y0021717D01*
X0046898Y0021717D01*
X0046365Y0021717D01*
X0045899Y0021717D01*
X0045783Y0021834D01*
X0045232Y0022384D01*
X0045232Y0022384D01*
X0045232Y0022384D01*
X0044887Y0022384D01*
X0044155Y0022384D01*
X0043488Y0022384D01*
X0043154Y0022051D01*
X0042821Y0021717D01*
X0041811Y0021717D01*
X0041278Y0021717D01*
X0041045Y0021484D01*
X0040812Y0021717D01*
X0039068Y0021717D01*
X0039002Y0021651D01*
X0038936Y0021717D01*
X0037762Y0021717D01*
X0037095Y0022384D01*
X0036018Y0022384D01*
X0037376Y0022103D02*
X0043207Y0022103D01*
X0043154Y0022051D02*
X0043154Y0022051D01*
X0044155Y0022384D02*
X0044155Y0022384D01*
X0045514Y0022103D02*
X0050469Y0022103D01*
X0049221Y0023102D02*
X0057519Y0023102D01*
X0058517Y0022103D02*
X0052109Y0022103D01*
X0047442Y0021717D02*
X0047442Y0021717D01*
X0047442Y0021717D01*
X0046365Y0021717D02*
X0046365Y0021717D01*
X0046779Y0023102D02*
X0021971Y0023102D01*
X0024266Y0021717D02*
X0024266Y0021717D01*
X0025343Y0021717D02*
X0025343Y0021717D01*
X0025343Y0021717D01*
X0022653Y0021104D02*
X0010566Y0021104D01*
X0011275Y0020106D02*
X0022504Y0020106D01*
X0022504Y0019107D02*
X0011688Y0019107D01*
X0011800Y0018109D02*
X0022606Y0018109D01*
X0022137Y0017110D02*
X0011800Y0017110D01*
X0011462Y0016112D02*
X0021649Y0016112D01*
X0023762Y0017110D02*
X0031942Y0017110D01*
X0029673Y0016717D02*
X0029673Y0016717D01*
X0027651Y0017783D02*
X0027651Y0017783D01*
X0027651Y0017783D01*
X0026115Y0018109D02*
X0025771Y0018109D01*
X0024488Y0016717D02*
X0024488Y0016717D01*
X0024488Y0016717D01*
X0021649Y0015113D02*
X0011019Y0015113D01*
X0010020Y0014115D02*
X0021649Y0014115D01*
X0022077Y0013116D02*
X0008036Y0013116D01*
X0007500Y0012118D02*
X0006500Y0012118D01*
X0005964Y0013116D02*
X0002750Y0013116D01*
X0002750Y0012118D02*
X0003982Y0012118D01*
X0002924Y0011119D02*
X0002750Y0011119D01*
X0006500Y0011119D02*
X0007500Y0011119D01*
X0007500Y0010121D02*
X0006500Y0010121D01*
X0006500Y0009122D02*
X0007500Y0009122D01*
X0007500Y0008124D02*
X0017900Y0008124D01*
X0017900Y0009122D02*
X0012065Y0009122D01*
X0011696Y0010121D02*
X0018440Y0010121D01*
X0019438Y0011119D02*
X0011076Y0011119D01*
X0010018Y0012118D02*
X0109871Y0012118D01*
X0111500Y0012118D02*
X0112500Y0012118D01*
X0114129Y0012118D02*
X0118931Y0012118D01*
X0118931Y0013116D02*
X0079486Y0013116D01*
X0080300Y0014115D02*
X0091329Y0014115D01*
X0091411Y0014033D02*
X0093705Y0014033D01*
X0094046Y0014374D01*
X0094387Y0014033D01*
X0096114Y0014033D01*
X0096242Y0014160D01*
X0096369Y0014033D01*
X0099797Y0014033D01*
X0100617Y0014853D01*
X0100617Y0016013D01*
X0100063Y0016567D01*
X0100617Y0017121D01*
X0100617Y0018281D01*
X0099483Y0019416D01*
X0098663Y0020236D01*
X0097503Y0020236D01*
X0096683Y0019416D01*
X0096683Y0016833D01*
X0096681Y0016833D01*
X0096114Y0017400D01*
X0095093Y0017400D01*
X0095093Y0018848D01*
X0094526Y0019416D01*
X0093705Y0020236D01*
X0091411Y0020236D01*
X0090844Y0019669D01*
X0090024Y0018848D01*
X0090024Y0015420D01*
X0090591Y0014853D01*
X0091411Y0014033D01*
X0090331Y0015113D02*
X0080300Y0015113D01*
X0078000Y0014883D02*
X0078000Y0017633D01*
X0076000Y0019633D01*
X0065750Y0019633D01*
X0057500Y0027883D01*
X0018000Y0027883D01*
X0015250Y0030633D02*
X0057250Y0030633D01*
X0059750Y0028133D01*
X0079750Y0028133D01*
X0081750Y0030133D01*
X0085000Y0026883D01*
X0110250Y0026883D01*
X0112550Y0027096D02*
X0118931Y0027096D01*
X0118931Y0026097D02*
X0112550Y0026097D01*
X0111718Y0025099D02*
X0118931Y0025099D01*
X0118931Y0024100D02*
X0063545Y0024100D01*
X0062547Y0025099D02*
X0108782Y0025099D01*
X0112291Y0028094D02*
X0118931Y0028094D01*
X0118931Y0029093D02*
X0111293Y0029093D01*
X0109207Y0029093D02*
X0085053Y0029093D01*
X0084054Y0030091D02*
X0118931Y0030091D01*
X0118931Y0031090D02*
X0089960Y0031090D01*
X0090550Y0032088D02*
X0118931Y0032088D01*
X0118931Y0033087D02*
X0090550Y0033087D01*
X0090050Y0034085D02*
X0118931Y0034085D01*
X0118931Y0035084D02*
X0088486Y0035084D01*
X0087488Y0036082D02*
X0118931Y0036082D01*
X0118931Y0037081D02*
X0086489Y0037081D01*
X0086056Y0038079D02*
X0118931Y0038079D01*
X0118931Y0039078D02*
X0085058Y0039078D01*
X0083386Y0040076D02*
X0103554Y0040076D01*
X0105946Y0040076D02*
X0118931Y0040076D01*
X0118931Y0041075D02*
X0106945Y0041075D01*
X0107050Y0042073D02*
X0118527Y0042073D01*
X0118128Y0043072D02*
X0107050Y0043072D01*
X0085950Y0032088D02*
X0083047Y0032088D01*
X0080453Y0032088D02*
X0058057Y0032088D01*
X0059056Y0031090D02*
X0079454Y0031090D01*
X0079446Y0030091D02*
X0060054Y0030091D01*
X0060500Y0031383D02*
X0066500Y0037383D01*
X0067000Y0037383D01*
X0067000Y0037883D01*
X0064222Y0042073D02*
X0057887Y0042073D01*
X0059010Y0043072D02*
X0063165Y0043072D01*
X0065528Y0046067D02*
X0070950Y0046067D01*
X0070804Y0047066D02*
X0063137Y0047066D01*
X0056944Y0048064D02*
X0069806Y0048064D01*
X0070250Y0049883D02*
X0056500Y0049883D01*
X0055250Y0048633D01*
X0046250Y0048633D01*
X0043500Y0045883D01*
X0047600Y0046067D02*
X0056450Y0046067D01*
X0055946Y0047066D02*
X0057180Y0047066D01*
X0055537Y0045069D02*
X0047600Y0045069D01*
X0047486Y0044070D02*
X0054414Y0044070D01*
X0041319Y0050061D02*
X0011293Y0050061D01*
X0010611Y0051060D02*
X0035570Y0051060D01*
X0036047Y0050583D02*
X0034700Y0051930D01*
X0034700Y0053835D01*
X0036047Y0055183D01*
X0037037Y0055183D01*
X0037970Y0056115D01*
X0037900Y0056184D01*
X0037900Y0059581D01*
X0040302Y0061983D01*
X0043698Y0061983D01*
X0046100Y0059581D01*
X0046100Y0056184D01*
X0043698Y0053783D01*
X0040302Y0053783D01*
X0040232Y0053852D01*
X0039300Y0052920D01*
X0039300Y0051930D01*
X0037953Y0050583D01*
X0036047Y0050583D01*
X0038430Y0051060D02*
X0041200Y0051060D01*
X0041200Y0052058D02*
X0039300Y0052058D01*
X0039437Y0053057D02*
X0042171Y0053057D01*
X0043971Y0054055D02*
X0050029Y0054055D01*
X0050302Y0053783D02*
X0053698Y0053783D01*
X0056100Y0056184D01*
X0056100Y0059581D01*
X0053698Y0061983D01*
X0050302Y0061983D01*
X0047900Y0059581D01*
X0047900Y0056184D01*
X0050302Y0053783D01*
X0052921Y0053057D02*
X0044829Y0053057D01*
X0044969Y0055054D02*
X0049031Y0055054D01*
X0048032Y0056052D02*
X0045968Y0056052D01*
X0046100Y0057051D02*
X0047900Y0057051D01*
X0047900Y0058049D02*
X0046100Y0058049D01*
X0046100Y0059048D02*
X0047900Y0059048D01*
X0048365Y0060046D02*
X0045635Y0060046D01*
X0044636Y0061045D02*
X0049364Y0061045D01*
X0054636Y0061045D02*
X0059364Y0061045D01*
X0058365Y0060046D02*
X0055635Y0060046D01*
X0056100Y0059048D02*
X0057900Y0059048D01*
X0057900Y0059581D02*
X0057900Y0056184D01*
X0060302Y0053783D01*
X0063698Y0053783D01*
X0066100Y0056184D01*
X0066100Y0059581D01*
X0063698Y0061983D01*
X0060302Y0061983D01*
X0057900Y0059581D01*
X0057900Y0058049D02*
X0056100Y0058049D01*
X0056100Y0057051D02*
X0057900Y0057051D01*
X0058032Y0056052D02*
X0055968Y0056052D01*
X0054969Y0055054D02*
X0059031Y0055054D01*
X0060029Y0054055D02*
X0053971Y0054055D01*
X0054250Y0051133D02*
X0043500Y0051133D01*
X0040882Y0049063D02*
X0011707Y0049063D01*
X0011800Y0048064D02*
X0039883Y0048064D01*
X0039400Y0047066D02*
X0011800Y0047066D01*
X0011443Y0046067D02*
X0039400Y0046067D01*
X0039400Y0045069D02*
X0010974Y0045069D01*
X0009976Y0044070D02*
X0039514Y0044070D01*
X0025186Y0043072D02*
X0002750Y0043072D01*
X0002750Y0042073D02*
X0004574Y0042073D01*
X0003404Y0041075D02*
X0002750Y0041075D01*
X0002750Y0044070D02*
X0004024Y0044070D01*
X0003026Y0045069D02*
X0002750Y0045069D01*
X0009426Y0042073D02*
X0024450Y0042073D01*
X0024450Y0041075D02*
X0010596Y0041075D01*
X0011287Y0040076D02*
X0024804Y0040076D01*
X0030750Y0034633D02*
X0014250Y0034633D01*
X0006036Y0033087D02*
X0002750Y0033087D01*
X0002750Y0032088D02*
X0004610Y0032088D01*
X0003419Y0031090D02*
X0002750Y0031090D01*
X0002750Y0034085D02*
X0004009Y0034085D01*
X0003011Y0035084D02*
X0002750Y0035084D01*
X0002750Y0025099D02*
X0002996Y0025099D01*
X0002750Y0024100D02*
X0003995Y0024100D01*
X0002750Y0023102D02*
X0006000Y0023102D01*
X0004646Y0022103D02*
X0002750Y0022103D01*
X0002750Y0021104D02*
X0003434Y0021104D01*
X0002981Y0015113D02*
X0002750Y0015113D01*
X0002750Y0014115D02*
X0003980Y0014115D01*
X0017000Y0017883D02*
X0017500Y0017383D01*
X0018250Y0017383D01*
X0018250Y0017633D01*
X0018250Y0017383D02*
X0018250Y0016383D01*
X0024822Y0013116D02*
X0025253Y0013116D01*
X0024562Y0011119D02*
X0029438Y0011119D01*
X0028440Y0010121D02*
X0025560Y0010121D01*
X0026100Y0009122D02*
X0027900Y0009122D01*
X0027900Y0008124D02*
X0026100Y0008124D01*
X0026100Y0007125D02*
X0027900Y0007125D01*
X0027958Y0006127D02*
X0026042Y0006127D01*
X0025044Y0005128D02*
X0028956Y0005128D01*
X0029955Y0004130D02*
X0024045Y0004130D01*
X0019955Y0004130D02*
X0010601Y0004130D01*
X0011426Y0005128D02*
X0018956Y0005128D01*
X0017958Y0006127D02*
X0011897Y0006127D01*
X0012145Y0007125D02*
X0017900Y0007125D01*
X0034045Y0004130D02*
X0039955Y0004130D01*
X0038956Y0005128D02*
X0035044Y0005128D01*
X0036042Y0006127D02*
X0037958Y0006127D01*
X0037900Y0007125D02*
X0036100Y0007125D01*
X0036100Y0008124D02*
X0037900Y0008124D01*
X0037900Y0009122D02*
X0036100Y0009122D01*
X0035560Y0010121D02*
X0038440Y0010121D01*
X0039438Y0011119D02*
X0034562Y0011119D01*
X0040993Y0013116D02*
X0042668Y0013116D01*
X0043001Y0012783D01*
X0043001Y0012783D01*
X0043001Y0012783D01*
X0043534Y0012783D01*
X0044746Y0012783D01*
X0044978Y0013016D01*
X0045211Y0012783D01*
X0045211Y0012783D01*
X0045211Y0012783D01*
X0045744Y0012783D01*
X0046955Y0012783D01*
X0047021Y0012849D01*
X0047088Y0012783D01*
X0049499Y0012783D01*
X0049565Y0012849D01*
X0049631Y0012783D01*
X0049631Y0012783D01*
X0049631Y0012783D01*
X0050164Y0012783D01*
X0051375Y0012783D01*
X0051709Y0013116D01*
X0052508Y0013116D01*
X0052842Y0012783D02*
X0053919Y0012783D01*
X0053985Y0012849D01*
X0054051Y0012783D01*
X0054051Y0012783D01*
X0054051Y0012783D01*
X0054584Y0012783D01*
X0055795Y0012783D01*
X0055861Y0012849D01*
X0055927Y0012783D01*
X0058338Y0012783D01*
X0059100Y0013544D01*
X0059100Y0016623D01*
X0058338Y0017384D01*
X0057262Y0017384D01*
X0055927Y0017384D01*
X0055861Y0017318D01*
X0055795Y0017384D01*
X0055795Y0017384D01*
X0055795Y0017384D01*
X0055262Y0017384D01*
X0054718Y0017384D01*
X0054051Y0017384D01*
X0053985Y0017318D01*
X0053919Y0017384D01*
X0051841Y0017384D01*
X0051608Y0017152D01*
X0051375Y0017384D01*
X0051375Y0017384D01*
X0051375Y0017384D01*
X0050831Y0017384D01*
X0050298Y0017384D01*
X0049631Y0017384D01*
X0049398Y0017152D01*
X0049165Y0017384D01*
X0048632Y0017384D01*
X0048088Y0017384D01*
X0047421Y0017384D01*
X0047188Y0017152D01*
X0046955Y0017384D01*
X0046411Y0017384D01*
X0045879Y0017384D01*
X0045211Y0017384D01*
X0045145Y0017318D01*
X0045079Y0017384D01*
X0042668Y0017384D01*
X0041906Y0016623D01*
X0041906Y0014955D01*
X0041906Y0014411D01*
X0041906Y0013878D01*
X0041906Y0013878D01*
X0042277Y0013508D01*
X0042668Y0013116D01*
X0042668Y0013116D01*
X0041906Y0013878D02*
X0041906Y0013878D01*
X0041906Y0014115D02*
X0041421Y0014115D01*
X0041906Y0014955D02*
X0041906Y0014955D01*
X0041906Y0015113D02*
X0041421Y0015113D01*
X0041421Y0016112D02*
X0041906Y0016112D01*
X0042394Y0017110D02*
X0040933Y0017110D01*
X0037533Y0018109D02*
X0037421Y0018109D01*
X0036431Y0017110D02*
X0035040Y0017110D01*
X0030019Y0021104D02*
X0030007Y0021104D01*
X0028318Y0021717D02*
X0028318Y0021717D01*
X0031633Y0021717D02*
X0031633Y0021717D01*
X0041278Y0021717D02*
X0041278Y0021717D01*
X0041278Y0021717D01*
X0048000Y0025133D02*
X0020750Y0025133D01*
X0045879Y0017384D02*
X0045879Y0017384D01*
X0046955Y0017384D02*
X0046955Y0017384D01*
X0046955Y0017384D01*
X0048088Y0017384D02*
X0048088Y0017384D01*
X0049165Y0017384D02*
X0049165Y0017384D01*
X0049165Y0017384D01*
X0050298Y0017384D02*
X0050298Y0017384D01*
X0052153Y0018109D02*
X0052266Y0018109D01*
X0054718Y0017384D02*
X0054718Y0017384D01*
X0058415Y0018109D02*
X0062511Y0018109D01*
X0061513Y0019107D02*
X0058850Y0019107D01*
X0058850Y0020106D02*
X0060514Y0020106D01*
X0059516Y0021104D02*
X0058701Y0021104D01*
X0064544Y0023102D02*
X0118931Y0023102D01*
X0118931Y0022103D02*
X0065542Y0022103D01*
X0067000Y0024883D02*
X0067250Y0024883D01*
X0067000Y0024883D02*
X0067000Y0025133D01*
X0061548Y0026097D02*
X0083523Y0026097D01*
X0082524Y0027096D02*
X0080976Y0027096D01*
X0084046Y0031090D02*
X0086540Y0031090D01*
X0076791Y0021104D02*
X0118931Y0021104D01*
X0118931Y0020106D02*
X0114660Y0020106D01*
X0114530Y0020236D02*
X0111669Y0020236D01*
X0111101Y0019669D01*
X0110407Y0018974D01*
X0110280Y0019101D01*
X0107985Y0019101D01*
X0107628Y0018744D01*
X0106691Y0019213D01*
X0105591Y0018846D01*
X0105449Y0018563D01*
X0105308Y0018846D01*
X0104208Y0019213D01*
X0103170Y0018694D01*
X0102804Y0017594D01*
X0104153Y0014896D01*
X0104305Y0014440D01*
X0104406Y0014389D01*
X0104457Y0014288D01*
X0104912Y0014136D01*
X0105342Y0013921D01*
X0105449Y0013957D01*
X0105557Y0013921D01*
X0105987Y0014136D01*
X0106442Y0014288D01*
X0106493Y0014389D01*
X0106594Y0014440D01*
X0106746Y0014896D01*
X0107061Y0015525D01*
X0107165Y0015420D01*
X0107165Y0014853D01*
X0107985Y0014033D01*
X0110280Y0014033D01*
X0110691Y0014444D01*
X0111101Y0014033D01*
X0112261Y0014033D01*
X0112816Y0014587D01*
X0113370Y0014033D01*
X0114530Y0014033D01*
X0115350Y0014853D01*
X0115350Y0019416D01*
X0114530Y0020236D01*
X0115350Y0019107D02*
X0118931Y0019107D01*
X0118931Y0018109D02*
X0115350Y0018109D01*
X0115350Y0017110D02*
X0118931Y0017110D01*
X0118931Y0016112D02*
X0115350Y0016112D01*
X0115350Y0015113D02*
X0118931Y0015113D01*
X0118931Y0014115D02*
X0114612Y0014115D01*
X0113288Y0014115D02*
X0112343Y0014115D01*
X0111019Y0014115D02*
X0110362Y0014115D01*
X0107903Y0014115D02*
X0105944Y0014115D01*
X0104955Y0014115D02*
X0099879Y0014115D01*
X0100617Y0015113D02*
X0104044Y0015113D01*
X0103545Y0016112D02*
X0100518Y0016112D01*
X0100606Y0017110D02*
X0103045Y0017110D01*
X0102975Y0018109D02*
X0100617Y0018109D01*
X0099791Y0019107D02*
X0103997Y0019107D01*
X0104524Y0019107D02*
X0106375Y0019107D01*
X0106902Y0019107D02*
X0110540Y0019107D01*
X0111539Y0020106D02*
X0098793Y0020106D01*
X0097374Y0020106D02*
X0093835Y0020106D01*
X0094834Y0019107D02*
X0096683Y0019107D01*
X0096683Y0018109D02*
X0095093Y0018109D01*
X0096404Y0017110D02*
X0096683Y0017110D01*
X0096287Y0014115D02*
X0096196Y0014115D01*
X0094305Y0014115D02*
X0093788Y0014115D01*
X0090024Y0016112D02*
X0080024Y0016112D01*
X0079600Y0017110D02*
X0090024Y0017110D01*
X0090024Y0018109D02*
X0079600Y0018109D01*
X0078788Y0019107D02*
X0090283Y0019107D01*
X0091282Y0020106D02*
X0077790Y0020106D01*
X0085500Y0019383D02*
X0085750Y0019383D01*
X0075700Y0014115D02*
X0059100Y0014115D01*
X0059100Y0015113D02*
X0065507Y0015113D01*
X0064508Y0016112D02*
X0059100Y0016112D01*
X0058612Y0017110D02*
X0063510Y0017110D01*
X0066250Y0016633D02*
X0074500Y0016633D01*
X0076514Y0013116D02*
X0058672Y0013116D01*
X0059438Y0011119D02*
X0054562Y0011119D01*
X0055560Y0010121D02*
X0058440Y0010121D01*
X0057900Y0009122D02*
X0056100Y0009122D01*
X0056100Y0008124D02*
X0057900Y0008124D01*
X0057900Y0007125D02*
X0056100Y0007125D01*
X0056042Y0006127D02*
X0057958Y0006127D01*
X0058956Y0005128D02*
X0055044Y0005128D01*
X0054045Y0004130D02*
X0059955Y0004130D01*
X0064045Y0004130D02*
X0069955Y0004130D01*
X0068956Y0005128D02*
X0065044Y0005128D01*
X0066042Y0006127D02*
X0067958Y0006127D01*
X0067900Y0007125D02*
X0066100Y0007125D01*
X0066100Y0008124D02*
X0067900Y0008124D01*
X0067900Y0009122D02*
X0066100Y0009122D01*
X0065560Y0010121D02*
X0068440Y0010121D01*
X0069438Y0011119D02*
X0064562Y0011119D01*
X0074562Y0011119D02*
X0079438Y0011119D01*
X0078440Y0010121D02*
X0075560Y0010121D01*
X0076100Y0009122D02*
X0077900Y0009122D01*
X0077900Y0008124D02*
X0076100Y0008124D01*
X0076100Y0007125D02*
X0077900Y0007125D01*
X0077958Y0006127D02*
X0076042Y0006127D01*
X0075044Y0005128D02*
X0078956Y0005128D01*
X0079955Y0004130D02*
X0074045Y0004130D01*
X0084045Y0004130D02*
X0089955Y0004130D01*
X0088956Y0005128D02*
X0085044Y0005128D01*
X0086042Y0006127D02*
X0087958Y0006127D01*
X0087900Y0007125D02*
X0086100Y0007125D01*
X0086100Y0008124D02*
X0087900Y0008124D01*
X0087900Y0009122D02*
X0086100Y0009122D01*
X0085560Y0010121D02*
X0088440Y0010121D01*
X0089438Y0011119D02*
X0084562Y0011119D01*
X0094562Y0011119D02*
X0099438Y0011119D01*
X0098440Y0010121D02*
X0095560Y0010121D01*
X0096100Y0009122D02*
X0097900Y0009122D01*
X0097900Y0008124D02*
X0096100Y0008124D01*
X0096100Y0007125D02*
X0097900Y0007125D01*
X0097958Y0006127D02*
X0096042Y0006127D01*
X0095044Y0005128D02*
X0098956Y0005128D01*
X0099955Y0004130D02*
X0094045Y0004130D01*
X0104045Y0004130D02*
X0109389Y0004130D01*
X0108391Y0005128D02*
X0105044Y0005128D01*
X0106042Y0006127D02*
X0107500Y0006127D01*
X0107500Y0007125D02*
X0106100Y0007125D01*
X0106100Y0008124D02*
X0111500Y0008124D01*
X0111500Y0009122D02*
X0112500Y0009122D01*
X0112500Y0008124D02*
X0118931Y0008124D01*
X0118931Y0009122D02*
X0116500Y0009122D01*
X0116126Y0010121D02*
X0118931Y0010121D01*
X0118931Y0011119D02*
X0115127Y0011119D01*
X0112500Y0011119D02*
X0111500Y0011119D01*
X0111500Y0010121D02*
X0112500Y0010121D01*
X0108873Y0011119D02*
X0104562Y0011119D01*
X0105560Y0010121D02*
X0107874Y0010121D01*
X0107500Y0009122D02*
X0106100Y0009122D01*
X0114611Y0004130D02*
X0118931Y0004130D01*
X0118931Y0005128D02*
X0115609Y0005128D01*
X0116500Y0006127D02*
X0118931Y0006127D01*
X0119750Y0005883D02*
X0121000Y0007133D01*
X0119750Y0005883D02*
X0119750Y0004883D01*
X0118931Y0007125D02*
X0116500Y0007125D01*
X0107165Y0015113D02*
X0106855Y0015113D01*
X0066250Y0016633D02*
X0057750Y0025133D01*
X0048000Y0025133D01*
X0052042Y0013450D02*
X0052175Y0013450D01*
X0052842Y0012783D01*
X0052042Y0013450D02*
X0051709Y0013116D01*
X0049438Y0011119D02*
X0044562Y0011119D01*
X0045560Y0010121D02*
X0048440Y0010121D01*
X0047900Y0009122D02*
X0046100Y0009122D01*
X0046100Y0008124D02*
X0047900Y0008124D01*
X0047900Y0007125D02*
X0046100Y0007125D01*
X0046042Y0006127D02*
X0047958Y0006127D01*
X0048956Y0005128D02*
X0045044Y0005128D01*
X0044045Y0004130D02*
X0049955Y0004130D01*
X0073250Y0046883D02*
X0070250Y0049883D01*
X0070029Y0054055D02*
X0063971Y0054055D01*
X0064969Y0055054D02*
X0069031Y0055054D01*
X0068032Y0056052D02*
X0065968Y0056052D01*
X0066100Y0057051D02*
X0067900Y0057051D01*
X0067900Y0058049D02*
X0066100Y0058049D01*
X0066100Y0059048D02*
X0067900Y0059048D01*
X0068365Y0060046D02*
X0065635Y0060046D01*
X0064636Y0061045D02*
X0069364Y0061045D01*
X0074636Y0061045D02*
X0079364Y0061045D01*
X0078365Y0060046D02*
X0075635Y0060046D01*
X0076100Y0059048D02*
X0077900Y0059048D01*
X0077900Y0058049D02*
X0076100Y0058049D01*
X0076100Y0057051D02*
X0077900Y0057051D01*
X0078032Y0056052D02*
X0075968Y0056052D01*
X0074969Y0055054D02*
X0079031Y0055054D01*
X0080029Y0054055D02*
X0073971Y0054055D01*
X0042000Y0057883D02*
X0037000Y0052883D01*
X0034700Y0053057D02*
X0002750Y0053057D01*
X0002750Y0052058D02*
X0004538Y0052058D01*
X0003389Y0051060D02*
X0002750Y0051060D01*
X0002750Y0054055D02*
X0004039Y0054055D01*
X0003041Y0055054D02*
X0002750Y0055054D01*
X0009961Y0054055D02*
X0020029Y0054055D01*
X0020302Y0053783D02*
X0023698Y0053783D01*
X0026100Y0056184D01*
X0026100Y0059581D01*
X0023698Y0061983D01*
X0020302Y0061983D01*
X0017900Y0059581D01*
X0017900Y0056184D01*
X0020302Y0053783D01*
X0019031Y0055054D02*
X0010959Y0055054D01*
X0011437Y0056052D02*
X0018032Y0056052D01*
X0017900Y0057051D02*
X0011800Y0057051D01*
X0011800Y0058049D02*
X0017900Y0058049D01*
X0017900Y0059048D02*
X0011713Y0059048D01*
X0011299Y0060046D02*
X0018365Y0060046D01*
X0019364Y0061045D02*
X0010626Y0061045D01*
X0009498Y0062043D02*
X0029466Y0062043D01*
X0030302Y0061983D02*
X0027900Y0059581D01*
X0027900Y0056184D01*
X0030302Y0053783D01*
X0033698Y0053783D01*
X0036100Y0056184D01*
X0036100Y0059581D01*
X0033698Y0061983D01*
X0030302Y0061983D01*
X0029364Y0061045D02*
X0024636Y0061045D01*
X0025635Y0060046D02*
X0028365Y0060046D01*
X0027900Y0059048D02*
X0026100Y0059048D01*
X0026100Y0058049D02*
X0027900Y0058049D01*
X0027900Y0057051D02*
X0026100Y0057051D01*
X0025968Y0056052D02*
X0028032Y0056052D01*
X0029031Y0055054D02*
X0024969Y0055054D01*
X0023971Y0054055D02*
X0030029Y0054055D01*
X0033971Y0054055D02*
X0034920Y0054055D01*
X0034969Y0055054D02*
X0035918Y0055054D01*
X0035968Y0056052D02*
X0037907Y0056052D01*
X0037900Y0057051D02*
X0036100Y0057051D01*
X0036100Y0058049D02*
X0037900Y0058049D01*
X0037900Y0059048D02*
X0036100Y0059048D01*
X0035635Y0060046D02*
X0038365Y0060046D01*
X0039364Y0061045D02*
X0034636Y0061045D01*
X0034700Y0052058D02*
X0009462Y0052058D01*
D18*
X0021500Y0049133D03*
X0026750Y0041383D03*
X0026750Y0037383D03*
X0014250Y0034633D03*
X0015250Y0030633D03*
X0018000Y0027883D03*
X0020750Y0025133D03*
X0018250Y0016383D03*
X0048000Y0025133D03*
X0060500Y0031383D03*
X0067000Y0037883D03*
X0073500Y0031383D03*
X0081750Y0030133D03*
X0088250Y0032633D03*
X0084000Y0036883D03*
X0079250Y0040883D03*
X0073250Y0046883D03*
X0058750Y0045383D03*
X0054250Y0051133D03*
X0043500Y0051133D03*
X0037000Y0052883D03*
X0042750Y0035133D03*
X0067000Y0025133D03*
X0074500Y0016633D03*
X0078000Y0014883D03*
X0085500Y0019383D03*
X0105000Y0023633D03*
X0110250Y0026883D03*
X0120000Y0025633D03*
X0120000Y0035633D03*
X0104750Y0042133D03*
X0101750Y0037383D03*
X0101500Y0049133D03*
X0092000Y0051133D03*
X0089500Y0049133D03*
X0120000Y0015633D03*
X0120000Y0005633D03*
D19*
X0105250Y0023633D02*
X0105000Y0023633D01*
D20*
X0119750Y0004883D02*
X0119750Y0060633D01*
D21*
X0112000Y0057883D02*
X0104750Y0050633D01*
X0104750Y0042133D01*
X0088250Y0032633D02*
X0084000Y0036883D01*
X0079500Y0041133D01*
X0079250Y0040883D01*
X0068250Y0040883D01*
X0063750Y0045133D01*
X0058750Y0045383D01*
X0054250Y0041383D01*
X0026750Y0041383D01*
M02*
